<svg width="82" height="185" fill="none" xmlns="http://www.w3.org/2000/svg"><path d="M1.844.54a1.5 1.5 0 10-.688 2.92L1.844.54zM0 180l16.832 4.083-4.88-16.619L0 180zm.91 1.296a1.5 1.5 0 10-.85-2.877l.85 2.877zm7.537-5.599a1.5 1.5 0 101.004 2.827l-1.004-2.827zm1.923 2.497a1.5 1.5 0 10-1.022-2.82l1.022 2.82zm7.175-6.067a1.5 1.5 0 001.189 2.755l-1.19-2.755zm2.086 2.364a1.5 1.5 0 00-1.207-2.747l1.207 2.747zm6.727-6.545a1.5 1.5 0 101.385 2.661l-1.385-2.661zm2.253 2.205a1.5 1.5 0 00-1.405-2.651l1.405 2.651zm6.202-7.034a1.5 1.5 0 101.592 2.543l-1.592-2.543zm2.42 2.019a1.5 1.5 0 10-1.612-2.53l1.612 2.53zm5.59-7.523a1.5 1.5 0 001.806 2.396l-1.807-2.396zm2.611 1.782a1.5 1.5 0 10-1.828-2.379l1.828 2.379zm4.882-8.002a1.5 1.5 0 002.025 2.214l-2.025-2.214zm2.768 1.527a1.5 1.5 0 10-2.046-2.193l2.046 2.193zm4.067-8.442a1.5 1.5 0 002.24 1.996l-2.24-1.996zm2.905 1.241a1.5 1.5 0 10-2.261-1.972l2.26 1.972zm3.147-8.82a1.5 1.5 0 102.444 1.74l-2.444-1.74zm3.019.923a1.5 1.5 0 00-2.463-1.713l2.463 1.713zm2.136-9.111a1.5 1.5 0 002.626 1.449l-2.626-1.449zm3.103.572a1.5 1.5 0 00-2.644-1.418l2.644 1.418zm1.062-9.317a1.5 1.5 0 002.781 1.125l-2.781-1.125zm3.154.188a1.5 1.5 0 10-2.795-1.091l2.794 1.091zm-.079-9.367a1.5 1.5 0 002.898.776l-2.898-.776zm3.151-.195a1.5 1.5 0 10-2.907-.74l2.907.74zm-1.232-9.282a1.5 1.5 0 002.972.413l-2.972-.413zm3.104-.586a1.5 1.5 0 00-2.976-.375l2.976.375zm-2.371-9.065a1.5 1.5 0 003 .042l-3-.042zm3.007-.964a1.5 1.5 0 00-3-.004l3 .004zm-3.47-8.702a1.5 1.5 0 002.982-.327l-2.982.327zm2.866-1.326a1.5 1.5 0 00-2.978.364l2.978-.364zm-4.502-8.215a1.5 1.5 0 102.92-.684l-2.92.684zm2.686-1.66a1.5 1.5 0 10-2.913.72l2.913-.72zm-5.451-7.62a1.5 1.5 0 102.82-1.024l-2.82 1.025zm2.47-1.967a1.5 1.5 0 10-2.807 1.058l2.807-1.058zm-6.306-6.937a1.5 1.5 0 102.683-1.343l-2.683 1.343zm2.228-2.238a1.5 1.5 0 10-2.667 1.374l2.667-1.374zm-7.049-6.164a1.5 1.5 0 002.515-1.636l-2.515 1.636zm1.964-2.473a1.5 1.5 0 00-2.496 1.664l2.496-1.664zm-7.69-5.352a1.5 1.5 0 102.32-1.9l-2.32 1.9zm1.678-2.676a1.5 1.5 0 00-2.3 1.926l2.3-1.926zm-8.226-4.502a1.5 1.5 0 102.107-2.136l-2.107 2.136zm1.388-2.838a1.5 1.5 0 10-2.085 2.157l2.085-2.157zm-8.636-3.616a1.5 1.5 0 001.88-2.338l-1.88 2.338zm1.1-2.958a1.5 1.5 0 00-1.856 2.357l1.856-2.357zm-8.956-2.744a1.5 1.5 0 101.642-2.51l-1.642 2.51zm.802-3.054a1.5 1.5 0 10-1.618 2.526l1.618-2.526zm-9.18-1.88a1.5 1.5 0 101.402-2.653l-1.402 2.652zm.511-3.119a1.5 1.5 0 10-1.377 2.665l1.377-2.665zM20.17 9.611a1.5 1.5 0 101.161-2.766L20.17 9.611zm.23-3.153a1.5 1.5 0 10-1.139 2.776L20.4 6.458zm-9.37-.24a1.5 1.5 0 10.927-2.853l-.927 2.853zm-.038-3.162a1.5 1.5 0 00-.904 2.86l.904-2.86zm-9.354.519a1.5 1.5 0 00.7-2.917l-.7 2.917zm7.813 174.949c.308-.11.614-.219.919-.33l-1.022-2.82-.901.323 1.004 2.827zm9.283-3.642c.3-.13.599-.26.897-.391l-1.207-2.747c-.292.129-.585.256-.88.383l1.19 2.755zm9.009-4.275c.29-.151.58-.303.868-.456l-1.405-2.651c-.282.149-.564.298-.848.446l1.385 2.661zm8.662-4.947c.277-.174.553-.349.828-.524l-1.612-2.53c-.268.171-.537.341-.808.511l1.592 2.543zm8.224-5.651c.27-.204.538-.409.806-.614l-1.829-2.379c-.26.2-.52.399-.784.597l1.806 2.396zm7.712-6.402c.25-.228.497-.457.743-.687l-2.046-2.193c-.24.223-.48.445-.722.666l2.025 2.214zm7.05-7.133c.223-.251.445-.503.665-.755l-2.261-1.972a88.54 88.54 0 01-.644.731l2.24 1.996zm6.256-7.835c.193-.271.385-.544.575-.817l-2.463-1.713c-.184.264-.37.527-.556.79l2.444 1.74zm5.337-8.479c.161-.292.32-.584.477-.877l-2.644-1.418c-.151.283-.304.565-.46.846l2.627 1.449zm4.32-9.069c.126-.312.25-.625.373-.937l-2.795-1.091c-.118.301-.237.602-.359.903l2.781 1.125zm3.192-9.528c.086-.323.171-.647.254-.971l-2.908-.74c-.08.312-.16.623-.244.935l2.898.776zm1.993-9.84c.046-.333.09-.666.132-.999l-2.976-.375c-.04.321-.083.641-.128.961l2.972.413zm.76-10.022c.005-.336.007-.67.008-1.006l-3-.004c0 .323-.003.646-.008.968l3 .042zm-.48-10.035a83.875 83.875 0 00-.116-.999l-2.978.364c.04.32.076.641.112.962l2.982-.327zm-1.698-9.898a81.443 81.443 0 00-.234-.976l-2.913.72c.078.313.153.626.227.94l2.92-.684zm-2.866-9.62a66.92 66.92 0 00-.349-.943l-2.807 1.058c.114.303.226.606.337.91l2.82-1.025zm-3.972-9.223c-.15-.3-.302-.597-.455-.895l-2.667 1.374c.148.288.295.576.44.864l2.681-1.343zm-4.99-8.695c-.181-.28-.365-.559-.55-.837l-2.496 1.664c.179.269.356.538.532.809l2.515-1.636zm-5.92-8.09a90.794 90.794 0 00-.642-.775l-2.3 1.926c.209.25.416.5.621.75l2.321-1.9zm-6.76-7.413a97.398 97.398 0 00-.72-.702l-2.085 2.157c.234.226.466.453.697.68l2.107-2.135zm-7.477-6.657a99.92 99.92 0 00-.779-.62l-1.856 2.358c.254.199.506.4.756.601l1.88-2.338zm-8.093-5.873c-.279-.182-.558-.364-.84-.544l-1.618 2.526c.273.175.545.351.816.528l1.642-2.51zm-8.618-5.077c-.296-.156-.593-.312-.89-.466l-1.378 2.665c.29.15.579.301.866.453l1.402-2.652zm-9.044-4.275c-.31-.13-.62-.259-.932-.387l-1.138 2.776c.304.125.607.25.909.377l1.161-2.766zm-9.374-3.48c-.32-.104-.642-.207-.965-.309l-.904 2.86c.315.1.63.2.942.302l.927-2.853zM2.338.658L1.844.54l-.688 2.92.482.115.7-2.917z" fill="#DEDAEC"/></svg>