<svg width="148" height="50" fill="none" xmlns="http://www.w3.org/2000/svg"><path d="M148 13L136.162.356l-5.031 16.574L148 13zM1.22 47.567a1.5 1.5 0 00.542-2.95l-.542 2.95zm9.113-1.746a1.5 1.5 0 10-.286 2.986l.286-2.986zm.695 3.075a1.5 1.5 0 10.256-2.989l-.256 2.99zm8.837-2.67a1.5 1.5 0 10.038 3l-.038-3zm1.04 2.982a1.5 1.5 0 00-.073-2.999l.073 3zm8.476-3.661a1.5 1.5 0 00.392 2.974l-.392-2.974zm1.38 2.838a1.5 1.5 0 10-.429-2.97l.429 2.97zm7.994-4.657a1.5 1.5 0 10.747 2.906l-.747-2.906zm1.702 2.655a1.5 1.5 0 10-.78-2.897l.78 2.897zm7.408-5.552a1.5 1.5 0 001.062 2.806l-1.062-2.806zm1.984 2.452a1.5 1.5 0 00-1.09-2.795l1.09 2.795zm6.818-6.264a1.5 1.5 0 101.308 2.7l-1.308-2.7zm2.195 2.266a1.5 1.5 0 10-1.329-2.69l1.329 2.69zm6.336-6.755a1.5 1.5 0 001.47 2.615l-1.47-2.615zm2.325 2.133a1.5 1.5 0 10-1.482-2.61l1.482 2.61zm6.041-7.023a1.5 1.5 0 101.543 2.573l-1.543-2.573zm2.379 2.07a1.5 1.5 0 10-1.545-2.57l1.545 2.57zm5.985-7.071a1.5 1.5 0 101.52 2.586l-1.52-2.586zm2.356 2.096a1.5 1.5 0 00-1.513-2.59l1.513 2.59zm6.194-6.89a1.5 1.5 0 001.395 2.657l-1.395-2.656zm2.248 2.212a1.5 1.5 0 10-1.377-2.665l1.377 2.665zm6.66-6.436a1.5 1.5 0 001.155 2.769l-1.155-2.77zm2.039 2.405a1.5 1.5 0 10-1.124-2.781l1.124 2.781zm7.323-5.663a1.5 1.5 0 10.797 2.893l-.797-2.893zm1.713 2.647a1.5 1.5 0 00-.756-2.903l.756 2.903zm8.039-4.571a1.5 1.5 0 10.354 2.979l-.354-2.98zm1.295 2.874a1.5 1.5 0 10-.308-2.984l.308 2.984zm8.641-3.277a1.5 1.5 0 10-.108 2.998l.108-2.998zm.839 3.039a1.5 1.5 0 10.152-2.996l-.152 2.996zm9.036-1.973a1.5 1.5 0 00-.524 2.954l.524-2.954zm.404 3.124a1.5 1.5 0 10.561-2.947l-.561 2.947zm9.237-.808a1.5 1.5 0 10-.863 2.873l.863-2.873zM.722 47.474l.498.093.542-2.95-.484-.091-.556 2.948zm9.325 1.333c.328.032.655.061.981.09l.256-2.99a93.273 93.273 0 01-.95-.086l-.287 2.986zm9.856.42c.335-.005.67-.01 1.002-.019l-.073-2.999c-.32.008-.643.014-.967.018l.038 3zm9.87-.706c.33-.044.66-.089.988-.136l-.429-2.97a74.8 74.8 0 01-.95.132l.391 2.974zm9.729-1.887c.32-.082.638-.166.955-.251l-.78-2.897a82.68 82.68 0 01-.922.242l.747 2.906zm9.425-2.997c.308-.117.616-.235.922-.354l-1.09-2.795c-.297.115-.595.23-.894.343l1.062 2.806zm9.048-3.918c.297-.144.592-.288.887-.434l-1.329-2.69c-.288.143-.576.284-.866.425l1.308 2.7zm8.693-4.574c.286-.16.57-.321.855-.483l-1.482-2.608c-.28.16-.561.318-.843.476l1.47 2.615zm8.439-4.932l.836-.502-1.545-2.572-.834.5 1.543 2.574zm8.341-4.988l.836-.49-1.513-2.59-.843.494 1.52 2.586zm8.425-4.724c.284-.149.568-.297.853-.444l-1.377-2.665c-.291.15-.582.301-.871.454l1.395 2.655zm8.668-4.111a88.7 88.7 0 01.884-.364l-1.124-2.781c-.306.124-.61.249-.915.376l1.155 2.769zm9.004-3.135c.305-.083.61-.165.916-.245l-.756-2.903c-.32.083-.639.169-.957.256l.797 2.893zm9.309-1.837c.312-.037.626-.072.941-.105l-.308-2.984c-.33.034-.659.07-.987.11l.354 2.979zm9.474-.384c.314.011.63.025.947.041l.152-2.996a66.55 66.55 0 00-.991-.043l-.108 2.998zm9.459 1.022c.308.054.617.111.928.17l.561-2.947a76.73 76.73 0 00-.965-.177l-.524 2.954z" fill="#DEDAEC"/></svg>