<svg width="138" height="96" fill="none" xmlns="http://www.w3.org/2000/svg"><path d="M137 4L119.956.917l5.852 16.302L137 4zM1.248 93.571a1.5 1.5 0 00.539-2.951l-.539 2.951zm9.446-1.685a1.5 1.5 0 10-.292 2.986l.292-2.986zm.726 3.08a1.5 1.5 0 10.26-2.988l-.26 2.988zm9.115-2.711a1.5 1.5 0 10.091 2.998l-.091-2.998zm1.142 2.958a1.5 1.5 0 10-.14-2.997l.14 2.997zm8.583-4.096a1.5 1.5 0 00.632 2.933l-.632-2.933zm1.659 2.7a1.5 1.5 0 10-.695-2.918l.695 2.918zm7.548-5.799a1.5 1.5 0 101.286 2.71l-1.286-2.71zm2.222 2.253a1.5 1.5 0 00-1.351-2.679l1.351 2.679zm5.996-7.417a1.5 1.5 0 001.87 2.346l-1.87-2.346zm2.674 1.692a1.5 1.5 0 10-1.917-2.308l1.917 2.308zm4.415-8.476a1.5 1.5 0 002.235 2l-2.235-2zm2.915 1.231a1.5 1.5 0 10-2.26-1.972l2.26 1.972zm3.323-8.972a1.5 1.5 0 002.409 1.788l-2.409-1.788zm3.017.963a1.5 1.5 0 00-2.418-1.775l2.419 1.775zm2.813-9.144a1.5 1.5 0 102.461 1.715l-2.461-1.715zm3.037.89a1.5 1.5 0 10-2.462-1.715l2.462 1.715zm2.777-9.16a1.5 1.5 0 002.436 1.75l-2.436-1.75zm3.017.945a1.5 1.5 0 00-2.43-1.759l2.43 1.759zm3.079-9.063a1.5 1.5 0 002.352 1.862l-2.352-1.862zm2.969 1.087a1.5 1.5 0 00-2.341-1.875l2.341 1.875zm3.604-8.855a1.5 1.5 0 102.22 2.018l-2.22-2.018zm2.897 1.279a1.5 1.5 0 10-2.203-2.036l2.203 2.036zm4.257-8.537a1.5 1.5 0 002.047 2.193l-2.047-2.193zm2.783 1.512a1.5 1.5 0 00-2.028-2.21l2.028 2.21zm4.98-8.143a1.5 1.5 0 101.846 2.365l-1.846-2.365zm2.629 1.76a1.5 1.5 0 00-1.825-2.382l1.825 2.381zm5.702-7.687a1.5 1.5 0 001.631 2.519l-1.631-2.519zm2.48 1.974a1.5 1.5 0 00-1.608-2.532l1.608 2.532zm6.294-7.141a1.5 1.5 0 101.415 2.645l-1.415-2.646zm2.29 2.181a1.5 1.5 0 10-1.394-2.656l1.394 2.656zm6.876-6.636a1.5 1.5 0 101.209 2.745l-1.209-2.745zm2.136 2.341a1.5 1.5 0 00-1.189-2.754l1.189 2.754zm7.354-6.13a1.5 1.5 0 001.018 2.821l-1.018-2.822zM.725 93.474l.523.096.539-2.951-.512-.095-.55 2.95zm9.677 1.397c.341.034.68.065 1.018.094l.26-2.988a91.759 91.759 0 01-.986-.092l-.292 2.986zm10.224.381c.353-.01.703-.024 1.05-.04l-.139-2.997c-.331.016-.665.028-1.002.039l.091 2.998zm10.266-1.203c.345-.074.687-.152 1.027-.233l-.695-2.918c-.318.076-.64.149-.964.218l.632 2.933zm9.861-3.321c.315-.15.627-.302.936-.458l-1.351-2.679c-.288.145-.578.287-.87.426l1.285 2.71zm8.801-5.529c.27-.215.539-.433.805-.654l-1.917-2.308c-.25.208-.503.413-.757.616l1.87 2.346zm7.455-7.13c.228-.254.454-.51.68-.769l-2.26-1.972c-.218.249-.436.496-.655.74l2.235 2.002zm6.412-7.953c.203-.274.406-.549.608-.825l-2.418-1.775-.599.812 2.409 1.788zm5.882-8.254l.576-.825-2.462-1.715-.575.825 2.461 1.715zm5.79-8.235l.58-.805-2.43-1.759-.587.814 2.436 1.75zm6.011-8.006l.617-.775-2.341-1.875c-.21.263-.42.525-.628.788l2.352 1.862zm6.44-7.612l.678-.74-2.203-2.035c-.233.252-.464.505-.694.757l2.22 2.018zm6.982-7.082c.243-.228.489-.455.736-.682l-2.028-2.21c-.253.232-.505.465-.755.698l2.047 2.193zm7.562-6.46c.259-.202.52-.404.783-.606l-1.825-2.381c-.27.207-.538.414-.804.622l1.846 2.365zm8.116-5.773c.281-.182.564-.364.849-.545l-1.608-2.532a93.02 93.02 0 00-.872.558l1.631 2.519zm8.558-5.041c.29-.155.581-.31.875-.464l-1.394-2.656c-.301.157-.599.316-.896.474l1.415 2.646zm8.96-4.355c.307-.135.616-.27.927-.404L127.46 6.14c-.318.137-.633.274-.947.413l1.209 2.745z" fill="#DEDAEC"/></svg>