<svg width="85" height="218" fill="none" xmlns="http://www.w3.org/2000/svg"><path d="M83.938 3.435a1.5 1.5 0 10-.876-2.87l.876 2.87zM79 214l-11.858-12.625-5.004 16.582L79 214zm-.052-1.582a1.5 1.5 0 10-.874 2.869l.874-2.869zm-9.622-.27a1.5 1.5 0 001.149-2.771l-1.149 2.771zm.225-3.16a1.5 1.5 0 10-1.178 2.759l1.178-2.759zm-9.537-1.289a1.5 1.5 0 001.433-2.636l-1.433 2.636zm.556-3.119a1.5 1.5 0 00-1.46 2.621l1.46-2.621zm-9.353-2.262a1.5 1.5 0 001.692-2.478l-1.692 2.478zm.867-3.047a1.5 1.5 0 00-1.716 2.461l1.716-2.461zM43 196.097a1.5 1.5 0 001.924-2.303L43 196.097zm1.157-2.949a1.499 1.499 0 10-1.945 2.283l1.945-2.283zm-8.747-4.02a1.5 1.5 0 102.129-2.114l-2.129 2.114zm1.426-2.828a1.5 1.5 0 10-2.148 2.095l2.148-2.095zm-8.347-4.793a1.5 1.5 0 002.308-1.917l-2.308 1.917zm1.67-2.692a1.5 1.5 0 00-2.324 1.897l2.325-1.897zm-7.898-5.501a1.5 1.5 0 002.463-1.712l-2.463 1.712zm1.894-2.539a1.5 1.5 0 10-2.478 1.691l2.478-1.691zm-7.407-6.15a1.5 1.5 0 102.598-1.5l-2.598 1.5zm2.1-2.372a1.5 1.5 0 10-2.61 1.479l2.61-1.479zm-6.875-6.741a1.5 1.5 0 002.713-1.282l-2.713 1.282zm2.287-2.192a1.501 1.501 0 00-2.723 1.26l2.723-1.26zm-6.3-7.28a1.5 1.5 0 102.808-1.056L7.96 146.04zm2.458-1.998a1.5 1.5 0 10-2.816 1.034l2.816-1.034zm-5.684-7.77a1.5 1.5 0 002.885-.823l-2.885.823zm2.614-1.79a1.5 1.5 0 10-2.892.799l2.892-.799zm-5.022-8.214a1.5 1.5 0 102.943-.58l-2.943.58zm2.754-1.566a1.5 1.5 0 10-2.949.555l2.949-.555zm-4.31-8.608a1.5 1.5 0 002.983-.326l-2.983.326zm2.878-1.324a1.5 1.5 0 00-2.985.3l2.985-.3zm-3.543-8.951a1.5 1.5 0 103-.06l-3 .06zm2.984-1.062a1.5 1.5 0 10-3 .033l3-.033zm-2.72-9.235a1.5 1.5 0 102.993.216L.37 95.522zm3.07-.784a1.5 1.5 0 10-2.99-.244l2.99.245zm-1.84-9.448a1.5 1.5 0 102.958.501l-2.958-.501zm3.13-.485a1.5 1.5 0 00-2.953-.53l2.953.53zm-.905-9.581a1.5 1.5 0 102.893.793l-2.893-.793zm3.163-.171a1.5 1.5 0 10-2.885-.823l2.885.823zm.07-9.623a1.5 1.5 0 102.797 1.086L7.057 65.43zm3.165.154a1.5 1.5 0 10-2.785-1.116l2.785 1.116zm1.072-9.565a1.5 1.5 0 002.667 1.375l-2.667-1.375zm3.132.483a1.5 1.5 0 00-2.652-1.402l2.652 1.402zm2.078-9.4a1.5 1.5 0 002.506 1.649l-2.506-1.649zm3.06.816a1.5 1.5 0 00-2.489-1.675l2.49 1.675zm3.052-9.126a1.5 1.5 0 002.32 1.901l-2.32-1.9zm2.953 1.138a1.5 1.5 0 00-2.301-1.925l2.3 1.925zm3.974-8.763a1.5 1.5 0 102.116 2.126l-2.116-2.126zm2.823 1.43a1.5 1.5 0 00-2.095-2.148l2.095 2.147zm4.821-8.329a1.5 1.5 0 101.901 2.321l-1.9-2.32zm2.674 1.694a1.5 1.5 0 10-1.88-2.338l1.88 2.338zm5.58-7.842a1.5 1.5 0 101.682 2.484l-1.682-2.484zm2.51 1.93a1.5 1.5 0 00-1.662-2.499l1.661 2.498zm6.244-7.33a1.5 1.5 0 001.468 2.617l-1.468-2.616zm2.338 2.134a1.5 1.5 0 00-1.447-2.628l1.447 2.628zm6.822-6.808a1.5 1.5 0 101.261 2.722l-1.261-2.722zm2.163 2.308a1.5 1.5 0 00-1.241-2.731l1.24 2.731zm7.321-6.296a1.5 1.5 0 101.066 2.804L72.84 4.058zm1.99 2.457a1.5 1.5 0 10-1.048-2.811l1.048 2.81zM82.559.72a1.5 1.5 0 00.884 2.867L82.558.72zM70.474 209.377a98.953 98.953 0 01-.924-.389l-1.178 2.759c.317.135.634.269.953.401l1.149-2.771zm-9.027-4.314c-.294-.159-.586-.32-.878-.483l-1.46 2.621c.3.167.602.333.904.498l1.433-2.636zm-8.539-5.223c-.276-.188-.55-.378-.825-.569l-1.716 2.461c.282.197.565.392.85.586l1.691-2.478zm-7.986-6.046c-.257-.214-.513-.43-.767-.646l-1.945 2.283c.261.223.524.445.788.666l1.924-2.303zm-7.385-6.78c-.235-.237-.47-.475-.703-.714l-2.148 2.095c.24.245.48.49.722.733l2.129-2.114zm-6.742-7.424a93.119 93.119 0 01-.637-.775l-2.325 1.897c.217.266.435.531.654.795l2.308-1.917zm-6.072-7.988a151.87 151.87 0 01-.57-.827l-2.478 1.691c.194.283.388.566.584.848l2.463-1.712zm-5.379-8.477c-.167-.29-.334-.581-.499-.872l-2.61 1.479.511.893 2.598-1.5zm-4.66-8.895a107.14 107.14 0 01-.426-.91l-2.723 1.26c.145.311.29.622.437.932l2.712-1.282zm-3.918-9.246c-.118-.314-.235-.628-.35-.942L7.6 145.076c.118.322.237.643.358.964l2.808-1.056zm-3.149-9.535c-.092-.322-.182-.644-.271-.967l-2.892.799c.091.33.184.661.278.991l2.885-.823zm-2.35-9.761a114.75 114.75 0 01-.19-.986l-2.948.555.195 1.011 2.943-.58zm-1.516-9.92c-.037-.332-.071-.665-.105-.998l-2.985.3c.034.341.07.682.107 1.024l2.983-.326zm-.648-10.009a111.6 111.6 0 01-.016-1.002l-3 .033c.004.343.01.686.016 1.029l3-.06zm.257-10.021c.024-.333.05-.666.077-1l-2.99-.244c-.028.343-.055.685-.08 1.028l2.993.216zm1.196-9.947c.056-.329.113-.657.172-.986l-2.953-.53c-.06.338-.12.676-.177 1.015l2.958.501zm2.16-9.774c.088-.322.178-.643.27-.964l-2.885-.823c-.095.33-.187.662-.278.994l2.893.793zm3.137-9.5c.12-.312.243-.623.368-.933l-2.785-1.116c-.129.32-.255.64-.38.962l2.797 1.086zm4.107-9.123c.153-.298.308-.595.465-.892L11.774 55.1c-.162.306-.322.612-.48.92l2.667 1.373zm5.05-8.643c.182-.279.367-.556.553-.833l-2.489-1.675c-.192.286-.383.572-.571.86l2.506 1.648zm5.926-8.057c.209-.256.42-.51.632-.764l-2.301-1.925c-.22.262-.436.524-.652.787l2.32 1.901zm6.722-7.4c.234-.234.47-.466.707-.698l-2.095-2.147c-.244.238-.487.478-.728.718l2.116 2.126zm7.43-6.705c.255-.21.513-.418.772-.627l-1.88-2.338c-.266.214-.53.429-.794.644l1.901 2.321zm8.034-5.985l.827-.555-1.66-2.498c-.285.189-.568.379-.85.57l1.683 2.483zm8.54-5.267c.289-.162.579-.323.87-.483l-1.447-2.628c-.298.164-.595.329-.89.495l1.467 2.616zm8.953-4.569c.3-.139.6-.277.902-.414l-1.241-2.731c-.309.14-.616.281-.922.423l1.261 2.722zm9.29-3.906c.306-.116.614-.232.923-.347L73.78 3.704c-.315.117-.63.235-.942.354l1.066 2.804zm9.537-3.275l.495-.152-.876-2.87-.504.155.885 2.867z" fill="#DEDAEC"/></svg>