<svg width="147" height="89" fill="none" xmlns="http://www.w3.org/2000/svg"><path d="M147 80l-14.977-8.7-.046 17.32L147 80zM1.411 3.531A1.5 1.5 0 101.618.538l-.207 2.993zm9.342-2.001a1.5 1.5 0 00-.445 2.966l.445-2.966zm.536 3.118a1.5 1.5 0 00.473-2.962l-.473 2.962zm9.427-1.121a1.5 1.5 0 10-.738 2.908l.738-2.908zm.221 3.157a1.5 1.5 0 10.77-2.9l-.77 2.9zm9.537-.105a1.5 1.5 0 10-1.053 2.809l1.053-2.81zm-.137 3.158a1.5 1.5 0 001.085-2.797l-1.085 2.797zm9.474.96a1.5 1.5 0 00-1.364 2.671l1.364-2.672zm-.487 3.126a1.5 1.5 0 001.394-2.657l-1.394 2.657zm9.301 1.998a1.5 1.5 0 10-1.643 2.51l1.643-2.51zm-.816 3.058a1.5 1.5 0 101.668-2.493l-1.668 2.493zm9.055 2.92a1.5 1.5 0 10-1.87 2.347l1.87-2.346zm-1.095 2.97a1.5 1.5 0 001.889-2.331l-1.889 2.331zm8.79 3.648a1.5 1.5 0 10-2.03 2.208l2.03-2.208zm-1.298 2.885a1.5 1.5 0 002.043-2.196l-2.043 2.196zm8.572 4.139a1.5 1.5 0 00-2.126 2.116l2.126-2.116zm-1.42 2.827a1.5 1.5 0 002.131-2.11l-2.132 2.11zm8.452 4.378a1.5 1.5 0 10-2.157 2.085l2.157-2.085zm-1.457 2.809a1.5 1.5 0 002.156-2.086l-2.156 2.086zm8.463 4.356a1.5 1.5 0 10-2.121 2.122l2.121-2.122zm-1.405 2.835a1.5 1.5 0 002.114-2.129l-2.114 2.129zm8.61 4.055a1.5 1.5 0 00-2.011 2.226l2.011-2.226zm-1.255 2.904a1.5 1.5 0 001.995-2.24l-1.996 2.24zm8.868 3.446a1.5 1.5 0 10-1.814 2.388l1.814-2.388zm-.999 3.001a1.5 1.5 0 101.79-2.407l-1.79 2.407zm9.173 2.516a1.5 1.5 0 10-1.524 2.583l1.524-2.583zm-.638 3.099a1.5 1.5 0 001.491-2.604l-1.491 2.604zm9.419 1.309a1.5 1.5 0 00-1.155 2.769l1.155-2.77zm-.201 3.158a1.5 1.5 0 101.114-2.785l-1.114 2.785zm9.506-.04a1.499 1.499 0 10-.748 2.905l.748-2.905zm.25 3.155a1.5 1.5 0 10.708-2.915l-.708 2.915zm9.421-1.35a1.5 1.5 0 00-.358 2.979l.358-2.979zm.651 3.094a1.5 1.5 0 10.322-2.983l-.322 2.983zm9.22-2.494a1.5 1.5 0 00-.016 3l.016-3zM.903 3.497l.508.034.207-2.993-.52-.035-.195 2.994zm9.405 1c.329.049.655.1.981.151l.473-2.962a107.07 107.07 0 00-1.01-.156l-.444 2.966zm9.67 1.938c.321.081.64.164.959.249l.77-2.9a95.535 95.535 0 00-.99-.257l-.74 2.908zm9.443 2.953c.307.115.612.231.916.35l1.085-2.798c-.315-.122-.63-.242-.948-.361l-1.053 2.809zm9.026 3.98c.294.15.586.302.877.455l1.394-2.657c-.301-.158-.603-.314-.907-.47l-1.364 2.672zm8.535 4.963c.277.182.552.364.827.548l1.668-2.493c-.282-.19-.566-.378-.852-.564l-1.643 2.51zm8.012 5.815c.26.207.518.415.775.623l1.889-2.331c-.264-.214-.529-.426-.794-.638l-1.87 2.346zm7.535 6.479l.732.677 2.043-2.196-.745-.69-2.03 2.209zm7.178 6.932l.705.711 2.132-2.11c-.236-.24-.474-.478-.711-.717l-2.126 2.116zm7.001 7.174l.7.724 2.156-2.086-.699-.723-2.157 2.085zm7.042 7.202l.716.713 2.114-2.129-.709-.706-2.121 2.122zm7.315 6.994c.251.227.503.453.755.678l1.996-2.24c-.247-.22-.494-.442-.74-.664l-2.011 2.226zm7.81 6.512c.27.206.542.41.815.613l1.79-2.407c-.264-.197-.528-.395-.791-.595l-1.814 2.39zm8.464 5.712c.294.174.589.346.886.516l1.491-2.604c-.286-.163-.57-.329-.853-.495l-1.524 2.583zm9.15 4.594c.316.131.634.261.954.39l1.114-2.786c-.306-.123-.61-.247-.913-.373l-1.155 2.769zm9.712 3.254c.331.086.663.169.998.25l.708-2.915a70.54 70.54 0 01-.958-.24L126.201 79zm10.061 1.879c.335.04.671.078 1.009.115l.322-2.983a79.338 79.338 0 01-.973-.11l-.358 2.978z" fill="#DEDAEC"/></svg>