<svg width="80" height="213" fill="none" xmlns="http://www.w3.org/2000/svg"><path d="M2.54.6a1.5 1.5 0 00-1.08 2.8L2.54.6zM2 210l17.108 2.703-6.214-16.168L2 210zm1.027 1.212a1.5 1.5 0 10-1.08-2.798l1.08 2.798zm7.314-6.306a1.5 1.5 0 101.234 2.734l-1.234-2.734zm2.15 2.317a1.5 1.5 0 10-1.25-2.726l1.25 2.726zm6.898-6.767a1.5 1.5 0 101.415 2.645l-1.415-2.645zm2.305 2.165a1.5 1.5 0 00-1.434-2.635l1.434 2.635zm6.39-7.232a1.5 1.5 0 101.607 2.533l-1.607-2.533zm2.46 1.987a1.5 1.5 0 10-1.625-2.521l1.626 2.521zm5.806-7.7a1.5 1.5 0 001.805 2.397l-1.805-2.397zm2.613 1.783a1.5 1.5 0 10-1.824-2.381l1.824 2.381zm5.135-8.157a1.5 1.5 0 002.006 2.231l-2.006-2.231zm2.759 1.548a1.5 1.5 0 10-2.026-2.212l2.026 2.212zm4.376-8.586a1.5 1.5 0 002.205 2.034l-2.205-2.034zm2.91 1.262a1.5 1.5 0 00-2.224-2.012l2.224 2.012zm3.528-8.968a1.5 1.5 0 102.395 1.806l-2.395-1.806zm3.017.973a1.5 1.5 0 00-2.413-1.782l2.413 1.782zm2.601-9.276a1.5 1.5 0 102.569 1.55l-2.569-1.55zm3.099.661a1.499 1.499 0 10-2.585-1.523l2.585 1.523zm1.617-9.494a1.5 1.5 0 002.718 1.271l-2.718-1.271zm3.15.335a1.5 1.5 0 10-2.731-1.242l2.73 1.242zm.601-9.611a1.5 1.5 0 102.837.975l-2.837-.975zm3.166 0a1.5 1.5 0 00-2.847-.945l2.847.945zm-.418-9.629a1.5 1.5 0 102.924.67l-2.924-.67zm3.15-.34a1.5 1.5 0 10-2.93-.639l2.93.639zm-1.424-9.53a1.5 1.5 0 102.978.364l-2.978-.364zm3.098-.663a1.5 1.5 0 10-2.982-.332l2.982.332zm-2.39-9.333a1.5 1.5 0 002.999.061l-3-.061zm3.015-.972a1.5 1.5 0 10-3-.031l3 .031zm-3.303-9.053a1.5 1.5 0 002.991-.231l-2.991.231zm2.906-1.26a1.5 1.5 0 00-2.988.261l2.989-.261zm-4.154-8.694a1.5 1.5 0 002.956-.512l-2.956.512zm2.775-1.527a1.5 1.5 0 10-2.95.54l2.95-.54zm-4.94-8.273a1.5 1.5 0 002.897-.78l-2.897.78zm2.624-1.775a1.5 1.5 0 10-2.89.806l2.89-.806zm-5.664-7.799a1.5 1.5 0 102.817-1.033l-2.817 1.033zm2.457-2a1.5 1.5 0 00-2.807 1.057l2.807-1.058zm-6.323-7.275a1.5 1.5 0 102.717-1.272l-2.717 1.273zm2.276-2.202a1.5 1.5 0 10-2.705 1.296l2.705-1.296zm-6.92-6.704a1.5 1.5 0 102.598-1.499l-2.599 1.499zm2.08-2.389a1.5 1.5 0 10-2.586 1.52l2.586-1.52zm-7.462-6.098a1.5 1.5 0 002.464-1.711l-2.464 1.712zm1.872-2.555a1.5 1.5 0 10-2.45 1.732l2.45-1.732zm-7.947-5.453a1.5 1.5 0 002.312-1.911l-2.312 1.91zm1.651-2.705a1.5 1.5 0 00-2.296 1.931l2.296-1.93zm-8.375-4.77a1.5 1.5 0 102.145-2.099l-2.145 2.098zm1.423-2.83a1.5 1.5 0 00-2.127 2.115l2.127-2.115zm-8.742-4.052a1.5 1.5 0 101.962-2.27l-1.962 2.27zm1.18-2.939a1.5 1.5 0 10-1.942 2.286l1.942-2.286zm-9.051-3.303a1.5 1.5 0 001.763-2.427l-1.763 2.427zm.927-3.03a1.5 1.5 0 00-1.742 2.443l1.742-2.442zm-9.299-2.526A1.5 1.5 0 1021.496 9.9l-1.552 2.568zm.666-3.098a1.5 1.5 0 10-1.53 2.581l1.53-2.58zm-9.481-1.727a1.5 1.5 0 001.327-2.691l-1.327 2.69zm.397-3.145A1.5 1.5 0 0010.222 7.2l1.304-2.702zM1.93 3.583A1.5 1.5 0 003.024.789L1.93 3.583zm9.644 204.057c.307-.138.612-.277.917-.417l-1.252-2.726c-.298.137-.598.273-.899.409l1.234 2.734zm9.23-4.539c.297-.159.594-.32.89-.48l-1.435-2.635-.871.47 1.415 2.645zm8.886-5.179c.286-.181.57-.363.854-.546l-1.626-2.521-.835.534 1.607 2.533zm8.464-5.849c.27-.204.54-.409.808-.614l-1.824-2.381c-.262.2-.524.399-.789.598l1.805 2.397zm7.95-6.54c.252-.227.502-.454.752-.683l-2.026-2.212c-.243.222-.487.443-.733.664l2.006 2.231zm7.333-7.235c.237-.257.472-.514.705-.772l-2.224-2.012c-.227.25-.456.501-.686.75l2.205 2.034zm6.628-7.934c.21-.277.417-.555.622-.833l-2.413-1.782c-.2.27-.4.54-.604.809l2.395 1.806zm5.792-8.559c.178-.295.355-.592.53-.889l-2.585-1.523c-.17.288-.34.575-.514.862l2.569 1.55zm4.865-9.112c.145-.311.29-.623.431-.936l-2.73-1.242c-.138.303-.278.605-.419.907l2.718 1.271zm3.87-9.572c.112-.325.221-.65.33-.975l-2.848-.945c-.104.315-.21.63-.319.945l2.837.975zm2.835-9.934c.078-.336.153-.673.226-1.01l-2.93-.639c-.072.326-.145.653-.22.979l2.924.67zm1.78-10.176c.042-.342.082-.684.12-1.027l-2.982-.332c-.037.332-.076.664-.116.995l2.978.364zm.729-10.299a118 118 0 00.016-1.033l-3-.031c-.003.334-.009.668-.015 1.003l2.999.061zm-.296-10.317a89.142 89.142 0 00-.085-1.029l-2.988.261c.029.333.056.666.082.999l2.991-.231zM78.358 92.16c-.059-.338-.119-.677-.18-1.015l-2.952.54c.06.329.12.658.176.987l2.956-.512zm-2.225-10.068c-.089-.332-.18-.664-.272-.995l-2.89.806c.09.322.178.645.266.969l2.897-.78zm-3.12-9.827c-.118-.323-.238-.645-.359-.968l-2.807 1.058c.118.314.235.629.35.943l2.817-1.033zm-3.965-9.514l-.44-.93-2.706 1.296c.144.302.287.604.429.907l2.717-1.273zm-4.763-9.133a121.85 121.85 0 00-.518-.89l-2.586 1.52c.17.29.338.579.505.869l2.6-1.499zM58.77 44.92a98.284 98.284 0 00-.592-.844l-2.45 1.732c.194.274.387.548.578.823l2.464-1.711zm-6.227-8.208c-.219-.266-.44-.53-.66-.794l-2.297 1.931c.216.257.431.515.645.774l2.312-1.911zm-6.891-7.663c-.24-.244-.48-.488-.722-.731l-2.127 2.115c.236.237.47.475.704.714l2.145-2.098zm-7.502-7.053c-.26-.224-.52-.447-.782-.669l-1.942 2.286c.255.217.51.435.762.653l1.962-2.27zm-8.07-6.4c-.277-.2-.556-.402-.836-.601l-1.742 2.442c.272.194.544.39.815.587l1.763-2.427zM21.495 9.9l-.885-.53-1.53 2.581c.29.171.577.344.864.517L21.496 9.9zm-9.04-4.948c-.308-.152-.618-.304-.93-.454L10.223 7.2c.303.146.605.294.907.443l1.327-2.691zM3.025.79L2.54.6 1.46 3.399l.47.184L3.025.789z" fill="#DEDAEC"/></svg>