<svg width="192" height="201" fill="none" xmlns="http://www.w3.org/2000/svg"><path opacity=".5" d="M151.471 1.002a1.5 1.5 0 10.027 3l-.027-3zm-8.883 3.78a1.5 1.5 0 00-.495-2.96l.495 2.96zm-1.525-2.778a1.5 1.5 0 00.547 2.95l-.547-2.95zm-8.095 5.248a1.5 1.5 0 10-.985-2.834l.985 2.834zm-1.966-2.484a1.5 1.5 0 101.031 2.817l-1.031-2.817zm-7.156 6.474a1.5 1.5 0 10-1.403-2.651l1.403 2.652zm-2.323-2.156a1.5 1.5 0 001.44 2.631l-1.44-2.631zm-6.186 7.417a1.5 1.5 0 00-1.736-2.446l1.736 2.446zm-2.574-1.845a1.5 1.5 0 001.764 2.427l-1.764-2.427zm-5.264 8.096a1.5 1.5 0 00-1.992-2.243l1.992 2.243zm-2.766-1.549a1.5 1.5 0 002.014 2.224l-2.014-2.224zm-4.449 8.587a1.5 1.5 0 10-2.188-2.053l2.188 2.053zm-2.885-1.304a1.5 1.5 0 002.204 2.035L97.4 28.488zm-3.715 8.91a1.5 1.5 0 10-2.337-1.88l2.337 1.88zm-2.98-1.076a1.5 1.5 0 102.35 1.865l-2.35-1.865zM87.61 45.48a1.5 1.5 0 10-2.454-1.726l2.454 1.726zm-3.048-.877a1.5 1.5 0 102.464 1.712l-2.464-1.712zm-2.541 9.322a1.5 1.5 0 10-2.546-1.587l2.546 1.587zm-3.084-.718a1.5 1.5 0 002.554 1.574l-2.554-1.574zm-2.055 9.437a1.5 1.5 0 00-2.62-1.461l2.62 1.461zm-3.118-.564a1.5 1.5 0 102.627 1.45l-2.627-1.45zm-1.625 9.525a1.5 1.5 0 10-2.68-1.346l2.68 1.346zM69 71.178a1.5 1.5 0 102.686 1.336L69 71.178zm-1.234 9.585a1.5 1.5 0 10-2.731-1.24l2.731 1.24zm-3.155-.304a1.5 1.5 0 002.737 1.23l-2.737-1.23zm-.873 9.62a1.5 1.5 0 00-2.774-1.141l2.774 1.141zm-3.163-.192a1.5 1.5 0 002.778 1.132l-2.778-1.132zm-.54 9.647a1.5 1.5 0 00-2.812-1.048l2.811 1.048zm-3.168-.086a1.5 1.5 0 002.814 1.038l-2.814-1.038zm-.225 9.66a1.5 1.5 0 00-2.843-.957l2.843.957zm-3.168.015a1.5 1.5 0 102.846.947l-2.846-.947zm.08 9.659a1.5 1.5 0 10-2.871-.868l2.872.868zm-3.165.109a1.5 1.5 0 102.875.859l-2.875-.859zm.38 9.654a1.5 1.5 0 10-2.897-.778l2.897.778zm-3.163.218a1.5 1.5 0 002.9.77l-2.9-.77zm.679 9.644a1.5 1.5 0 00-2.92-.687l2.92.687zm-3.154.313a1.5 1.5 0 002.923.677l-2.923-.677zm.993 9.606a1.5 1.5 0 00-2.942-.59l2.942.59zm-3.14.408a1.5 1.5 0 102.944.579l-2.944-.579zm1.324 9.567a1.5 1.5 0 00-2.961-.483l2.96.483zm-3.127.542a1.5 1.5 0 102.963.472l-2.962-.472zm1.691 9.519a1.5 1.5 0 00-2.978-.361l2.978.361zm-3.098.651a1.5 1.5 0 002.98.348l-2.98-.348zm2.123 9.416a1.5 1.5 0 10-2.992-.211l2.992.211zm-3.063.83a1.5 1.5 0 102.994.194l-2.994-.194zm2.668 9.253a1.5 1.5 0 00-3-.012l3 .012zM152 1c-.176 0-.353 0-.529.002l.027 3L152 4V1zm-9.907.823c-.344.057-.687.118-1.03.181l.547 2.95c.325-.06.651-.118.978-.172l-.495-2.96zm-10.11 2.595c-.328.114-.655.23-.981.35l1.031 2.817c.311-.113.623-.225.935-.333l-.985-2.834zm-9.54 4.173c-.307.162-.614.327-.92.495l1.44 2.631c.294-.16.588-.319.883-.475l-1.403-2.651zm-8.842 5.466c-.28.198-.56.399-.838.601l1.764 2.427c.27-.196.539-.39.81-.582l-1.736-2.446zm-8.094 6.454c-.259.23-.517.461-.774.694l2.014 2.224c.25-.227.5-.452.752-.675l-1.992-2.243zm-7.41 7.228a99.59 99.59 0 00-.698.749l2.204 2.035c.227-.245.453-.489.681-.731l-2.188-2.053zm-6.75 7.778c-.215.267-.43.536-.643.805l2.35 1.865.63-.789-2.337-1.88zm-6.191 8.237c-.199.282-.396.565-.594.85l2.464 1.71c.194-.279.389-.557.584-.834l-2.454-1.726zm-5.68 8.584l-.54.87 2.555 1.573.53-.856-2.546-1.587zm-5.214 8.845c-.167.298-.332.598-.498.897l2.627 1.45.49-.886-2.62-1.461zm-4.803 9.076l-.46.92 2.686 1.335.454-.909-2.68-1.346zm-4.425 9.263l-.424.937 2.737 1.23.418-.926-2.731-1.24zm-4.071 9.416l-.389.949 2.778 1.132.385-.94-2.774-1.141zm-3.74 9.548c-.12.32-.239.641-.357.962l2.814 1.038.353-.952-2.81-1.048zm-3.425 9.665c-.11.324-.218.648-.325.972l2.846.947.322-.962-2.843-.957zm-3.116 9.763l-.294.977 2.875.859.29-.968-2.871-.868zm-2.811 9.853c-.09.332-.178.664-.266.996l2.9.77c.087-.329.174-.659.263-.988l-2.897-.778zm-2.508 9.953l-.233 1 2.923.677.23-.99-2.92-.687zm-2.182 10.016l-.198.998 2.944.579.196-.987-2.942-.59zm-1.835 10.082l-.165 1.025 2.962.472c.054-.337.108-.675.164-1.014l-2.961-.483zm-1.453 10.183l-.12 1.012 2.98.348c.038-.332.078-.665.118-.999l-2.978-.361zm-.99 10.217l-.07 1.041 2.994.194c.022-.339.045-.681.07-1.024l-2.993-.211zm-.402 10.282v.5h3v-.488l-3-.012z" fill="#FFDD59"/><circle cx="40" cy="194" r="7" fill="#FFDD59"/></svg>