<svg width="1728" height="575" fill="none" xmlns="http://www.w3.org/2000/svg"><path d="M1728 469.902v92.753l-2.5-.231-3.02.231c-6.54 1.54-14.48 3.345-31.48 3.917-4.04.136-19.16.351-22.57 0-5.44-.562-6.93-2.072-6.43-6.572 7.93-33-3-15.5-22.5-13.5-9 1-16.5 3-34 5-16.39 1.874-41.48 2.236-50 2-27.06-2.41-39.5-11-34.48 8.94 0 8.321-22.02 4.05-42.02 7.06-22 5.49-19.7 4.609-35.52 5.495-18.48 0-49.98-23.646-77.98-23.646-28 0-69.3 11.207-93.96 11.819-33.54.832-47.02-7.045-50.94-7.045-3.76 0-35.6 21.181-71.6-18.601-17.5-4.132-30 11.782-56.04 8.611-26.04-3.17-14.96-12.599-48.46-8.142-15 4.223-66.772 11.341-66.511 12.275.424 1.513-.138 1.711-5.157 1.817-13.296.28-24.276-.118-29.861-1.082-18.471-5.503-54.971-12.071-58.576-3.892.206 1.675-.601 2.274-5.035 3.738-4.283 1.414-8.591 1.808-22.827 2.088-57.033-5.826-119.464-4.732-123.83-3.631C678 556 664.278 549.45 637.5 543.5c-23.171-5.148-50.718-10.072-76-11-39-1.431-47-4-60.5-4-30 0-44 3-74-2.5 0-.711-26-2.5-42.5-2.5-19.5 0-41.5 3.5-70 5.5-26.5 4-48.22 8.284-66.5 10.5-16.5 2-43.654 4.979-73 1-29.346-3.979-44.187-11.693-56.5-17-9.687-4.175-24-16.555-26.5-25-15-15.929-58 1.5-77.428-10.042-1.512-1.41-11.922-.585-14.572.743V135h1728v334.902z" fill="url(#paint0_linear_210_76)"/><path d="M0 62.59v94.372L46 162l59 3c10.578-.708 14.021.373 15.5-8.5.273-3.456-1.509-8.848-2.962-13.245-1.231-3.724-2.226-6.736-1.538-7.255 1.5-1.132 45.112-3.148 115.5 1.5 9.31.887 17.181 5.324 24.437 9.415 9.112 5.136 17.256 9.727 26.063 6.056 4.495.196 16.024-5.145 25.022-9.313 4.555-2.11 8.461-3.919 10.478-4.558 6.172-1.955 35.5 1.4 61 10 17.13 5.777 92.642 12.085 93 3.871C477 128 552 142.435 552 142.85c4.5 8.15 33.5 12.15 74 8.15 35.842-4.988 93-1 108.5 5 12 3 13.5 4 11 22 6.286 4.024 16.901 3.441 25.358 2.977 2.447-.134 4.713-.259 6.642-.259 5.548.22 12.416.459 19.682.713 22.201.774 48.117 1.678 51.458 2.536 21.458 0 37.541-5.776 50.052-10.269 8.105-2.911 14.711-5.283 20.308-5.198 3.401 0 6.642-.058 9.681-.112 14.831-.265 24.819-.443 24.819 6.612-2.251 7.466 6.526 8.336 11.508 8.83.55.055 1.054.105 1.492.159 2.573.315 10.878-.38 20.496-1.186 11.717-.981 25.384-2.125 33.004-1.803 21.62.698 49.5 3.53 76.28 11.754 19.66 6.036 86.76-8.709 87.62-9.463.94-.825 24.03-9.199 37.6-12.791 17-4.5 53-7 65-7 7.64 0 8.01 6.863 8.73 20.227.08 1.508.17 3.1.27 4.773.45 7.378 40.57-.622 54.34-3.368l.66-.132c31.5-6.276 60.15-6.5 74-6.5 13.12 0 26.08 3.457 37.87 6.604 8.42 2.248 16.25 4.338 23.13 4.896 17.11 1.387 49.08-8.383 55.28-10.279.5-.154.84-.256.98-.296.07-.02.43-.172 1.02-.428 5.72-2.475 33.9-14.67 50.22-11.497 14.64 5.858 50.18-2.341 67.34-6.302h.01c3.34-.773 5.99-1.384 7.65-1.698.93-.176 5.07-1.15 10.78-2.494 16.74-3.939 46.96-11.049 49.22-10.506V.635H0V62.59z" fill="#fff"/><defs><linearGradient id="paint0_linear_210_76" x1="864" y1="135" x2="864" y2="574.995" gradientUnits="userSpaceOnUse"><stop offset=".157" stop-color="#271973"/><stop offset=".927" stop-color="#B2A9E0"/></linearGradient></defs></svg>