<svg width="375" height="711" fill="none" xmlns="http://www.w3.org/2000/svg"><path d="M1276 626.208v74.836l-2.02-.187-2.44.187c-5.29 1.242-11.7 2.699-25.43 3.16-3.26.11-15.48.284-18.23 0-4.4-.453-5.6-1.671-5.2-5.302 6.41-26.625-2.42-12.506-18.18-10.892-7.27.806-13.33 2.42-27.46 4.034-13.25 1.511-33.52 1.804-40.4 1.613-21.85-1.944-31.91-8.875-27.86 7.213 0 6.714-17.78 3.268-33.94 5.697-17.77 4.429-15.91 3.719-28.69 4.433-14.93 0-40.38-19.078-63.003-19.078-22.62 0-55.983 9.042-75.91 9.536-27.093.671-37.984-5.684-41.15-5.684-3.035 0-28.761 17.089-57.844-15.008-14.138-3.334-24.236 9.506-45.273 6.948-21.037-2.558-12.086-10.166-39.149-6.569-12.118 3.406-53.943 9.15-53.732 9.903.342 1.221-.112 1.381-4.167 1.466-10.741.226-19.612-.095-24.124-.873-14.922-4.44-44.409-9.739-47.321-3.14.166 1.352-.486 1.835-4.068 3.016-3.461 1.141-6.941 1.459-18.441 1.684-46.076-4.7-96.512-3.818-100.039-2.929-44.193 5.403-55.278.118-76.912-4.683-18.719-4.153-40.973-8.126-61.398-8.875-31.507-1.155-37.97-3.227-48.876-3.227-24.236 0-35.546 2.42-59.782-2.017 0-.574-21.005-2.017-34.335-2.017-15.753 0-33.527 2.824-56.551 4.437-21.408 3.227-38.955 6.684-53.723 8.472-13.33 1.614-35.267 4.017-58.975.807-23.707-3.211-35.697-9.435-45.644-13.716-7.826-3.369-19.39-13.358-21.409-20.171-12.118-12.852-46.856 1.21-62.552-8.102-1.221-1.138-9.631-.472-11.772.599V46h1396v580.208z" fill="url(#paint0_linear_216_78)"/><path d="M-356 36.488v55.58l27.153 2.967 34.826 1.767c6.244-.417 8.277.22 9.149-5.006.162-2.036-.89-5.211-1.748-7.8-.726-2.194-1.314-3.968-.908-4.273.886-.667 26.629-1.855 68.177.883 5.496.522 10.142 3.135 14.425 5.545 5.379 3.025 10.186 5.729 15.384 3.567 2.654.115 9.459-3.03 14.77-5.485 2.689-1.243 4.995-2.309 6.185-2.685 3.644-1.151 20.955.825 36.007 5.89 10.111 3.402 54.685 7.117 54.896 2.28 3.246-14.707 47.517-6.205 47.517-5.961 2.657 4.8 19.775 7.155 43.68 4.8 21.158-2.938 34.897-.59 44.046 2.944 7.083 1.767 1.319 2.588 6.493 11.957C66 106.985 71.762 108.405 76.5 110c4.5 1.515 6.725 1.371 10 1.5 3.275.129 27.018.998 41.5-.5 14.5-1.5 19.5-2.5 24-3.713 12.23-3.296 15.615-3.641 23-6.287 4.784-1.714 8.162-2.187 11.465-2.137 2.008 0 3.921-.034 5.715-.066 8.754-.156 14.65-.26 14.65 3.894-1.329 4.397 3.852 4.91 6.793 5.201.325.032.622.061.881.093 1.518.186 6.42-.224 12.098-.698 6.916-.578 14.982-1.252 19.481-1.062 12.762.411 36.609-2.069 52.417 2.775 11.603 3.555 30 .775 48.5-7 11.026-4.634 19.991-9.385 28-11.5 10.035-2.65 31.309-16.488 38.392-16.488 4.509 0 4.728 4.042 5.154 11.913.048.888.099 1.825.159 2.81.264 4.346 23.945-.366 32.074-1.983l.391-.078c18.594-3.696 35.504-3.828 43.681-3.828 7.746 0 15.392 2.036 22.352 3.89 4.973 1.324 9.596 2.555 13.655 2.883 10.098.817 28.969-4.937 32.63-6.053.298-.091.495-.151.579-.175.043-.012.251-.102.6-.252 3.377-1.458 20.015-8.64 29.645-6.771 8.645 3.45 29.619-1.379 39.752-3.712h.001c1.976-.455 3.539-.815 4.518-1 .549-.103 2.993-.677 6.363-1.468h.001C654.828 67.867 672.665 63.68 674 64l-10-21.57V0H-356v36.488z" fill="#fff"/><defs><linearGradient id="paint0_linear_216_78" x1="578" y1="356" x2="578" y2="711" gradientUnits="userSpaceOnUse"><stop offset=".157" stop-color="#271973"/><stop offset=".927" stop-color="#B2A9E0"/></linearGradient></defs></svg>