<svg width="1728" height="440" fill="none" xmlns="http://www.w3.org/2000/svg"><path d="M1728 334.902v92.753l-2.5-.231-3.02.231c-6.54 1.54-14.48 3.345-31.48 3.917-4.04.136-19.16.351-22.57 0-5.44-.562-6.93-2.072-6.43-6.572 7.93-33-3-15.5-22.5-13.5-9 1-16.5 3-34 5-16.39 1.874-41.48 2.236-50 2-27.06-2.41-39.5-11-34.48 8.94 0 8.321-22.02 4.05-42.02 7.06-22 5.49-19.7 4.609-35.52 5.495-18.48 0-49.98-23.646-77.98-23.646-28 0-69.3 11.207-93.96 11.819-33.54.832-47.02-7.045-50.94-7.045-3.76 0-35.6 21.181-71.6-18.601-17.5-4.132-30 11.782-56.04 8.611-26.04-3.17-14.96-12.599-48.46-8.142-15 4.223-66.772 11.341-66.511 12.275.424 1.513-.138 1.711-5.157 1.817-13.296.28-24.276-.118-29.861-1.082-18.471-5.503-54.971-12.071-58.576-3.892.206 1.675-.601 2.274-5.035 3.738-4.283 1.414-8.591 1.808-22.827 2.088-57.033-5.826-119.464-4.732-123.83-3.631C678 421 664.278 414.45 637.5 408.5c-23.171-5.148-50.718-10.072-76-11-39-1.431-47-4-60.5-4-30 0-44 3-74-2.5 0-.711-26-2.5-42.5-2.5-19.5 0-41.5 3.5-70 5.5-26.5 4-48.22 8.284-66.5 10.5-16.5 2-43.654 4.979-73 1-29.346-3.979-44.187-11.693-56.5-17-9.687-4.175-24-16.555-26.5-25-15-15.929-58 1.5-77.428-10.042-1.512-1.41-11.922-.585-14.572.743V0h1728v334.902z" fill="url(#paint0_linear_36_113)"/><defs><linearGradient id="paint0_linear_36_113" x1="864" y1="0" x2="864" y2="439.995" gradientUnits="userSpaceOnUse"><stop offset=".157" stop-color="#271973"/><stop offset=".927" stop-color="#B2A9E0"/></linearGradient></defs></svg>