<svg width="1728" height="441" fill="none" xmlns="http://www.w3.org/2000/svg"><path d="M126.982.365h52.129c15.15.423 32.725 1.202 52.389 2.5 9.31.887 17.181 5.324 24.437 9.415 9.112 5.137 17.256 9.728 26.063 6.057 4.495.195 16.024-5.146 25.022-9.314h.002c4.554-2.11 8.46-3.92 10.476-4.558 6.172-1.954 35.5 1.4 61 10 17.13 5.777 92.642 12.086 93 3.872C477-6.636 552 7.8 552 8.215c4.5 8.15 33.5 12.15 74 8.15 35.842-4.988 93-1 108.5 5 12 3 13.5 4 11 22 6.286 4.024 16.901 3.442 25.358 2.977h.01c2.443-.134 4.706-.258 6.632-.258 5.541.219 12.399.458 19.655.711l.027.001c22.201.774 48.117 1.678 51.458 2.536 21.458 0 37.541-5.776 50.052-10.269 8.105-2.91 14.711-5.283 20.308-5.198 3.399 0 6.638-.057 9.675-.112h.006c14.831-.264 24.819-.442 24.819 6.612-2.251 7.467 6.526 8.337 11.508 8.83.55.055 1.054.105 1.492.159 2.572.316 10.876-.38 20.492-1.185h.007c11.716-.981 25.381-2.126 33.001-1.803 21.62.697 49.5 3.53 76.28 11.753 19.66 6.037 86.76-8.708 87.62-9.463.94-.824 24.03-9.199 37.6-12.79 17-4.5 53-7 65-7 7.64 0 8.01 6.863 8.73 20.227v.03c.08 1.499.17 3.08.27 4.742.45 7.378 40.57-.621 54.34-3.367l.66-.133c31.5-6.276 60.15-6.5 74-6.5 13.12 0 26.08 3.457 37.87 6.604v.001c8.42 2.248 16.25 4.338 23.13 4.895 17.11 1.388 49.08-8.382 55.28-10.278.5-.154.84-.256.98-.296.07-.021.43-.173 1.02-.428 5.72-2.476 33.9-14.67 50.22-11.498 14.64 5.858 50.18-2.34 67.34-6.301h.01c3.34-.773 5.99-1.384 7.65-1.698.93-.176 5.07-1.15 10.78-2.494 16.74-3.94 46.96-11.05 49.22-10.506V428.02l-2.5-.231-3.02.231c-6.54 1.54-14.48 3.345-31.48 3.917-4.04.136-19.16.352-22.57 0-5.44-.562-6.93-2.072-6.43-6.572 5.51-22.911 1.92-21.48-7.31-17.794-4.07 1.623-9.23 3.683-15.19 4.294-3.82.425-7.37 1.029-11.53 1.737-5.64.961-12.4 2.112-22.47 3.263-16.39 1.874-41.48 2.237-50 2-6.85-.61-12.76-1.616-17.7-2.456-14.54-2.475-20.53-3.494-16.78 11.396 0 5.325-9.02 5.494-20.75 5.713-6.6.124-14.07.263-21.27 1.347-18.75 4.679-19.85 4.731-29.55 5.192-1.68.08-3.63.172-5.97.303-8.28 0-19.18-4.751-31.21-9.994-14.81-6.453-31.32-13.651-46.77-13.651-14.99 0-33.79 3.212-51.82 6.291-15.63 2.672-30.68 5.243-42.14 5.527-25.24.626-39.12-3.679-46.11-5.849-2.3-.713-3.86-1.196-4.83-1.196-.53 0-1.62.423-3.21 1.038-9.63 3.731-37.48 14.521-68.39-19.638-8.35-1.972-15.56.618-23.64 3.523-8.87 3.184-18.78 6.746-32.4 5.088-10.64-1.296-15.08-3.635-18.9-5.646-5.53-2.911-9.75-5.133-29.56-2.496-8.61 2.425-29.36 5.805-45.409 8.421-11.896 1.938-21.213 3.456-21.102 3.854.424 1.513-.138 1.711-5.157 1.816-13.296.28-24.276-.117-29.861-1.082-18.471-5.503-54.971-12.071-58.576-3.892.206 1.676-.601 2.274-5.035 3.739-4.283 1.414-8.591 1.808-22.827 2.087-57.033-5.826-119.464-4.732-123.83-3.631-47.065 5.762-63.794 1.717-84.603-3.314-3.377-.816-6.861-1.659-10.6-2.49-23.171-5.148-50.718-10.072-76-11-22.37-.82-34.541-2.016-43.4-2.886-6.587-.646-11.343-1.114-17.1-1.114-8.43 0-15.597.237-22.211.456-16.921.559-30.219.999-51.789-2.956 0-.711-26-2.5-42.5-2.5-11.732 0-24.368 1.267-38.781 2.712-9.543.957-19.865 1.992-31.219 2.788-11.19 1.689-21.527 3.429-31.113 5.042-13.116 2.208-24.826 4.178-35.387 5.458-16.5 2-43.654 4.98-73 1-26.043-3.531-40.662-10.004-52.229-15.125-1.467-.649-2.885-1.277-4.271-1.875-9.687-4.174-24-16.555-26.5-25-8.022-8.518-24.05-7.497-40.2-6.468-14.049.895-28.19 1.796-37.228-3.573-1.512-1.411-11.922-.586-14.572.742V22.328l46 5.038 59 3a200.21 200.21 0 013.633-.205c7.773-.388 10.572-.529 11.867-8.296.273-3.456-1.509-8.847-2.962-13.245-1.231-3.724-2.226-6.735-1.538-7.255.423-.319 4.199-.709 10.982-1z" fill="url(#paint0_linear_208_79)"/><defs><linearGradient id="paint0_linear_208_79" x1="864" y1=".365" x2="864" y2="440.36" gradientUnits="userSpaceOnUse"><stop offset=".157" stop-color="#271973"/><stop offset=".927" stop-color="#B2A9E0"/></linearGradient></defs></svg>