<svg width="1728" height="180" fill="none" xmlns="http://www.w3.org/2000/svg"><path d="M0 88.093V5.34l2.5.231 3.02-.231C12.064 3.8 20 1.995 37 1.423c4.04-.136 19.164-.352 22.569 0C65.012 1.985 70.5 2.995 75.5 4.495 82.571 6.616 86.5 13 106 11c9-1 22-4.505 39.5-6.505 16.393-1.874 26.485-.237 35 0 20 2.505 23.5 5.005 42 0 9.978-2.7 23 2.928 32.5 0 21.669-6.68 39.984-2.5 55 0 18.233 3.035 24.5 2.15 52.5 2.15s66.297-4.706 90.963-5.318C487 .495 508.619 7.024 519.5 10c11.5 3.145 34.297 5.5 70.5 5.5 20 0 19-6.809 45.04-3.639 26.04 3.171 14.96 12.6 48.46 8.142 15-4.222 37.5-8.142 48-9.117 7.5-.697 21.119-.976 26.138-1.082 13.296-.28 24.277.117 29.862 1.082 18.471 5.503 29.5 2.614 39 2.614 1.688 0 17.5-2.614 29-3.696C867.236 8.699 900.385 4 922.5 4c43.5 0 61 9.5 94 9.5 25.26 0 47.22-4.955 74 .995 23.17 5.148 50.72 10.072 76 11 39 1.43 47 4 60.5 4 30 0 44-3 74 2.5 0 .71 26 2.5 42.5 2.5 19.5 0 41.5-3.5 70-5.5 26.5-4 48.22-8.285 66.5-10.5 16.5-2 43.65-4.98 73-1 29.35 3.979 37.09 5.505 50.5 5.505 12 0 46.51-5.505 56.5-8 28-6.995 37.07-21.542 56.5-10 1.51 1.41 8.85 5.828 11.5 4.5v173.495H0V88.093z" fill="url(#paint0_linear_131_87)"/><defs><linearGradient id="paint0_linear_131_87" x1="864" y1="188" x2="864" y2="-17" gradientUnits="userSpaceOnUse"><stop stop-color="#DDD8F4"/><stop offset="1" stop-color="#271973"/></linearGradient></defs></svg>