<svg width="171" height="157" fill="none" xmlns="http://www.w3.org/2000/svg"><path d="M171 80c0 50-28 77-73 77-55 0-98-21-98-71C0 41.817 46.817 0 91 0s80 35.817 80 80z" fill="#FAF8EF"/><mask id="a" style="mask-type:alpha" maskUnits="userSpaceOnUse" x="0" y="0" width="171" height="157"><path d="M171 80c0 50-28 77-73 77-55 0-98-21-98-71C0 41.817 46.817 0 91 0s80 35.817 80 80z" fill="#D9D9D9"/></mask><g mask="url(#a)"><path opacity=".6" d="M78.491 169.287v1.906a.423.423 0 01-.266.395.422.422 0 01-.164.031H24.246a2.801 2.801 0 01-2.604-3.851l10.574-26.182 6.48-16.054 27.558.188-.94 5.48-2.644 15.425-3.436 20.044a1.874 1.874 0 001.847 2.193h16.98a.422.422 0 01.397.261.427.427 0 01.033.164z" fill="#fff"/><path opacity=".2" d="M61.081 168.877H26.067a1.23 1.23 0 01-1.133-1.698l14.95-35.964h25.43l-6.08 35.469a1.875 1.875 0 001.847 2.193z" fill="#000"/><path opacity=".1" d="M66.254 125.735l-.94 5.48-2.644 15.425-30.454-5.04 6.48-16.053 27.558.188z" fill="#000"/><path d="M119.841 47.015H-7.743a3.261 3.261 0 00-3.262 3.267v86.358a3.263 3.263 0 003.262 3.262H119.84c.429.001.854-.083 1.25-.247a3.248 3.248 0 001.769-1.765c.164-.397.248-.821.248-1.25V50.267a3.261 3.261 0 00-3.267-3.252z" fill="#5C4CB1"/><path opacity=".7" d="M119.841 47.015H-7.743a3.261 3.261 0 00-3.262 3.267v86.358a3.263 3.263 0 003.262 3.262H119.84c.429.001.854-.083 1.25-.247a3.248 3.248 0 001.769-1.765c.164-.397.248-.821.248-1.25V50.267a3.261 3.261 0 00-3.267-3.252z" fill="#fff"/><path d="M120.168 50.198H-5.357v83.289h125.525v-83.29z" fill="#5C4CB1"/><path opacity=".1" d="M107.084 50.198c-17.356 17.385-61.933 56.087-112.441 53.25v-53.25h112.441zm13.084 31.964v51.325H44.596c2.896-10.366 8.688-24.564 19.93-34.712 20.218-18.252 43.677-18.197 55.642-16.613z" fill="#fff"/><path opacity=".8" d="M69.625 73h-24.44c-.612 0-1.108.496-1.108 1.109v.208c0 .612.496 1.109 1.109 1.109h24.44c.612 0 1.108-.497 1.108-1.11v-.207c0-.612-.496-1.109-1.109-1.109z" fill="#fff"/><path opacity=".75" d="M73.12 100.396H41.69a.831.831 0 00-.83.832v2.861a.83.83 0 00.83.831h31.43c.46 0 .832-.372.832-.831v-2.861a.832.832 0 00-.832-.832zm0-9.476H41.69a.832.832 0 00-.83.832v2.861c0 .46.371.832.83.832h31.43c.46 0 .832-.372.832-.832v-2.86a.832.832 0 00-.832-.833zm0-9.524H41.69a.832.832 0 00-.83.832v2.86c0 .46.371.833.83.833h31.43c.46 0 .832-.373.832-.832v-2.861a.832.832 0 00-.832-.832z" fill="#fff"/><path d="M73.115 100.935h-2.762a.292.292 0 00-.292.292v2.857c0 .161.13.292.292.292h2.762a.292.292 0 00.292-.292v-2.857a.292.292 0 00-.292-.292z" fill="#5C4CB1"/></g></svg>