<svg width="166" height="169" fill="none" xmlns="http://www.w3.org/2000/svg"><path d="M166 83c0 44.183-36.817 86-81 86S0 133.183 0 89 40.817 0 85 0s81 38.817 81 83z" fill="#FAF8EF"/><mask id="a" style="mask-type:alpha" maskUnits="userSpaceOnUse" x="0" y="0" width="166" height="169"><path d="M166 83c0 44.183-36.817 86-81 86S0 133.183 0 89 40.817 0 85 0s81 38.817 81 83z" fill="#FFFAE4"/></mask><g mask="url(#a)"><path d="M132.757 141.957H79.099v27.702a2.698 2.698 0 001.669 2.497 2.7 2.7 0 001.034.206h48.252a2.698 2.698 0 001.911-.792 2.705 2.705 0 00.792-1.911v-27.702zm0 0h-37.97l4.67-5.978c.514-.656 1.784-1.186 2.841-1.186h34.147c1.053 0 1.496.53.982 1.186l-4.67 5.978z" fill="#5C4CB1"/><path opacity=".2" d="M132.757 141.957h-37.97l4.67-5.978c.514-.656 1.784-1.186 2.841-1.186h34.147c1.053 0 1.496.53.982 1.186l-4.67 5.978z" fill="#000"/><path d="M79.1 141.957h37.966l-4.671-3.898c-.514-.417-1.784-.772-2.841-.772H75.41c-1.056 0-1.495.346-.981.772l4.67 3.898z" fill="#5C4CB1"/><path opacity=".2" d="M117.066 141.957H79.099v27.702a2.698 2.698 0 001.669 2.497 2.7 2.7 0 001.034.206h32.561a2.698 2.698 0 001.911-.792 2.705 2.705 0 00.792-1.911v-27.702z" fill="#fff"/><path d="M63.27 138.498c-.956 14.226-1.138 38.053-1.138 38.053l-6.75.296a177.317 177.317 0 01-3.926-30.012 126.38 126.38 0 01-.063-4.32 221.207 221.207 0 00-5.485-25.038c-1.673-6.112-3.147-10.972-3.944-15.621l19.917-6.47c1.127 3.488 3.045 18.466 1.389 43.112z" fill="#263238"/><path opacity=".4" d="M51.473 146.834a126.029 126.029 0 01-.062-4.319 221.208 221.208 0 00-5.486-25.038c2.145-6.112 4.877-10.699 7.825-11.233 0 .011 5.235 26.569-2.277 40.59z" fill="#000"/><path d="M56.06 56.587c7 1.178 9.275 9.339 12.593 14.272 1.707 1.332 3.983 2.026 6.055 2.846 2.333.865 4.888 1.741 7.255 2.555.165.034.32.13.348.694a7.318 7.318 0 01-1.099 4.74c-.313.484-.5.501-.677.45L80 82.058a63.847 63.847 0 01-11.74-2.97c-1.758-.683-3.414-1.332-4.939-2.675-3.05-3.072-4.655-7.46-7.472-10.51a4.8 4.8 0 00-.848-.757c-.204-.13-.222-.057.052 0-5.634-.876-4.7-9.002 1.007-8.536v-.023z" fill="#5C4CB1"/><path opacity=".5" d="M56.06 56.587c7 1.178 9.275 9.339 12.593 14.272 1.707 1.332 3.983 2.026 6.055 2.846 2.333.865 4.888 1.741 7.255 2.555.165.034.32.13.348.694a7.318 7.318 0 01-1.099 4.74c-.313.484-.5.501-.677.45L80 82.058a63.847 63.847 0 01-11.74-2.97c-1.758-.683-3.414-1.332-4.939-2.675-3.05-3.072-4.655-7.46-7.472-10.51a4.8 4.8 0 00-.848-.757c-.204-.13-.222-.057.052 0-5.634-.876-4.7-9.002 1.007-8.536v-.023z" fill="#fff"/><path opacity=".1" d="M61.99 62.34s8.137 17.243.631 16.674c-5.753-.392-.632-16.673-.632-16.673z" fill="#000"/><path d="M37.025 58.71a81.133 81.133 0 0116.628-2.276 9.338 9.338 0 019.475 8.166c1.07 8.536-.803 11.54-.535 24.8 1.371 1.376.79 3.681-.165 4.045-8.035 3.04-20.651 2.277-24.857 1.838-1.85-.193-1.138-2.725-1.138-2.725-.569-4.41.353-4.177-.569-9.606-1.434-5.292-1.383-9.424-3.357-16.446a6.311 6.311 0 014.518-7.796z" fill="#5C4CB1"/><path opacity=".5" d="M62.593 89.416c1.371 1.377.79 3.682-.166 4.046-8.035 3.04-20.65 2.277-24.856 1.838-1.85-.193-1.138-2.725-1.138-2.725a20.564 20.564 0 01-.165-4.257c.074-1.794-.07-3.59-.427-5.349a88.929 88.929 0 01-1.707-8.94 68.274 68.274 0 00-1.656-7.506 6.311 6.311 0 014.552-7.813 81.135 81.135 0 0116.628-2.276 9.338 9.338 0 019.475 8.166c1.064 8.536-.808 11.569-.54 24.816z" fill="#fff"/><path d="M40.11 58.164c3.146 2.913 11.062 5.121 12.365 7.449.808-5.69.335-8.44-1.935-8.468-6.573 0-10.43 1.019-10.43 1.019z" fill="#fff"/><path d="M62.547 97.725a22.654 22.654 0 00-.358-4.718c-.04-.495-23.019.33-24.92.57-2.378.278.49 11.016 2.647 14.584 16.69-.21 22.335-7.523 22.631-10.436z" fill="#263238"/><path d="M46.955 93.24c-.17.359 0 3.13 0 3.13l-1.224-.045s-.37-2.316-.199-2.976a6.698 6.698 0 011.423-.109zm10.192-.05c.189.935.246 1.893.17 2.845h1.087s.177-2.277-.04-2.846a2.363 2.363 0 00-1.217 0z" fill="#263238"/><path opacity=".1" d="M59.315 83.965l-2.345 7.398S44.451 92.404 36.285 88.3a22.29 22.29 0 00-.427-5.35 88.929 88.929 0 01-1.707-8.939 36.173 36.173 0 016.738-5.338s3.414 11.381 4.484 11.888c1.07.506 13.942 3.403 13.942 3.403z" fill="#000"/><path d="M36.382 142.18c.859-20.737.045-33.74.33-43.488l19.257-.632c.398 3.631-.678 18.688-7.17 42.521-3.74 13.731-8.616 37.085-8.616 37.085l-6.67-1.041s-.529-17.988 2.869-34.445z" fill="#263238"/><path d="M90.21 74.37l-29.922.94-8.746 3.727 2.856 21.112 29.927-.94 8.74-3.726L90.21 74.37z" fill="#5C4CB1"/><path opacity=".2" d="M84.325 99.21l-29.927.939 8.74-3.728 29.928-.939-8.741 3.728z" fill="#000"/><path opacity=".2" d="M60.288 75.31l2.85 21.111 29.928-.938-2.857-21.112-29.921.938z" fill="#fff"/><path d="M41.537 48.035a22.58 22.58 0 01-.62 9.742.604.604 0 00.228.654 11.899 11.899 0 008.257 1.838c3.522-.404 3.18-1.48 2.185-2.606a1.418 1.418 0 00-.518-.37c-2.59-1.138-2.92-3.016-2.396-4.256l-7.136-5.002z" fill="#FFC3BD"/><path opacity=".2" d="M41.537 48.04l7.142 4.996a2.737 2.737 0 00.182 2.465 5.406 5.406 0 01-3.847-.848c-1.826-1.184-2.6-2.766-3.312-5.048a37.173 37.173 0 00-.165-1.565z" fill="#000"/><path d="M50.375 38.901c1.195 1.24 0 3.005.16 4.285.159 1.28.466 2.942-1.298 1.28-1.764-1.661-.717-7.272 1.138-5.565z" fill="#263238"/><path d="M39.244 45.275c.837 4.256.313 5.024 2.777 6.914 3.705 2.845 9.105 2.782 9.321-1.662.171-3.983-.37-11.148-4.797-12.258a5.975 5.975 0 00-7.3 7.006z" fill="#FFC3BD"/><path d="M39.167 36.883c5.648-2.16 11.05-2.43 13.601 1.013-.967-.094-2.786.704-2.786.704-.07 1.794-8.836 8.83-12.571 3.017-1.664 1.12-2.658-2.175 1.756-4.734z" fill="#263238"/><path d="M40.064 48.126c2.014 1.04 2.464-1.708 2.316-1.93-.643-.887-.666-1.673-.08-3.482.586-1.81-3.09-3.62-5.61-2.686-2.323.86.198 2.544 0 4.108-.377 2.783 1.752 3.147 3.374 3.99z" fill="#263238"/><path d="M37.662 48.404a3.983 3.983 0 002.276 1.827c1.218.347 1.708-.86 1.264-2.111-.393-1.138-1.497-2.663-2.67-2.453-1.171.21-1.507 1.622-.87 2.737z" fill="#FFC3BD"/><path d="M44.49 45.019c.063.364.234.375.473.335.24-.04.45-.125.387-.49-.063-.363-.302-.625-.54-.568-.24.057-.382.358-.32.723zm4.514-.313c.062.364.233.375.472.33.239-.046.45-.12.387-.484s-.307-.626-.54-.57c-.234.058-.382.36-.32.724z" fill="#263238"/><path d="M48.264 44.632c.43.83.975 1.595 1.616 2.276a1.655 1.655 0 01-1.32.415l-.296-2.691z" fill="#D58745"/><path d="M43.597 43.47a.219.219 0 01-.194-.264.218.218 0 01.035-.077 2.156 2.156 0 011.707-.978.211.211 0 01.21.221.222.222 0 01-.221.211 1.706 1.706 0 00-1.36.791.227.227 0 01-.177.097zm6.943-.694a.226.226 0 01-.2-.04 1.707 1.707 0 00-1.519-.38.217.217 0 01-.125-.416 2.1 2.1 0 011.918.46.205.205 0 01.028.302.216.216 0 01-.102.074zm-2.276 6.834c-2.129 0-2.846-1.245-2.891-1.308a.212.212 0 01.37-.205c.034.057.82 1.349 3.243 1.041a.213.213 0 01.057.422 6.45 6.45 0 01-.78.05z" fill="#263238"/><path d="M52.543 87.197l4.427-1.923.729 5.747s-4.217 1.252-5.247-.882l.091-2.942zm9.111-.125l-.086 2.054A1.707 1.707 0 0160.1 90.72l-2.401.296-.729-5.742 3.045.062a1.707 1.707 0 011.639 1.736z" fill="#FFC3BD"/><path d="M40.672 64.258c.422 5.589.57 11.439 1.782 16.89 1.559 1.417 6.914 3.181 9.89 4.154l.996.325.495.153c.165.034.341.08.375.689a7.54 7.54 0 01-.922 4.774c-.324.57-.506.512-.694.473-4.894-.66-14.755-2.322-17.123-7.279-.24-.507-.445-1.03-.614-1.565-1.707-5.935-2.191-11.95-2.783-18.039-.256-5.81 8.07-6.379 8.599-.569v-.006z" fill="#5C4CB1"/><path opacity=".5" d="M40.672 64.258c.422 5.589.57 11.439 1.782 16.89 1.559 1.417 6.914 3.181 9.89 4.154l.996.325.495.153c.165.034.341.08.375.689a7.54 7.54 0 01-.922 4.774c-.324.57-.506.512-.694.473-4.894-.66-14.755-2.322-17.123-7.279-.24-.507-.445-1.03-.614-1.565-1.707-5.935-2.191-11.95-2.783-18.039-.256-5.81 8.07-6.379 8.599-.569v-.006z" fill="#fff"/></g></svg>