<svg width="178" height="160" fill="none" xmlns="http://www.w3.org/2000/svg"><path d="M178 85c0 44.183-41.817 75-86 75S0 129.183 0 85 47.817 0 92 0s86 40.817 86 85z" fill="#FAF8EF"/><mask id="a" style="mask-type:alpha" maskUnits="userSpaceOnUse" x="0" y="0" width="178" height="160"><path d="M178 85c0 44.183-41.817 75-86 75S0 129.183 0 85 47.817 0 92 0s86 40.817 86 85z" fill="#FFFAE4"/></mask><g mask="url(#a)"><path d="M62.59 54.504s-.744-1.82-5.329-1.28c-4.584.54-5.059 6.61-7.35 10.924-2.29 4.315-4.723 6.409-4.723 6.409s-.335 2.63 4.654 4.114c4.99 1.485 14.77-.995 14.77-.995s1.264-11.487-.614-14.992c-1.878-3.505-1.407-4.18-1.407-4.18zM75.994 169.25l-6.212.385s-2.633-23.938-5.533-41.368c0-.058 0-.123-.027-.189-1.188-7.114-2.418-13.111-3.529-15.922 0 0-1.426 22.316-1.85 32.222-.425 9.906-2.403 27.239-2.403 27.239l-5.741.852s-.95-34.504-.386-41.021c.563-6.516-2.001-30.656 2.418-36.632h15.983s6.19 33.91 6.636 43.311c.448 9.401.644 31.123.644 31.123z" fill="#263238"/><path opacity=".3" d="M64.222 128.074c-1.188-7.114-2.418-13.11-3.529-15.921l.737-4.042s1.909 14.422 2.792 19.963z" fill="#000"/><path d="M78.566 85.858c-1.542.736-5.784 1.542-5.784 1.542s-2.776-7.176-3.509-11.256a6.825 6.825 0 00-5.873-5.707c-1.874-.242-9.786-.162-12.563.41-2.776.57-3.258 4.646-3.505 7.094-.247 2.449-1.793 11.569-.49 14.268 1.304 2.7 5.873 1.627 5.873 1.627v.98h15.987l-.385-7.481s1.511 3.972 3.856 4.134c2.344.162 7.666-3.749 7.666-3.749l-1.273-1.862zm-28.15 4.184s.178-4.658.495-6l.481 2.487.68 3.513h-1.655z" fill="#5C4CB1"/><path d="M60.585 88.985l2.515-3.042 3.528-.54.54 3.135-2.7.987s-1.299 1.566-3.894 1.296l.011-1.836zm17.981-3.127l1.308-2.398 3.189-1.342 1.206 3.266-2.641 1.03s-.69 1.519-1.754 1.322l-1.308-1.878zM60.64 67.514a6.69 6.69 0 000 .833c.038.529-.062 1.497.975 2.006-.536 1.156-1.828 4.056-2.61 5.04-1.192-.976-3.992-4.913-3.992-4.913s1.967-2.133.556-6.15c0 0-1.982-1.45-1.585-2.249.455-.929 1.747-.428 2.02-.034-.289-.425-1.635-5.079 0-6.791 1.018-1.068 2.036-1.08 3.934-1.157h.158c1.214-.042 2.117 0 2.117 0 .412.444.775.932 1.083 1.454a10.796 10.796 0 011.543 4.627c.358 3.822-.394 6.918-4.2 7.334z" fill="#FFC3BD"/><path d="M61.688 62.764s-1.727.586-2.356-.725" stroke="#263238" stroke-width=".5" stroke-linecap="round" stroke-linejoin="round"/><path d="M59.602 57.25a1.543 1.543 0 00-1.411.825m5.807-1.223a1.541 1.541 0 00-1.099-.5" stroke="#263238" stroke-linecap="round" stroke-linejoin="round"/><path d="M62.41 62.054l-.34-2.888 1.7 2.183s-.165.752-1.36.705z" fill="#FF5652"/><path d="M59.617 59.19c.02.292.193.52.386.508.193-.011.328-.262.305-.559-.023-.297-.19-.52-.386-.505-.197.015-.328.274-.304.555zm3.363-.483c.023.297.193.525.386.51.192-.016.327-.263.304-.56-.023-.297-.193-.52-.385-.505-.193.015-.324.262-.305.555zm-8.148 1.203s-1.97-2.641-.343-4.353c1.018-1.068 3.756-1.766 5.65-1.847-.043.447 0 4.365-5.307 6.2z" fill="#263238"/><path d="M63.327 55.565a5.514 5.514 0 01-3.231-1.477l-.15-.159c.759-.03 1.52.023 2.267.163.412.444.775.931 1.083 1.453l.031.02z" fill="#263238"/><path opacity=".2" d="M60.65 68.347a4.423 4.423 0 01-2.135-1.43 5.887 5.887 0 002.124.598 6.69 6.69 0 00.012.832zm-9.254 18.182l-.482-2.487V80.47s.556 3.767.482 6.058z" fill="#000"/><path d="M122.263 74.977l-28.108 1.591 1.224 21.633 28.109-1.591-1.225-21.633z" fill="#5C4CB1"/><path opacity=".3" d="M122.263 74.977l-28.108 1.591 1.224 21.633 28.109-1.591-1.225-21.633z" fill="#000"/><path d="M112.047 75.557l-28.108 1.591 1.224 21.633 28.109-1.591-1.225-21.633z" fill="#5C4CB1"/><path opacity=".3" d="M112.047 75.557l-28.108 1.591 1.224 21.633 28.109-1.591-1.225-21.633z" fill="#fff"/><path d="M130.384 57.145l-1.542 1.967a3.34 3.34 0 001.434.567l.108-2.534z" fill="#A02724"/><path d="M140.233 67.487s-6.054 1.64-5.607.452a6.096 6.096 0 00.266-2.225c0-.494-.062-.845-.062-.845-2.19.127-3.663-1.457-4.318-3.408-.845-2.503-.536-5.299.489-7.674.081-.193.313-1.01.517-1.11l2.375-1.096s2.314 1.516 3.517 2.456c1.203.941 2.171 5.314 2.171 8.715s.652 4.735.652 4.735z" fill="#D2A588"/><path d="M130.203 56.424a.523.523 0 00-.386.482.509.509 0 00.255.525l.131-1.007z" fill="#263238"/><path d="M130.203 54.465c.252-.005.5.063.714.197" stroke="#263238" stroke-linecap="round" stroke-linejoin="round"/><path d="M132.309 60.724s1.758 2.745 4.557 3.374c2.8.629 3.683-.343 4.057-1.928a8.585 8.585 0 012.078-3.999c.968-.999.386-3.71-.844-5.938 0 0 1.319-1.107-.806-2.171-2.125-1.064-2.907.706-4.751-.328-1.843-1.033.617-1.377-1.122 1.847s-2.699.88-2.957 2.314c-.259 1.434-1.605 3.925-.212 6.829z" fill="#263238"/><path d="M132.521 54.562c-.174-.058-5.75-2.075-5.804-2.989-.054-.913 4.323.748 4.489.814l1.129 1.785.186.39z" fill="#5C4CB1"/><path d="M143.773 56.771c-.054.166-.386 1.265-.529 1.265l-.466-.027a19.773 19.773 0 01-1.296-.15 18.421 18.421 0 01-1.4-.274h-.019a16.212 16.212 0 01-1.373-.386 29.49 29.49 0 01-4.77-1.908 24.737 24.737 0 01-1.384-.737l-.077-.127-.316-.498-.675-1.068-.231-.358v-.027a.157.157 0 010-.1c.023-.41.859-1.543 1.01-1.736a7.272 7.272 0 012.313-2.013c1.242-.686 2.642-.385 3.961-.154.436.09.861.228 1.268.409l.259.112.05.023c.046.027.096.046.143.07l.084.042a9.215 9.215 0 012.634 1.855c1.735 1.947 1.03 5.159.814 5.787zm-1.886 12.787s-.278-1.928-.883-2.313c-.605-.386-6.621-.328-7.558.331-.937.66-.771 2.815-.771 2.815l9.212-.833z" fill="#5C4CB1"/><path d="M131.21 57.678s1.025-1.327 2.124-.505c1.099.82.228 2.768-1.064 3.316 0 0-1.67.543-1.886-1.157-.216-1.7.826-1.654.826-1.654z" fill="#D2A588"/><path d="M127.095 103.843s-2.294 21.952-2.934 32.048c-.64 10.095 1.712 35.911 1.712 35.911h5.58s.64-25.647 1.604-33.339c.964-7.693 4.164-18.124 4.164-18.124s1.928 16.508 3.856 23.241c1.928 6.732 8.191 27.301 8.191 27.301l6.424-1.234s-7.712-26.387-7.712-34.562c0-8.175.073-24.679-1.847-31.235l-19.038-.007z" fill="#5C4CB1"/><path opacity=".3" d="M155.68 169.654l-6.42 1.238s-6.258-20.568-8.187-27.301c-1.06-3.702-2.117-10.369-2.853-15.617-.617-4.284-1.003-7.623-1.003-7.623s-3.204 10.411-4.168 18.123c-.964 7.712-1.6 33.34-1.6 33.34h-5.576s-2.352-25.813-1.712-35.908c.64-10.095 2.934-32.052 2.934-32.052h19.018c1.928 6.556 1.851 23.079 1.851 31.235 0 8.155 7.716 34.565 7.716 34.565z" fill="#000"/><path opacity=".3" d="M138.216 127.974c-.613-4.284-.999-7.623-.999-7.623l.386-5.993.613 13.616zm-7.01-75.587c.119.613.243 1.084 1.257 2.152-1.288-.478-5.699-2.183-5.746-2.966-.046-.782 3.378.394 4.489.814z" fill="#000"/><path opacity=".3" d="M131.206 52.483a.156.156 0 010-.1v.124-.024zm1.315 2.079l-.12-.046a.265.265 0 01.023-.047l.097.093z" fill="#000"/><path d="M143.773 56.771c-.054.166-.386 1.265-.529 1.265l-.466-.027a19.773 19.773 0 01-1.296-.15 18.421 18.421 0 01-1.4-.274h-.019a16.212 16.212 0 01-1.373-.386 29.49 29.49 0 01-4.77-1.908 24.737 24.737 0 01-1.384-.737l-.077-.127-.316-.498-.675-1.068-.231-.358v-.027a.157.157 0 010-.1c.023-.41.859-1.543 1.01-1.736a7.272 7.272 0 012.313-2.013c1.242-.686 2.642-.385 3.961-.154.436.09.861.228 1.268.409l.259.112.05.023c.046.027.096.046.143.07l.084.042a9.215 9.215 0 012.634 1.855c1.735 1.947 1.03 5.159.814 5.787z" fill="#5C4CB1"/><path opacity=".2" d="M136.188 64.499c-.411.427-.843.833-1.296 1.215 0-.494-.062-.845-.062-.845.466-.07.921-.195 1.358-.37z" fill="#000"/><path d="M127.095 104.059V84.308l-3.605-1.47s.69-10.538 5.822-12.2c5.133-1.662 14.268-2.36 16.782 0 1.589 1.5 1.801 3.906 1.859 5.97.123 4.202-.976 8.313-1.219 12.493a299.657 299.657 0 00-.385 10.207c0 .262-.101 4.751-.108 4.751h-19.146z" fill="#263238"/><path d="M129.069 84.983s-2.668 8.815-5.306 9.366c-2.637.551-11.645-4.365-11.645-4.365h-4.022l-.57-3.536s3.744-1.388 6.239.274c0 0 5.826 2.54 7.766 3.281l2.811-6.802 4.727 1.782z" fill="#D2A588"/></g></svg>