<svg width="177" height="160" fill="none" xmlns="http://www.w3.org/2000/svg"><path d="M177 80c0 44.183-35.817 80-80 80S0 106.183 0 62 52.817 0 97 0s80 35.817 80 80z" fill="#FAF8EF"/><mask id="a" style="mask-type:alpha" maskUnits="userSpaceOnUse" x="0" y="0" width="177" height="160"><path d="M177 80c0 44.183-35.817 80-80 80S0 106.183 0 62 52.817 0 97 0s80 35.817 80 80z" fill="#FFFAE4"/></mask><g mask="url(#a)"><path d="M36.396 106.297c10.015-10.014 10.015-26.25 0-36.264-10.014-10.014-26.25-10.014-36.264 0-10.014 10.014-10.014 26.25 0 36.264 10.014 10.015 26.25 10.015 36.264 0z" fill="#5C4CB1"/><path opacity=".4" d="M36.396 106.297c10.015-10.014 10.015-26.25 0-36.264-10.014-10.014-26.25-10.014-36.264 0-10.014 10.014-10.014 26.25 0 36.264 10.014 10.015 26.25 10.015 36.264 0z" fill="#000"/><path opacity=".2" d="M39.493 91.786c2-11.723-5.883-22.847-17.606-24.847-11.723-2-22.847 5.883-24.847 17.606-2 11.723 5.883 22.847 17.606 24.847 11.723 2 22.847-5.883 24.847-17.606z" fill="#000"/><path d="M40.522 90.228c.8-11.417-7.808-21.32-19.224-22.119C9.88 67.31-.023 75.917-.822 87.334c-.799 11.416 7.808 21.319 19.225 22.118 11.416.799 21.319-7.808 22.118-19.224z" fill="#5C4CB1"/><path opacity=".4" d="M40.522 90.228c.8-11.417-7.808-21.32-19.224-22.119C9.88 67.31-.023 75.917-.822 87.334c-.799 11.416 7.808 21.319 19.225 22.118 11.416.799 21.319-7.808 22.118-19.224z" fill="#4A3D8E"/><path d="M72.984 67.773c6.38-7.55 5.432-18.841-2.118-25.221-7.55-6.38-18.841-5.432-25.22 2.118-6.38 7.55-5.432 18.841 2.117 25.22 7.55 6.38 18.841 5.433 25.221-2.117z" fill="#5C4CB1"/><path opacity=".4" d="M72.984 67.773c6.38-7.55 5.432-18.841-2.118-25.221-7.55-6.38-18.841-5.432-25.22 2.118-6.38 7.55-5.432 18.841 2.117 25.22 7.55 6.38 18.841 5.433 25.221-2.117z" fill="#000"/><path opacity=".2" d="M70.898 65.783c5.288-6.397 4.39-15.87-2.007-21.158-6.397-5.288-15.87-4.389-21.158 2.008-5.288 6.397-4.389 15.87 2.008 21.157 6.397 5.288 15.87 4.39 21.157-2.007z" fill="#000"/><path d="M71.352 65.94c4.838-6.33 3.628-15.384-2.702-20.222-6.33-4.839-15.384-3.63-20.222 2.701-4.838 6.33-3.629 15.384 2.701 20.223 6.33 4.838 15.385 3.628 20.223-2.702z" fill="#5C4CB1"/><path opacity=".4" d="M71.352 65.94c4.838-6.33 3.628-15.384-2.702-20.222-6.33-4.839-15.384-3.63-20.222 2.701-4.838 6.33-3.629 15.384 2.701 20.223 6.33 4.838 15.385 3.628 20.223-2.702z" fill="#4A3D8E"/><path d="M52.74 60.05l6.508 1.744m-4.775 1.256l3.487-13.013 4.436 1.189a3.98 3.98 0 01-2.06 7.69l-6.803-1.823" opacity=".7" stroke="#fff" stroke-width="1.8" stroke-linecap="round" stroke-linejoin="round"/><path d="M12.311 96.183l9.76-2.615m-5.26 5.213l-5.23-19.52 6.654-1.783a5.97 5.97 0 013.091 11.534l-10.204 2.734" opacity=".7" stroke="#fff" stroke-width="2.5" stroke-linecap="round" stroke-linejoin="round"/><path d="M140.096 100H55.904c-2.709 0-4.904 2.229-4.904 4.979v50.042c0 2.75 2.196 4.979 4.904 4.979h84.192c2.708 0 4.904-2.229 4.904-4.979v-50.042c0-2.75-2.196-4.979-4.904-4.979z" fill="#5C4CB1"/><path opacity=".2" d="M140.096 100H55.904c-2.709 0-4.904 2.229-4.904 4.979v50.042c0 2.75 2.196 4.979 4.904 4.979h84.192c2.708 0 4.904-2.229 4.904-4.979v-50.042c0-2.75-2.196-4.979-4.904-4.979z" fill="#000"/><path d="M135.67 135h-22.34c-.735 0-1.33 1.119-1.33 2.5s.595 2.5 1.33 2.5h22.34c.735 0 1.33-1.119 1.33-2.5s-.595-2.5-1.33-2.5z" fill="#5C4CB1"/><path opacity=".3" d="M135.67 135h-22.34c-.735 0-1.33 1.119-1.33 2.5s.595 2.5 1.33 2.5h22.34c.735 0 1.33-1.119 1.33-2.5s-.595-2.5-1.33-2.5z" fill="#fff"/><path d="M131.862 113H51v13h94v-13h-13.138z" fill="#5C4CB1"/><path opacity=".3" d="M131.862 113H51v13h94v-13h-13.138z" fill="#fff"/><path d="M107.559 69.186c-1.122 3.167-2.367 6.23-3.688 9.293a79.851 79.851 0 01-4.593 9.063 37.23 37.23 0 01-.724 1.122l-.185.28-.25.345c-.171.218-.332.407-.474.591a24.72 24.72 0 01-1.894 1.894c-1.264 1.17-2.552 2.23-3.854 3.277a119.25 119.25 0 01-8.049 5.856l-1.652-2.05 6.96-6.86a114.063 114.063 0 003.357-3.442 29.112 29.112 0 001.458-1.7c.104-.133.194-.265.274-.379l.1-.16.137-.247c.185-.327.379-.644.559-.98 1.449-2.722 2.727-5.681 3.958-8.683a354.93 354.93 0 003.551-9.03l5.009 1.81z" fill="#FFC3BD"/><path d="M108.889 66.903c1.075 3.144-5.241 12.39-5.241 12.39l-6.032-3.356a70.61 70.61 0 013.636-8.428c2.112-3.996 6.458-4.057 7.637-.606z" fill="#5C4CB1"/><path opacity=".7" d="M108.889 66.903c1.075 3.144-5.241 12.39-5.241 12.39l-6.032-3.356a70.61 70.61 0 013.636-8.428c2.112-3.996 6.458-4.057 7.637-.606z" fill="#fff"/><path opacity=".31" d="M108.979 67.296c-1.354-.648-2.911-.104-4.554 2.49-1.643 2.595-3.04 6.927-3.191 8.163l2.419 1.34s5.828-8.541 5.326-11.993z" fill="#5C4CB1"/><path d="M104.804 64.498s-4.508 10.601-1.26 30.34h18.773c.232-2.884-1.094-16.94 2.159-30.52a47.957 47.957 0 00-6.259-.795 70.031 70.031 0 00-7.978 0 36.186 36.186 0 00-5.435.975z" fill="#5C4CB1"/><path opacity=".7" d="M104.804 64.498s-4.508 10.601-1.26 30.34h18.773c.232-2.884-1.094-16.94 2.159-30.52a47.957 47.957 0 00-6.259-.795 70.031 70.031 0 00-7.978 0 36.186 36.186 0 00-5.435.975z" fill="#fff"/><path d="M103.544 94.838s-3.698 25.595-4.957 39.524c-1.013 11.179 23.157 44.506 23.157 44.506l4.673-4.399s-17.651-29.88-16.292-42.322c1.316-12.05 5.776-37.323 5.776-37.323l-12.357.014z" fill="#5C4CB1"/><path opacity=".7" d="M103.544 94.838s-3.698 25.595-4.957 39.524c-1.013 11.179 23.157 44.506 23.157 44.506l4.673-4.399s-17.651-29.88-16.292-42.322c1.316-12.05 5.776-37.323 5.776-37.323l-12.357.014z" fill="#5C4CB1"/><path opacity=".2" d="M110.125 132.161c.677-6.207 2.192-15.932 3.494-23.896-.681-1.335-2.594-4.039-2.594-4.039-1.714 5.923-5.44 28.252-.123 58.407 5.539 8.929 10.842 16.249 10.842 16.249l.724-11.515c-5.118-9.63-13.285-26.603-12.343-35.206z" fill="#000"/><path d="M110.22 94.838s-.332 26.821.237 36.873c.62 11.003 3.745 47.46 3.745 47.46h6.429s-.194-35.567.185-46.456c.421-11.837 1.51-37.877 1.51-37.877H110.22z" fill="#5C4CB1"/><path opacity=".7" d="M110.22 94.838s-.332 26.821.237 36.873c.62 11.003 3.745 47.46 3.745 47.46h6.429s-.194-35.567.185-46.456c.421-11.837 1.51-37.877 1.51-37.877H110.22z" fill="#5C4CB1"/><path d="M82.991 98.417l-3.66.128.767 2.869s3.826.341 4.167-.814l-1.274-2.183z" fill="#FFC3BD"/><path d="M75.383 100.254l2.566 1.496 2.15-.336-.768-2.87-3.948 1.71z" fill="#FFC3BD"/><path opacity=".31" d="M120.281 67.67c-.388 2.235.128 7.576 2.045 13.76a90.306 90.306 0 011.842-15.763v-.028c-1.231-.123-3.513-.066-3.887 2.031z" fill="#5C4CB1"/><path d="M117.739 54.536c-.592 2.567-1.26 7.273.473 8.996 0 0-.748 2.126-5.521 2.126-5.246 0-2.457-2.126-2.457-2.126 2.888-.681 2.888-2.807 2.457-4.8l5.048-4.196z" fill="#FFC3BD"/><path d="M115.684 56.246l-2.988 2.471c.108.467.174.942.199 1.42 1.098-.156 2.642-1.358 2.798-2.504a3.72 3.72 0 00-.009-1.387z" fill="#CE6F64"/><path d="M111.512 45.834c-1.794.611-3.229 5.37-1.136 6.629 2.093 1.26 4.545-7.789 1.136-6.629z" fill="#263238"/><path d="M118.861 51.847c-1.07 3.314-1.525 5.317-3.684 6.676a4.538 4.538 0 01-6.415-1.599 4.54 4.54 0 01-.578-2.369c.043-3.186 1.785-8.091 5.454-8.707a4.601 4.601 0 014.339 1.496 4.595 4.595 0 01.884 4.503z" fill="#FFC3BD"/><path d="M121.512 46.308c-1.07 2.585 1.42.426.776 3.494-.416 1.998-4.024 6.785-5.416 6.349-1.392-.436-1.378-3.83.398-6.23 1.022-1.379-1.189-2.941-6.155-2.775-4.967.165-7.969-2.628-1.369-4.678 0 0-2.433 1.42-.989 1.894 2.045.762 14.9-3.234 12.755 1.946z" fill="#263238"/><path d="M120.565 47.491c-.052 0 1.113-.289 1.733-2.367 0 .033-.204 3.096-1.733 2.367zm-9.294-4.564c-3.054.947-1.79 2.012-.526 2.278l2.898-1.137c-4.403.583-2.372-1.14-2.372-1.14z" fill="#263238"/><path d="M119.448 55.895a3.466 3.466 0 01-2.368.98c-1.169 0-1.42-1.108-.79-2.035.558-.834 1.837-1.838 2.869-1.388 1.032.45 1.065 1.681.289 2.443z" fill="#FFC3BD"/><path d="M113.468 51.663c-.071.274-.275.473-.474.426-.198-.048-.269-.299-.198-.573.071-.275.274-.474.473-.422.199.053.27.294.199.569zm-3.125-.687c-.071.275-.275.474-.473.426-.199-.047-.27-.293-.199-.568.071-.275.27-.474.473-.426.204.047.256.293.199.568z" fill="#263238"/><path d="M111.299 51.331a10.698 10.698 0 01-1.893 2.06 1.612 1.612 0 001.259.535l.634-2.595z" fill="#DE5753"/><path d="M111.82 54.925a2.65 2.65 0 01-.582-.066.088.088 0 01-.051-.038.09.09 0 01-.011-.062.085.085 0 01.1-.061 2.368 2.368 0 002.007-.474.085.085 0 01.119 0 .087.087 0 01.024.06.087.087 0 01-.024.059 2.408 2.408 0 01-1.582.582zm2.888-4.053a.161.161 0 01-.151-.1 1.278 1.278 0 00-.9-.762.166.166 0 01-.076-.298.172.172 0 01.124-.033 1.596 1.596 0 011.155.947c.009.02.014.041.015.063a.166.166 0 01-.046.119.17.17 0 01-.054.035.17.17 0 01-.067.029zm-5.421-1.255a.165.165 0 01-.104-.038.169.169 0 01-.06-.113.176.176 0 01.036-.123 1.736 1.736 0 011.392-.65.171.171 0 01.114.06.174.174 0 01.031.056.176.176 0 01-.01.128.16.16 0 01-.163.088 1.394 1.394 0 00-1.108.53.162.162 0 01-.128.062z" fill="#263238"/><path d="M125.385 66.737c.369.573.677 1.08.99 1.63.312.548.61 1.079.904 1.628a49.873 49.873 0 011.619 3.352 34.845 34.845 0 012.334 7.287l.048.241.023.118.033.2c.041.264.061.532.062.8a7.046 7.046 0 01-.142 1.335 11.26 11.26 0 01-.691 2.111 22.68 22.68 0 01-1.894 3.414 39.729 39.729 0 01-4.678 5.743l-2.06-1.652c1.146-1.998 2.287-4.072 3.244-6.103.47-.972.872-1.975 1.202-3.002.135-.428.227-.87.275-1.316a2.025 2.025 0 000-.44c0-.043 0-.081-.029-.086-.028-.004 0 0 0-.023l-.028-.095-.057-.194a30.103 30.103 0 00-1.065-3.078 55.49 55.49 0 00-1.368-3.068 74.349 74.349 0 00-1.553-3.025 57.442 57.442 0 00-.824-1.492l-.833-1.42 4.488-2.865z" fill="#FFC3BD"/><path d="M122.871 92.177l-3.475-.611 1.794 4.048s3.186 0 3.044-1.666l-1.363-1.771zm-6.103 1.42l1.643 3.272 2.76-1.26-1.794-4.043-2.609 2.031z" fill="#FFC3BD"/><path d="M124.476 64.318c3.314.474 6.709 11.988 6.709 11.988l-7.102 3.94s-2.884-5.474-4.261-9.536c-1.444-4.256 1.108-6.913 4.654-6.392z" fill="#5C4CB1"/><path opacity=".7" d="M124.476 64.318c3.314.474 6.709 11.988 6.709 11.988l-7.102 3.94s-2.884-5.474-4.261-9.536c-1.444-4.256 1.108-6.913 4.654-6.392z" fill="#fff"/><path opacity=".2" d="M112.559 65.649l-1.421 1.51.696 1.458 1.132.052.966-1.392-1.373-1.628z" fill="#000"/><path d="M112.559 65.649a6.16 6.16 0 01.909 2.892s5.909-2.083 5.629-5.137c0 0-.838-.497-1.368-.9 0 0-.199 1.923-5.17 3.145z" fill="#5C4CB1"/><path opacity=".6" d="M112.559 65.649a6.16 6.16 0 01.909 2.892s5.909-2.083 5.629-5.137c0 0-.838-.497-1.368-.9 0 0-.199 1.923-5.17 3.145z" fill="#fff"/><path d="M112.559 65.649a8.318 8.318 0 00-1.155 2.708s-2.675-1.809-1.871-4.825c.491-.197.996-.356 1.511-.473 0 0-.351 1.95 1.515 2.59z" fill="#5C4CB1"/><path opacity=".6" d="M112.559 65.649a8.318 8.318 0 00-1.155 2.708s-2.675-1.809-1.871-4.825c.491-.197.996-.356 1.511-.473 0 0-.351 1.95 1.515 2.59z" fill="#fff"/></g></svg>