<svg width="222" height="68" fill="none" xmlns="http://www.w3.org/2000/svg"><path fill-rule="evenodd" clip-rule="evenodd" d="M110.646 5.722c-41.34 3.494-48.145.956-48.205.899 0-.238-.712-.255-4.446-.11-5.51.214-7.745 1.267-13.89.989-2.534-.114-17.487-.53-20.55-.774-7.46-.594-10.538-.59-12.105.017-3.016 1.168-7.942 1.63-8.356 4.086 0 1.044.168 1.035.373 1.905.35 1.487.407 1.581.943 1.581h.57l.596 1.48c-.308 1.129-.404 2.212-.407 4.571-.004 3.515-.43 3.955-1.429 6.295-.6 1.403-1.61 1.495-1.576 5.143.023 2.493.142 4.17.363 5.102.784 3.303-.425 6.771-1.585 9.705C.45 47.857.438 48.02.605 51.158c1.244 3.592.837 2.239 2.403 4.215.532.671 1.35.657 1.783.82.488.182.39.94.68 1.373l.21.317c.201.3.216.688.04 1.004a.963.963 0 00-.082.745l.084.282a1.66 1.66 0 001.266 1.155l1.166.233c.235.047.474.071.713.071h2.14c3.368-.267 6.214.817 9.869 1.189 1.826.186 5.393.599 7.927.918 3.736.47 4.909.548 6.208.407.882-.095 3.774-.365 6.428-.598 2.654-.234 8.893-.788 13.865-1.232 2.703-.684 2.742-.877 4.203-.684.92.122-.655-.02 2.575 0 .028.026.925 0-.075 1.5s.075 3.737.075 3.963c0 .258 2.345.282 4.303.164a197.52 197.52 0 015.517-.221 248.37 248.37 0 005.357-.194c1.178-.062 4.118-.204 6.534-.318a3247.728 3247.728 0 0011.248-.547c3.016-.15 4.631-1.552 6.466-1.347l1.5-1 1.774-.369c-1.007.13 1.969 0 1.348 0-.622 0-2.569.065 1.571 0 2.958-.046 4.917.02 6.159.21 2.542.39 27.429.363 31.372-.049 4.357-.454 10.143-2.41 14.831-1.887 4.148.463 8.231 1.124 8.891 1.438 1.512.72 9.738 1.327 15.105 1.114 4.789-.19 5.431-.236 7.064-.498.809-.13 1.647-.212 1.863-.182.216.03 1.549-.058 2.963-.196 3.737-.364 6.488-.605 9.641-.847a222.13 222.13 0 004.983-.443l2.198-.23.48-.757c.265-.417.874-1.312 1.355-1.989.739-1.04-1.442-.03-.598-2.315.28-.757.853-.284 1-2.5.034-.507 1.971-1.988 2.126-2.28.219-.415 1.558-4.122 1.369-4.71-.41-1.273.1-5.6 1.102-9.342.757-2.828.861-3.506.895-5.818.035-2.354-.022-2.801-.562-4.451-.33-1.01-.6-1.95-.6-2.09 0-.14-.096-.255-.214-.255s-.155-.057-.082-.127c.074-.07-.192-.611-.59-1.204l-.724-1.077.942 1.05c.945-.992 1.316-1.63 1.081-1.854-.069-.066-1.163-.163-2.43-.215-2.256-.092-2.315-.107-2.859-.72l-.556-.626 1.264-.57c2.186-.984 3.495-1.925 3.916-2.816.535-1.13.335-3.318-.368-4.035-.685-.697-.926-.795-3.189-1.293-2.592-.57-5.588 1.072-10.26.775-2.062-.132-3.773-.257-3.802-.28-.029-.022.099-.465.285-.985.311-.868.309-1.043-.019-2.127-.265-.873-.586-1.385-1.236-1.965-1.142-1.02-1.718-1.21-3.178-1.05a50.84 50.84 0 01-2.786.2c-.871.038-3.078.178-4.904.311-1.826.134-3.948.272-4.713.307-.766.035-2.839.171-4.607.304-1.767.132-3.84.266-4.606.297a74.91 74.91 0 00-2.892.189c-1.698.149-4.681.336-6.749.422-.766.032-2.068.123-2.893.2-.825.08-2.194.167-3.043.195l-1.544.05.12-.832c.332-2.311.806-6.078-5.194-6.578-8.972-.748-28.544 3.293-42.862 4.85zm-96.138 9.651c1.333-1.191 5.026-1.038 5-1.058-.062-.046-6.983-1.983-7-1.942-.007.017-.173 2.246-.5 3.5l-1.5 4.5 4-5zM32.731 16.5c.5.5.854 1.47 1.374.5l1-2.072h-2.048c-.416 0-.95-.282-.952.072-.002.252.126 1 .626 1.5zM34 57c1.118 0 1.895 0 4-1 4.11-1.953 2.035-2.944 1-3-1.054-.526-6.717 3.202-7 3.5-.328.346.5.5 2 .5zm109.508-45.627c1.166 0 4.913-.247 5-.5.111-.32-.034-1.5-1-1.5-1.375 0-10.073 1.071-11 1.5-.747.346 3.394.5 7 .5zm-128.5 33.5c0-.257-.036-.936.097-1.373.071-.178.004-1.134-.097-1.127-.212.014-1.596 1.55-1.508 1.627.032.028-.723 2.629-.104 2.57.997-.093 1.612-1.283 1.612-1.697zm192 11c.288.069-2-.5 0 0 0-.5-.5.163 1-1l-1-2-1.5 1.5-.5 2 2-.5zm-129 4.867c1.705-.255 5.443-1.083 5.5-1.367.065-.32-4.708-1.014-6.5-1-2.333.019-4.349.377-5.406 1.278l.192.687 1.802.402c.504-.078 3.236.177 4.412 0zm112.321-2.002c.209.052.498.049.643-.007.145-.056-.025-.098-.379-.094-.353.004-.472.05-.264.102z" fill="#FFDD59"/><path d="M190.972 58.731c-.145.056-.434.06-.643.008-.208-.052-.089-.098.264-.102.354-.004.524.038.379.094zm-107.464.642c-.057.285-3.795 1.112-5.5 1.367-1.176.177-3.908-.078-4.412 0l-1.802-.402-.192-.688c1.057-.9 3.073-1.258 5.406-1.277 1.792-.014 6.565.68 6.5 1zm123.5-3.5l-2 .5.5-2 1.5-1.5 1 2c-1.5 1.163-1 .5-1 1z" fill="#FFDD59"/><path d="M49.989 41.534v.287c0 .09-.045.179-.136.268V41.4c-.103 0-.155-.051-.155-.153v-.134c0-.038-.065-.102-.194-.191-.116-.103-.174-.166-.174-.192 0-.013.032-.019.097-.019v-.134c0-.191.045-.332.135-.421v-1.933c0-.65-.045-1.11-.135-1.378v-2.776c0-.357-.046-.631-.136-.823v-.402l-.02-.191a5.948 5.948 0 01-.077-.44c-.026-.179-.052-.37-.078-.574a11.567 11.567 0 00-.058-.632 9.278 9.278 0 01-.02-.536c0-.268.033-.402.098-.402h.02c0-.179-.053-.313-.156-.402v-.44a.63.63 0 01.31-.574c.22-.14.395-.21.524-.21.064.037.245.057.543.057h.485c.18 0 .355.012.523.038.168.012.297.019.388.019.22 0 .575-.006 1.066-.02a49.49 49.49 0 011.086-.018c.815 0 1.325.064 1.532.191.466 0 1.106.23 1.92.69.155.05.317.152.485.306.18.14.343.23.485.267.09.051.161.185.213.402.064.204.149.332.252.383a.663.663 0 01.136.21c.051.09.097.16.136.211.284.14.426.415.426.823.13 0 .194.134.194.402 0 .051-.02.096-.058.134v.708c0 .192-.045.287-.136.287v.67a.72.72 0 00-.155.23 1.767 1.767 0 00-.058.21c0 .064-.02.122-.058.173a.186.186 0 01-.155.076l-.408.421a.554.554 0 00-.116.134c0 .051.078.134.233.25.155.114.33.235.523.363.194.127.304.204.33.23.026.012.142.057.349.134.22.076.381.16.485.248a.362.362 0 01.155.307v.134c.077.076.136.16.174.248.052.09.097.211.136.364l.116.345v.153a.38.38 0 00-.116.134.185.185 0 00-.039.096v.457c-.09.141-.18.262-.271.364a2.255 2.255 0 01-.194.23 2.864 2.864 0 01-.291.287l-.368.364-.427.421c-.052 0-.11.026-.175.077a5.044 5.044 0 00-.29.248l-.214.211a3.198 3.198 0 01-.678.479c-.285.153-.479.23-.582.23-.181.178-.33.267-.446.267l-.136.153a1.53 1.53 0 01-.349.134 6.88 6.88 0 00-.349.134v.134c-.116 0-.272.045-.465.134-.181.09-.304.134-.369.134-.168 0-.349.096-.543.287-.194 0-.336.045-.426.134h-.99a8.383 8.383 0 00-.562-.268c-.271 0-.452-.05-.543-.153h-.155c-.362-.357-.64-.536-.834-.536-.194-.191-.381-.287-.562-.287v-.134h-.155l-.272-.287c-.09-.09-.18-.134-.271-.134zm2.618-1.646l.6-.287h.137a.47.47 0 01.135.038c.065.013.11.02.136.02a.19.19 0 00.136-.058h.155c.414-.191.743-.325.989-.402-.013-.013.02-.045.097-.096l.349-.248c.155-.115.284-.237.388-.364v-.134c.271 0 .64-.23 1.105-.69.052-.038.13-.127.233-.267l.213-.287c0-.064-.006-.102-.02-.115-.012-.013-.051-.02-.116-.02h-2.676l-.077.02a2.323 2.323 0 01-.213.038 18.24 18.24 0 01-.621.077 3.225 3.225 0 01-.33.019.922.922 0 01-.446-.096.635.635 0 01-.213-.191c-.039-.064-.065-.096-.078-.096-.013 0-.019.032-.019.096-.077 0-.123.006-.136.019-.013.013-.02.05-.02.115v.268c0 .038-.025.127-.077.268-.038.14-.058.236-.058.287v.555a1.094 1.094 0 00-.155.555v.153a.511.511 0 00-.097.134.185.185 0 00-.039.096v.038c.04.038.058.07.058.096-.025.204-.09.306-.193.306l.271.153c.052-.051.103-.121.155-.21a.859.859 0 01.136-.211v.268c0 .077.006.121.02.134.012.013.058.019.135.019h.136zm1.726-8.44h-.951c-.142 0-.232.076-.271.229-.039.14-.084.21-.136.21a.22.22 0 01-.097-.019c0 .039-.026.083-.077.134-.04.051-.059.096-.059.134v2.067h.291l.04.058c.025 0 .044-.096.057-.287.026-.204.058-.306.097-.306.026 0 .065.044.117.133.18 0 .271-.044.271-.134h.291c.116-.102.297-.185.543-.248.246-.064.394-.122.446-.173.582-.268.95-.504 1.105-.708a.467.467 0 01.214-.134.876.876 0 00.213-.134l.271-.268c0-.09-.045-.185-.135-.287h-.427c-.194-.179-.795-.268-1.803-.268zm11.782-3.733v.076c.065.064.123.096.175.096a.37.37 0 00.271-.096h.757c-.013-.012.006-.038.058-.076.052-.051.084-.077.097-.077.013 0 .045.026.097.077l.058.057c.039 0 .058-.019.058-.057.052 0 .11.025.175.076h.097c.685.179 1.092.332 1.221.46h.078c0 .165.187.357.562.574 0 .026.033.07.097.134a12.045 12.045 0 01.35.287c.051.064.148.096.29.096h.175a.336.336 0 00-.04.153c0 .025.007.05.02.076.013.026.02.045.02.058l.194.191c.116 0 .174.051.174.153h.116c-.038.039-.058.07-.058.096 0 .038.09.121.272.249.194.115.33.191.407.23.142.115.24.172.29.172l.078.076c.052.039.097.077.136.115l.078.077a.082.082 0 00.058.019l.31.268c.065.153.142.3.233.44.09.128.161.223.213.287.052.051.078.083.078.096v.077c.09 0 .207.184.349.555.155.357.232.574.232.65.246.625.369 1.142.369 1.55v.173c0 .14-.026.236-.078.287v.268a.48.48 0 01-.077.23.458.458 0 00-.059.153.325.325 0 01.059.153c-.09.383-.162.6-.214.65v.288c0 .05-.032.108-.097.172l-.271.632v.095c-.272.587-.504 1.04-.698 1.36-.194.318-.33.497-.407.535a.756.756 0 00-.175.077c-.026.013-.039.057-.039.134-.09.115-.22.268-.387.46-.168.178-.317.337-.446.478-.04.063-.156.178-.35.344a5.27 5.27 0 00-.465.479.438.438 0 01-.136.057.6.6 0 00-.116.038c-.026.013-.039.039-.039.077l-.077.096a.611.611 0 01-.214.076.421.421 0 00-.155.077h-.116c-.323.319-.692.478-1.105.478h-.737c-.285 0-.498-.057-.64-.172h-.097a.644.644 0 01-.155.038c-.285 0-.653-.134-1.106-.402-.452-.255-.775-.478-.97-.67a.443.443 0 01-.29-.114c-.078-.09-.187-.224-.33-.402a3.127 3.127 0 00-.387-.479l-.388-.363c0-.077-.058-.205-.175-.383-.116-.179-.174-.3-.174-.364-.492-.638-.737-1.244-.737-1.818-.104-.204-.168-.479-.194-.823-.026-.345-.058-.587-.097-.728v-.535c-.065-.243-.097-.613-.097-1.11v-.747c0-.115.013-.275.039-.479a2.79 2.79 0 00.058-.497c.465-1.162.924-2.112 1.377-2.852.051-.038.213-.223.484-.555v-.096a.602.602 0 00.214-.172.96.96 0 01.213-.172.629.629 0 01.175-.096c.103-.051.18-.096.232-.134.052-.051.078-.102.078-.153h.097a2.66 2.66 0 01.155-.134c.078-.077.149-.134.213-.173a.352.352 0 01.175-.057 2.397 2.397 0 00.446-.115.181.181 0 00.077-.153c0-.026-.02-.057-.058-.096 0-.05.039-.076.117-.076zm4.441 9.953l.078.096.097-.192c.323-.523.517-.944.581-1.263v-.364c-.012-1.263-.549-2.246-1.61-2.947v-.096l-.096-.077c-.052 0-.155-.057-.31-.172-.156-.115-.265-.172-.33-.172h-.097c-.078 0-.194-.045-.349-.134a10.61 10.61 0 00-.427-.268c-.116-.09-.194-.115-.232-.077a.794.794 0 01-.388.096h-.524l-.097.077c-.142 0-.239.031-.29.095-.04 0-.09-.025-.156-.076-.064-.051-.116-.077-.155-.077a.188.188 0 00-.136.058H66c-.582 0-1.04.765-1.377 2.296v1.36c0 .088.058.49.175 1.205.246.485.44.887.582 1.206.155.127.303.338.446.632.142.14.336.261.581.363.259.102.44.153.543.153.052.064.11.096.175.096h.349c.349 0 .711-.147 1.086-.44.375-.294.582-.447.62-.46l.252-.267c0-.026.02-.052.059-.077.051-.038.09-.07.116-.096l.485-.478v.096c.065-.039.129-.084.194-.135a.649.649 0 01.174-.114v.057a1.125 1.125 0 00-.213.268c-.09.115-.136.153-.136.115 0 .013.026.038.078.076l.368-.363zm6.155-6.431h-.213c0-.064.006-.122.02-.173a.34.34 0 00.038-.095c0-.115-.103-.23-.31-.345-.207-.127-.31-.198-.31-.21 0-.039.019-.096.058-.173h-.291c.038-.102.058-.223.058-.363V29.8l.368-.42c1.332-.83 2.392-1.245 3.18-1.245.207 0 .505.038.892.115.388.076.776.115 1.164.115.452 0 .879.102 1.28.306.4.204.672.395.814.574.026.038.084.115.175.23.103.115.18.217.233.306.064.077.122.172.174.287a.76.76 0 01.078.306c0 .128.032.307.097.536.077.23.116.402.116.517 0 .702-.356 1.263-1.067 1.684l.058.077c.505.05 1.015.325 1.532.823.53.498.95 1.046 1.26 1.646.311.6.466 1.104.466 1.512v.191c0 .166.026.326.078.479v.21c-.052.23-.078.543-.078.938.026.128.039.211.039.25 0 .586-.33 1.313-.989 2.181l-.058.077c-.22.383-.73.714-1.532.995-.801.294-1.41.44-1.823.44h-.776c-.155 0-.284.02-.387.058-1.034 0-2.075-.313-3.122-.938-1.034-.613-1.733-1.238-2.095-1.876a.42.42 0 01-.096-.076.444.444 0 00-.078-.115l-.02-.039c0-.038.02-.076.059-.114l-.078-.058c0 .038-.045.058-.136.058a.689.689 0 01-.194-.192.6.6 0 01-.097-.21 1.266 1.266 0 01-.019-.21.323.323 0 00-.02-.135c-.012-.038-.032-.051-.057-.038-.04-.038-.059-.134-.059-.287 0-.09.02-.16.059-.21.064 0 .122.025.174.076a.32.32 0 00.194.076h.136a.839.839 0 01.155-.019 3.039 3.039 0 01-.097-.364c0-.012.013-.057.039-.133.038 0 .084.025.135.076 0-.102-.025-.172-.077-.21h.136l-.059-.077c0-.077.033-.128.097-.153.078-.026.117-.07.117-.134.232.153.459.306.678.46.117.076.188.114.214.114h.058c.246 0 .44.077.582.23a.298.298 0 01.116-.038l.194.095.194.21c.4.345.717.517.95.517h.368c.518.102.892.154 1.125.154.297 0 .595-.039.892-.115.297-.09.446-.179.446-.268.517-.804.776-1.531.776-2.182 0-.613-.181-1.104-.543-1.474a1.775 1.775 0 00-1.319-.555c-.142 0-.426.096-.853.287-.414.179-.692.268-.834.268h-.213a1.619 1.619 0 00-.213-.02.62.62 0 00-.175.04 1.02 1.02 0 01-.116.018c-.078 0-.168-.05-.272-.153-.103-.102-.207-.153-.31-.153-.065 0-.168-.07-.31-.21a2.29 2.29 0 01-.33-.44v-.077c-.078-.051-.188-.179-.33-.383-.129-.217-.22-.325-.271-.325a.57.57 0 00.097-.307.51.51 0 00-.02-.114v-.134l.136.076c.026 0 .071-.038.136-.115a3.49 3.49 0 00.213-.23l.097-.114h.233l.136-.153.097-.096c.077-.051.148-.102.213-.153a2.4 2.4 0 00.174-.192c.065-.063.097-.108.097-.134.052-.012.207-.032.466-.057.271-.026.478-.057.62-.096h.214c.155 0 .31-.083.465-.248.155-.167.233-.313.233-.44 0-.205-.162-.345-.485-.422a4.035 4.035 0 00-.93-.115c-.272 0-.951.198-2.037.594zM88.81 41.534v.287c0 .09-.046.179-.136.268V41.4c-.104 0-.155-.051-.155-.153v-.134c0-.038-.065-.102-.194-.191-.117-.103-.175-.166-.175-.192 0-.013.033-.019.097-.019v-.134c0-.191.045-.332.136-.421v-1.933c0-.65-.045-1.11-.136-1.378v-2.776c0-.357-.045-.631-.136-.823v-.402l-.019-.191a5.948 5.948 0 01-.078-.44 34.17 34.17 0 01-.077-.574 11.57 11.57 0 00-.058-.632 9.278 9.278 0 01-.02-.536c0-.268.033-.402.097-.402h.02c0-.179-.052-.313-.156-.402v-.44a.63.63 0 01.31-.574c.22-.14.395-.21.524-.21.065.037.246.057.543.057h.485c.181 0 .355.012.524.038a5.6 5.6 0 00.388.019c.22 0 .575-.006 1.066-.02.491-.012.853-.018 1.086-.018.814 0 1.325.064 1.532.191.465 0 1.105.23 1.92.69.155.05.316.152.484.306.181.14.343.23.485.267.09.051.162.185.213.402.065.204.15.332.252.383a.66.66 0 01.136.21c.052.09.097.16.136.211.285.14.427.415.427.823.129 0 .194.134.194.402 0 .051-.02.096-.059.134v.708c0 .192-.045.287-.135.287v.67a.724.724 0 00-.156.23 1.767 1.767 0 00-.058.21c0 .064-.02.122-.058.173a.185.185 0 01-.155.076l-.407.421c-.078.077-.117.122-.117.134 0 .051.078.134.233.25.155.114.33.235.524.363.194.127.304.204.33.23.025.012.142.057.348.134.22.076.382.16.485.248a.362.362 0 01.155.307v.134c.078.076.136.16.175.248.052.09.097.211.136.364l.116.345v.153a.38.38 0 00-.116.134.185.185 0 00-.04.096v.457c-.09.141-.18.262-.27.364a2.242 2.242 0 01-.195.23 2.71 2.71 0 01-.29.287l-.369.364-.427.421c-.051 0-.11.026-.174.077a5 5 0 00-.29.248l-.214.211a3.193 3.193 0 01-.679.479c-.284.153-.478.23-.582.23-.18.178-.33.267-.446.267l-.135.153a1.53 1.53 0 01-.35.134 7.5 7.5 0 00-.349.134v.134c-.116 0-.27.045-.465.134-.18.09-.304.134-.368.134-.168 0-.35.096-.543.287-.194 0-.336.045-.427.134h-.989a8.352 8.352 0 00-.562-.268c-.272 0-.453-.05-.543-.153h-.155c-.362-.357-.64-.536-.834-.536-.194-.191-.381-.287-.562-.287v-.134h-.156l-.271-.287c-.09-.09-.18-.134-.272-.134zm2.617-1.646l.601-.287h.136c.026 0 .071.013.136.038.065.013.11.02.136.02.051 0 .097-.02.135-.058h.156c.413-.191.743-.325.989-.402-.013-.013.019-.045.096-.096l.35-.248a2.12 2.12 0 00.387-.364v-.134c.272 0 .64-.23 1.106-.69a1.43 1.43 0 00.232-.267l.214-.287c0-.064-.007-.102-.02-.115-.013-.013-.052-.02-.116-.02h-2.676l-.078.02a2.316 2.316 0 01-.213.038 18.24 18.24 0 01-.62.077 3.257 3.257 0 01-.33.019.922.922 0 01-.446-.096.635.635 0 01-.214-.191c-.038-.064-.064-.096-.077-.096-.013 0-.02.032-.02.096-.077 0-.122.006-.135.019-.013.013-.02.05-.02.115v.268c0 .038-.025.127-.077.268a1.33 1.33 0 00-.058.287v.555a1.095 1.095 0 00-.155.555v.153a.509.509 0 00-.097.134.185.185 0 00-.04.096v.038c.04.038.059.07.059.096-.026.204-.09.306-.194.306l.272.153a1.04 1.04 0 00.155-.21.862.862 0 01.135-.211v.268c0 .077.007.121.02.134.013.013.058.019.136.019h.135zm1.726-8.44h-.95c-.142 0-.233.076-.272.229-.038.14-.084.21-.135.21a.22.22 0 01-.097-.019c0 .039-.026.083-.078.134-.039.051-.058.096-.058.134v2.067h.29l.04.058c.025 0 .045-.096.058-.287.026-.204.058-.306.097-.306.026 0 .064.044.116.133.181 0 .272-.044.272-.134h.29c.117-.102.298-.185.543-.248.246-.064.395-.122.447-.173.581-.268.95-.504 1.105-.708a.468.468 0 01.213-.134.876.876 0 00.213-.134l.272-.268c0-.09-.045-.185-.136-.287h-.426c-.194-.179-.795-.268-1.804-.268zm18.628 2.717c-.013 0-.181.325-.504.976-.168.28-.252.453-.252.517v.077c0 .255-.129.504-.388.746a3.665 3.665 0 01-.892.613c-.336.153-.627.274-.873.363-.245.09-.4.14-.465.153a.61.61 0 00-.213.077c-.129.077-.64.172-1.532.287a1.3 1.3 0 01-.194.038 1.21 1.21 0 00-.175.039c-.051-.103-.174-.154-.368-.154-.013.013-.032.02-.058.02a1.08 1.08 0 01-.233-.039.747.747 0 00-.233-.057h-.543l-.019.038v.077c0 .191.019.338.058.44.052.09.084.204.097.345l.233 2.086c0 .063.006.153.019.268.026.115.039.197.039.248-.039.026-.097.147-.174.364a.178.178 0 01-.078-.019.174.174 0 00-.078-.02c-.025 0-.058.02-.097.058a.187.187 0 01-.097.039c-.025 0-.058-.02-.096-.058-.039 0-.149.096-.33.287a1.085 1.085 0 01-.621.345c-.258.127-.4.191-.426.191a.153.153 0 01-.058-.019h-.078c0 .051-.052.09-.155.115-.09.025-.213.05-.369.076a4.705 4.705 0 01-.252.039.638.638 0 01-.155.038c-.232 0-.433-.166-.601-.498a2.703 2.703 0 01-.271-.976l-.117-1.895c-.077-1.02-.116-1.767-.116-2.239 0-.191.013-.485.039-.88.038-.409.058-.715.058-.92 0-.37-.058-1.058-.175-2.066 0-.103.02-.243.059-.421a2.27 2.27 0 00.077-.345c-.051-.051-.077-.944-.077-2.68 0-.587.077-.918.232-.995h.175c.052-.23.077-.383.077-.46.039 0 .188.032.446.096h.214a.15.15 0 01.058-.019c.052 0 .129.032.232.096.143-.026.382-.038.718-.038.543 0 1.28.057 2.211.172.93.102 1.409.153 1.435.153.788 0 1.758.319 2.908.957.143.09.259.185.349.287.104.09.22.217.349.383.13.153.252.287.369.402.155.102.291.313.407.632.129.306.22.504.271.593.169.293.253.638.253 1.034 0 .293-.039.555-.117.784l.097.25zm-6.69.938a9.407 9.407 0 011.144-.172c.427-.039.718-.07.873-.096a.92.92 0 00.446-.287c.155-.153.271-.39.349-.708.039-.153.058-.307.058-.46 0-.217-.129-.478-.388-.784a1.62 1.62 0 00-.931-.613 5.429 5.429 0 00-1.085-.096c-.466 0-.699.07-.699.211 0 .05.007.096.02.134v.172c0 .37.019.766.058 1.187l.097 1.033c.039.268.058.428.058.479zm15.265 6.699l-.078-.287c-.025-.013-.058-.09-.097-.23v-.019a.283.283 0 00-.038-.115.524.524 0 01-.02-.115v-.038c-.129-.127-.194-.242-.194-.344l-.077-.096v-.02c0-.025-.02-.05-.058-.076-.026-.025-.039-.05-.039-.076v-.02c0-.076-.071-.216-.214-.42-.129-.205-.193-.332-.193-.383l-.097-.077c.026-.026.038-.051.038-.076v-.02a.181.181 0 01-.019-.076h-.019c-.052 0-.162-.128-.33-.383s-.323-.383-.466-.383h-.155a.951.951 0 01-.116-.019.834.834 0 00-.155-.02 1.28 1.28 0 00-.31.04 1.192 1.192 0 01-.194.038h-.058c-.013-.013-.026-.02-.039-.02a.429.429 0 00-.272.077h-.077a.322.322 0 00-.097-.02c-.039 0-.278.032-.718.096a8.89 8.89 0 01-.969.077h-.078l.136-.02c0-.012-.026-.018-.078-.018-.116.025-.174.057-.174.096h-.097c-.142 0-.213.114-.213.344 0 .013.006.02.019.02l.019-.02v.02c0 .14-.045.382-.135.726-.091.345-.13.543-.117.594l-.019.076v.268a.598.598 0 01.039.173c0 .114-.065.28-.194.497-.129.204-.246.306-.349.306a.157.157 0 01-.059-.019.144.144 0 00-.058-.019l-.155.096-.097-.02c-.026.039-.194.058-.504.058-.297 0-.472.013-.523.038h-.175c-.013.039-.065.083-.155.134-.091.064-.155.096-.194.096h-.019a.486.486 0 01-.214.077c-.051 0-.097-.026-.136-.077h-.077c-.142-.064-.213-.134-.213-.21 0-.064.013-.109.038-.134v-.096c-.064-.064-.097-.185-.097-.364l.291-.153-.019-.096c0-.025.013-.064.039-.114.039-.051.058-.09.058-.115a.791.791 0 01-.039-.134c0-.013.026-.038.078-.077.051-.038.09-.057.116-.057h.039c.052-.013.077-.058.077-.134v-.058c.117-.191.207-.459.272-.803.077-.358.136-.556.174-.594a.413.413 0 00-.077-.268h.077a1.586 1.586 0 00-.116-.134.217.217 0 00-.078-.076c-.025-.026-.045-.039-.058-.039a.21.21 0 00-.077-.038.503.503 0 01-.117-.057c.013-.09.091-.21.233-.364a2.85 2.85 0 01.524-.44c.051-.038.11-.179.174-.421a9.57 9.57 0 00.175-.804c.064-.306.116-.504.155-.594.142-.408.329-1.103.562-2.086.233-.995.407-1.671.524-2.029.039-.064.071-.198.097-.402.026-.217.084-.434.174-.65l.02-.173a.71.71 0 00.097-.268c.026-.127.051-.217.077-.268a.205.205 0 01-.058-.153c.078-.038.136-.121.174-.248.052-.128.091-.192.117-.192h.058c.091-.076.181-.191.271-.345l.291-.267c.065 0 .162-.045.291-.134a.707.707 0 01.407-.154.54.54 0 01.117.02c.026.025.052.038.077.038h.02l.058.076c.026-.05.129-.102.31-.153.181-.05.375-.102.582-.153.207-.05.33-.083.368-.096.117.09.175.18.175.268l.077-.095c.298.153.531.338.699.555.181.204.297.319.349.344.129.128.336.422.62.88.285.447.511.754.679.92.116.153.245.376.388.67.155.293.232.484.232.574l.078-.02c.052.064.077.16.077.288v.095c.104.128.207.377.311.747.116.357.213.606.291.746.245.409.523 1.066.833 1.972 0 .012.052.102.155.268.117.153.175.28.175.383v.019c.53 1.352.814 2.073.853 2.162.155.281.375.696.66 1.245l.193.363v-.019c.156.28.233.479.233.593 0 .039-.019.077-.058.115v.096c0 .166-.032.28-.097.344l-.194.173c-.051 0-.077.031-.077.095l.077.173h-.077c-.052-.051-.091-.077-.117-.077-.013 0-.032.02-.058.058-.013.038-.026.057-.039.057a.381.381 0 01-.194-.057.831.831 0 01-.155-.115 4.134 4.134 0 01-.097-.153l-.058-.077c-.142 0-.291-.032-.446-.096-.142-.076-.258-.114-.349-.114v.057l.019.038c0 .217-.103.364-.31.44h-.019c-.026 0-.078.032-.155.096-.078.064-.201.096-.369.096-.297 0-.562-.026-.795-.077-.22-.038-.368-.083-.446-.134-.077-.038-.123-.076-.136-.115l-.077-.095-.097.076c-.039.039-.078.058-.116.058-.052 0-.097-.045-.136-.134l-.097-.096zm-2.502-4.919c.039 0 .059.006.059.02a37.02 37.02 0 00-.446-1.15 7.785 7.785 0 00-.194-.497.973.973 0 00-.078-.191 20.897 20.897 0 01-.116-.364c-.026-.077-.136-.268-.33-.574-.194-.306-.304-.504-.33-.594l-.213.67a5.53 5.53 0 01-.155.421 3.15 3.15 0 00-.097.25 2.782 2.782 0 00-.058.152v.077c0 .05-.039.108-.116.172-.272.932-.408 1.455-.408 1.57-.064.05-.097.102-.097.153.427-.051 1.287-.09 2.579-.115zm5.625-5.283v-.057a3.34 3.34 0 00.349-.191l-.077-.115.31-.268c-.116-.051-.233-.224-.349-.517l-.058-.115a.268.268 0 01-.039-.153c0-.217.246-.325.737-.325.065 0 .162.025.291.076.129.038.233.058.31.058.272 0 .407-.032.407-.096l-.271-.21c0-.052.051-.077.155-.077l-.078-.058c-.026-.025-.038-.05-.038-.076 0-.038.032-.058.097-.058l.194.058-.059-.326c.285 0 .498-.006.64-.019 0-.013-.032-.096-.097-.249.414.115.873.173 1.377.173.142 0 .349-.007.621-.02.284-.012.504-.019.659-.019.233 0 .414.007.543.02.672-.026 1.073-.058 1.202-.096.026.038.187.07.485.095a73.399 73.399 0 002.191.115c.349.026.672.058.97.096.31.026.633.051.969.077l.95.114c.401.051.692.338.873.862 0 .025-.019.057-.058.096-.026.025-.039.044-.039.057 0 .064.045.127.136.191l.116.115a2.877 2.877 0 01-.388.613c-.181.216-.317.331-.407.344l.058.23a1.831 1.831 0 00-.232.23c-.117.114-.227.21-.33.287a.436.436 0 01-.233.095c-.931.064-1.499.096-1.706.096-.233 0-.414-.013-.543-.038h-.97c-.116 0-.181.063-.194.191l-.058.517c-.039.293-.058.785-.058 1.474 0 .408.006.701.019.88v-.23c0-.14.007-.21.02-.21v.096l.077 1.282c0 .153.013.376.039.67.039.28.058.479.058.593l-.058.46-.039.918c-.103.383-.155.62-.155.709l-.058.67c0 .05-.026.108-.077.172-.039.05-.059.096-.059.134 0 .153.013.376.039.67.026.293.039.51.039.65a.512.512 0 00-.155-.019c-.013 0-.162.109-.446.326-.285.23-.446.344-.485.344-.052 0-.097-.026-.136-.076-.116.089-.213.134-.291.134a.355.355 0 01-.252-.115l-.077.153c-.039.076-.091.115-.155.115-.143 0-.265-.134-.369-.402a3.59 3.59 0 01-.213-.976c-.026-.409-.046-.721-.058-.938a9.552 9.552 0 01-.02-.555l-.155.038c0-.026-.013-.102-.039-.23a3.681 3.681 0 01-.019-.306l-.233-2.833-.077-.727c-.026-.383-.046-.677-.058-.88v-.135c0-.153.019-1.014.058-2.583V32.5h-.02l-.038-.02c-.828-.14-1.468-.21-1.92-.21-.065 0-.149.013-.252.038-.104.013-.181.02-.233.02-.116 0-.336-.045-.659-.134a5.723 5.723 0 00-.504-.134c-.039 0-.065.006-.078.019-.026 0-.045-.007-.058-.02l-.504-.114-.194-.096a.787.787 0 00-.194-.115.443.443 0 00-.194-.076l-.175-.058zm18.1-3.885v.076c.065.064.123.096.174.096a.37.37 0 00.272-.096h.756c-.013-.012.007-.038.058-.076.052-.051.084-.077.097-.077.013 0 .046.026.097.077l.058.057c.039 0 .058-.019.058-.057.052 0 .11.025.175.076h.097c.685.179 1.092.332 1.222.46h.077c0 .165.188.357.563.574 0 .026.032.07.096.134a12.681 12.681 0 01.35.287c.051.064.148.096.29.096h.175a.334.334 0 00-.039.153c0 .025.007.05.019.076.014.026.02.045.02.058l.194.191c.116 0 .174.051.174.153h.117c-.039.039-.058.07-.058.096 0 .038.09.121.271.249.194.115.33.191.407.23.143.115.239.172.291.172l.078.076c.051.039.097.077.135.115l.078.077a.082.082 0 00.058.019l.31.268c.065.153.143.3.233.44.091.128.162.223.213.287.052.051.078.083.078.096v.077c.091 0 .207.184.349.555.155.357.233.574.233.65.245.625.368 1.142.368 1.55v.173c0 .14-.026.236-.077.287v.268a.48.48 0 01-.078.23.451.451 0 00-.058.153.322.322 0 01.058.153c-.09.383-.162.6-.213.65v.288c0 .05-.033.108-.097.172l-.272.632v.095c-.271.587-.504 1.04-.698 1.36-.194.318-.33.497-.407.535a.757.757 0 00-.175.077c-.025.013-.038.057-.038.134-.091.115-.22.268-.388.46-.168.178-.317.337-.446.478-.039.063-.155.178-.349.344a5.365 5.365 0 00-.466.479.433.433 0 01-.135.057.6.6 0 00-.117.038c-.025.013-.038.039-.038.077l-.078.096a.616.616 0 01-.213.076.417.417 0 00-.155.077h-.117c-.323.319-.691.478-1.105.478h-.737c-.284 0-.498-.057-.64-.172h-.097a.638.638 0 01-.155.038c-.284 0-.653-.134-1.105-.402-.453-.255-.776-.478-.97-.67a.445.445 0 01-.291-.114c-.077-.09-.187-.224-.329-.402a3.2 3.2 0 00-.388-.479l-.388-.363c0-.077-.058-.205-.175-.383-.116-.179-.174-.3-.174-.364-.491-.638-.737-1.244-.737-1.818-.103-.204-.168-.479-.194-.823-.026-.345-.058-.587-.097-.728v-.535c-.064-.243-.097-.613-.097-1.11v-.747c0-.115.013-.275.039-.479.039-.204.058-.37.058-.497.466-1.162.925-2.112 1.377-2.852.052-.038.213-.223.485-.555v-.096a.604.604 0 00.213-.172.982.982 0 01.213-.172.623.623 0 01.175-.096 1.65 1.65 0 00.233-.134c.051-.051.077-.102.077-.153h.097c.026-.026.078-.07.155-.134.078-.077.149-.134.214-.173a.346.346 0 01.174-.057c.013 0 .078-.013.194-.038.116-.026.2-.051.252-.077a.181.181 0 00.078-.153c0-.026-.02-.057-.059-.096 0-.05.039-.076.117-.076zm4.44 9.953l.078.096.097-.192c.323-.523.517-.944.582-1.263v-.364c-.013-1.263-.55-2.246-1.61-2.947v-.096l-.097-.077c-.051 0-.155-.057-.31-.172-.155-.115-.265-.172-.33-.172h-.097c-.077 0-.194-.045-.349-.134a10.763 10.763 0 00-.426-.268c-.117-.09-.194-.115-.233-.077a.795.795 0 01-.388.096h-.523l-.097.077c-.142 0-.239.031-.291.095-.039 0-.091-.025-.155-.076-.065-.051-.117-.077-.155-.077a.188.188 0 00-.136.058h-.117c-.581 0-1.04.765-1.376 2.296v1.36c0 .088.058.49.174 1.205.246.485.44.887.582 1.206.155.127.304.338.446.632.142.14.336.261.582.363.258.102.439.153.543.153.051.064.11.096.174.096h.349c.349 0 .711-.147 1.086-.44.375-.294.582-.447.621-.46l.252-.267c0-.026.019-.052.058-.077.052-.038.09-.07.116-.096l.485-.478v.096c.065-.039.129-.084.194-.135a.652.652 0 01.174-.114v.057a1.15 1.15 0 00-.213.268c-.09.115-.136.153-.136.115 0 .013.026.038.078.076l.368-.363zM165.38 35.6l.155 4.746c0-.025-.013-.012-.039.039-.22.37-.368.567-.446.593a.153.153 0 01-.058.02c-.026 0-.071.037-.136.114-.052.077-.11.16-.174.249a2.22 2.22 0 01-.117.153h-.329a.344.344 0 01-.097.096.62.62 0 00-.097.076c-.013.013-.02.032-.02.058 0 .089-.187.217-.562.382-.375.179-.601.377-.679.594l-.097.096c0-.077-.058-.186-.174-.326a1.098 1.098 0 00-.369-.325c-.155 0-.271-.09-.349-.268-.077-.179-.135-.44-.174-.785-.026-.344-.045-.536-.058-.574-.065-.243-.097-.817-.097-1.723 0-1.02-.065-2.105-.194-3.254v-.574a3.517 3.517 0 00-.097.268c-.052.14-.097.23-.136.268-.194.37-.601.861-1.221 1.474a3.58 3.58 0 00-.233.325c-.13.192-.213.3-.252.326-.026.025-.188.236-.485.631a12.87 12.87 0 01-.504.651c-.065 0-.136.032-.214.096-.077-.051-.135-.077-.174-.077-.039 0-.084.026-.136.077h-.562c-.052 0-.194-.083-.427-.25-.232-.178-.407-.267-.523-.267l-.233-.23a.417.417 0 01-.097-.076.383.383 0 00-.136-.115v.42c0 .218.045.39.136.518v1.301c-.078 0-.129.09-.155.268-.026.179-.123.268-.291.268 0 .039-.058.121-.174.249-.117.115-.207.172-.272.172l-.64.326h-.116c-.026-.039-.052-.058-.078-.058l-.213.115a.318.318 0 01-.136.038c-.103 0-.207.07-.31.21-.091.141-.2.211-.33.211h-.426c-.052.064-.091.096-.117.096l-.077-.038a.518.518 0 00-.369-.153c-.504-.14-.756-1.244-.756-3.312 0-.42-.032-1.046-.097-1.875a26.654 26.654 0 01-.097-1.761 6.9 6.9 0 00-.077-.9 8.732 8.732 0 01-.059-.823v-3.73a.488.488 0 00-.097-.326 3.27 3.27 0 00.272-.153c.103-.064.194-.114.271-.153a1.1 1.1 0 00.136-.23 1.24 1.24 0 01.252-.363.509.509 0 01.369-.153c.051.05.103.076.155.076a.242.242 0 00.174-.076h.117c.09.025.232.057.426.095.194.039.362.083.504.134.143.051.266.115.369.192.129.28.233.453.31.517.103.344.213.701.33 1.072.039.14.084.35.136.631.051.28.103.523.155.727.064.204.148.364.252.479.401.395.795.963 1.183 1.703.038.064.077.173.116.326.039.14.078.242.116.306.104.115.194.249.272.402.077.14.161.313.252.517.09.191.168.35.233.478l.232-.363c1.138-1.723 1.707-2.744 1.707-3.063.103 0 .2-.076.291-.23.103-.165.155-.306.155-.42a.296.296 0 00.213.095 5.11 5.11 0 01.427-1.167v.325c.077 0 .116.076.116.23l.194-.307v.077c.155-.115.233-.223.233-.325h-.097c.051-.205.077-.364.077-.479 0-.09-.026-.249-.077-.478a.533.533 0 00-.156.134.736.736 0 00-.096.172.41.41 0 01-.078.134h-.116c.207-.204.31-.39.31-.555l.194-.096c.09-.051.149-.083.174-.096l.097-.095a.43.43 0 00.078-.154.794.794 0 00.019-.19c.091-.052.259-.084.504-.097.246-.012.401-.05.466-.114.853 0 1.538.567 2.055 1.703v.21c.091.23.168.492.233.785.078.294.149.53.213.709.207.612.311 1.046.311 1.301a.595.595 0 01-.02.096.504.504 0 00-.019.115c0 .178.084.746.252 1.703v.21zm-4.557-4.67v-.135h.058l-.058.134zm.136-.25c0 .077-.026.115-.078.115l.078-.114zm6.519 9.38a.407.407 0 00-.116-.173c-.065-.064-.097-.121-.097-.172a.67.67 0 01.232-.517c.168-.14.252-.23.252-.268a.441.441 0 00.059-.096.953.953 0 00.077-.114.459.459 0 01.116-.077.443.443 0 01.194-.077.63.63 0 01.194.039c-.026 0-.045.006-.058.019h-.019c0 .012.013.032.038.057l.039.038-.039.058c-.025.025-.038.05-.038.077 0 .012.006.019.019.019.026 0 .039.006.039.019.013 0 .019.012.019.038h.078c.077 0 .129-.032.155-.096l.097-.076c.181-.077.323-.115.427-.115a.83.83 0 01.387.115c.155.063.259.096.311.096.116.038.271.114.465.23.194.101.291.165.291.19l.097.211c0 .038.032.09.097.153.065.064.097.102.097.115v.038l.038.134c.026.09.052.192.078.306a.965.965 0 01.058.307c0 .344-.084.606-.252.785l-.019-.02h-.058l-.214.268-.485.383c-.336.242-.594.364-.775.364-.104 0-.2-.02-.291-.058l-.368-.076a1.53 1.53 0 01-.233-.058 1.052 1.052 0 01-.213-.095 2.252 2.252 0 00-.175-.077l-.155-.076a.311.311 0 00-.116-.077l-.059-.057-.019-.02h-.019a.427.427 0 01-.388-.23.957.957 0 01-.136-.497c0-.14.065-.325.194-.555.129-.242.194-.37.194-.383zm15.884-5.896c-.013 0-.18.325-.504.976-.168.28-.252.453-.252.517v.077c0 .255-.129.504-.388.746a3.665 3.665 0 01-.892.613c-.336.153-.627.274-.872.363-.246.09-.401.14-.466.153a.616.616 0 00-.213.077c-.129.077-.64.172-1.532.287a1.272 1.272 0 01-.194.038 1.19 1.19 0 00-.174.039c-.052-.103-.175-.154-.369-.154-.013.013-.032.02-.058.02a1.08 1.08 0 01-.233-.039.75.75 0 00-.232-.057h-.543l-.02.038v.077c0 .191.02.338.059.44a.85.85 0 01.096.345l.233 2.086c0 .063.007.153.02.268.025.115.038.197.038.248-.038.026-.097.147-.174.364a.178.178 0 01-.078-.019.173.173 0 00-.077-.02c-.026 0-.058.02-.097.058a.19.19 0 01-.097.039c-.026 0-.058-.02-.097-.058-.039 0-.149.096-.33.287a1.086 1.086 0 01-.62.345c-.259.127-.401.191-.427.191a.153.153 0 01-.058-.019h-.078c0 .051-.051.09-.155.115-.09.025-.213.05-.368.076a4.705 4.705 0 01-.252.039.653.653 0 01-.156.038c-.232 0-.433-.166-.601-.498a2.703 2.703 0 01-.271-.976l-.116-1.895c-.078-1.02-.117-1.767-.117-2.239 0-.191.013-.485.039-.88.039-.409.058-.715.058-.92 0-.37-.058-1.058-.174-2.066 0-.103.019-.243.058-.421a2.12 2.12 0 00.077-.345c-.051-.051-.077-.944-.077-2.68 0-.587.077-.918.232-.995h.175c.052-.23.078-.383.078-.46.038 0 .187.032.446.096h.213a.15.15 0 01.058-.019c.052 0 .129.032.233.096.142-.026.381-.038.717-.038.543 0 1.28.057 2.211.172.931.102 1.409.153 1.435.153.788 0 1.758.319 2.909.957.142.09.258.185.349.287.103.09.219.217.349.383.129.153.252.287.368.402.155.102.291.313.407.632.13.306.22.504.272.593.168.293.252.638.252 1.034 0 .293-.039.555-.117.784l.097.25zm-6.69.938a9.395 9.395 0 011.145-.172c.426-.039.717-.07.872-.096a.92.92 0 00.446-.287c.155-.153.272-.39.349-.708.039-.153.058-.307.058-.46 0-.217-.129-.478-.387-.784a1.623 1.623 0 00-.931-.613 5.446 5.446 0 00-1.086-.096c-.466 0-.698.07-.698.211 0 .05.006.096.019.134v.172c0 .37.02.766.058 1.187l.097 1.033c.039.268.058.428.058.479zm15.091-7.12v-.249c0-.09.175-.21.524-.364l.039-.038c.077 0 .116-.038.116-.115a.786.786 0 00-.039-.134h.175c.207 0 .362.217.465.651.104-.409.265-.613.485-.613h.175a.233.233 0 00-.039.135c0 .14.11.242.329.306.233.063.35.134.35.21v.25c.012.025.109.037.29.037h.078c.103.192.181.377.233.555.051.166.09.326.116.479.026.153.052.268.078.345v.44c1.667.191 2.714.357 3.141.497.452.14.944.358 1.474.651a2.787 2.787 0 01.698.65c.142.167.265.307.368.422.155.102.291.313.407.632.13.306.22.504.272.593.168.293.252.638.252 1.033 0 .294-.039.556-.116.785l.097 1.646c-.013 0-.182.326-.505.977-.168.28-.252.452-.252.516v.077c0 .255-.129.504-.387.746a3.684 3.684 0 01-.892.613c-.337.153-.628.274-.873.363-.246.09-.401.14-.465.154a.619.619 0 00-.214.076c-.129.077-.64.172-1.532.287a1.246 1.246 0 01-.194.039 1.222 1.222 0 00-.174.038c-.052-.102-.175-.153-.369-.153a.082.082 0 01-.058.019c-.052 0-.129-.013-.232-.038a.76.76 0 00-.233-.058h-.291l.058 2.278c0 .102-.155.21-.465.325-.31.128-.563.192-.756.192-.065 0-.104-.007-.117-.02-.013 0-.123-.019-.329-.057-.194-.026-.324-.057-.388-.096a.475.475 0 01-.214.096c-.09.025-.194.045-.31.057a.88.88 0 00-.213.039.279.279 0 01-.117.019c-.193 0-.446-.064-.756-.192-.31-.114-.465-.223-.465-.325l.058-2.354h-.291a.927.927 0 00-.252.057 1.08 1.08 0 01-.233.038c-.013 0-.026-.006-.038-.019-.194 0-.317.051-.369.154a1.224 1.224 0 00-.194-.039 1.26 1.26 0 01-.174-.038c-.828-.128-1.409-.249-1.746-.364-.633-.064-1.228-.332-1.784-.804-.555-.485-.833-.842-.833-1.072v-.076c0-.064-.085-.236-.252-.517-.324-.65-.492-.976-.505-.976.065-1.072.097-1.62.097-1.646a2.464 2.464 0 01-.116-.785c0-.395.084-.74.252-1.033.052-.09.136-.287.252-.594.129-.319.272-.53.427-.631.4-.55.898-.977 1.493-1.283.594-.319 1.105-.517 1.532-.593.426-.077 1.17-.179 2.23-.306a.813.813 0 01.136-.02.426.426 0 01.135-.019.648.648 0 01.155-.019v-.344a2.43 2.43 0 00.078-.345c.026-.153.065-.313.116-.478a2.81 2.81 0 01.233-.555h.194a.687.687 0 01.174-.115zm3.743 9.666c.129-.064.297-.109.504-.134.22-.026.42-.039.601-.039a2.34 2.34 0 00.563-.114 1.22 1.22 0 00.504-.288c.142-.127.258-.338.349-.631.09-.294.136-.657.136-1.091 0-.957-.201-1.614-.602-1.972-.4-.37-1.085-.555-2.055-.555-.039 0-.104.007-.194.02h-.252v.153c.039.153.058.293.058.42l-.058.824v.804l-.019.612c-.013.383-.02.69-.02.919 0 .357.013.561.039.612v.536a2.2 2.2 0 01.446-.076zm-4.46.038v-.46c.026-.05.039-.255.039-.612 0-.23-.007-.536-.02-.919a52.835 52.835 0 01-.019-.612v-.804l-.058-.823c0-.128.019-.268.058-.421v-.23h-.097c-.168 0-.394.07-.679.21-.284.141-.497.224-.64.25-.53.127-.918.337-1.163.631-.246.294-.368.727-.368 1.302 0 .344.045.676.135.995.091.319.252.606.485.861.246.255.549.409.911.46.362 0 .834.057 1.416.172zM27.913 23.456c2.35-1.613 6.873-2.453 9.382-1.148 2.023 1.059 3.468 3.157 4.419 5.033.148-2.068.723-4.121 1.995-5.347.35-.338 1.14-.284 1.124.36-.042 2.841-1.077 5.758-.38 8.649.32 1.302-.931 2.24-2.024 1.487-2.205-1.498-4.368-1.637-6.83-2.196-1.41-.326-1.227-2.23.111-2.513 1.596-.33 3.324.052 4.958.724-1.948-3.124-5.246-5.161-8.781-3.528-2.02.931-5.051 6.593-4.084 10.38 1.063 4.163 6.325 6.458 8.302 6.994.57.378 4.16 5.127-2.52 4.083-2.559-.863-4.47-1.842-7.524-4.634-4.454-4.072-3.714-14.558 1.852-18.344z" fill="#000"/><path d="M21.544 31.273l-.002.03c-.331 1.4-.503 2.18-.514 2.34-.091 1.276.007 4.006.817 5.382.662.785.772 1.366.907 1.555l.966 1.082.549.588c.13.248.543.543 1.063.958.54.416.728.667.805.772.084.006.414.225.757.448.364.224.877.484 1.014.633.101.067.305.153.49.205.187.053.54.259.621.304l.628.355c.336.023.665.284 1.32.37.654.086.947.09 1.27.044.729.16 1.068.133 1.762.18l.85.055c.4.027.698-.004.894-.091l.126.008c1.114.073 2.168-.432 3.227-1.084.091-.094.19-.137.295-.13l.468-.36c.22-.106.454-.29.705-.555.251-.264.685-.327.786-.56l.01-.15c.064.004.155-.1.276-.313.12-.192.19-.297.212-.316l.137-.141c.007-.1.33-.305.516-.553.185-.228.28-.372.284-.432.001-.02.2-.133.147-.277.172-.218.136-.12.365-.466l.045-.13c.27-.134.018-.25.02-.27-.089.055 0-.02 0 0l.168-.138c.289-.502.21-.762.217-.841a1.278 1.278 0 00-.074-.306 1.208 1.208 0 01-.041-.303.805.805 0 01.075-.175c.05-.097-.148-.154-.143-.234.08-1.116.307-.818-.28-1.457.066-.257-.327-.28-.462-.47-.14-.109-.263.034-.36-.093-.077-.105-.104-.187-.142-.25-.038-.062-.26-.177-.292-.32-.013-.12-.205-.213-.202-.253.001-.02.17.261.18.102.012-.16-.212.34-.21.32-.035-.103-.266-.248-.318-.412-.051-.163-.146.283-.202.18-.035-.103 0 .04-.098-.067l-.094-.006-.174-.132c.013-.18.091-.144-.182-.162l-.228.135c.042.003.063.014.061.034-.001.02-.108.023-.133.081-.025.059 0-.01-.002.03l-.094-.006c-.104.143-.182-.084-.182-.084.014-.2-.203.067-.282-.019-.11.073-.299 0-.395.155-.075.175-.27-.482-.319-.385-.05.117.261.44.22.438-.2.127-.063-.307-.257-.23-.127-.009.387-.155.102-.114-.165-.05-.015.21-.192.198-.102-.047-.154-.06-.155-.04-.106-.007-.015.039-.105.113.059.064-.097.024-.007.09l-.042.057.03.122c-.442-.029-.34.275-.338.666l-.042.147-.012.18c-.012.18.085.156.075.275-.01.15.053.144.046.243l-.02.27c.05-.097.004-.041.004-.045l.009-.128-.006.085.002-.032-.01.15c-.003.03.017.19.011.27-.006.09-.008.12 0 0 0 0 .02-.268 0-.216.003.083.007.127.007.127l-.034.254-.026.153c-.013.187-.198.856-.44 1.409-.392.894-.7 1.092-.903 1.279-.204.206-1.009.534-1.177.523l-1.14.045c-.75-.05-1.39-.091-2.148-.261l-1.926-.728c-2.47-1.515-2.915-2.716-3.557-3.78a3.689 3.689 0 01-.23-.315 4.815 4.815 0 00-.463-.602c-.24-.175-.11-.427-.358-.804-.228-.356-.373-1.136-.543-1.538-.056-.364-.217-.916-.192-1.275.013-.179.01-.27.028-.539l.011-.15c.027-.378.198-.877.483-1.92.597-1.193 1.118-1.63 1.31-1.957.024-.038.135-.141.207-.257.071-.115.183-.228.208-.287.024-.038.26-.103.33-.218.092-.094.16-.17.207-.227.067-.056.346-.298.438-.392.09-.074.19-.147.3-.22.11-.053.23-.105.36-.157.007-.1.88-.433 1.47-.714.612-.28 1.277-.757 1.571-.738l.284.019c.195-.068.492-.088.891-.062.168.011.393-.334.599.04.206.374.41.026.536.035l.157.01c-.01.14.043.023.142.13.068-.116.244.096.346.143.123.048.184.082.182.102-.01.14.476.305 1.052.643l1.512 1c.088-.054.466.272.617.222.152-.05.122-.136.184-.202.107-.013.05-.027.05-.027.005-.077.044-.028.047-.074-.016-.061.056.193-.01-.052-.068-.245.52-.98.422-1.087l-.115-.158.008-.12a1.397 1.397 0 01-.201-.283 1.277 1.277 0 01-.109-.248c-.018-.041-.048-.063-.09-.066-.095-.468-.522-.827-.67-.837l.011-.15c-.126-.008-.314-.314-.68-.516-.197-.193-.306-.29-.327-.292l-.1.053-.205-.223c-.077-.408-.387-.196-.846-.567-.458-.39-.743-.247-.797-.37-.108-.263-.405-.242-.447-.245-.145-.03-.356-.011-.557-.025l-.488.033c-.105-.007-.164.086-.159.006l-.21.076c-.19-.012-.237-.022-.23-.121l-.18.124-.114.003c-.08-.065.043-.053-.1-.102-.144-.07-.358.016-.46-.03-.106-.007-.284-.017-.299.182l-.09-.058c-.141-.09-.202.017-.35.007-.146-.01-.34.048-.582.172-.24.105-.39.155-.454.15a.22.22 0 00-.153-.07.78.78 0 00-.322.07.56.56 0 01-.258.072l-.725-.047c-.07.095-.298.18-.683.255-.363.056-.622.13-.776.22l-.626.349c-.632.279-1.066.59-1.302.936-.214.346-.387.545-.517.597l-.01.15a.294.294 0 00-.129.02l-.101.084a.377.377 0 01-.105.144l-.438.362a92.25 92.25 0 01-.999 1.586c-.142.211-.306.59-.493 1.14-.166.55-.343.968-.532 1.256l-.022.3c-.154.09-.232.144-.233.164.02.022.038.053.057.094a1.776 1.776 0 00-.154.38 1.398 1.398 0 01-.188.409l.127.008-.036.058a36.46 36.46 0 00-.101.083l-.009.12c-.07.095-.122.232-.155.41l.136-.141c-.007.1-.052.147-.137.141z" fill="#000"/></svg>