<svg width="204" height="62" fill="none" xmlns="http://www.w3.org/2000/svg"><g opacity=".25" fill="#fff"><path d="M35.042 35.446l.001-.011v-.008l-.001.019zm13.049 1.451l.555-.265h.125a.41.41 0 01.126.035c.059.012.1.018.125.018.047 0 .09-.018.125-.053h.143c.382-.177.686-.3.913-.371-.012-.012.018-.042.09-.089l.322-.23c.143-.105.262-.218.358-.335v-.124c.25 0 .59-.212 1.02-.636.048-.035.12-.118.215-.247.095-.13.161-.218.197-.265 0-.06-.006-.095-.018-.106-.012-.012-.048-.018-.108-.018h-2.47l-.071.018a2.142 2.142 0 01-.197.035 16.97 16.97 0 01-.573.07 2.843 2.843 0 01-.304.018.852.852 0 01-.412-.088.586.586 0 01-.197-.177c-.036-.059-.06-.088-.071-.088-.012 0-.018.03-.018.088-.072 0-.114.006-.126.018-.012.012-.018.047-.018.106v.248c0 .035-.023.117-.071.247-.036.13-.054.218-.054.265v.512a1.01 1.01 0 00-.143.513v.14a.468.468 0 00-.09.125.17.17 0 00-.035.088v.035c.035.036.053.065.053.089-.023.188-.083.282-.179.282l.251.142a.93.93 0 00.143-.195.792.792 0 01.125-.194v.247c0 .07.006.112.018.124.012.012.054.018.126.018h.125zm1.593-7.792h-.877c-.131 0-.215.07-.25.212-.036.13-.078.195-.126.195a.204.204 0 01-.09-.018c0 .035-.023.076-.071.123-.036.047-.054.089-.054.124v1.908h.269l.036.053c.023 0 .041-.088.053-.265.024-.188.054-.282.09-.282.024 0 .06.04.107.123.167 0 .25-.041.25-.123h.27c.107-.095.274-.171.5-.23.227-.06.364-.112.412-.16.537-.247.877-.465 1.02-.653a.43.43 0 01.197-.123.807.807 0 00.197-.124l.25-.247c0-.083-.04-.171-.124-.265h-.394c-.18-.166-.734-.248-1.665-.248zm14.976 5.742l.071.088.09-.176c.298-.483.477-.872.537-1.166v-.336c-.012-1.166-.508-2.073-1.486-2.72v-.09l-.09-.07c-.047 0-.143-.053-.286-.159-.143-.106-.244-.159-.304-.159h-.09c-.071 0-.179-.041-.322-.123a9.707 9.707 0 00-.394-.248c-.107-.082-.179-.106-.215-.07a.733.733 0 01-.358.088h-.483l-.09.07c-.13 0-.22.03-.268.089-.036 0-.083-.024-.143-.07-.06-.048-.107-.072-.143-.072a.173.173 0 00-.126.053h-.107c-.537 0-.96.707-1.27 2.12v1.255c0 .082.053.453.16 1.113.227.448.406.819.537 1.113.143.118.28.312.412.583.131.13.31.242.537.336.239.094.406.141.501.141.048.06.102.089.161.089h.322c.323 0 .657-.136 1.003-.407.346-.27.537-.412.573-.424l.232-.247c0-.024.018-.047.054-.07a1.03 1.03 0 00.108-.09l.447-.44v.087c.06-.035.12-.076.179-.123a.6.6 0 01.161-.106v.053a1.04 1.04 0 00-.197.247c-.065.083-.105.123-.12.12.01.012.032.032.067.057l.34-.336zm19.265 2.05l.555-.265h.126a.41.41 0 01.125.035.75.75 0 00.125.018c.048 0 .09-.018.125-.053h.144c.381-.177.686-.3.912-.371-.012-.012.018-.042.09-.089.084-.059.191-.135.322-.23.143-.105.263-.218.358-.335v-.124c.25 0 .59-.212 1.02-.636.048-.035.12-.118.215-.247l.197-.265c0-.06-.006-.095-.018-.106-.012-.012-.048-.018-.107-.018h-2.47l-.072.018a2.142 2.142 0 01-.197.035 16.97 16.97 0 01-.573.07 2.845 2.845 0 01-.304.018.852.852 0 01-.412-.088.586.586 0 01-.197-.177c-.035-.059-.06-.088-.071-.088-.012 0-.018.03-.018.088-.072 0-.113.006-.125.018-.012.012-.018.047-.018.106v.248c0 .035-.024.117-.072.247-.036.13-.053.218-.053.265v.512a1.01 1.01 0 00-.144.513v.14a.468.468 0 00-.09.125.17.17 0 00-.035.088v.035c.036.036.054.065.054.089-.024.188-.084.282-.18.282l.251.142a.93.93 0 00.143-.195.792.792 0 01.126-.194v.247c0 .07.006.112.018.124.012.012.053.018.125.018h.125zm1.593-7.792h-.877c-.13 0-.215.07-.25.212-.036.13-.078.195-.126.195a.204.204 0 01-.09-.018c0 .035-.023.076-.07.123-.037.047-.054.089-.054.124v1.908h.268l.036.053c.024 0 .042-.088.054-.265.023-.188.053-.282.09-.282.023 0 .059.04.107.123.166 0 .25-.041.25-.123h.269c.107-.095.274-.171.5-.23.228-.06.365-.112.412-.16.537-.247.877-.465 1.02-.653a.43.43 0 01.198-.123.807.807 0 00.197-.124l.25-.247c0-.083-.042-.171-.125-.265h-.394c-.179-.166-.734-.248-1.665-.248zm11.02 3.375a8.718 8.718 0 011.056-.16 13.3 13.3 0 00.806-.088.85.85 0 00.411-.265c.143-.141.25-.36.322-.653.036-.142.054-.283.054-.424 0-.2-.119-.442-.358-.725a1.496 1.496 0 00-.859-.565 5.015 5.015 0 00-1.002-.088c-.43 0-.645.064-.645.194a.38.38 0 00.018.123v.16c0 .341.018.706.054 1.095l.09.954c.035.247.053.395.053.442zm11.782 1.643c.027 0 .044.003.051.01a35.757 35.757 0 00-.409-1.053 7.2 7.2 0 00-.179-.459.898.898 0 00-.072-.177c-.024-.07-.06-.182-.107-.335-.024-.071-.126-.248-.305-.53-.179-.283-.28-.466-.304-.548l-.197.618c-.06.177-.107.306-.143.389a2.932 2.932 0 00-.09.23 3.706 3.706 0 00-.053.141v.07c0 .048-.036.1-.108.16-.25.86-.376 1.342-.376 1.448-.059.047-.089.095-.089.142.394-.047 1.187-.083 2.381-.106zm25.998.724l.072.088.089-.176c.298-.483.477-.872.537-1.166v-.336c-.012-1.166-.507-2.073-1.486-2.72v-.09l-.089-.07c-.048 0-.143-.053-.287-.159-.143-.106-.244-.159-.304-.159h-.089c-.072 0-.179-.041-.323-.123a9.86 9.86 0 00-.393-.248c-.108-.082-.179-.106-.215-.07a.733.733 0 01-.358.088h-.483l-.09.07c-.131 0-.221.03-.268.089-.036 0-.084-.024-.144-.07-.059-.048-.107-.072-.143-.072a.173.173 0 00-.125.053h-.107c-.537 0-.961.707-1.271 2.12v1.255c0 .082.053.453.161 1.113.227.448.406.819.537 1.113.143.118.28.312.411.583.132.13.311.242.537.336.239.094.406.141.502.141.047.06.101.089.161.089h.322c.322 0 .656-.136 1.002-.407.346-.27.537-.412.573-.424l.233-.247c0-.024.018-.047.053-.07a1.05 1.05 0 00.108-.09l.447-.44v.087c.06-.035.12-.076.179-.123a.619.619 0 01.161-.106v.053a1.044 1.044 0 00-.196.247c-.066.083-.106.123-.12.12.01.012.032.032.066.057l.34-.336zm28.295-2.367a8.718 8.718 0 011.056-.16c.394-.035.662-.064.806-.088a.848.848 0 00.411-.265c.144-.141.251-.36.323-.653a1.76 1.76 0 00.053-.424c0-.2-.119-.442-.358-.725a1.497 1.497 0 00-.859-.565 5.016 5.016 0 00-1.002-.088c-.43 0-.645.064-.645.194a.38.38 0 00.018.123v.16c0 .341.018.706.054 1.095.036.377.066.695.089.954.036.247.054.395.054.442zm17.385 2.35c.119-.06.274-.1.465-.124.203-.024.388-.036.555-.036.167-.011.34-.047.519-.105.191-.06.346-.148.466-.266.131-.117.238-.312.322-.583.083-.27.125-.606.125-1.007 0-.883-.185-1.49-.555-1.82-.37-.341-1.002-.512-1.897-.512-.036 0-.096.006-.179.018h-.233v.141c.036.141.054.271.054.389l-.054.76v.742l-.018.565c-.012.353-.018.636-.018.848 0 .33.012.518.036.566v.494a1.97 1.97 0 01.412-.07zm-4.117-.39c.024-.046.036-.235.036-.565 0-.212-.006-.494-.018-.848a57.62 57.62 0 01-.018-.565v-.742l-.054-.76c0-.118.018-.247.054-.389v-.212h-.089c-.156 0-.365.065-.627.195-.263.13-.459.206-.591.23-.489.117-.847.312-1.074.583-.226.27-.34.671-.34 1.201 0 .318.042.624.126.919.083.294.232.56.447.795.227.235.507.377.841.424.334 0 .77.053 1.307.159v-.424z"/><path fill-rule="evenodd" clip-rule="evenodd" d="M101.666 5.359c-38.16 3.225-44.442.882-44.498.83 0-.22-.657-.236-4.103-.102-2.074.08-3.646.29-5.164.492-2.206.294-4.3.573-7.658.42-.75-.033-2.678-.095-5.045-.172-5.016-.162-12.003-.388-13.924-.541-6.886-.55-9.727-.545-11.174.015-.767.297-1.669.545-2.58.795-2.394.658-4.856 1.335-5.133 2.977 0 .646.07.855.172 1.165.05.152.11.328.172.593.324 1.373.376 1.46.87 1.46h.526l.55 1.366c-.283 1.042-.372 2.042-.375 4.22-.003 2.823-.301 3.497-.986 5.048-.102.232-.213.482-.333.762-.151.354-.33.618-.511.883-.48.704-.966 1.418-.944 3.864.021 2.302.132 3.85.336 4.71.723 3.049-.393 6.25-1.463 8.959-.455 1.15-.466 1.3-.312 4.197.818 2.361.863 2.407 1.343 2.897.194.198.46.469.876.993.364.46.873.571 1.275.66.14.03.267.058.37.097.275.102.349.402.425.71.048.2.098.401.202.558l.195.292a.89.89 0 01.037.927.889.889 0 00-.076.688l.077.26c.163.545.612.955 1.17 1.066l1.076.216c.216.043.437.065.658.065h1.975c1.946-.154 3.704.18 5.573.536 1.117.213 2.275.433 3.537.561 1.686.172 4.978.553 7.317.848 3.449.434 4.531.505 5.731.376.814-.089 3.483-.337 5.933-.552 2.45-.216 8.209-.728 12.798-1.137a69.663 69.663 0 001.402-.372c1.184-.324 1.447-.396 2.479-.26a10.127 10.127 0 01.312.045h.01l.003.001h.007l.004-.001.008-.002c.05-.011.239-.054 2.033-.043l.003.001a.212.212 0 00.015.004l.01.002c.145.026.733.131-.098 1.378-.754 1.13-.23 2.716-.012 3.372.048.147.082.248.082.286 0 .238 2.164.26 3.972.151 1.17-.07 3.46-.162 5.092-.204 1.632-.041 3.857-.122 4.944-.179 1.088-.057 3.803-.189 6.032-.293a2861.09 2861.09 0 0010.383-.505c1.411-.07 2.49-.438 3.431-.758.916-.312 1.702-.58 2.538-.486l1.384-.923 1.445-.3c.03.029.813.004 1.242-.017.368-.004.9-.012 1.645-.023 2.731-.043 4.539.019 5.686.194 2.346.359 25.318.334 28.958-.046 1.406-.146 2.972-.462 4.6-.79 3.031-.612 6.275-1.266 9.09-.952 3.829.428 7.598 1.038 8.207 1.328 1.396.664 8.989 1.224 13.943 1.028 4.421-.176 5.013-.218 6.521-.46.747-.12 1.52-.195 1.72-.167.199.027 1.43-.054 2.735-.181 3.449-.336 5.989-.56 8.9-.783 1.414-.108 3.484-.292 4.599-.409l2.029-.212.443-.699c.244-.384.807-1.21 1.251-1.835.284-.4.101-.472-.154-.572-.356-.14-.853-.335-.398-1.566.084-.228.198-.335.318-.448.245-.23.514-.484.605-1.86.02-.298.756-.963 1.323-1.476.321-.29.588-.53.639-.628.203-.383 1.439-3.805 1.264-4.348-.379-1.174.092-5.168 1.017-8.623.699-2.61.795-3.236.826-5.37.033-2.173-.02-2.586-.518-4.11-.305-.93-.554-1.799-.554-1.928 0-.13-.089-.236-.198-.236-.109 0-.143-.052-.075-.117.067-.064-.178-.564-.545-1.11l-.668-.995.869.97c.872-.917 1.215-1.506.998-1.713-.064-.06-1.073-.15-2.243-.198-2.083-.085-2.137-.099-2.64-.664l-.512-.578 1.167-.526c2.017-.909 3.225-1.778 3.614-2.6.494-1.043.31-3.063-.34-3.724-.632-.644-.854-.735-2.943-1.194-1.168-.257-2.424-.028-3.905.243-1.555.283-3.358.612-5.566.472-1.903-.121-3.483-.237-3.51-.258-.027-.02.092-.43.263-.91.287-.8.286-.962-.017-1.962-.245-.807-.541-1.279-1.141-1.815-1.054-.942-1.586-1.117-2.934-.968-.61.067-1.768.15-2.571.185-.804.034-2.841.163-4.527.286-1.686.123-3.644.25-4.351.283-.707.032-2.62.158-4.252.28-1.631.123-3.545.246-4.252.275-.707.03-1.908.107-2.67.174-1.566.138-4.32.31-6.229.39-.707.03-1.909.113-2.67.185-.762.073-2.026.153-2.81.18l-1.425.046.111-.768c.307-2.134.744-5.61-4.794-6.072-5.413-.451-15.004.985-24.689 2.436-5.135.769-10.297 1.542-14.876 2.04zm-4.17 52.876c-.461 0-1.716.039-.194.023.239-.012.368-.023.195-.023zm-1.243 0c-.146.019-.202.031-.193.04l.193-.04zm-83.33-43.968c1.092-.976 3.9-.974 4.501-.974.076 0 .117 0 .114-.002-.057-.042-6.446-1.83-6.461-1.793l-.011.116c-.04.451-.19 2.118-.45 3.115L9.23 18.883l3.692-4.616zm16.821 1.04c.109.109.21.241.307.368.317.416.594.78.961.094l.923-1.913h-1.89c-.126 0-.264-.028-.392-.054-.263-.053-.486-.099-.487.12-.001.234.117.924.578 1.386zm-.675 36.924c-.302.319.462.461 1.847.461 1.031 0 1.75 0 3.692-.923 3.794-1.803 1.878-2.718.923-2.769-.973-.485-6.2 2.956-6.462 3.23zM132 10.575c1.076 0 4.535-.228 4.615-.461.103-.296-.031-1.385-.923-1.385-1.269 0-9.298.988-10.154 1.385-.689.319 3.133.461 6.462.461zM13.385 41.498l-.002-.132c-.005-.29-.014-.793.09-1.135.067-.164.005-1.047-.088-1.04-.196.012-1.474 1.431-1.393 1.501.006.005-.017.108-.054.267-.146.629-.498 2.149-.042 2.106.92-.087 1.489-1.184 1.489-1.567zm6.033-12.553l-.002.027c-.306 1.293-.465 2.012-.475 2.16-.084 1.177.007 3.698.754 4.968.435.515.612.935.723 1.198.045.107.079.187.114.238l.893.998.506.543c.099.19.377.408.74.694.077.06.158.123.241.19.499.384.672.616.744.713.07.005.331.174.617.36l.081.053c.108.067.231.137.352.206.254.145.499.285.585.379.093.061.28.14.452.19.154.042.432.2.542.262l.61.345c.139.01.276.063.438.125.203.079.446.173.78.217.604.079.875.082 1.174.04.503.111.806.125 1.195.143.13.006.27.012.43.023l.786.052c.07.004.572-.028.937-.052.195-.013.351-.023.383-.024.89-.051 1.743-.475 2.6-1.002.084-.086.175-.127.272-.12l.432-.332c.202-.098.42-.269.65-.512.108-.113.252-.186.384-.254.154-.078.292-.148.342-.264l.01-.138c.058.004.143-.092.254-.288.11-.178.176-.276.196-.293l.127-.13c.003-.048.085-.122.187-.214.094-.086.206-.186.288-.296.171-.211.259-.344.263-.4 0-.004.01-.013.026-.026.05-.043.147-.128.11-.228a1.87 1.87 0 01.119-.14c.048-.05.084-.09.217-.29l.042-.12c.2-.1.09-.188.04-.229l-.01-.007-.005-.004c-.004-.004-.007-.007-.007-.01l.155-.128c.225-.39.21-.622.202-.73l-.002-.029v-.017c.003-.037-.02-.13-.067-.282a1.11 1.11 0 01-.039-.28.744.744 0 01.07-.161c.026-.05-.02-.09-.065-.126-.035-.03-.07-.058-.067-.09.021-.294.053-.482.076-.614.022-.128.034-.204.019-.273-.022-.098-.1-.183-.29-.39l-.064-.069c.037-.144-.084-.209-.212-.277a.598.598 0 01-.214-.156c-.063-.049-.122-.043-.177-.037-.057.005-.11.01-.155-.049a1.037 1.037 0 01-.114-.199.68.68 0 00-.017-.032c-.012-.02-.045-.045-.083-.076-.073-.058-.168-.133-.187-.219a.178.178 0 00-.048-.094c.015.001.026-.01.028-.046.004-.05-.019-.028-.05.022a.967.967 0 00-.06-.053l-.013-.012a.41.41 0 00.068.074 3.176 3.176 0 00-.105.2.418.418 0 01-.034.064.498.498 0 00-.117-.144c-.07-.07-.15-.15-.176-.235-.025-.08-.062-.004-.098.073-.032.069-.065.137-.09.092-.014-.042-.015-.04-.02-.032-.007.009-.02.026-.07-.03l-.086-.005-.16-.122a.437.437 0 01.013-.087c.004-.022.007-.034.002-.042-.007-.012-.031-.013-.091-.015l-.036-.002-.057-.003-.21.125c.039.002.057.013.056.03 0 .008-.015.013-.034.019-.032.01-.075.024-.089.057l-.01.023s.01-.02.008.005l-.086-.006c-.097.132-.169-.078-.169-.078.007-.102-.05-.072-.116-.038-.053.027-.111.056-.143.021a.325.325 0 01-.145.038c-.081.01-.166.018-.22.104-.04.092-.114-.062-.18-.196l-.022-.047c.053-.023.08-.04-.014-.027-.035-.069-.064-.114-.079-.085-.009.022-.005.052.007.085-.025.01-.028.043-.031.078a.454.454 0 01.056-.025c.033.062.082.128.12.18.037.051.064.088.05.087-.093.06-.106-.015-.12-.093-.014-.074-.028-.15-.109-.122-.006.044-.02.085-.09.08-.095-.043-.142-.056-.144-.037-.051-.004-.052.007-.054.027-.001.019-.003.045-.042.077.026.029.006.035-.012.04-.02.007-.037.012.006.043l-.04.053.028.113c-.34-.023-.331.17-.317.445.002.054.005.11.006.17l-.04.135-.01.166c-.007.091.018.126.04.156a.129.129 0 01.029.098.24.24 0 00.024.138c.011.024.021.045.018.087l-.004.051.004.04-.013-.005L24.916 31c.03-3.126 2.176-6.654 3.755-7.7.267-.147.497-.259.637-.25l.262.018c.18-.063.454-.081.822-.057.05.003.103-.026.16-.057.125-.068.263-.143.393.093.134.243.266.157.374.087.045-.03.086-.056.12-.054l.146.01c-.005.069.007.07.034.07.022.002.055.004.096.049.044-.074.136-.003.219.062a.594.594 0 00.1.07c.115.044.171.076.17.094-.006.083.175.175.446.312.152.078.333.17.524.282l1.396.924c.038-.024.135.03.24.088.122.067.256.14.33.116.092-.03.112-.076.13-.12a.206.206 0 01.04-.066c.098-.012.045-.025.045-.025.003-.04.016-.044.027-.046.008-.002.016-.004.017-.023a1.086 1.086 0 00-.01-.048c-.023-.082.035-.225.114-.378a9.846 9.846 0 011.568 1.939c-1.509-.621-3.104-.974-4.577-.669-1.236.262-1.404 2.019-.103 2.32.48.108.946.2 1.404.29 1.713.335 3.295.646 4.901 1.737 1.009.695 2.164-.17 1.868-1.373-.41-1.701-.17-3.412.068-5.109.135-.964.269-1.924.283-2.875.015-.594-.714-.643-1.037-.332-1.174 1.131-1.706 3.027-1.842 4.936-.878-1.732-2.212-3.669-4.079-4.646-1.043-.543-2.464-.684-3.91-.538a.142.142 0 01-.002-.047l-.079.055-.22.026a.02.02 0 010-.004v-.003l.002-.005c.004-.012.007-.02-.068-.045-.072-.036-.164-.028-.248-.02a.395.395 0 01-.176-.008c-.097-.007-.262-.016-.275.169l-.083-.054c-.08-.05-.131-.034-.19-.015a.338.338 0 01-.133.021c-.136-.009-.315.044-.537.159-.221.096-.361.143-.42.139a.203.203 0 00-.14-.065.722.722 0 00-.298.064.518.518 0 01-.238.067l-.67-.044c-.064.088-.274.167-.63.236-.335.052-.574.12-.716.202l-.578.323c-.584.257-.984.545-1.202.864-.198.32-.357.503-.477.55l-.01.139a.27.27 0 00-.119.02l-.093.077a.347.347 0 01-.097.132l-.404.334a82.296 82.296 0 01-.922 1.465c-.131.194-.283.545-.455 1.051-.153.508-.317.894-.492 1.16l-.02.276c-.142.083-.213.134-.215.152.018.02.036.05.053.087a1.63 1.63 0 00-.142.352 1.314 1.314 0 01-.173.376l.116.008-.033.053-.093.077-.008.11a.936.936 0 00-.144.38zm.126-.13l-.126.13c.078.005.12-.039.126-.13zm14.915 8.558l-.02.041-1.42 5.58 1.44-5.621zm1.244-4.225a.42.42 0 01-.025-.053c.012-.005.029-.005.053.003l.02-.003.013.027-.038.016-.023.01zm2.546.205l.005-.009.014.014.008.01a.062.062 0 01-.027-.015zm7.425 5.328v-.265c.084 0 .168.041.251.124l.25.265h.144v.123c.167 0 .34.089.519.265.179 0 .435.165.77.495h.143c.084.094.25.142.501.142.334.153.507.235.52.247h.912c.084-.083.215-.124.394-.124.179-.177.346-.265.501-.265.06 0 .173-.041.34-.123.18-.083.322-.124.43-.124v-.124c.083-.035.19-.077.322-.124.131-.035.239-.076.322-.123l.125-.142c.108 0 .245-.082.412-.247.096 0 .274-.07.537-.212.275-.153.483-.3.627-.442l.076-.075.12-.119c.132-.118.221-.194.269-.23.06-.047.113-.07.161-.07l.734-.725a2.67 2.67 0 00.268-.265 2.08 2.08 0 00.18-.212 2.89 2.89 0 00.25-.335v-.425a.17.17 0 01.036-.088.35.35 0 01.107-.123v-.142l-.107-.318a1.332 1.332 0 00-.125-.335.732.732 0 00-.162-.23v-.124a.335.335 0 00-.143-.283 1.402 1.402 0 00-.447-.23 7.046 7.046 0 01-.322-.123 3.412 3.412 0 00-.305-.212c-.179-.118-.34-.23-.483-.336-.143-.106-.215-.182-.215-.23 0-.011.036-.052.108-.123l.375-.389c.06 0 .108-.023.144-.07a.256.256 0 00.053-.16 1.67 1.67 0 01.054-.194.67.67 0 01.143-.212v-.618c.084 0 .126-.088.126-.265v-.654a.169.169 0 00.053-.123c0-.248-.06-.372-.179-.372 0-.377-.13-.63-.394-.76a1.971 1.971 0 01-.125-.194.609.609 0 00-.125-.194c-.096-.047-.173-.165-.233-.353-.048-.2-.113-.324-.197-.371a1.336 1.336 0 01-.447-.248 1.278 1.278 0 00-.448-.282c-.752-.424-1.342-.636-1.772-.636-.19-.118-.662-.177-1.414-.177-.215 0-.549.006-1.002.018a43.9 43.9 0 01-.985.017 5.2 5.2 0 01-.358-.017 3.2 3.2 0 00-.483-.036h-.447c-.275 0-.442-.017-.502-.053-.12 0-.28.065-.483.195a.582.582 0 00-.286.53v.406c.095.082.143.206.143.371h-.018c-.06 0-.09.124-.09.371 0 .13.006.294.018.495.024.2.042.394.054.583.024.188.048.365.072.53.023.165.047.3.071.406l.018.177v.37c.084.178.125.43.125.76v2.562c.084.248.126.672.126 1.272v1.785c-.084.082-.126.212-.126.389v.123c-.06 0-.09.006-.09.018 0 .023.055.082.162.177.12.082.179.141.179.176v.124c0 .094.048.141.143.141v.636c.084-.082.126-.165.126-.247zm14.886-12.95v-.071c-.071 0-.107.023-.107.07.036.036.054.065.054.089a.167.167 0 01-.072.141 1.114 1.114 0 01-.233.07 2.022 2.022 0 01-.178.036.325.325 0 00-.162.053 1.07 1.07 0 00-.197.16c-.071.058-.119.1-.143.123h-.09c0 .047-.023.094-.07.141-.048.036-.12.077-.215.124a.584.584 0 00-.162.088.887.887 0 00-.197.16.556.556 0 01-.196.158v.089c-.251.306-.4.477-.448.512-.417.683-.841 1.56-1.27 2.633 0 .117-.019.27-.055.459a3.76 3.76 0 00-.035.442v.689c0 .459.03.8.09 1.024v.495c.035.13.065.353.089.671.024.319.083.572.179.76 0 .53.226 1.09.68 1.679 0 .058.054.17.161.335.107.165.161.283.161.354l.358.335c.12.118.239.265.358.442.132.165.233.289.304.371a.41.41 0 00.269.106c.179.177.477.383.895.618.418.248.758.371 1.02.371a.595.595 0 00.143-.035h.09c.131.106.328.16.59.16h.68c.383 0 .723-.148 1.021-.443h.107a.389.389 0 01.144-.07.564.564 0 00.197-.07l.071-.09c0-.035.012-.058.036-.07a.546.546 0 01.107-.035.404.404 0 00.126-.053 4.61 4.61 0 01.43-.442c.178-.153.285-.26.321-.318l.412-.442c.155-.176.275-.318.358-.424 0-.07.012-.112.036-.123a.693.693 0 01.16-.071c.073-.035.198-.2.377-.495.179-.294.394-.712.644-1.254v-.089l.25-.583c.06-.059.09-.112.09-.159v-.265c.048-.047.114-.247.197-.6a.3.3 0 00-.053-.142c0-.023.017-.07.053-.141a.443.443 0 00.072-.212v-.247c.048-.047.071-.136.071-.265v-.16c0-.376-.113-.853-.34-1.43 0-.071-.071-.271-.215-.601-.13-.342-.238-.513-.322-.513v-.07c0-.012-.023-.042-.071-.088a5.917 5.917 0 01-.197-.265 2.684 2.684 0 01-.215-.407l-.286-.247c-.024 0-.042-.006-.054-.018l-.037-.036-.035-.035a1.158 1.158 0 00-.125-.106l-.072-.07c-.047 0-.137-.053-.268-.16a6.689 6.689 0 01-.376-.211c-.167-.118-.25-.195-.25-.23 0-.024.017-.053.053-.088h-.107c0-.095-.054-.142-.161-.142l-.18-.176a.13.13 0 00-.017-.053.159.159 0 01-.018-.071c0-.047.012-.094.036-.141h-.161c-.132 0-.221-.03-.269-.089a11.077 11.077 0 00-.322-.265c-.06-.059-.09-.1-.09-.123-.346-.2-.519-.377-.519-.53h-.071c-.12-.118-.495-.26-1.128-.425h-.09c-.06-.047-.113-.07-.16-.07 0 .035-.019.053-.054.053l-.054-.053c-.048-.047-.078-.07-.09-.07-.011 0-.041.023-.089.07-.048.035-.066.059-.054.07h-.698a.341.341 0 01-.25.089c-.048 0-.102-.03-.162-.088zm9.584 3.18h.197c1.003-.365 1.629-.548 1.88-.548.274 0 .56.035.859.106.298.07.447.2.447.389 0 .117-.071.253-.215.406-.143.153-.286.23-.43.23h-.196a3.696 3.696 0 01-.573.088 4.727 4.727 0 00-.43.053c0 .024-.03.065-.089.124a2.24 2.24 0 01-.161.177 2.83 2.83 0 01-.197.14l-.09.09-.125.14h-.215l-.089.107a3.15 3.15 0 01-.197.212c-.06.07-.101.105-.125.105l-.126-.07v.123a.472.472 0 01.018.107.52.52 0 01-.09.282c.049 0 .132.1.251.3.132.189.233.307.305.354v.07c.071.13.173.266.304.407.131.13.227.194.287.194.095 0 .19.047.286.142.095.094.179.141.25.141a.921.921 0 00.108-.018.573.573 0 01.16-.035c.049 0 .114.006.198.018h.197c.13 0 .388-.083.77-.248.393-.176.656-.265.787-.265.477 0 .883.171 1.217.513.334.341.501.795.501 1.36 0 .6-.238 1.272-.716 2.014 0 .083-.137.165-.411.248a3.29 3.29 0 01-.824.106c-.215 0-.56-.048-1.038-.142h-.34c-.215 0-.507-.159-.877-.477l-.179-.194-.179-.088a.276.276 0 00-.107.035c-.132-.142-.31-.212-.537-.212h-.054c-.024 0-.09-.036-.197-.106a28.714 28.714 0 00-.626-.424c0 .059-.036.1-.108.123-.06.024-.09.071-.09.142l.054.07h-.125c.048.036.072.1.072.195-.048-.047-.09-.07-.126-.07a.735.735 0 00-.035.123c0 .023.03.135.089.335a.778.778 0 00-.143.018h-.126a.29.29 0 01-.178-.07.224.224 0 00-.162-.071.314.314 0 00-.053.194c0 .142.018.23.053.265.024-.012.042 0 .054.036a.298.298 0 01.018.123c0 .06.006.124.018.195a.554.554 0 00.09.194c.047.07.107.13.178.177.084 0 .126-.018.126-.053l.071.053c-.035.035-.053.07-.053.106l.017.035a.407.407 0 01.072.106.386.386 0 00.09.07c.334.59.978 1.167 1.933 1.732.966.577 1.927.866 2.882.866.095-.035.214-.053.358-.053h.716c.381 0 .942-.136 1.682-.407.74-.259 1.211-.565 1.414-.918l.054-.07c.608-.802.913-1.473.913-2.015a1.54 1.54 0 00-.036-.23c0-.365.024-.654.072-.866v-.194a1.37 1.37 0 01-.072-.441v-.177c0-.377-.143-.842-.43-1.396a5.63 5.63 0 00-1.163-1.52c-.477-.459-.949-.712-1.414-.76l-.054-.07c.656-.389.985-.907.985-1.555 0-.106-.036-.265-.108-.477a1.973 1.973 0 01-.09-.494.7.7 0 00-.07-.283 1.13 1.13 0 00-.162-.265 1.76 1.76 0 00-.215-.283 4.556 4.556 0 01-.16-.212c-.132-.165-.383-.341-.753-.53a2.565 2.565 0 00-1.181-.282c-.358 0-.716-.036-1.074-.106a4.6 4.6 0 00-.823-.106c-.728 0-1.707.382-2.936 1.148l-.34.389v.07a.94.94 0 01-.054.336h.269a.403.403 0 00-.054.159c0 .012.096.076.287.194.19.106.286.212.286.318a.31.31 0 01-.036.089.644.644 0 00-.018.159zm11.365 9.77v-.265c.083 0 .167.041.25.124l.251.265h.143v.123c.167 0 .34.089.52.265.178 0 .435.165.769.495h.143c.084.094.25.142.501.142.335.153.508.235.52.247h.912c.084-.083.215-.124.394-.124.18-.177.346-.265.501-.265.06 0 .173-.041.34-.123.18-.083.323-.124.43-.124v-.124c.084-.035.191-.077.322-.124.131-.035.239-.076.322-.123l.126-.142c.107 0 .244-.082.411-.247.096 0 .275-.07.537-.212.275-.153.484-.3.627-.442l.015-.015.002-.002.18-.177c.131-.118.22-.194.268-.23.06-.047.114-.07.161-.07l.734-.725a2.67 2.67 0 00.269-.265 2.08 2.08 0 00.179-.212 2.78 2.78 0 00.25-.335v-.425a.17.17 0 01.036-.088.35.35 0 01.108-.123v-.142l-.108-.318a1.332 1.332 0 00-.125-.335.732.732 0 00-.161-.23v-.124a.335.335 0 00-.143-.283 1.402 1.402 0 00-.448-.23 7.046 7.046 0 01-.322-.123 3.405 3.405 0 00-.304-.212c-.18-.118-.34-.23-.484-.336-.143-.106-.215-.182-.215-.23 0-.011.036-.052.108-.123l.376-.389a.17.17 0 00.143-.07.256.256 0 00.054-.16c.012-.058.03-.123.053-.194a.667.667 0 01.144-.212v-.618c.083 0 .125-.088.125-.265v-.654a.169.169 0 00.054-.123c0-.248-.06-.372-.18-.372 0-.377-.13-.63-.393-.76a1.971 1.971 0 01-.126-.194.609.609 0 00-.125-.194c-.095-.047-.173-.165-.233-.353-.047-.2-.113-.324-.196-.371a1.336 1.336 0 01-.448-.248 1.278 1.278 0 00-.447-.282c-.752-.424-1.343-.636-1.772-.636-.191-.118-.663-.177-1.415-.177-.214 0-.548.006-1.002.018a43.9 43.9 0 01-.984.017 5.2 5.2 0 01-.358-.017 3.2 3.2 0 00-.484-.036h-.447c-.275 0-.442-.017-.501-.053-.12 0-.28.065-.484.195a.582.582 0 00-.286.53v.406c.095.082.143.206.143.371h-.018c-.06 0-.09.124-.09.371 0 .13.007.294.019.495.023.2.041.394.053.583.024.188.048.365.072.53.024.165.048.3.072.406l.018.177v.37c.083.178.125.43.125.76v2.562c.083.248.125.672.125 1.272v1.785c-.084.082-.125.212-.125.389v.123c-.06 0-.09.006-.09.018 0 .023.054.082.161.177.12.082.18.141.18.176v.124c0 .094.047.141.142.141v.636c.084-.082.126-.165.126-.247zm20.739-6.166c.298-.6.454-.901.465-.901l-.089-.23a2.25 2.25 0 00.107-.724c0-.365-.077-.683-.232-.954a5.974 5.974 0 01-.251-.548c-.107-.294-.233-.489-.376-.583a5.593 5.593 0 01-.34-.371 2.52 2.52 0 00-.322-.353 1.482 1.482 0 00-.322-.265c-1.062-.59-1.957-.884-2.685-.884-.024 0-.466-.047-1.325-.141-.859-.106-1.54-.16-2.04-.16-.31 0-.531.013-.663.036a.474.474 0 00-.215-.088.138.138 0 00-.053.018h-.197a3.365 3.365 0 00-.412-.089c0 .07-.024.212-.071.424h-.162c-.143.07-.214.377-.214.919 0 1.602.024 2.426.071 2.474 0 .035-.023.14-.071.318a1.954 1.954 0 00-.054.388c.107.93.161 1.567.161 1.908 0 .189-.018.471-.054.848a13.81 13.81 0 00-.035.813c0 .436.035 1.125.107 2.067l.107 1.75c.024.306.108.606.251.9.155.307.34.46.555.46a.593.593 0 00.143-.035c.012 0 .09-.012.233-.036.143-.024.257-.047.34-.07.096-.024.143-.06.143-.107h.072a.142.142 0 00.053.018c.024 0 .156-.059.394-.177a.992.992 0 00.573-.318c.167-.176.269-.265.304-.265.036.036.066.053.09.053a.175.175 0 00.09-.035c.035-.035.065-.053.089-.053a.16.16 0 01.071.018.162.162 0 00.072.017c.072-.2.125-.312.161-.335 0-.047-.012-.124-.036-.23a2.4 2.4 0 01-.018-.247l-.214-1.926a.77.77 0 00-.09-.318 1.196 1.196 0 01-.054-.407v-.07l.018-.035h.502c.047 0 .119.017.214.053a.997.997 0 00.215.035c.024 0 .042-.006.054-.018.179 0 .292.047.34.142.036-.012.09-.024.16-.036a1.18 1.18 0 00.18-.035c.823-.106 1.295-.195 1.414-.265a.566.566 0 01.197-.07c.06-.013.203-.06.43-.142a11.4 11.4 0 00.805-.336c.31-.153.585-.342.823-.565.239-.224.358-.454.358-.69v-.07c0-.059.078-.218.233-.477zm8.309 5.883l.072.265.089.089c.036.082.078.123.125.123.036 0 .072-.017.108-.053l.089-.07.072.088c.012.035.054.07.125.106.072.047.209.088.412.124.215.047.459.07.734.07.155 0 .268-.03.34-.088.071-.059.119-.088.143-.088h.018a.4.4 0 00.286-.407l-.018-.035v-.053c.084 0 .191.035.323.106.143.059.28.088.411.088l.054.071c.036.059.066.106.089.141a.707.707 0 00.144.106.345.345 0 00.179.053c.012 0 .024-.017.035-.053.024-.035.042-.053.054-.053.024 0 .06.024.108.071h.071l-.071-.159c0-.059.024-.088.071-.088l.179-.16c.06-.058.09-.164.09-.317v-.089c.035-.035.053-.07.053-.106 0-.106-.071-.288-.214-.547v.017l-.179-.335c-.263-.507-.466-.89-.609-1.149a215.61 215.61 0 01-.788-1.996v-.018c0-.094-.053-.212-.161-.353a1.912 1.912 0 01-.143-.248c-.286-.836-.543-1.443-.77-1.82a4.498 4.498 0 01-.268-.688c-.095-.342-.191-.572-.286-.69v-.088c0-.118-.024-.206-.072-.265l-.072.018c0-.083-.071-.26-.214-.53a3.868 3.868 0 00-.358-.619c-.155-.153-.364-.435-.627-.848-.262-.424-.453-.695-.573-.812-.047-.024-.155-.13-.322-.318-.155-.2-.37-.371-.644-.513l-.072.089c0-.083-.054-.165-.161-.248a7.837 7.837 0 01-.34.089c-.191.047-.37.094-.537.14-.167.048-.262.095-.286.142l-.054-.07h-.018c-.024 0-.048-.012-.072-.036a.478.478 0 00-.107-.017.651.651 0 00-.376.14c-.119.083-.209.125-.268.125l-.269.247a1.225 1.225 0 01-.251.318h-.053c-.024 0-.06.059-.108.177-.035.117-.089.194-.161.23a.19.19 0 00.054.14 1.1 1.1 0 00-.072.248.626.626 0 01-.089.247l-.018.16c-.083.2-.137.4-.161.6-.024.188-.054.312-.09.371-.107.33-.268.954-.483 1.873-.215.907-.388 1.549-.519 1.926a3.63 3.63 0 00-.143.547 9.168 9.168 0 01-.161.742c-.06.224-.114.354-.161.39-.179.117-.34.252-.484.406-.131.14-.203.253-.215.335a.46.46 0 00.108.053.18.18 0 01.071.035c.013 0 .03.012.054.036a.2.2 0 01.072.07c.024.024.06.065.107.124h-.071a.387.387 0 01.071.248c-.036.035-.089.217-.161.547-.06.318-.143.566-.251.742v.053c0 .071-.023.112-.071.124h-.036c-.024 0-.059.018-.107.053s-.072.059-.072.07c0 .012.012.054.036.124 0 .024-.018.06-.054.106a.266.266 0 00-.036.106l.018.089c-.155.082-.244.13-.268.141 0 .165.03.277.089.336v.088c-.023.024-.035.065-.035.124 0 .07.065.135.196.194h.072c.036.047.078.07.125.07a.443.443 0 00.197-.07h.018c.036 0 .096-.03.179-.088.084-.047.132-.089.143-.124h.161c.048-.024.209-.035.484-.035.286 0 .441-.018.465-.053l.09.017.143-.088a.13.13 0 01.053.018.142.142 0 00.054.017c.096 0 .203-.094.322-.282.12-.2.179-.354.179-.46a.543.543 0 00-.035-.159v-.247l.017-.07c-.011-.048.024-.23.108-.548.083-.318.125-.542.125-.672v-.017l-.018.017c-.012 0-.018-.006-.018-.017 0-.212.066-.318.197-.318h.09c0-.036.053-.065.161-.089.048 0 .071.006.071.018l-.125.018h.072c.203 0 .501-.024.895-.071.406-.06.626-.089.662-.089a.3.3 0 01.09.018h.071a.395.395 0 01.251-.07.05.05 0 01.036.017h.053c.024 0 .084-.012.179-.035a1.19 1.19 0 01.287-.035c.035 0 .083.005.143.017l.081.015.011.002a.16.16 0 00.015 0h.143c.132 0 .275.119.43.354.155.236.257.354.304.354h.018c0 .023.006.047.018.07v.018c0 .023-.012.047-.036.07l.09.071c0 .047.06.165.179.354.131.188.197.318.197.388v.018c0 .023.012.047.035.07.036.024.054.048.054.071v.018l.072.088c0 .094.06.2.179.318v.036c0 .023.006.059.018.106a.26.26 0 01.035.106v.017c.036.13.066.2.09.212zm2.955-9.205v.053l.161.053a.406.406 0 01.179.071.71.71 0 01.179.106l.179.088.465.107c.012.011.03.017.054.017.012-.012.036-.017.072-.017.023 0 .179.04.465.123.298.082.501.124.609.124.047 0 .119-.006.214-.018a1.05 1.05 0 01.233-.035c.418 0 1.008.065 1.772.194l.036.018h.018v.088a246.4 246.4 0 00-.054 2.385v.124l.054.813.071.671.215 2.615c0 .059.006.153.018.283.024.117.036.188.036.212l.143-.036c0 .142.006.312.018.513l.054.865c.036.365.101.666.197.901.095.248.208.371.34.371.059 0 .107-.035.143-.105l.072-.142c.071.07.149.106.232.106.072 0 .161-.041.269-.123.036.046.077.07.125.07.036 0 .185-.106.448-.318.262-.2.399-.3.411-.3.06 0 .108.006.143.017 0-.13-.012-.33-.035-.6a7.594 7.594 0 01-.036-.619c0-.035.018-.076.053-.123.048-.06.072-.112.072-.16l.054-.618c0-.082.047-.3.143-.653l.036-.849.053-.424c0-.105-.017-.288-.053-.547a7.594 7.594 0 01-.036-.619l-.072-1.183v-.089c-.012 0-.018.065-.018.195v.212a12.901 12.901 0 01-.017-.813c0-.636.017-1.09.053-1.36l.054-.477c.012-.118.072-.177.179-.177h.895c.119.023.286.035.501.035.191 0 .716-.03 1.575-.088.06 0 .132-.03.215-.088.096-.071.197-.16.304-.266a1.78 1.78 0 01.215-.212l-.053-.212c.083-.011.208-.117.375-.318.167-.212.287-.4.358-.565l-.107-.106c-.084-.059-.125-.118-.125-.177 0-.012.012-.03.036-.053.035-.035.053-.064.053-.088-.167-.483-.435-.748-.805-.795l-.877-.106-.895-.07a16.461 16.461 0 00-.895-.089c-.024 0-.299-.012-.824-.035a36.13 36.13 0 01-1.199-.071c-.275-.024-.424-.053-.447-.088-.12.035-.49.064-1.11.088a5.402 5.402 0 00-.501-.018c-.144 0-.347.006-.609.018-.251.012-.442.018-.573.018a4.75 4.75 0 01-1.271-.16c.06.142.09.218.09.23a7.324 7.324 0 01-.591.018l.054.3-.179-.053c-.06 0-.09.018-.09.053 0 .024.012.047.036.071l.072.053c-.096 0-.143.024-.143.07l.25.195c0 .059-.125.088-.376.088-.071 0-.167-.017-.286-.053a.826.826 0 00-.269-.07c-.453 0-.68.1-.68.3 0 .059.012.106.036.141l.054.106c.107.271.214.43.322.477l-.287.248.072.106a3.291 3.291 0 01-.322.176zm16.707-3.463v-.07c-.072 0-.107.023-.107.07.035.036.053.065.053.089a.168.168 0 01-.071.141 1.135 1.135 0 01-.233.07 1.991 1.991 0 01-.179.036.324.324 0 00-.161.053 1.07 1.07 0 00-.197.16c-.072.058-.119.1-.143.123h-.09c0 .047-.024.094-.071.141-.048.036-.12.077-.215.124a.574.574 0 00-.161.088.865.865 0 00-.197.16.558.558 0 01-.197.158v.089c-.251.306-.4.477-.448.512-.417.683-.841 1.56-1.27 2.633 0 .117-.018.27-.054.459a3.725 3.725 0 00-.036.442v.689c0 .459.03.8.09 1.024v.495c.035.13.065.353.089.671.024.319.084.572.179.76 0 .53.227 1.09.68 1.679 0 .058.054.17.161.335.108.165.161.283.161.354l.358.335c.12.118.239.265.358.442.132.165.233.289.305.371a.41.41 0 00.268.106c.179.177.478.383.895.618.418.248.758.371 1.021.371a.599.599 0 00.143-.035h.089c.132.106.329.16.591.16h.68c.382 0 .722-.148 1.02-.443h.108a.384.384 0 01.143-.07.565.565 0 00.197-.07l.071-.09c0-.035.012-.058.036-.07a.545.545 0 01.108-.035.413.413 0 00.125-.053c.119-.142.263-.289.43-.442.179-.153.286-.26.322-.318.119-.13.256-.277.411-.442a9.49 9.49 0 00.358-.424c0-.07.012-.112.036-.123a.708.708 0 01.161-.071c.072-.035.197-.2.376-.495.179-.294.394-.712.645-1.254v-.089l.25-.583c.06-.059.09-.112.09-.159v-.265c.048-.047.113-.247.197-.6a.298.298 0 00-.054-.142.42.42 0 01.054-.141.45.45 0 00.071-.212v-.247c.048-.047.072-.136.072-.265v-.16c0-.376-.113-.853-.34-1.43 0-.071-.072-.271-.215-.601-.131-.342-.239-.513-.322-.513v-.07c0-.012-.024-.042-.072-.088a6.809 6.809 0 01-.197-.265 2.74 2.74 0 01-.215-.407l-.286-.247c-.024 0-.042-.006-.054-.018l-.071-.07a1.17 1.17 0 00-.126-.107l-.071-.07c-.048 0-.137-.053-.269-.16a6.908 6.908 0 01-.376-.211c-.167-.118-.25-.195-.25-.23 0-.024.018-.053.054-.088h-.108c0-.095-.054-.142-.161-.142l-.179-.176a.132.132 0 00-.018-.053.155.155 0 01-.018-.071c0-.047.012-.094.036-.141h-.161c-.131 0-.221-.03-.269-.089a8.775 8.775 0 00-.322-.265c-.059-.059-.089-.1-.089-.123-.346-.2-.519-.377-.519-.53h-.072c-.119-.118-.495-.26-1.128-.425h-.089c-.06-.047-.113-.07-.161-.07 0 .035-.018.053-.054.053l-.054-.053c-.047-.047-.077-.07-.089-.07-.012 0-.042.023-.09.07-.047.035-.065.059-.053.07h-.698a.344.344 0 01-.251.089c-.048 0-.101-.03-.161-.088zm22.113 11.587l-.143-4.378v-.194c-.155-.884-.233-1.408-.233-1.573a.47.47 0 01.018-.106.526.526 0 00.018-.088c0-.236-.095-.636-.286-1.202a8.07 8.07 0 01-.197-.653 4.775 4.775 0 00-.215-.725v-.194c-.477-1.048-1.11-1.572-1.897-1.572-.06.058-.203.094-.43.106-.227.011-.382.04-.465.088a.73.73 0 01-.018.177.397.397 0 01-.072.141l-.035.034-.054.054a3.883 3.883 0 00-.161.089l-.179.088c0 .153-.096.324-.287.512h.108a.364.364 0 00.071-.123.681.681 0 01.09-.16.486.486 0 01.143-.123 2.4 2.4 0 01.072.442c0 .106-.024.253-.072.441l-.072.106h-.053v.124l-.179.283c0-.142-.036-.212-.108-.212v-.3a4.67 4.67 0 00-.393 1.077.274.274 0 01-.197-.088c0 .106-.048.235-.144.388-.083.142-.173.212-.268.212 0 .295-.525 1.237-1.575 2.827l-.215.336c-.06-.118-.131-.265-.215-.442a6.207 6.207 0 00-.232-.477 1.728 1.728 0 00-.251-.37 1.15 1.15 0 01-.107-.283 1.184 1.184 0 00-.108-.3c-.358-.684-.722-1.208-1.092-1.573a1.188 1.188 0 01-.232-.442 10.573 10.573 0 01-.144-.671 7.023 7.023 0 00-.125-.583 79.155 79.155 0 01-.304-.99c-.072-.059-.167-.218-.287-.477a1.305 1.305 0 00-.34-.176 3.227 3.227 0 00-.465-.124 5.686 5.686 0 01-.394-.088h-.107a.226.226 0 01-.161.07c-.048 0-.096-.023-.144-.07a.468.468 0 00-.34.14 1.124 1.124 0 00-.232.337c-.06.117-.102.188-.126.212a3.1 3.1 0 00-.25.141 3.156 3.156 0 01-.251.141c.06.071.09.171.09.3v3.446c0 .165.018.418.053.76.048.341.072.618.072.83 0 .318.03.86.089 1.625.06.766.09 1.343.09 1.732 0 1.908.233 2.927.698 3.056a.482.482 0 01.34.142l.072.035c.023 0 .059-.03.107-.088h.394c.119 0 .221-.065.304-.195.096-.13.191-.194.287-.194a.295.295 0 00.125-.035l.197-.106c.024 0 .048.017.071.053h.108l.59-.3c.06 0 .144-.054.251-.16.107-.117.161-.194.161-.23.155 0 .245-.082.269-.247.023-.165.071-.247.143-.247v-1.201c-.084-.118-.125-.277-.125-.477v-.39a.36.36 0 01.125.107.407.407 0 00.089.07l.215.212c.108 0 .269.083.483.248.215.153.346.23.394.23h.519c.048-.048.09-.071.126-.071.035 0 .089.023.161.07.071-.059.137-.088.197-.088.035-.035.191-.235.465-.6.274-.366.424-.56.447-.583.036-.024.114-.124.233-.3a3.56 3.56 0 01.215-.301c.573-.566.949-1.02 1.128-1.36a.788.788 0 00.125-.248c.048-.141.077-.224.089-.247v.53c.12 1.06.179 2.06.179 3.003 0 .836.03 1.367.09 1.59.012.036.03.212.054.53.035.318.089.56.161.725.071.165.179.247.322.247.131.07.245.17.34.3.107.13.161.23.161.3l.09-.087c.071-.2.28-.383.626-.548.346-.153.519-.271.519-.354 0-.023.006-.041.018-.053a.576.576 0 01.09-.07.33.33 0 00.089-.089h.304a1.98 1.98 0 00.108-.141c.059-.082.113-.159.161-.23.059-.07.101-.106.125-.106a.15.15 0 00.054-.017c.071-.024.209-.207.412-.548.022-.044.034-.058.035-.04zm-4.349-8.689l.053-.124c.048 0 .072-.035.072-.106h.09c0 .095-.072.195-.215.3v-.07zm6.035 8.269a.37.37 0 01.108.159c0 .011-.06.13-.179.353-.119.212-.179.383-.179.512 0 .165.042.318.125.46a.395.395 0 00.358.212h.018l.018.017.027.027.027.026a.286.286 0 01.107.071l.101.05.042.02c.06.024.114.048.161.071.06.036.126.065.197.089.072.023.143.04.215.053l.34.07a.683.683 0 00.269.053c.167 0 .405-.112.716-.335l.447-.354.197-.247h.054l.018.018c.155-.165.232-.407.232-.725a.917.917 0 00-.053-.282 4.83 4.83 0 00-.072-.283l-.036-.124v-.035c0-.012-.03-.047-.089-.106-.06-.06-.09-.106-.09-.141l-.089-.195c0-.023-.09-.082-.269-.176a2.376 2.376 0 00-.429-.212.993.993 0 01-.287-.089.766.766 0 00-.358-.106 1.12 1.12 0 00-.394.106l-.089.07c-.024.06-.072.09-.143.09h-.072c0-.025-.006-.036-.018-.036 0-.012-.012-.018-.036-.018-.011 0-.018-.006-.018-.017 0-.024.012-.048.036-.071l.036-.053-.036-.036c-.024-.023-.036-.04-.036-.053h.018c.012-.011.03-.017.054-.017a.592.592 0 00-.179-.035.406.406 0 00-.179.07.406.406 0 00-.107.07.807.807 0 01-.072.107.41.41 0 01-.054.088c0 .036-.077.118-.232.248a.616.616 0 00-.215.477c0 .047.03.1.089.159zm14.305-4.382c.298-.6.453-.901.465-.901l-.089-.23a2.25 2.25 0 00.107-.724c0-.365-.077-.683-.232-.954a5.974 5.974 0 01-.251-.548c-.107-.294-.233-.489-.376-.583a5.593 5.593 0 01-.34-.371 2.52 2.52 0 00-.322-.353 1.482 1.482 0 00-.322-.265c-1.062-.59-1.957-.884-2.685-.884-.024 0-.466-.047-1.325-.141-.859-.106-1.539-.16-2.04-.16-.311 0-.531.013-.663.036a.476.476 0 00-.214-.088.138.138 0 00-.054.018h-.197a3.371 3.371 0 00-.412-.089c0 .07-.024.212-.071.424h-.161c-.144.07-.215.377-.215.919 0 1.602.024 2.426.071 2.474 0 .035-.023.14-.071.318a1.943 1.943 0 00-.054.388c.107.93.161 1.567.161 1.908 0 .189-.018.471-.054.848-.023.365-.035.636-.035.813 0 .436.035 1.125.107 2.067l.107 1.75c.024.306.108.606.251.9.155.307.34.46.555.46a.586.586 0 00.143-.035c.012 0 .09-.012.233-.036.143-.024.256-.047.34-.07.095-.024.143-.06.143-.107h.072a.138.138 0 00.053.018c.024 0 .156-.059.394-.177a.992.992 0 00.573-.318c.167-.176.268-.265.304-.265.036.036.066.053.09.053a.175.175 0 00.089-.035c.036-.035.066-.053.09-.053.024 0 .048.006.071.018a.163.163 0 00.072.017c.072-.2.125-.312.161-.335 0-.047-.012-.124-.036-.23a2.35 2.35 0 01-.018-.247l-.214-1.926a.77.77 0 00-.09-.318 1.19 1.19 0 01-.054-.407v-.07l.018-.035h.501a.69.69 0 01.215.053.998.998 0 00.215.035c.024 0 .042-.006.054-.018.179 0 .292.047.34.142.036-.012.089-.024.161-.036a1.16 1.16 0 00.179-.035c.823-.106 1.295-.195 1.414-.265a.561.561 0 01.197-.07c.06-.013.203-.06.43-.142a11.4 11.4 0 00.805-.336c.31-.153.585-.342.823-.565.239-.224.358-.454.358-.69v-.07c0-.059.078-.218.233-.477zm8.22-6.838v.23a.642.642 0 00-.161.106h-.179a2.655 2.655 0 00-.215.513c-.047.153-.083.3-.107.441a2.219 2.219 0 01-.072.318v.318a.6.6 0 00-.143.018.396.396 0 00-.125.018.746.746 0 00-.125.017 41.57 41.57 0 00-2.059.283c-.394.07-.865.253-1.414.548a3.894 3.894 0 00-1.378 1.184c-.143.094-.275.288-.394.582a4.575 4.575 0 01-.233.548c-.155.271-.232.59-.232.954 0 .271.035.513.107.725 0 .023-.03.53-.089 1.52.011 0 .167.3.465.9.155.26.233.418.233.477v.07c0 .213.256.542.769.99.513.436 1.062.683 1.647.742.31.106.847.218 1.611.336.036.012.09.023.161.035.084.012.143.024.179.036.048-.095.161-.142.34-.142.005.005.011.01.016.012a.037.037 0 00.02.006c.048 0 .119-.012.215-.035a.855.855 0 01.233-.053h.268l-.054 2.173c0 .094.144.194.43.3.286.118.519.177.698.177a.253.253 0 00.107-.018.817.817 0 01.197-.035c.108-.012.203-.03.287-.053a.441.441 0 00.197-.088c.059.035.179.064.358.088.19.035.292.053.304.053.012.012.047.018.107.018.179 0 .412-.06.698-.177.287-.106.43-.206.43-.3l-.054-2.103h.269c.047 0 .119.018.215.053a.991.991 0 00.214.035c.024 0 .042-.006.054-.017.179 0 .292.047.34.141a1.15 1.15 0 01.161-.035c.084-.012.143-.024.179-.036.824-.106 1.295-.194 1.414-.265a.569.569 0 01.197-.07c.06-.012.203-.06.43-.142.226-.082.495-.194.805-.335a3.42 3.42 0 00.824-.566c.238-.224.358-.453.358-.689v-.07c0-.06.077-.218.232-.477.299-.601.454-.902.466-.902l-.09-1.519c.072-.212.108-.453.108-.724 0-.366-.078-.684-.233-.954a6.282 6.282 0 01-.251-.548c-.107-.295-.232-.489-.376-.583a28.51 28.51 0 01-.34-.389 2.454 2.454 0 00-.322-.353 1.86 1.86 0 00-.322-.248 7.333 7.333 0 00-1.36-.6c-.394-.13-1.361-.283-2.9-.46v-.406a2.219 2.219 0 01-.072-.318 3.506 3.506 0 00-.107-.442 2.653 2.653 0 00-.215-.512h-.072c-.167 0-.256-.012-.268-.035v-.23c0-.07-.107-.136-.322-.195-.203-.059-.305-.153-.305-.282 0-.047.012-.088.036-.124h-.161c-.203 0-.352.189-.447.566-.096-.401-.239-.601-.43-.601h-.161c.024.07.036.112.036.123 0 .071-.036.107-.108.107l-.009.009-.026.026c-.323.141-.484.253-.484.335z"/><path d="M33.749 38.29l.068-.06c.157-.137.366-.32.621-.816l.595-2.337-10.116-3.955c.017.514.164 1.145.278 1.592.825 3.23 4.387 5.241 6.586 6.095l.881-.035c.155.01.898-.292 1.087-.483z"/><path d="M24.916 31l.001.122 10.116 3.955L24.916 31z"/></g></svg>