<svg width="907" height="690" fill="none" xmlns="http://www.w3.org/2000/svg"><path d="M965.976 649.299H150v.585h815.976v-.585zm-271.181 20.325h-54.051v.586h54.051v-.586zm114.334 18.944h-14.181v.586h14.181v-.586zm-80.145-8.792h-31.317v.586h31.317v-.586zm-422.888-10.573h-70.484v.586h70.484v-.586zm253.524 0h-10.33v.586h10.33v-.586zm-104.445 10.198h-73.944v.586h73.944v-.586zm147.871-429.22h254.846V-30.776H603.046V250.18z" fill="#F6F4FF"/><path d="M862.804-30.8h-4.912v280.958h4.912V-30.8z" fill="#E6E6E6"/><path d="M848.72 237.005V-17.648H612.202v254.653H848.72z" fill="#FAFAFA"/><path d="M617.114-17.624h-4.912v254.653h4.912V-17.624z" fill="#E6E6E6"/><path d="M819.313 237.005l-43.312-254.63h-27.058l43.328 254.63h27.042zm-34.418 0l-43.312-254.63h-16.728l43.312 254.63h16.728zm-89.774 0l-43.312-254.63h-16.727l43.312 254.63h16.727z" fill="#fff"/><path opacity=".5" d="M867.586-26.416v412.88c0 3.73-1.032 7.308-2.868 9.946-1.836 2.638-4.327 4.12-6.924 4.12h-16.825c-2.58.001-5.056-1.462-6.89-4.07-1.833-2.608-2.876-6.149-2.902-9.856-.228-22.928.702-195.479 10.542-227.41.592-1.958.866-4.084.801-6.217-.065-2.132-.467-4.215-1.176-6.092-15.83-42.199-36.556-102.17-39.167-172.785a19.77 19.77 0 01.6-5.599c.463-1.789 1.173-3.424 2.089-4.805.916-1.382 2.018-2.481 3.239-3.232 1.221-.75 2.536-1.136 3.864-1.134h45.809c1.298-.003 2.584.365 3.782 1.082 1.199.717 2.286 1.77 3.199 3.096.913 1.327 1.633 2.9 2.118 4.63a19.61 19.61 0 01.709 5.446z" fill="#F5F3FF"/><path d="M844.151 158.584h22.276c.971 0 1.903-.552 2.591-1.537.688-.984 1.077-2.319 1.081-3.714 0-1.399-.387-2.741-1.075-3.73-.689-.99-1.623-1.545-2.597-1.545h-22.276c-.971.006-1.901.564-2.586 1.553-.685.988-1.07 2.327-1.07 3.722.005 1.391.391 2.723 1.076 3.706.684.984 1.612 1.539 2.58 1.545z" fill="#FDF8E4"/><path opacity=".5" d="M596.845-26.415v412.879c0 3.731 1.032 7.309 2.868 9.947 1.836 2.638 4.327 4.12 6.924 4.12h16.793c2.58 0 5.055-1.463 6.889-4.071 1.833-2.607 2.876-6.149 2.902-9.855.229-22.929-.685-195.48-10.526-227.411a19.583 19.583 0 01-.8-6.216c.065-2.133.467-4.216 1.175-6.092 15.814-42.2 36.556-102.171 39.167-172.785a19.695 19.695 0 00-.6-5.6c-.462-1.789-1.173-3.423-2.089-4.805-.916-1.382-2.018-2.481-3.239-3.232-1.221-.75-2.535-1.136-3.863-1.133h-45.76c-1.301-.01-2.591.353-3.793 1.067-1.202.715-2.293 1.766-3.209 3.093-.917 1.328-1.64 2.904-2.127 4.637a19.61 19.61 0 00-.712 5.457z" fill="#F5F3FF"/><path d="M620.28 158.584h-22.293c-.971 0-1.902-.552-2.59-1.537-.688-.984-1.077-2.319-1.081-3.714 0-1.399.386-2.741 1.075-3.73.689-.99 1.623-1.545 2.596-1.545h22.293c.971.006 1.901.564 2.586 1.553.685.988 1.069 2.327 1.069 3.722-.004 1.391-.39 2.723-1.075 3.706-.685.984-1.612 1.539-2.58 1.545z" fill="#FDF8E4"/><path d="M252.078 250.181h254.846V-30.776H252.078V250.18z" fill="#F6F4FF"/><path d="M511.82-30.8h-4.912v280.958h4.912V-30.8z" fill="#E6E6E6"/><path d="M497.753 237.005V-17.648H261.234v254.653h236.519z" fill="#FAFAFA"/><path d="M266.146-17.624h-4.912v254.653h4.912V-17.624z" fill="#E6E6E6"/><path d="M468.329 237.005l-43.312-254.63h-27.058l43.328 254.63h27.042zm-34.418 0l-43.312-254.63h-16.728l43.312 254.63h16.728zm-89.774 0l-43.312-254.63h-16.728l43.312 254.63h16.728z" fill="#fff"/><path opacity=".5" d="M516.602-26.415v412.879c0 3.731-1.032 7.309-2.868 9.947-1.836 2.638-4.327 4.12-6.924 4.12h-16.825c-2.58 0-5.056-1.463-6.89-4.071-1.833-2.607-2.876-6.149-2.902-9.855-.245-22.929.685-195.48 10.526-227.411.592-1.958.865-4.084.8-6.216-.065-2.133-.467-4.216-1.175-6.092-15.83-42.2-36.556-102.171-39.167-172.785a19.736 19.736 0 01.6-5.6c.462-1.789 1.173-3.423 2.089-4.805.916-1.382 2.018-2.481 3.239-3.232 1.221-.75 2.535-1.136 3.864-1.133h45.792c1.301-.01 2.59.353 3.793 1.067 1.202.715 2.293 1.766 3.209 3.093.916 1.328 1.639 2.904 2.127 4.637a19.61 19.61 0 01.712 5.457z" fill="#F5F3FF"/><path d="M493.183 158.584h22.374c.969-.006 1.896-.561 2.581-1.545.684-.983 1.071-2.315 1.075-3.706 0-1.395-.385-2.734-1.07-3.722-.685-.989-1.615-1.547-2.586-1.553h-22.374c-.973 0-1.907.555-2.596 1.545-.689.989-1.076 2.331-1.076 3.73.005 1.395.394 2.73 1.082 3.714.688.985 1.619 1.537 2.59 1.537z" fill="#FDF8E4"/><path opacity=".5" d="M245.861-26.416v412.879c0 1.848.253 3.677.745 5.383.492 1.707 1.214 3.258 2.123 4.564.909 1.306 1.989 2.342 3.177 3.049 1.188.707 2.461 1.071 3.747 1.071h16.841c2.58 0 5.056-1.463 6.89-4.07 1.833-2.608 2.876-6.15 2.902-9.856.229-22.929-.685-195.479-10.526-227.411a19.55 19.55 0 01-.8-6.216c.065-2.132.467-4.216 1.175-6.092 15.83-42.2 36.556-102.17 39.167-172.785a19.695 19.695 0 00-.6-5.6c-.462-1.788-1.173-3.423-2.089-4.805-.916-1.381-2.018-2.48-3.239-3.231-1.221-.75-2.535-1.136-3.863-1.134h-45.793c-1.302-.013-2.594.348-3.798 1.061-1.204.713-2.297 1.764-3.215 3.092-.918 1.327-1.642 2.904-2.13 4.639a19.572 19.572 0 00-.714 5.462z" fill="#F5F3FF"/><path d="M269.296 158.584h-22.293c-.968-.006-1.895-.561-2.58-1.545-.685-.983-1.071-2.315-1.075-3.706 0-1.395.384-2.734 1.069-3.722.685-.989 1.615-1.547 2.586-1.553h22.293c.974 0 1.908.555 2.596 1.545.689.989 1.076 2.331 1.076 3.73-.005 1.395-.393 2.73-1.082 3.714-.688.985-1.619 1.537-2.59 1.537zM768.2 318.006c-.202 13.64-4.115 26.624-10.901 36.168s-15.905 14.89-25.402 14.89c-9.497 0-18.616-5.346-25.402-14.89-6.786-9.544-10.699-22.528-10.901-36.168H768.2z" fill="#FDF8E4"/><path d="M711.996 329.962c-.177 10.493-3.202 20.47-8.43 27.801-5.228 7.332-12.244 11.436-19.55 11.436-7.306 0-14.322-4.104-19.55-11.436-5.228-7.331-8.254-17.308-8.43-27.801h55.96zm-206.002 92.84h344.603V370.17H505.994v52.632z" fill="#F6F4FF"/><path d="M510.156 417.387h126.77v-41.825h-126.77v41.825zm131.274 0H768.2v-41.825H641.43v41.825zm139.222 231.912h7.621l-16.271-226.52h-7.605l16.255 226.52zm67.04 0h7.605l-16.27-226.52h-7.605l16.27 226.52zm-271.752 0h-7.621l16.27-226.52h7.621l-16.27 226.52zm-67.025 0h-7.621l16.271-226.52h7.621l-16.271 226.52z" fill="#F5F3FF"/><path d="M424.168 472.293h34.614v165.612c0 3.028-.838 5.932-2.328 8.073-1.491 2.141-3.512 3.344-5.62 3.344h-26.666V472.293z" fill="#F6F4FF"/><path d="M455.436 449.857h-161.4c-4.587 0-8.307 5.342-8.307 11.933v29.376c0 6.59 3.72 11.933 8.307 11.933h161.4c4.588 0 8.307-5.343 8.307-11.933V461.79c0-6.591-3.719-11.933-8.307-11.933zM402.346 679c222.052 0 402.061-10.51 402.061-23.474s-180.009-23.474-402.061-23.474S.286 642.562.286 655.526 180.293 679 402.345 679z" fill="#EAE8F6"/><path d="M569.739 624.04l-13.316 1.942-8.291-30.142 13.301-1.942 8.306 30.142zm55.03 12.778h-13.431l-3.803-31.089h13.431l3.803 31.089z" fill="#FFC3BD"/><path d="M609.575 635.268h16.32a1.189 1.189 0 011.158.914l2.775 11.929c.064.289.062.589-.007.876a1.951 1.951 0 01-1.079 1.324 1.949 1.949 0 01-.856.183c-5.272-.082-9.123-.392-15.749-.392-4.08 0-16.319.425-22.015.425-5.695 0-6.43-5.582-4.129-6.088 10.331-2.252 18.082-5.369 21.363-8.355a3.26 3.26 0 012.219-.816zm-54.164-12.975l13.3-6.266a1.208 1.208 0 011.436.342l7.572 9.596a1.922 1.922 0 01-.019 2.444c-.19.226-.429.407-.699.526-4.896 2.171-11.897 5.157-17.951 7.997a127.54 127.54 0 01-15.879 6.528c-5.19 1.893-8.568-2.807-6.528-4.064 9.106-5.728 10.51-5.842 16.32-14.687a6.255 6.255 0 012.448-2.416z" fill="#D6BF65"/><path opacity=".2" d="M548.132 595.856l4.276 15.536 13.317-1.942-4.276-15.536-13.317 1.942zm72.834 9.873h-13.431l1.975 16.026h13.415l-1.959-16.026z" fill="#000"/><path d="M546.941 609.059l22.537-3.264s-16.581-83.001-12.746-124.633c1.175-12.647 3.509-24.479 7.671-43.312 5.271-23.761 11.88-49.431 17.298-69.521 5.712-21.215 10.069-36.164 10.069-36.164l-47.098-3.639s-21.623 107.709-22.847 148.654c-1.42 42.529 25.116 131.879 25.116 131.879z" fill="#9F94D8"/><path opacity=".3" d="M546.941 609.059l22.537-3.264s-16.581-83.001-12.746-124.633c1.175-12.647 3.509-24.479 7.671-43.312 5.271-23.761 11.88-49.431 17.298-69.521 5.712-21.215 10.069-36.164 10.069-36.164l-47.098-3.639s-21.623 107.709-22.847 148.654c-1.42 42.529 25.116 131.879 25.116 131.879z" fill="#000"/><path opacity=".2" d="M564.403 437.817c5.271-23.761 11.88-49.431 17.299-69.521l-4.896-10.575c-11.734 13.79-14.721 56.727-12.403 80.096z" fill="#000"/><path d="M570.082 330.451s5.336 114.971 11.097 153.942c6.299 42.676 22.08 134.261 22.08 134.261h24.594s-9.547-113.747-11.701-136.072c-4.602-47.702.163-148.508.163-148.508l-46.233-3.623z" fill="#9F94D8"/><path opacity=".3" d="M570.082 330.451s5.336 114.971 11.097 153.942c6.299 42.676 22.08 134.261 22.08 134.261h24.594s-9.547-113.747-11.701-136.072c-4.602-47.702.163-148.508.163-148.508l-46.233-3.623z" fill="#000"/><path d="M600.322 619.193h28.967l-.098-8.65-32.361-.571 3.492 9.221zm-56.139-9.204l26.878-3.917-1.338-8.633-30.11 3.933 4.57 8.617z" fill="#263238"/><path d="M605.169 637.601a4.03 4.03 0 01-2.595-.685 1.873 1.873 0 01-.669-1.632.995.995 0 01.522-.898c1.485-.767 5.843 1.91 6.332 2.204a.326.326 0 01.147.326.308.308 0 01-.228.261c-1.15.274-2.327.416-3.509.424zm-2.024-2.774a.943.943 0 00-.408.082c-.098 0-.196.13-.196.375a1.31 1.31 0 00.441 1.159c.734.603 2.497.685 4.765.228a13.05 13.05 0 00-4.602-1.844z" fill="#9F94D8"/><path d="M608.596 637.079a.246.246 0 01-.147 0c-1.403-.751-4.112-3.705-3.851-5.19a1.008 1.008 0 011.012-.832 1.626 1.626 0 011.354.408c1.632 1.273 1.942 5.141 1.942 5.304a.295.295 0 01-.13.294.336.336 0 01-.18.016zm-2.725-5.386h-.147c-.408 0-.441.245-.457.327-.163.881 1.632 3.101 2.954 4.161a7.617 7.617 0 00-1.632-4.21 1.095 1.095 0 00-.718-.278zm-50.852-7.18c-1.779 1.322-5.043 3.427-6.936 2.888a1.796 1.796 0 01-1.208-1.142 1.003 1.003 0 01.115-.979c1.077-1.534 7.164-1.355 7.849-1.338a.354.354 0 01.294.228.308.308 0 01-.114.343zm-7.458 1.077v.081a.377.377 0 000 .392 1.202 1.202 0 00.8.767c1.06.294 3.117-.522 5.597-2.236-2.497 0-5.63.245-6.397 1.061v-.065z" fill="#9F94D8"/><path d="M555.019 624.513a.293.293 0 01-.212.098c-1.795 0-5.957-1.208-6.397-2.677-.098-.342 0-.848.701-1.305.272-.164.574-.272.888-.316.314-.045.634-.027.94.055 2.154.538 4.047 3.639 4.129 3.769a.278.278 0 010 .311s-.033.048-.049.065zm-5.842-3.134c-.212.196-.163.327-.147.392.261.881 3.264 1.991 5.157 2.187a7.518 7.518 0 00-3.395-2.97 1.631 1.631 0 00-1.354.196.892.892 0 00-.261.195z" fill="#9F94D8"/><path d="M562.787 232.044a634.286 634.286 0 01-10.2 20.122l-10.477 19.91c-1.632 3.264-3.492 6.528-5.092 9.792a28.866 28.866 0 01-4.667 6.773 19.423 19.423 0 01-8.437 5.303 18.884 18.884 0 01-5.059.751 21.036 21.036 0 01-4.553-.571 24.073 24.073 0 01-7.165-3.15 32.486 32.486 0 01-5.336-4.259c-.8-.767-1.534-1.632-2.236-2.383-.702-.75-1.322-1.632-2.105-2.644l7.197-7.066 2.105 1.142c.734.392 1.485.767 2.22 1.11a27.63 27.63 0 004.292 1.632 9.793 9.793 0 003.525.457c.946 0 1.403-.326 1.55-.62.147-.294.343-.506.685-1.175.457-.928.86-1.882 1.208-2.856a337.165 337.165 0 014.537-10.673 688.724 688.724 0 019.612-20.66c1.632-3.411 3.264-6.822 5.059-10.184 1.795-3.362 3.427-6.756 5.239-10.102l18.098 9.351z" fill="#FFC3BD"/><path d="M568.564 223.249c3.705 12.321-21.558 45.825-21.558 45.825l-25.801-16.613a162.054 162.054 0 0117.592-30.143c10.445-13.382 25.704-12.598 29.767.931z" fill="#263238"/><path opacity=".2" d="M552.016 240.106c-6.528 2.987-13.512 14.051-14.54 22.848l9.563 6.152a203.613 203.613 0 0016.189-25.589c-2.008-3.166-3.737-6.821-11.212-3.411z" fill="#000"/><path d="M628.375 217.993a299.944 299.944 0 00-8.437 44.063c-1.24 10.396-1.991 20.318-2.432 29.375-1.077 21.101-.571 37.192-1.191 42.627l-71.643-5.533c-9.922-76.44 8.617-115.64 8.617-115.64a140.894 140.894 0 0117.135-1.991c1.208 0 2.448-.098 3.705-.114 10.188.196 20.355.981 30.452 2.35 1.926.245 3.868.539 5.745.865 9.596 1.599 18.049 3.998 18.049 3.998z" fill="#263238"/><path d="M580.249 220.588s4.814 2.889 6.528 12.191c5.793-2.464 20.889-12.762 21.003-20.089a27.212 27.212 0 00-4.635-3.835 81.595 81.595 0 01-22.896 11.733zm0 0a18.276 18.276 0 00-12.06 8.927c-5.826-2.481.995-17.576 5.222-19.323a12.141 12.141 0 015.826-1.631s-5.206 9.905 1.012 12.027z" fill="#fff"/><path opacity=".75" d="M620.558 214.811l-11.913-3.672a1.636 1.636 0 00-2.04.931c-2.905 6.625-16.32 35.707-35.316 51.667a55.048 55.048 0 011.273-52.222.795.795 0 00-.01-.841.797.797 0 00-.757-.367l-15.764 1.387a1.629 1.629 0 00-1.518 1.436c-6.528 43.329-14.002 65.866-14.002 65.866 0 17.331 1.159 37.209 1.24 55.486a1.926 1.926 0 001.926 1.926h73.617a1.939 1.939 0 001.942-1.86l2.171-53.137s-21.493-31.986.179-63.989a1.634 1.634 0 00-1.028-2.611z" fill="#FFDD59"/><path opacity=".2" d="M570.082 336.8a.411.411 0 01-.408-.359 306.97 306.97 0 011.224-72.736.402.402 0 01.164-.271.42.42 0 01.147-.068.42.42 0 01.162-.004.423.423 0 01.327.473 306.587 306.587 0 00-1.208 72.508.424.424 0 01-.375.457h-.033z" fill="#000"/><path d="M618.453 214.158l-7.931-2.415c-16.222 31.839-21.624 72.344-16.059 120.438.212 1.844.425 3.737.425 4.21h8.159c0-.913-.146-2.235-.489-5.14-5.435-47.131-.098-86.526 15.895-117.093zm-59.289-2.725c-10.2 32.509-13.317 72.998-9.286 120.438.18 2.122.343 3.966.343 4.521h8.16c0-.865-.114-2.301-.376-5.222-4.079-47.98-.718-88.501 9.988-120.504l-8.829.767z" opacity=".2" fill="#fff"/><path d="M603.88 178.598c-2.579 9.645-5.712 27.433.701 34.5a30.263 30.263 0 01-24.104 7.523c-8.421-.849-8.453-6.756-6.348-9.873 11.097-1.763 11.424-9.89 9.971-17.642l19.78-14.508z" fill="#FFC3BD"/><path opacity=".2" d="M595.818 184.522l-11.702 8.568c.358 1.807.549 3.642.572 5.483 4.226-.277 10.265-4.422 10.999-8.747a14.4 14.4 0 00.131-5.304z" fill="#000"/><path d="M593.859 168.17c-16.401-4.896-27.384-15.944-29.016-26.797 2.024 1.959 12.452 2.579 12.452 2.579 6.528-3.003 19.583-.767 21.33 5.548 9.579-2.007 9.53 20.481-4.766 18.67z" fill="#263238"/><path d="M606.05 163.959c-1.714 13.187-2.04 21.004-9.204 27.303-10.771 9.449-26.748 2.105-29.016-11.424-2.04-12.141 1.093-31.676 14.443-35.903a18.38 18.38 0 0117.411 3.455 18.368 18.368 0 016.366 16.569z" fill="#FFC3BD"/><path d="M590.971 150.218c1.159 6.789 4.798 18.947 13.235 22.848 15.047-4.896 17.772-18.409 7.523-21.477-10.248-3.068-21.77-7.36-20.758-1.371z" fill="#263238"/><path d="M601.905 163.176c-16.32-5.255-28.82-14.508-28.543-27.286 1.991 1.991 7.425 3.444 7.425 3.444 3.264-4.097 34.973-4.619 33.227 15.911 5.646.408 2.154 9.988-12.109 7.931z" fill="#263238"/><path d="M610.228 153.222s3.753-5.549 11.065.424a62.958 62.958 0 00-11.065-.424z" fill="#263238"/><path d="M610.766 152.748s5.386.767 5.81-6.903a53.641 53.641 0 01-5.81 6.903z" fill="#263238"/><path d="M610.407 175.351a12.439 12.439 0 01-6.723 6.886c-4.08 1.632-6.708-1.844-6.039-6.005.588-3.737 3.428-9.107 7.752-9.041a5.722 5.722 0 014.707 2.728 5.724 5.724 0 01.303 5.432z" fill="#FFC3BD"/><path d="M585.667 166.098c0 1.077-.702 1.909-1.403 1.86-.702-.049-1.224-.979-1.159-2.056.065-1.077.702-1.91 1.42-1.861.718.049 1.224.98 1.142 2.057zm-12.207-.947c-.082 1.077-.702 1.909-1.42 1.861-.718-.049-1.207-.98-1.142-2.057.065-1.077.702-1.909 1.403-1.86.702.049 1.224.979 1.159 2.056z" fill="#263238"/><path d="M577.295 166a37.258 37.258 0 01-5.842 8.486 6.386 6.386 0 005.075 1.273l.767-9.759z" fill="#ED847E"/><path d="M583.023 183.217c-.466.04-.936.04-1.403 0a.31.31 0 010-.62 8.54 8.54 0 007.213-2.807.31.31 0 01.441 0 .358.358 0 010 .457 8.877 8.877 0 01-6.251 2.97zm6.675-20.759a.69.69 0 01-.571-.294 5.146 5.146 0 00-3.917-2.432.668.668 0 01-.653-.636.637.637 0 01.637-.637 6.362 6.362 0 012.864.902 6.363 6.363 0 012.13 2.118c.093.14.126.312.092.477a.631.631 0 01-.272.404.967.967 0 01-.31.098zm-21.215-1.909a.683.683 0 01-.359 0 .653.653 0 01-.245-.881 6.325 6.325 0 014.798-3.264.672.672 0 01.685.604.615.615 0 01-.158.464.62.62 0 01-.446.205 4.889 4.889 0 00-3.769 2.595.646.646 0 01-.506.277z" fill="#263238"/><path d="M505.195 274.622l-10.999-8.16-2.889 14.9s10.249 6.658 13.464 1.24l.424-7.98z" fill="#FFC3BD"/><path d="M480.683 265.271l1.877 13.66 8.747 2.464 2.889-14.9-13.513-1.224zm154.318-38.318c2.758 3.835 5.091 7.54 7.49 11.424a200.88 200.88 0 016.757 11.815c2.138 4.048 4.112 8.16 5.94 12.599a76.713 76.713 0 014.423 14.345c.602 3.029.767 6.128.489 9.204a20.498 20.498 0 01-1.501 5.94 17.217 17.217 0 01-1.828 3.264 4.63 4.63 0 01-.457.588l-.408.457-.8.914a27.841 27.841 0 01-7.458 5.597 32.26 32.26 0 01-7.98 2.938 47.998 47.998 0 01-15.193.897 63.785 63.785 0 01-7.181-1.142 57.692 57.692 0 01-6.985-1.942l2.04-9.873c7.817-.115 16.32-.98 22.44-3.623a20.614 20.614 0 003.965-2.252 12.248 12.248 0 002.579-2.644l.228-.359.114-.18s0-.13 0 0c0 .131-.195.294-.261.343-.065.049 0 0 0-.408a18.056 18.056 0 00-.603-3.753 60.14 60.14 0 00-3.885-10.347c-1.631-3.59-3.574-7.213-5.581-10.82-2.007-3.606-4.161-7.18-6.332-10.754-2.17-3.574-4.537-7.165-6.707-10.494l16.695-11.734z" fill="#FFC3BD"/><path d="M628.375 217.994c12.289 3.802 27.319 39.167 27.319 39.167l-29.897 13.79a109.7 109.7 0 01-11.522-27.433c-1.468-5.484 3.346-28.837 14.1-25.524z" fill="#263238"/><path d="M607.104 278.94l-119.958-15.665-13.233 101.332 119.958 15.665 13.233-101.332z" fill="#FFDD59"/><path opacity=".1" d="M522.707 267.915l-35.568-4.645-13.233 101.333 35.568 4.644 13.233-101.332z" fill="#000"/><path d="M615.369 295.25l-10.673-8.437-3.95 16.76s10.673 5.141 14.003-.261l.62-8.062zm-21.836-8.502l-2.611 14.018 9.824 2.807 3.949-16.76-11.162-.065z" fill="#FFC3BD"/><path d="M481.679 528.211h-144.77V650.51h144.77V528.211z" fill="#5C4CB1"/><path opacity=".1" d="M379.829 528.211h-42.92V650.51h42.92V528.211z" fill="#000"/><path d="M397.846 283.615H253.075v122.298h144.771V283.615z" fill="#8A7CD8"/><path opacity=".1" d="M313.8 283.615h-60.725v122.298H313.8V283.615z" fill="#000"/><path d="M176.096 650.527h144.771V405.913H176.096v244.614z" fill="#5C4CB1"/><path opacity=".5" d="M286.008 483.121c4.569 34.679 24.561 43.785 34.793 87.261V444.378c-21.182-22.064-39.313 4.048-34.793 38.743zm-48.616-46.886a24 24 0 01-.528 15.931 24 24 0 01-10.39 12.089c-9.53 5.402-20.383.261-27.922-8.975-7.54-9.237-2.922-23.158 6.527-28.576 9.449-5.418 29.082-1.942 32.313 9.531zm-45.515 158.413c-13.48-40.717 3.346-93.853 35.152-103.041 31.807-9.188 44.814 16.548 50.917 31.236 25.916 23.63 35.218 85.53 0 101.752-11.097 15.65-72.589 10.754-86.069-29.947z" fill="#A797FF"/><path opacity=".1" d="M277.946 405.913h-101.85v244.614h101.85V405.913z" fill="#000"/><path d="M494.115 405.913H371.816v122.299h122.299V405.913z" fill="#5C4CB1"/><path opacity=".4" d="M494.115 405.913H371.816v122.299h122.299V405.913z" fill="#fff"/><path d="M283.966 394.158c15.678-15.678 15.678-41.097 0-56.775-15.678-15.678-41.097-15.678-56.775 0-15.678 15.678-15.678 41.097 0 56.775 15.678 15.678 41.097 15.678 56.775 0z" fill="#FFDD59"/></svg>