<svg width="1728" height="503" fill="none" xmlns="http://www.w3.org/2000/svg"><path opacity=".25" d="M209.463 148H446s-10.815-19.158-31.337-19.158c-20.523 0-1.282 10.605-17.141 10.605-15.859 0-32.318-34.447-82.851-34.447-50.532 0-8.76 25.917-34.88 25.917-26.121 0-109.953-22.934-70.328 17.083zm-53.245 105H274s-5.358-9.367-15.579-9.367c-10.222 0-.644 5.19-8.566 5.19-7.922 0-16.097-16.823-41.253-16.823-25.157 0-4.347 12.6-17.385 12.6s-54.74-11.143-34.999 8.4zm424.552-29.284c-9.979 0-.623 5.167-8.353 5.167-7.73 0-15.725-16.771-40.3-16.771-24.171 0-5.93 14.263-17.387 14.753h-.623c-11.468 0-23.306-24.865-59.73-24.865-36.424 0-6.288 18.661-25.151 18.661-18.864 0-79.252-16.538-50.673 12.339H596s-5.238-9.284-15.23-9.284z" fill="#CECAE4"/><mask id="a" style="mask-type:alpha" maskUnits="userSpaceOnUse" x="0" y="0" width="1728" height="440"><path d="M1728 334.902v92.753l-2.5-.231-3.02.231c-6.54 1.54-14.48 3.345-31.48 3.917-4.04.136-19.16.351-22.57 0-5.44-.562-6.93-2.072-6.43-6.572 7.93-33-3-15.5-22.5-13.5-9 1-16.5 3-34 5-16.39 1.874-41.48 2.236-50 2-27.06-2.41-39.5-11-34.48 8.94 0 8.321-22.02 4.05-42.02 7.06-22 5.49-19.7 4.609-35.52 5.495-18.48 0-49.98-23.646-77.98-23.646-28 0-69.3 11.207-93.96 11.819-33.54.832-47.02-7.045-50.94-7.045-3.76 0-35.6 21.181-71.6-18.601-17.5-4.132-30 11.782-56.04 8.611-26.04-3.17-14.96-12.599-48.46-8.142-15 4.223-66.772 11.341-66.511 12.275.424 1.513-.138 1.711-5.157 1.817-13.296.28-24.276-.118-29.861-1.082-18.471-5.503-54.971-12.071-58.576-3.892.206 1.675-.601 2.274-5.035 3.738-4.283 1.414-8.591 1.808-22.827 2.088-57.033-5.826-119.464-4.732-123.83-3.631C661 427 607.5 397.5 561.5 397.5c-19 2-53.954-15.28-59.9-15.794-2.64-.228-38.6 10.141-74.6 9.294-127.5-3-152.5 20-225.5 18-30.664-.84-50.5-5-63.5-10-16.539-6.361-41-24.626-43.5-33.071C79.5 350 34 365 14.572 353.458c-1.512-1.41-11.922-.585-14.572.743V0h1728v334.902z" fill="#D9D9D9"/></mask><g mask="url(#a)"><path d="M229.917 411.37h229.467L344.651 221.463 229.917 411.37z" fill="#D0CAEF"/><path d="M315.557 411.37H525.33L420.443 262.06 315.557 411.37z" fill="#E0DDF5"/><path d="M173.781 411.37h181.306L243.069 306.051 173.781 411.37z" fill="#DEDBED"/></g><path d="M455 442.681c-90.575 0-164-6.633-164-14.816s73.425-14.816 164-14.816 164 6.633 164 14.816-73.425 14.816-164 14.816z" fill="#E3E0F4"/><path d="M329.64 420.358c-13.548 0-18.868-14.974-13.983-27.475 4.884-12.5 2.852-15.894 2.852-15.894s6.033 6.738 6.033 11.744c4.763-5.754-7.038-18.133-2.14-30.527 3.63 8.265 6.047 12.408 17.007 24.537 10.304 11.395 16.686 37.615-9.769 37.615z" fill="#FF820E"/><path opacity=".5" d="M332.328 418.426c7.374 0 10.804-8.807 7.317-15.624s-1.776-8.999-1.776-8.999-3.679 4.008-3.351 6.732c-2.974-3.138 1.198-10.825-2.275-17.578-1.426 4.5-1.084 7.666-6.211 14.319-5.405 7.002-8.122 21.15 6.296 21.15z" fill="#F3F3F3"/><path opacity=".5" d="M330.909 415.795c-3.287 0-4.813-3.922-3.258-6.967 1.554-3.045.791-4.007.791-4.007s1.64 1.782 1.498 3.002c1.319-1.427-.535-4.835 1.012-7.844.642 2.011.478 3.423 2.767 6.382 2.41 3.13 3.622 9.434-2.81 9.434z" fill="#F3F3F3"/><path d="M347.938 423.995a5.845 5.845 0 00-5.847-5.847h-21.486v5.847h27.333z" fill="#FF820E"/><path opacity=".2" d="M347.938 423.995a5.845 5.845 0 00-5.847-5.847h-21.486v5.847h27.333z" fill="#000"/><path d="M320.605 418.134a5.848 5.848 0 00-5.847 5.847h11.695a5.847 5.847 0 00-5.848-5.847z" fill="#FF820E"/><path d="M392.606 421.656a.366.366 0 01-.196-.074.366.366 0 01-.125-.168.483.483 0 01.157-.585c38.784-23.881 55.941-92.529 56.105-93.221a.36.36 0 01.158-.248.361.361 0 01.291-.044.456.456 0 01.243.542c-.172.713-17.414 69.696-56.469 93.748a.353.353 0 01-.164.05z" fill="#5C4CB1"/><path d="M432.781 423.895h32.238l-16.123-96.166-16.115 96.166z" fill="#fff"/><path d="M479.081 423.895l-30.185-96.166h83.495l37.879 96.166h-91.189z" fill="#5C4CB1"/><path opacity=".2" d="M479.081 423.895l-30.185-96.166h83.495l37.879 96.166h-91.189z" fill="#000"/><path d="M453.988 423.895l-5.092-96.166 30.185 96.166h-25.093zm-10.176 0l5.084-96.166-30.177 96.166h25.093z" fill="#5C4CB1"/><path d="M530.159 424.331c-27.589 0-48.311-26.249-60.84-48.269a256.772 256.772 0 01-20.758-48.183.46.46 0 01.221-.556.338.338 0 01.4.126.343.343 0 01.057.138 255.467 255.467 0 0020.679 47.99c12.429 21.842 32.966 47.884 60.241 47.884a.397.397 0 01.356.435.4.4 0 01-.356.435z" fill="#fff"/><path d="M584.688 390.566h-62.872v-3.501h62.872v3.501z" fill="#887AD7"/><path opacity=".2" d="M584.688 390.566h-22.604v-3.501h22.604v3.501z" fill="#000"/><path d="M542.367 423.896h-3.088l24.844-33.33h3.095l-24.851 33.33z" fill="#887AD7"/><path d="M564.123 423.896h3.095l-24.851-33.33h-3.088l24.844 33.33zm-32.467-46.829c0 5.527 5.612 9.984 12.536 9.984 6.924 0 12.529-4.479 12.529-9.984h-25.065z" fill="#887AD7"/><path d="M418.692 243.858s6.325 16.187.32 46.351h-28.673c-.199-4.4 2.568-25.871-1.675-46.607a75.204 75.204 0 019.598-1.213c4.059-.235 8.128-.235 12.186 0 2.782.273 5.539.764 8.244 1.469z" fill="#FFDD59"/><path d="M417.173 254.29c.713 2.739 1.512 5.513 2.282 8.251.77 2.738 1.533 5.491 2.246 8.207.335 1.348.713 2.71.962 3.994l.214.934c.036.214.086.426.15.634l.043-.171c.021-.167.059-.332.114-.492a3.28 3.28 0 01.292-.713c.055-.101.117-.199.186-.292.078-.113.164-.22.257-.321a3.5 3.5 0 012.588-1.184c.239-.008.478.012.713.057.168.028.332.071.492.129.127.042.25.092.371.149.099.045.194.098.285.157.121.066.235.143.342.228.179.134.337.292.471.471.121.164.114.185.114.2a2.345 2.345 0 01-.378-.528c-.328-.513-.67-1.12-.998-1.726l-1.027-1.861c-.713-1.248-1.426-2.517-2.182-3.751l-3.979 1.334c.161 1.485.399 2.961.713 4.421a37.667 37.667 0 001.17 4.471c.165.491.371.968.613 1.426.268.505.637.949 1.084 1.305a3.744 3.744 0 00.713.442c.129.061.263.113.399.157a3.431 3.431 0 001.241.2 3.654 3.654 0 001.611-.4 3.572 3.572 0 001.099-.841c.101-.109.194-.226.278-.349a3.58 3.58 0 00.157-.293c.147-.254.264-.524.349-.806.073-.247.128-.5.164-.755.031-.237.05-.475.057-.714.031-.508.031-1.017 0-1.526 0-.427-.057-.82-.114-1.205a61.324 61.324 0 00-.713-4.506 151.91 151.91 0 00-1.897-8.636 149.077 149.077 0 00-2.346-8.457l-8.136 2.36z" fill="#FFA59C"/><path d="M412.331 247.524c-1.811 4.799 7.345 18.918 7.345 18.918l10.696-5.819a65.085 65.085 0 00-6.197-12.55c-3.772-5.655-9.862-5.812-11.844-.549z" fill="#FFDD59"/><path d="M418.528 243.595a14.58 14.58 0 00-4.464-.999.17.17 0 00-.172.159.172.172 0 00.015.084c.877 1.711 2.852 5.355 2.645 19.923-.199 13.171 2.76 18.54 3.723 19.881a.202.202 0 00.211.083.2.2 0 00.152-.169l.293-1.789a.657.657 0 000-.286c-.278-.941-1.854-6.774-1.084-15.687 1.347-15.645-.999-20.68-1.241-21.136a.163.163 0 00-.078-.064z" fill="#5C4CB1"/><path d="M415.625 261.814l-.506 5.64 4.521.677.856-6.189-4.871-.128z" fill="#FFA59C"/><path d="M424.546 265.072l-4.05-3.13-.856 6.189s3.629 2.617 6.125.172l-1.219-3.231zm-25.079-36.452c.77 3.922 1.533 11.109-1.205 13.726 0 0 1.576 3.979 8.863 3.979 6.653 0 3.323-3.979 3.323-3.979-4.371-1.041-4.278-4.278-3.501-7.337l-7.48-6.389z" fill="#FFA59C"/><path opacity=".2" d="M402.519 231.251l4.428 3.779a12.337 12.337 0 00-.378 2.139c-1.426 1.355-3.965-2.075-4.143-3.822a5.935 5.935 0 01.093-2.096z" fill="#000"/><path d="M411.932 216.583c2.638 1.112 4.071 8.514.713 10.211-3.359 1.697-5.712-12.329-.713-10.211z" fill="#263238"/><path d="M399.003 222.744c.321 5.312.243 8.436 2.924 11.16 4.036 4.1 10.589 1.668 11.859-3.637 1.14-4.771.413-12.65-4.785-14.761a7.253 7.253 0 00-9.998 7.238z" fill="#FFA59C"/><path d="M396.935 216.362c1.733-5.141 15.011-4.357 16.522-.977.849 1.904-.442 2.524-1.354 2.645-2.075-1.839-7.466-.285-9.484.1 0 0 .299.713-.621 2.418-2.011 3.75 2.774 7.844-1.782 7.187-2.09-.32-8.151-9.248-3.281-11.373z" fill="#263238"/><path d="M397.656 213.902a3.11 3.11 0 110-6.218 3.11 3.11 0 010 6.218z" fill="#5C4CB1"/><path opacity=".2" d="M397.656 213.902a3.11 3.11 0 110-6.218 3.11 3.11 0 010 6.218z" fill="#fff"/><path d="M414.121 218.48c.064-1.077.52-3.872-4.122-6.304-5.155-2.71-14.311-1.718-15.752 2.959-.813 2.646 1.07 4.914 1.013 5.976 2.46-1.155 18.861-2.631 18.861-2.631z" fill="#7D6AE0"/><path opacity=".1" d="M414.121 218.48c.064-1.077.52-3.872-4.122-6.304-5.155-2.71-14.311-1.718-15.752 2.959-.813 2.646 1.07 4.914 1.013 5.976 2.46-1.155 18.861-2.631 18.861-2.631z" fill="#000"/><path d="M414.427 218.102l.464 1.918a.415.415 0 01-.097.39.43.43 0 01-.174.114.428.428 0 01-.207.016c-2.025-.406-8.742-1.276-18.961 2.282a.397.397 0 01-.171.023.403.403 0 01-.296-.16.414.414 0 01-.075-.155l-.477-2.011a.42.42 0 01.271-.506c11.074-3.879 18.055-2.553 19.417-2.225a.4.4 0 01.306.314z" fill="#AF9FFF"/><path d="M396.101 227.115a5.074 5.074 0 002.853 2.617c1.668.599 2.631-.863 2.274-2.503-.321-1.476-1.576-3.565-3.301-3.465a2.279 2.279 0 00-1.823 1.18 2.274 2.274 0 00-.003 2.171z" fill="#FFA59C"/><path d="M419.012 290.187s10.697 42.642 12.886 58.851c2.267 16.864 7.18 65.51 7.18 65.51l-8.521 1.747s-11.359-46.82-14.575-63.214c-3.509-17.87-15.823-62.894-15.823-62.894h18.853z" fill="#5C4CB1"/><path opacity=".3" d="M419.012 290.187s10.697 42.642 12.886 58.851c2.267 16.864 7.18 65.51 7.18 65.51l-8.521 1.747s-11.359-46.82-14.575-63.214c-3.509-17.87-15.823-62.894-15.823-62.894h18.853z" fill="#F3F3F3"/><path opacity=".3" d="M406.141 293.339l-2.496 9.762c2.318 8.721 5.42 20.544 8.037 31.176a136.038 136.038 0 00-5.541-40.938z" fill="#000"/><path d="M408.837 290.187s-2.432 43.819-5.769 59.186c-3.658 16.8-21.086 69.932-21.086 69.932h-9.819s12.736-51.77 14.825-68.413c2.26-18.056 3.351-60.691 3.351-60.691l18.498-.014z" fill="#5C4CB1"/><path opacity=".3" d="M408.837 290.187s-2.432 43.819-5.769 59.186c-3.658 16.8-21.086 69.932-21.086 69.932h-9.819s12.736-51.77 14.825-68.413c2.26-18.056 3.351-60.691 3.351-60.691l18.498-.014z" fill="#F3F3F3"/><path d="M407.054 224.227c0 .435.228.785.514.785.285 0 .513-.35.513-.785 0-.435-.228-.784-.513-.784-.286 0-.514.349-.514.784zm4.885 0c0 .435.235.785.513.785s.513-.35.513-.785c0-.435-.228-.784-.513-.784-.285 0-.513.349-.513.784z" fill="#263238"/><path d="M410.391 224.441a15.397 15.397 0 002.061 3.701 2.49 2.49 0 01-2.061.385v-4.086z" fill="#E8716A"/><path d="M409.129 229.725a.13.13 0 00.129-.128.13.13 0 00-.129-.129 3.427 3.427 0 01-2.795-1.34.13.13 0 00-.079-.052.13.13 0 00-.153.147.128.128 0 00.018.047 3.652 3.652 0 003.009 1.455zm-3.565-7.074a.27.27 0 00.111-.027.279.279 0 00.088-.072 2.02 2.02 0 011.626-.849.27.27 0 00.106.003.266.266 0 00.172-.117.24.24 0 00-.102-.348.25.25 0 00-.097-.023 2.513 2.513 0 00-2.068 1.048.254.254 0 00-.051.189.246.246 0 00.101.168.25.25 0 00.114.028zm8.557-.157a.22.22 0 00.114 0 .252.252 0 00.117-.151.25.25 0 00-.025-.191 2.535 2.535 0 00-1.911-1.312.26.26 0 00-.183.062.26.26 0 00-.088.173.259.259 0 00.236.271 2.026 2.026 0 011.504 1.056.262.262 0 00.236.092z" fill="#263238"/><path d="M383.587 249.377a145.081 145.081 0 00-3.994 11.103 104.485 104.485 0 00-1.647 5.705 49.754 49.754 0 00-1.248 6.139c-.042.243-.064.656-.092.984a9.508 9.508 0 000 1.013c0 .335 0 .649.05.97.049.321.064.627.114.927.178 1.15.452 2.283.82 3.387a34.052 34.052 0 002.624 5.819 54.089 54.089 0 007.131 9.79l3.365-2.51c-.855-1.604-1.761-3.301-2.545-4.991-.785-1.69-1.555-3.366-2.204-5.049a32.589 32.589 0 01-1.54-4.992 12.99 12.99 0 01-.307-2.281 4.407 4.407 0 010-.514 3.466 3.466 0 010-.478c.005-.143.022-.286.05-.427.036-.15 0-.221.086-.457.342-1.583.891-3.358 1.426-5.113.535-1.754 1.191-3.565 1.826-5.305 1.276-3.565 2.617-7.131 3.921-10.696l-7.836-3.024z" fill="#FFA59C"/><path d="M388.664 243.594c-5.077.713-10.882 18.312-10.882 18.312l10.668 6.004s4.692-8.357 7.002-14.568c2.41-6.503-1.347-10.553-6.788-9.748z" fill="#FFDD59"/><path d="M391.302 242.717a36.94 36.94 0 015.434-.52.499.499 0 01.442.278c1.426 2.474 6.218 12.172 5.847 21.906-.392 10.161-9.484 18.048-12.122 18.96a.589.589 0 01-.714-.286.589.589 0 01-.063-.27v-1.34a.575.575 0 01.37-.542c1.947-.778 8.893-8.736 7.131-19.253-2.004-12.044-5.704-16.202-6.681-18.27a.485.485 0 01.158-.58.482.482 0 01.198-.083z" fill="#5C4CB1"/><path d="M390.104 291.856l3.943 3.251-5.84 2.204s-3.358-2.952-1.533-5.933l3.43.478z" fill="#FFA59C"/><path d="M395.26 299.828l-5.398 1.74-1.655-4.257 5.84-2.204 1.213 4.721z" fill="#FFA59C"/><path d="M431.064 423.291l9.598-1.683-2.296-18.997a.813.813 0 00-.615-.698.82.82 0 00-.327-.015l-9.648 1.526a.816.816 0 00-.548.343.83.83 0 00-.129.634l3.965 18.89zm-60.762 2.852l9.391 1.312 6.525-18.775a.805.805 0 00-.36-.96.798.798 0 00-.353-.103l-10.511-.913a.799.799 0 00-.856.635l-3.836 18.804z" fill="#FFDD59"/><path d="M378.588 424.417l-6.996-1.24a.589.589 0 00-.598.42l-1.69 5.848a.988.988 0 00.898 1.247c2.61.25 4.008.236 7.302.471 2.025.143 6.083.856 8.885.856 2.802 0 3.173-2.774 2.025-3.031-5.155-1.127-7.095-2.674-8.742-4.157a1.607 1.607 0 00-1.084-.414zm59.678-6.924l-7.188 1.263a.58.58 0 00-.485.549v7.487a.964.964 0 00.331.785.974.974 0 00.824.22c2.581-.499 6.304-1.304 9.562-1.875 3.815-.67 7.131-1.041 11.617-1.825 2.702-.471 2.973-3.338 1.796-3.388a42.772 42.772 0 01-14.817-2.98 3.086 3.086 0 00-1.64-.236z" fill="#FFDD59"/><g filter="url(#filter0_f_100_10)"><path d="M328.159 403c-21.621 0-30.111-18.311-22.316-33.597 7.796-15.285 4.552-19.436 4.552-19.436s9.628 8.24 9.628 14.362c7.601-7.037-11.232-22.174-3.414-37.329 5.792 10.106 9.65 15.172 27.14 30.004C360.193 370.938 370.378 403 328.159 403z" fill="#FFA34F"/></g><defs><filter id="filter0_f_100_10" x="203" y="227" width="255" height="276" filterUnits="userSpaceOnUse" color-interpolation-filters="sRGB"><feFlood flood-opacity="0" result="BackgroundImageFix"/><feBlend in="SourceGraphic" in2="BackgroundImageFix" result="shape"/><feGaussianBlur stdDeviation="50" result="effect1_foregroundBlur_100_10"/></filter></defs></svg>