<svg width="40" height="40" fill="none" xmlns="http://www.w3.org/2000/svg"><path d="M19.735 4.387a15.871 15.871 0 019.837 3.44h-3.44c-.523 0-1.025.207-1.395.574a1.949 1.949 0 000 2.768c.37.367.872.573 1.396.573h7.893c.524 0 1.026-.207 1.396-.574.37-.366.578-.864.578-1.383V1.957c0-.52-.208-1.017-.578-1.384a1.982 1.982 0 00-2.79 0 1.946 1.946 0 00-.579 1.384v2.834A19.79 19.79 0 0021.964.603a19.848 19.848 0 00-10.786 1.794 19.647 19.647 0 00-8.16 7.222A19.416 19.416 0 000 20.043c0 .52.208 1.017.578 1.384a1.982 1.982 0 002.79 0c.371-.367.579-.865.579-1.384a15.61 15.61 0 014.63-11.065 15.873 15.873 0 0111.158-4.59zM38.027 18c-.524 0-1.026.206-1.396.573a1.95 1.95 0 00-.578 1.384 15.533 15.533 0 01-2.41 8.335 15.717 15.717 0 01-6.521 5.778 15.875 15.875 0 01-8.623 1.441 15.829 15.829 0 01-8.07-3.339h3.438c.523 0 1.025-.206 1.395-.573a1.949 1.949 0 000-2.768 1.982 1.982 0 00-1.395-.573H5.973c-.523 0-1.025.207-1.395.573A1.95 1.95 0 004 30.215v7.828c0 .52.208 1.017.578 1.384a1.982 1.982 0 002.79 0 1.95 1.95 0 00.579-1.384V35.21a19.79 19.79 0 0010.088 4.187 19.847 19.847 0 0010.786-1.794 19.648 19.648 0 008.16-7.221A19.418 19.418 0 0040 19.957c0-.52-.208-1.017-.578-1.384A1.982 1.982 0 0038.027 18z" fill="#fff"/></svg>