<svg width="40" height="40" fill="none" xmlns="http://www.w3.org/2000/svg"><path d="M20 .625C9.316.625.625 9.316.625 20S9.316 39.375 20 39.375 39.375 30.684 39.375 20 30.684.625 20 .625zm0 35c-8.616 0-15.625-7.01-15.625-15.625 0-8.616 7.01-15.625 15.625-15.625 8.616 0 15.625 7.01 15.625 15.625 0 8.616-7.01 15.625-15.625 15.625z" fill="#fff"/><path d="M19.619 14.525h4.437a1.875 1.875 0 100-3.75H21.87v-.25a1.875 1.875 0 10-3.75 0v.482c-2.33.66-4.05 2.78-4.05 5.318a5.52 5.52 0 001.637 3.938 5.559 5.559 0 003.913 1.612h.762a1.791 1.791 0 011.8 1.8c0 .992-.807 1.8-1.8 1.8h-4.437a1.875 1.875 0 100 3.75h2.175v.25a1.875 1.875 0 103.75 0v-.478c2.335-.655 4.062-2.78 4.062-5.322a5.514 5.514 0 00-1.624-3.926 5.514 5.514 0 00-3.925-1.624h-.764c-.476 0-.932-.191-1.273-.526a1.802 1.802 0 011.274-3.074z" fill="#fff"/></svg>