<svg width="1530" height="652" fill="none" xmlns="http://www.w3.org/2000/svg"><path fill-rule="evenodd" clip-rule="evenodd" d="M12.428 462.116c-.001 1.92 13.043 6.884 8.543 45.384l-.232 19 .232 28.602C18.739 573.5 29.634 600.37 63.739 610.5c21.366 4.317 43 11.5 74 8l48-5.5c30-5.5 52.343-7.5 58-7.5 3.5 0-6.5 27 12.221 29.713 20.258 2.936 40.779 2.243 72.279-8.766 22-5.999 36.824-8.64 56.5-7.947 10.5 0 36.248.246 55 3 22.364 3.284 35 7 60.5 1.5 17-5.544 10.5.682 20.279-9.191 9.221-9.309 28.221-12.809 77.721-6.309 15.566 2.044 38.793 9.423 38.284 10.022-2.784 13.978-3.784 22.896 46.235 22.896 4.508 1.45 26.512-8.343 54.481-15.418 3.989-1.175 21.363 5.098 25.595 5.819 7.481 1.275 20.088 1.287 23.855.024 63.55-12.843 79.05 6.657 110.228-.395 7.322-.38 11.794 4.294 19.697-.38 3.792-3.711 11.865-8.668 15.81-9.707 37.315-16.861 87.576-10.509 87.826-10.506 7.39.084 9.49 9.047 54.5 11.074 11.49-2.027 16 3.909 17.85 3.378 4.01-2.641 49.66-4.786 60.64-5.166 33-1.146 48 13.859 62.27 12.429 2.88 0 14.28-.646 19.28-1.252 14.9-1.806 30.42 32.285 97.45 16.182 5.22-.638 31.17-7.586 39.89-9.859 6.29-1.642 11.45-2.986 12.5-2.987 10.61 2.346 5.92 19.033 37.11 17.694 48.5-2.082 25.5-6.848 46.01-10.348 12.21 0 17.74-4.134 27.24-11.234.22-.165 24.25-9.766 23.75-39.128 0-4.366-.02-4.412-3.01-6.297-6.99-12.841 3.67 8.657 2.58-26.841 0-13.5.96-34.993 0-39.245-.98-4.339-1.94-8.58-1.31-14.036 1.4-8.237-10.26-29.219-11.51-68.212-2.24-17.613 12.51-22.507 17.01-30.507 3.57-6.345 9.16-23 6.5-33.5-3.04-12-12.38-17.065-13.76-38.5-1.49-23.187-2.24-57-2.24-59.5H5l-1.5 5.5c-1 3-2.547 9.26-1.432 18.311 1.074 8.715 25.17 45.689 2.1 116.211-9.97 30.478 5.35 45.334 8.26 48.094zM53.738 579.5c-4.444-6.666 13.5-1 23.5 5-12 4.5-20.5-.5-23.5-5zM1328.24 601c-16 4-48.6 10.7-51 5.5-2.2-4.765-34.35-14.099-49.89-16.575-3.53.115-6.36.348-8.11.575-1-1.468 2.46-1.476 8.11-.575 14.64-.474 41.34 1.089 53.39 13.575 9.35 1.488 18.6.029 27.12-1.315 7.51-1.184 14.44-2.278 20.38-1.185z" fill="#FFDD59"/><path fill-rule="evenodd" clip-rule="evenodd" d="M1227.35 589.925c-5.65-.901-9.11-.893-8.11.575 1.75-.227 4.58-.46 8.11-.575zM53.739 579.5c-4.444-6.666 13.5-1 23.5 5-12 4.5-20.5-.5-23.5-5zM1376.84 80.991c-.35 0-1.74-.42-3.71-1.09 2.64.638 4.15 1.09 3.71 1.09z" fill="#FFDD59"/><path fill-rule="evenodd" clip-rule="evenodd" d="M43.84 45.5c-23.648-.293-31 14.5-36 28.075-4.5 17.925-3 27.425 0 44.925 1.593 9.291 6.394 16.803 10.864 23.798 3.95 6.181 7.643 11.958 8.636 18.202 1.577 9.909-3.175 21.104-7.37 30.987-2.953 6.956-5.63 13.262-5.63 18.013 0 2.292.06 4.587.12 6.911.242 9.338.497 19.153-3.05 31.163-4.43 15-6.41 26.5-6.41 26.5h1508s1.96-28.499-2.66-37.499c-2.89-5.638-3.23-6.78-1.5-11.575.64-1.764 2.5-2.5 3-3s1.5-1.75 2-2.5.54-.735 2.38-3.797c3.8-6.368 9.16-15.323 5.65-23.676-2.45-5.83-1.15-9.189.7-13.985.57-1.48 1.19-3.098 1.77-4.967 1.37-4.404 1.12-8.537.87-12.564-.19-3.222-.38-6.376.26-9.547 1.02-5.027 1.91-9.369 1.23-11.819-1.58-5.693-6.14-8.693-9.44-10.711a.743.743 0 01-.35-.719l.42-3.355c.09-.649 2.42-10.637 2.51-11.285l.28-.527c4.53-8.549 1.8-32.282-.19-35.9-.94-1.699-1.74-3.67-2.55-5.657-2.13-5.218-4.3-10.536-9.01-11.26-2.04-.036-5.43-.346-8.4-.749-1.66-.224-3.3-.352-4.97-.31-10.05.251-47.71.993-60.66-1.597-2.03-.406-4.33-.829-6.81-1.284-15.88-2.912-38.78-7.111-39.34-16.044-.64-10.328-51.54-10.782-93.19-2.764-6.96 1.338-13.23 2.575-18.9 3.691v.001c-28.28 5.574-41.26 8.132-46.26 5.116-2.42-1.46-1.51-6.99-.49-13.14 1.24-7.542-.61-11.956-2.7-16.943a99.188 99.188 0 01-1.31-3.208c-2.5-6.5-7.5-8-16.5-8h-28c-9.5 0-19.5.368-33.5 1.5-14 1.132-29.5 4.5-43.5 9s-16.5 5-50 10.5c-3.24.532-6.36-1.593-9.37-3.64-2.82-1.92-5.55-3.773-8.17-3.3-23.51 4.236-38.919 7.013-45.887.06-8.573-8.554-49.573-23.046-70.788-16.108-11.219 3.67-20.02 3.367-27.863 3.098-6.987-.24-13.213-.454-19.708 2.19-10.231 4.164-29.626 3.36-46.306 2.667-5.797-.24-11.266-.467-15.908-.467-18 0-42.5 0-62 3-5.03.774-9.695 1.518-14.03 2.21-28.695 4.577-42.893 6.842-52.315.07-6.569-4.721-16.063-4.452-24.194-4.221-5.291.15-10.005.284-12.961-.984-6.964-2.988-46.691 8.561-52.333 10.227-.46.136-.904.255-1.371.363-15.104 3.478-26.543 2.307-35.08 1.433-3.112-.319-5.839-.598-8.216-.598-4.439 0-9.243.73-14.112 1.47-5.003.76-10.074 1.53-14.888 1.53l-32.5-.5c-1.815-.183-3.764-.386-5.725-.59-6.681-.698-13.514-1.41-15.775-1.41-4.29 0-7.495.084-11.286.182-5.487.143-12.203.318-25.214.318-3.519 0-6.569.055-9.385.106-14.791.268-23.137.42-59.115-8.17-4.422-.706-12.182 2.277-20.856 5.61-11.277 4.335-24.1 9.263-33.144 7.454-10.592-2.118-24.265-5.26-33.225-7.318h-.001c-4.574-1.05-7.92-1.82-8.999-2.026-.126-.023-.306-.174-.558-.387-.758-.635-2.168-1.82-4.717-1.769-6.213.123-8.966.09-12.417.05-2.014-.024-4.266-.05-7.583-.05-4.705 0-10.503-.41-16.037-.801-5.052-.357-9.884-.699-13.463-.699-3.338 0-10.736-1.585-19.77-3.52-11.266-2.412-25.076-5.37-36.73-6.48-21-2-15.228 53.5-15 55 .229 1.5-9.5 3.656-31.5-4.344S66.405 45.78 43.84 45.5zm1299.68 23.526c2.87-1.158 3.62-1.46 4.34-1.408.26.017.51.079.85.162.38.094.88.215 1.61.332 3.28.523 6.6 1.088 9.33 2.98a181 181 0 013.72 2.682c3.53 2.583 7.15 5.238 9.76 6.128-2.95-.713-6.37-.038-9.9.657-4.01.79-8.16 1.608-11.89.432-1.25-.394-2.46-.52-3.73-.652-2.46-.256-5.14-.536-8.77-2.839-2.74-1.739-4.7-2.87-5.99-3.617-1.42-.818-2.04-1.172-1.99-1.354.04-.139.46-.177 1.2-.245 1.48-.135 4.24-.387 7.78-1.784 1.52-.6 2.72-1.085 3.68-1.474zm29.61 10.876c2.64.637 4.15 1.09 3.71 1.09-.35 0-1.74-.42-3.71-1.09zM184.34 49c-1.721-3.442 9.5-3 24-2 1.219.084 2.305.154 3.281.217 5.778.374 7.725.5 10.719 1.783 1.447.62.929.813-.812 1.461-2.472.92-7.408 2.759-12.688 8.039-9 9-24-8.5-24.5-9.5zm185.5 51c-2.8 1.6-5.167 15.167-4 17.5l9.089-11.252c.897-1.112 1.289-2.598.48-3.775-1.263-1.838-3.562-3.62-5.569-2.473z" fill="#FFDD59"/></svg>