<svg width="42" height="42" fill="none" xmlns="http://www.w3.org/2000/svg"><path d="M21 27.25V18.5m3.75 8.75V18.5m3.75 8.75v-7.5" stroke="#fff" stroke-width="3" stroke-miterlimit="10" stroke-linecap="round" stroke-linejoin="round"/><path d="M29.75 39.75c1.625-4.125 2.5-8.5 2.5-13v-6.375c0-1-.875-1.875-1.875-1.875s-1.875.875-1.875 1.875v-1.25c0-1-.875-1.875-1.875-1.875s-1.875.875-1.875 1.875v-1.25c0-1-.875-1.875-1.875-1.875S21 16.875 21 17.875v1.25c0-1-.875-1.875-1.875-1.875s-1.875.875-1.875 1.875V31.5l-3.125-3.125c-.75-.75-1.875-.875-2.625-.25-1 .75-1.125 2.25-.25 3.125l8.5 8.5" stroke="#fff" stroke-width="2.8" stroke-miterlimit="10" stroke-linecap="round" stroke-linejoin="round"/><path d="M32 31c5 .25 7.75-2.855 7.75-7.855 0-1.5-.375-2.875-1-4.125-1-1.875-1.125-4-.5-5.875.375-1.25.5-2.5.25-3.875a8.773 8.773 0 00-7.125-7.125c-2-.375-4 0-5.625.875-2.25 1-4.75 1.25-7.125.5a9.568 9.568 0 00-4.25-.25c-3.5.625-6.375 3.5-7 7v.125c-.625 3.875-2 7.5-4 11-1 1.75-1.375 3.75-1 5.875.625 3.5 3.375 6.375 6.875 7 1.75 0 .75 0 3.25-.77" stroke="#fff" stroke-width="3" stroke-miterlimit="10" stroke-linecap="round" stroke-linejoin="round"/></svg>