<svg width="375" height="452" fill="none" xmlns="http://www.w3.org/2000/svg"><path d="M0 418.21V24.98c2.826-.83 5.87-1.94 9.283-3.187 5.548-2.026 12.071-4.408 20.217-6.513 21.595-5.579 32.154-5.47 46.095-5.328 2.301.023 4.695.048 7.245.048 4.642 0 10.111.227 15.908.467 16.68.693 36.075 1.497 46.306-2.667 6.495-2.644 12.721-2.43 19.708-2.19 7.843.269 16.644.571 27.863-3.098 21.215-6.938 62.215 7.554 70.788 16.108 6.968 6.953 22.377 4.176 45.888-.06 2.622-.473 5.345 1.38 8.168 3.3 3.01 2.047 6.134 4.171 9.371 3.64 23.457-1.373 32.929 1.261 41.094 3.533 2.362.657 4.615 1.284 7.066 1.774v390.424c-12.775 1.582-26.368 4.614-38.576 10.13-3.945 1.039-12.019 5.996-15.81 9.707-5.056 2.991-8.708 2.155-12.6 1.264-2.192-.501-4.46-1.021-7.097-.884-13.083 2.959-23.405 1.243-35.675-.797-16.971-2.821-37.669-6.262-74.553 1.192-3.767 1.263-16.374 1.251-23.855-.024-1.364-.232-4.095-1.042-7.302-1.993-6.741-1.999-15.59-4.622-18.293-3.826-12.917 3.268-24.562 7.115-33.799 10.167-10.762 3.556-18.256 6.032-20.682 5.251-50.02 0-49.02-8.918-46.235-22.896.51-.599-22.718-7.978-38.284-10.022-.754-.099-1.5-.195-2.239-.29z" fill="#FFDD59"/></svg>