<svg width="40" height="40" fill="none" xmlns="http://www.w3.org/2000/svg"><path d="M38.003 24.78a1.877 1.877 0 00-1.293-.858l-11.822-1.897a1.872 1.872 0 00-1.54.448 9.653 9.653 0 00-2.235 2.88 17.05 17.05 0 01-2.25-1.564L34.22 8.43a1.874 1.874 0 10-2.65-2.65L16.21 21.138a17.057 17.057 0 01-1.563-2.251 9.655 9.655 0 002.88-2.235 1.88 1.88 0 00.448-1.54L16.078 3.29a1.877 1.877 0 00-.857-1.293A8.244 8.244 0 0012.527.91 8.637 8.637 0 0010.28.625C4.956.625.625 4.956.625 10.281c0 7.348 2.744 14.063 7.253 19.19L1.57 35.779a1.874 1.874 0 102.65 2.651l6.309-6.308c5.126 4.51 11.841 7.253 19.19 7.253 5.324 0 9.655-4.331 9.655-9.656 0-.788-.095-1.544-.259-2.14a8.481 8.481 0 00-1.113-2.8zM4.375 10.28a5.912 5.912 0 015.906-5.905c.46 0 .89.052 1.38.18.306.064.591.15.863.26l1.596 9.943a5.681 5.681 0 01-2.483 1.253 1.878 1.878 0 00-1.322 2.564 20.798 20.798 0 003.22 5.24l-2.99 2.99c-3.834-4.442-6.17-10.21-6.17-16.524zm25.344 25.345c-6.313 0-12.082-2.336-16.524-6.17l2.99-2.99a20.798 20.798 0 005.24 3.22 1.878 1.878 0 002.564-1.322 5.682 5.682 0 011.253-2.483l9.941 1.596c.116.287.209.603.287.969.102.384.155.814.155 1.274a5.912 5.912 0 01-5.906 5.906z" fill="#fff"/></svg>