<svg width="40" height="40" fill="none" xmlns="http://www.w3.org/2000/svg"><path d="M15.16 36.06l3.677 2.91a1.871 1.871 0 002.326 0l3.677-2.91a22.871 22.871 0 008.495-14.827l1.708-12.199a1.874 1.874 0 00-1.051-1.953L20.806.807a1.88 1.88 0 00-1.612 0L6.008 7.08a1.874 1.874 0 00-1.05 1.953l1.707 12.199a22.871 22.871 0 008.495 14.826zM8.861 9.875L20 4.576l11.139 5.3-1.517 10.837a19.148 19.148 0 01-7.108 12.407L20 35.108l-2.513-1.988a19.148 19.148 0 01-7.108-12.407L8.86 9.876z" fill="#fff"/><path d="M18.529 21.875c.48 0 .96-.183 1.326-.55l5.971-5.97a1.874 1.874 0 10-2.651-2.651l-4.646 4.644-1.704-1.704a1.874 1.874 0 10-2.651 2.652l3.03 3.03c.366.366.845.549 1.325.549z" fill="#fff"/></svg>