<svg width="147" height="89" viewBox="0 0 147 89" fill="none" xmlns="http://www.w3.org/2000/svg">
<path d="M147 80.0001L132.023 71.3002L131.977 88.6206L147 80.0001ZM1.41121 3.53106C2.23766 3.58823 2.95398 2.96461 3.01115 2.13816C3.06832 1.31171 2.4447 0.595386 1.61825 0.538213L1.41121 3.53106ZM10.7529 1.52964C9.93366 1.40676 9.16991 1.9713 9.04703 2.79056C8.92415 3.60982 9.48869 4.37358 10.3079 4.49646L10.7529 1.52964ZM11.289 4.64835C12.107 4.77901 12.8761 4.22176 13.0068 3.4037C13.1374 2.58564 12.5802 1.81656 11.7621 1.6859L11.289 4.64835ZM20.7161 3.52696C19.9132 3.32304 19.097 3.80863 18.8931 4.61157C18.6891 5.41451 19.1747 6.23073 19.9777 6.43465L20.7161 3.52696ZM20.937 6.68372C21.7377 6.89618 22.559 6.4193 22.7715 5.61858C22.9839 4.81786 22.5071 3.99651 21.7063 3.78405L20.937 6.68372ZM30.474 6.57875C29.6983 6.28792 28.8337 6.68098 28.5429 7.45668C28.252 8.23238 28.6451 9.09698 29.4208 9.3878L30.474 6.57875ZM30.3369 9.73713C31.1093 10.0366 31.9782 9.6533 32.2777 8.88091C32.5772 8.10853 32.1939 7.23958 31.4215 6.94007L30.3369 9.73713ZM39.8106 10.6964C39.0727 10.3198 38.1693 10.6127 37.7926 11.3506C37.416 12.0885 37.7089 12.9919 38.4468 13.3685L39.8106 10.6964ZM39.3242 13.8226C40.0579 14.2074 40.9645 13.9247 41.3494 13.1911C41.7342 12.4574 41.4515 11.5508 40.7179 11.1659L39.3242 13.8226ZM48.6252 15.8215C47.9321 15.3677 47.0024 15.5617 46.5486 16.2548C46.0948 16.9479 46.2888 17.8776 46.9819 18.3314L48.6252 15.8215ZM47.8087 18.8787C48.4972 19.3395 49.4288 19.155 49.8896 18.4665C50.3504 17.778 50.1658 16.8464 49.4773 16.3856L47.8087 18.8787ZM56.8635 21.7998C56.2155 21.2836 55.2718 21.3904 54.7556 22.0384C54.2394 22.6863 54.3462 23.63 54.9942 24.1462L56.8635 21.7998ZM55.7693 24.769C56.413 25.2904 57.3576 25.1913 57.8791 24.5476C58.4005 23.9039 58.3015 22.9594 57.6578 22.4379L55.7693 24.769ZM64.5592 28.4168C63.9494 27.856 63.0005 27.8957 62.4398 28.5055C61.879 29.1153 61.9187 30.0642 62.5285 30.625L64.5592 28.4168ZM63.2608 31.3023C63.8674 31.8665 64.8165 31.8322 65.3808 31.2256C65.945 30.619 65.9106 29.6699 65.3041 29.1057L63.2608 31.3023ZM71.8328 35.4409C71.2483 34.8538 70.2986 34.8516 69.7114 35.4361C69.1243 36.0205 69.1222 36.9703 69.7066 37.5574L71.8328 35.4409ZM70.4121 38.2682C70.9949 38.857 71.9447 38.8618 72.5334 38.279C73.1222 37.6963 73.1271 36.7465 72.5443 36.1577L70.4121 38.2682ZM78.8652 42.6464C78.2894 42.0508 77.3398 42.0347 76.7442 42.6105C76.1486 43.1862 76.1325 44.1359 76.7083 44.7315L78.8652 42.6464ZM77.4075 45.4547C77.9834 46.0501 78.933 46.066 79.5285 45.4901C80.124 44.9142 80.1398 43.9646 79.5639 43.3691L77.4075 45.4547ZM85.8713 49.8114C85.2856 49.2256 84.3358 49.2256 83.75 49.8113C83.1642 50.3971 83.1642 51.3469 83.75 51.9327L85.8713 49.8114ZM84.4657 52.646C85.0536 53.2297 86.0033 53.2264 86.587 52.6385C87.1708 52.0507 87.1674 51.1009 86.5796 50.5172L84.4657 52.646ZM93.0764 56.701C92.4618 56.1456 91.5132 56.1936 90.9578 56.8082C90.4024 57.4228 90.4503 58.3714 91.065 58.9268L93.0764 56.701ZM91.8205 59.6049C92.439 60.156 93.3872 60.1014 93.9384 59.4829C94.4895 58.8644 94.4349 57.9162 93.8164 57.3651L91.8205 59.6049ZM100.689 63.0505C100.03 62.5494 99.0888 62.6779 98.5877 63.3375C98.0865 63.9972 98.215 64.9382 98.8746 65.4393L100.689 63.0505ZM99.6902 66.0523C100.355 66.5466 101.295 66.4084 101.789 65.7436C102.283 65.0788 102.145 64.1392 101.48 63.6449L99.6902 66.0523ZM108.863 68.5676C108.15 68.1466 107.23 68.3837 106.809 69.0972C106.388 69.8107 106.625 70.7304 107.339 71.1514L108.863 68.5676ZM108.225 71.6669C108.944 72.0785 109.861 71.8293 110.272 71.1104C110.684 70.3914 110.435 69.4749 109.716 69.0633L108.225 71.6669ZM117.644 72.9757C116.879 72.6568 116.001 73.0181 115.682 73.7827C115.363 74.5473 115.724 75.4257 116.489 75.7445L117.644 72.9757ZM117.443 76.1342C118.212 76.4421 119.085 76.0681 119.393 75.299C119.7 74.5299 119.326 73.6569 118.557 73.349L117.443 76.1342ZM126.949 76.0943C126.147 75.8876 125.329 76.3703 125.123 77.1725C124.916 77.9748 125.399 78.7927 126.201 78.9994L126.949 76.0943ZM127.199 79.2491C128.004 79.4446 128.815 78.9505 129.01 78.1455C129.206 77.3404 128.712 76.5293 127.907 76.3339L127.199 79.2491ZM136.62 77.8991C135.798 77.8003 135.051 78.387 134.952 79.2095C134.853 80.032 135.44 80.7789 136.262 80.8777L136.62 77.8991ZM137.271 80.9926C138.095 81.0813 138.835 80.4855 138.923 79.6618C139.012 78.8382 138.416 78.0985 137.593 78.0098L137.271 80.9926ZM146.491 78.4988C145.663 78.4944 144.988 79.1624 144.983 79.9908C144.979 80.8192 145.647 81.4943 146.475 81.4987L146.491 78.4988ZM0.902802 3.49697C1.07266 3.508 1.24213 3.51936 1.41121 3.53106L1.61825 0.538213C1.44494 0.526224 1.27126 0.514577 1.0972 0.503275L0.902802 3.49697ZM10.3079 4.49646C10.6365 4.54574 10.9635 4.59638 11.289 4.64835L11.7621 1.6859C11.4273 1.63242 11.0909 1.58033 10.7529 1.52964L10.3079 4.49646ZM19.9777 6.43465C20.2991 6.51628 20.6188 6.59931 20.937 6.68372L21.7063 3.78405C21.3779 3.69691 21.0479 3.61121 20.7161 3.52696L19.9777 6.43465ZM29.4208 9.3878C29.7278 9.50289 30.0331 9.61934 30.3369 9.73713L31.4215 6.94007C31.1073 6.81822 30.7915 6.69778 30.474 6.57875L29.4208 9.3878ZM38.4468 13.3685C38.7408 13.5186 39.0333 13.6699 39.3242 13.8226L40.7179 11.1659C40.417 11.0081 40.1146 10.8516 39.8106 10.6964L38.4468 13.3685ZM46.9819 18.3314C47.2588 18.5127 47.5344 18.6952 47.8087 18.8787L49.4773 16.3856C49.1947 16.1965 48.9107 16.0084 48.6252 15.8215L46.9819 18.3314ZM54.9942 24.1462C55.2536 24.3529 55.512 24.5605 55.7693 24.769L57.6578 22.4379C57.3942 22.2244 57.1294 22.0116 56.8635 21.7998L54.9942 24.1462ZM62.5285 30.625C62.7734 30.8502 63.0175 31.076 63.2608 31.3023L65.3041 29.1057C65.0566 28.8755 64.8084 28.6459 64.5592 28.4168L62.5285 30.625ZM69.7066 37.5574C69.9422 37.7941 70.1774 38.031 70.4121 38.2682L72.5443 36.1577C72.3076 35.9187 72.0705 35.6797 71.8328 35.4409L69.7066 37.5574ZM76.7083 44.7315C76.9414 44.9726 77.1744 45.2137 77.4075 45.4547L79.5639 43.3691C79.3312 43.1284 79.0983 42.8875 78.8652 42.6464L76.7083 44.7315ZM83.75 51.9327C83.9882 52.1709 84.2268 52.4087 84.4657 52.646L86.5796 50.5172C86.3433 50.2825 86.1072 50.0472 85.8713 49.8114L83.75 51.9327ZM91.065 58.9268C91.3161 59.1537 91.5679 59.3797 91.8205 59.6049L93.8164 57.3651C93.5691 57.1447 93.3224 56.9233 93.0764 56.701L91.065 58.9268ZM98.8746 65.4393C99.1453 65.645 99.4172 65.8493 99.6902 66.0523L101.48 63.6449C101.216 63.4481 100.952 63.25 100.689 63.0505L98.8746 65.4393ZM107.339 71.1514C107.633 71.3249 107.928 71.4967 108.225 71.6669L109.716 69.0633C109.43 68.8998 109.146 68.7345 108.863 68.5676L107.339 71.1514ZM116.489 75.7445C116.805 75.8764 117.123 76.0063 117.443 76.1342L118.557 73.349C118.251 73.2265 117.947 73.102 117.644 72.9757L116.489 75.7445ZM126.201 78.9994C126.532 79.0847 126.864 79.1679 127.199 79.2491L127.907 76.3339C127.586 76.2559 127.267 76.1761 126.949 76.0943L126.201 78.9994ZM136.262 80.8777C136.597 80.9178 136.933 80.9561 137.271 80.9926L137.593 78.0098C137.267 77.9747 136.942 77.9378 136.62 77.8991L136.262 80.8777Z" fill="#DEDAEC"/>
</svg>
