<svg width="80" height="213" viewBox="0 0 80 213" fill="none" xmlns="http://www.w3.org/2000/svg">
<path d="M2.54038 0.600805C1.76762 0.30224 0.899143 0.686649 0.600577 1.4594C0.302018 2.23216 0.686424 3.10063 1.45918 3.3992L2.54038 0.600805ZM1.99984 210L19.1082 212.703L12.8944 196.535L1.99984 210ZM3.02681 211.212C3.79964 210.914 4.18427 210.046 3.88591 209.273C3.58754 208.5 2.71916 208.115 1.94633 208.414L3.02681 211.212ZM10.3412 204.906C9.58615 205.247 9.2503 206.135 9.59109 206.89C9.93189 207.645 10.8203 207.981 11.5753 207.64L10.3412 204.906ZM12.4916 207.223C13.2445 206.878 13.5748 205.987 13.2292 205.234C12.8837 204.481 11.9932 204.151 11.2403 204.497L12.4916 207.223ZM19.3888 200.456C18.6583 200.847 18.3831 201.756 18.7739 202.486C19.1647 203.216 20.0737 203.492 20.8041 203.101L19.3888 200.456ZM21.6941 202.621C22.4218 202.225 22.6908 201.314 22.2949 200.586C21.899 199.859 20.9881 199.59 20.2604 199.986L21.6941 202.621ZM28.0842 195.389C27.3845 195.832 27.177 196.759 27.6206 197.459C28.0642 198.158 28.991 198.366 29.6906 197.922L28.0842 195.389ZM30.5448 197.376C31.241 196.927 31.4415 195.999 30.9926 195.303C30.5437 194.606 29.6153 194.406 28.9191 194.855L30.5448 197.376ZM36.3505 189.676C35.6887 190.175 35.5562 191.115 36.0546 191.777C36.5529 192.439 37.4934 192.571 38.1552 192.073L36.3505 189.676ZM38.9632 191.459C39.6208 190.955 39.7455 190.014 39.2417 189.356C38.7378 188.698 37.7963 188.574 37.1387 189.078L38.9632 191.459ZM44.0983 183.302C43.4823 183.856 43.4321 184.805 43.9861 185.421C44.54 186.037 45.4885 186.087 46.1044 185.533L44.0983 183.302ZM46.8566 184.85C47.4676 184.291 47.5093 183.342 46.9499 182.731C46.3904 182.12 45.4416 182.078 44.8306 182.638L46.8566 184.85ZM51.2331 176.264C50.6714 176.873 50.7096 177.822 51.3186 178.384C51.9275 178.945 52.8765 178.907 53.4382 178.298L51.2331 176.264ZM54.1434 177.526C54.6991 176.912 54.6516 175.963 54.0372 175.407C53.4228 174.852 52.4742 174.899 51.9185 175.514L54.1434 177.526ZM57.6712 168.558C57.1724 169.22 57.3043 170.16 57.9657 170.659C58.6272 171.158 59.5677 171.026 60.0665 170.364L57.6712 168.558ZM60.6884 169.531C61.1804 168.864 61.0389 167.925 60.3724 167.433C59.7059 166.941 58.7668 167.083 58.2748 167.749L60.6884 169.531ZM63.2894 160.255C62.8613 160.964 63.0892 161.886 63.7985 162.314C64.5077 162.742 65.4297 162.514 65.8578 161.805L63.2894 160.255ZM66.3879 160.916C66.8085 160.203 66.571 159.283 65.8572 158.863C65.1436 158.442 64.224 158.68 63.8034 159.393L66.3879 160.916ZM68.0051 151.422C67.6541 152.173 67.978 153.066 68.7284 153.417C69.4788 153.768 70.3716 153.444 70.7226 152.693L68.0051 151.422ZM71.1545 151.757C71.4974 151.003 71.1642 150.114 70.4101 149.771C69.656 149.428 68.7666 149.761 68.4236 150.515L71.1545 151.757ZM71.7561 142.146C71.4868 142.929 71.9036 143.783 72.6871 144.052C73.4705 144.321 74.3239 143.905 74.5932 143.121L71.7561 142.146ZM74.9225 142.146C75.1834 141.36 74.7576 140.511 73.9713 140.25C73.1851 139.989 72.3362 140.415 72.0752 141.201L74.9225 142.146ZM74.5042 132.517C74.3192 133.325 74.8238 134.129 75.6313 134.314C76.4388 134.499 77.2434 133.995 77.4284 133.187L74.5042 132.517ZM77.6544 132.177C77.8309 131.367 77.3179 130.568 76.5085 130.392C75.6991 130.215 74.8998 130.728 74.7233 131.538L77.6544 132.177ZM76.2301 122.647C76.1297 123.47 76.715 124.218 77.5374 124.318C78.3597 124.418 79.1077 123.833 79.208 123.011L76.2301 122.647ZM79.3279 121.984C79.4198 121.161 78.8269 120.419 78.0035 120.327C77.1802 120.235 76.4383 120.828 76.3464 121.652L79.3279 121.984ZM76.9376 112.651C76.9207 113.479 77.5784 114.164 78.4066 114.181C79.2349 114.198 79.92 113.54 79.937 112.712L76.9376 112.651ZM79.953 111.679C79.9617 110.851 79.2972 110.172 78.4688 110.164C77.6405 110.155 76.9619 110.819 76.9531 111.648L79.953 111.679ZM76.6499 102.626C76.7139 103.452 77.4353 104.07 78.2612 104.006C79.0872 103.942 79.7049 103.22 79.641 102.395L76.6499 102.626ZM79.5565 101.366C79.4846 100.541 78.7573 99.9303 77.932 100.002C77.1067 100.074 76.4959 100.801 76.5678 101.627L79.5565 101.366ZM75.4022 92.6723C75.5437 93.4886 76.3201 94.0356 77.1364 93.8942C77.9526 93.7527 78.4996 92.9763 78.3582 92.16L75.4022 92.6723ZM78.1774 91.145C78.0284 90.33 77.247 89.7902 76.4321 89.9392C75.6172 90.0882 75.0773 90.8697 75.2264 91.6846L78.1774 91.145ZM73.2365 82.8716C73.4518 83.6715 74.2748 84.1455 75.0748 83.9302C75.8747 83.715 76.3487 82.892 76.1335 82.092L73.2365 82.8716ZM75.8609 81.0969C75.6384 80.2989 74.8112 79.8323 74.0132 80.0548C73.2152 80.2772 72.7486 81.1045 72.9711 81.9025L75.8609 81.0969ZM70.1974 73.2984C70.4826 74.0762 71.3444 74.4754 72.1221 74.1902C72.8999 73.9049 73.2992 73.0432 73.0139 72.2654L70.1974 73.2984ZM72.6541 71.2974C72.362 70.5221 71.4968 70.1305 70.7216 70.4225C69.9463 70.7145 69.5546 71.5798 69.8467 72.355L72.6541 71.2974ZM66.331 64.0235C66.6824 64.7737 67.5754 65.097 68.3256 64.7455C69.0758 64.3941 69.3991 63.5011 69.0477 62.7509L66.331 64.0235ZM68.6073 61.8213C68.2495 61.0741 67.3538 60.7585 66.6066 61.1163C65.8594 61.4741 65.5438 62.3699 65.9016 63.117L68.6073 61.8213ZM61.6864 55.1169C62.1002 55.8346 63.0175 56.0809 63.7351 55.667C64.4528 55.2532 64.6991 54.3359 64.2853 53.6183L61.6864 55.1169ZM63.7671 52.7284C63.3473 52.0143 62.4279 51.7757 61.7138 52.1956C60.9997 52.6154 60.7611 53.5347 61.181 54.2489L63.7671 52.7284ZM56.3048 46.6305C56.7775 47.3109 57.7121 47.4793 58.3925 47.0067C59.0729 46.5341 59.2414 45.5994 58.7687 44.919L56.3048 46.6305ZM58.177 44.0748C57.6987 43.3983 56.7627 43.2377 56.0863 43.716C55.4099 44.1943 55.2493 45.1304 55.7275 45.8068L58.177 44.0748ZM50.23 38.6218C50.7578 39.2603 51.7033 39.3501 52.3419 38.8223C52.9804 38.2945 53.0702 37.349 52.5424 36.7105L50.23 38.6218ZM51.8814 35.9175C51.3482 35.2834 50.402 35.2015 49.7679 35.7346C49.1338 36.2678 49.052 37.214 49.5851 37.8481L51.8814 35.9175ZM43.506 31.1461C44.0853 31.7383 45.035 31.7489 45.6272 31.1696C46.2194 30.5903 46.2299 29.6406 45.6506 29.0484L43.506 31.1461ZM44.9289 28.3166C44.3447 27.7292 43.3949 27.7267 42.8076 28.3109C42.2202 28.8951 42.2176 29.8448 42.8018 30.4322L44.9289 28.3166ZM36.1872 24.2652C36.814 24.8069 37.7613 24.7378 38.3029 24.111C38.8445 23.4841 38.7755 22.5369 38.1486 21.9953L36.1872 24.2652ZM37.3674 21.326C36.7361 20.7896 35.7895 20.8666 35.2531 21.498C34.7168 22.1293 34.7938 23.076 35.4251 23.6123L37.3674 21.326ZM28.316 18.023C28.9862 18.5099 29.9243 18.3613 30.4112 17.691C30.8981 17.0208 30.7495 16.0828 30.0793 15.5958L28.316 18.023ZM29.2432 14.9938C28.5688 14.5126 27.6321 14.6691 27.1508 15.3435C26.6696 16.0178 26.8262 16.9545 27.5005 17.4358L29.2432 14.9938ZM19.9443 12.4673C20.6534 12.8956 21.5755 12.6681 22.0038 11.959C22.4322 11.2499 22.2046 10.3278 21.4955 9.89945L19.9443 12.4673ZM20.6097 9.36944C19.897 8.94713 18.9769 9.18254 18.5546 9.89525C18.1323 10.608 18.3677 11.5281 19.0804 11.9504L20.6097 9.36944ZM11.1288 7.64156C11.8717 8.00802 12.7711 7.70281 13.1376 6.95985C13.504 6.21688 13.1988 5.31751 12.4559 4.95105L11.1288 7.64156ZM11.5259 4.49726C10.7798 4.13717 9.88306 4.45007 9.52297 5.19615C9.16288 5.94222 9.47578 6.83894 10.2219 7.19903L11.5259 4.49726ZM1.93072 3.58255C2.70219 3.88442 3.57231 3.50373 3.87418 2.73226C4.17605 1.96079 3.79536 1.09068 3.02389 0.788805L1.93072 3.58255ZM11.5753 207.64C11.8819 207.502 12.1873 207.363 12.4916 207.223L11.2403 204.497C10.9417 204.634 10.642 204.77 10.3412 204.906L11.5753 207.64ZM20.8041 203.101C21.102 202.942 21.3987 202.781 21.6941 202.621L20.2604 199.986C19.9711 200.143 19.6805 200.3 19.3888 200.456L20.8041 203.101ZM29.6906 197.922C29.9766 197.741 30.2614 197.559 30.5448 197.376L28.9191 194.855C28.6421 195.033 28.3638 195.211 28.0842 195.389L29.6906 197.922ZM38.1552 192.073C38.4259 191.869 38.6953 191.664 38.9632 191.459L37.1387 189.078C36.8774 189.278 36.6146 189.477 36.3505 189.676L38.1552 192.073ZM46.1044 185.533C46.3566 185.306 46.6073 185.079 46.8566 184.85L44.8306 182.638C44.588 182.86 44.3439 183.081 44.0983 183.302L46.1044 185.533ZM53.4382 178.298C53.6749 178.041 53.91 177.784 54.1434 177.526L51.9185 175.514C51.6917 175.764 51.4632 176.015 51.2331 176.264L53.4382 178.298ZM60.0665 170.364C60.2755 170.087 60.4828 169.809 60.6884 169.531L58.2748 167.749C58.0753 168.019 57.8741 168.289 57.6712 168.558L60.0665 170.364ZM65.8578 161.805C66.0363 161.51 66.213 161.213 66.3879 160.916L63.8034 159.393C63.6338 159.681 63.4624 159.968 63.2894 160.255L65.8578 161.805ZM70.7226 152.693C70.8683 152.382 71.0123 152.07 71.1545 151.757L68.4236 150.515C68.2859 150.818 68.1463 151.12 68.0051 151.422L70.7226 152.693ZM74.5932 143.121C74.7047 142.796 74.8145 142.471 74.9225 142.146L72.0752 141.201C71.9706 141.516 71.8642 141.831 71.7561 142.146L74.5932 143.121ZM77.4284 133.187C77.5056 132.851 77.5809 132.514 77.6544 132.177L74.7233 131.538C74.652 131.864 74.579 132.191 74.5042 132.517L77.4284 133.187ZM79.208 123.011C79.2497 122.669 79.2897 122.327 79.3279 121.984L76.3464 121.652C76.3093 121.984 76.2705 122.316 76.2301 122.647L79.208 123.011ZM79.937 112.712C79.944 112.368 79.9493 112.024 79.953 111.679L76.9531 111.648C76.9496 111.982 76.9444 112.316 76.9376 112.651L79.937 112.712ZM79.641 102.395C79.6145 102.052 79.5863 101.709 79.5565 101.366L76.5678 101.627C76.5968 101.96 76.6241 102.293 76.6499 102.626L79.641 102.395ZM78.3582 92.16C78.2995 91.8215 78.2393 91.4831 78.1774 91.145L75.2264 91.6846C75.2865 92.0136 75.3452 92.3429 75.4022 92.6723L78.3582 92.16ZM76.1335 82.092C76.0441 81.76 75.9533 81.4283 75.8609 81.0969L72.9711 81.9025C73.061 82.2252 73.1495 82.5482 73.2365 82.8716L76.1335 82.092ZM73.0139 72.2654C72.8954 71.9423 72.7755 71.6196 72.6541 71.2974L69.8467 72.355C69.965 72.6691 70.0819 72.9835 70.1974 73.2984L73.0139 72.2654ZM69.0477 62.7509C68.9023 62.4405 68.7555 62.1306 68.6073 61.8213L65.9016 63.117C66.0461 63.4187 66.1892 63.7208 66.331 64.0235L69.0477 62.7509ZM64.2853 53.6183C64.1139 53.321 63.9411 53.0244 63.7671 52.7284L61.181 54.2489C61.3507 54.5376 61.5192 54.827 61.6864 55.1169L64.2853 53.6183ZM58.7687 44.919C58.5727 44.6369 58.3755 44.3554 58.177 44.0748L55.7275 45.8068C55.9212 46.0807 56.1136 46.3552 56.3048 46.6305L58.7687 44.919ZM52.5424 36.7105C52.3232 36.4453 52.1029 36.181 51.8814 35.9175L49.5851 37.8481C49.8012 38.1052 50.0162 38.3631 50.23 38.6218L52.5424 36.7105ZM45.6506 29.0484C45.4112 28.8036 45.1706 28.5596 44.9289 28.3166L42.8018 30.4322C43.0376 30.6693 43.2723 30.9073 43.506 31.1461L45.6506 29.0484ZM38.1486 21.9953C37.8893 21.7712 37.6289 21.5481 37.3674 21.326L35.4251 23.6123C35.6802 23.829 35.9342 24.0466 36.1872 24.2652L38.1486 21.9953ZM30.0793 15.5958C29.8015 15.3941 29.5229 15.1934 29.2432 14.9938L27.5005 17.4358C27.7733 17.6304 28.0451 17.8262 28.316 18.023L30.0793 15.5958ZM21.4955 9.89945C21.2012 9.72163 20.9059 9.54495 20.6097 9.36944L19.0804 11.9504C19.3693 12.1215 19.6572 12.2938 19.9443 12.4673L21.4955 9.89945ZM12.4559 4.95105C12.1467 4.79857 11.8367 4.64731 11.5259 4.49726L10.2219 7.19903C10.525 7.34535 10.8273 7.49286 11.1288 7.64156L12.4559 4.95105ZM3.02389 0.788805C2.86292 0.72582 2.70175 0.663152 2.54038 0.600805L1.45918 3.3992C1.61656 3.46001 1.77374 3.52112 1.93072 3.58255L3.02389 0.788805Z" fill="#DEDAEC"/>
</svg>
