<svg width="82" height="185" viewBox="0 0 82 185" fill="none" xmlns="http://www.w3.org/2000/svg">
<path d="M1.84439 0.540071C1.0381 0.349868 0.230274 0.84931 0.0400709 1.65561C-0.150132 2.4619 0.34931 3.26973 1.15561 3.45993L1.84439 0.540071ZM0 180L16.8323 184.083L11.9524 167.464L0 180ZM0.909788 181.296C1.70431 181.062 2.15824 180.227 1.92366 179.433C1.68909 178.638 0.854839 178.184 0.0603164 178.419L0.909788 181.296ZM8.44699 175.697C7.66638 175.974 7.25844 176.832 7.53582 177.612C7.81321 178.393 8.67088 178.801 9.45149 178.524L8.44699 175.697ZM10.3696 178.194C11.1485 177.912 11.5511 177.052 11.2689 176.273C10.9867 175.494 10.1265 175.091 9.34764 175.374L10.3696 178.194ZM17.5449 172.127C16.7843 172.455 16.4338 173.338 16.762 174.099C17.0903 174.859 17.9729 175.21 18.7336 174.882L17.5449 172.127ZM19.6311 174.491C20.3895 174.157 20.734 173.272 20.4005 172.514C20.0671 171.756 19.1821 171.411 18.4237 171.744L19.6311 174.491ZM26.3578 167.946C25.6229 168.328 25.3372 169.234 25.7196 169.969C26.1021 170.704 27.0078 170.989 27.7427 170.607L26.3578 167.946ZM28.6108 170.151C29.3428 169.763 29.6217 168.855 29.2338 168.123C28.8459 167.391 27.938 167.112 27.206 167.5L28.6108 170.151ZM34.8129 163.117C34.1107 163.556 33.8977 164.482 34.3372 165.184C34.7768 165.886 35.7023 166.099 36.4046 165.66L34.8129 163.117ZM37.2333 165.136C37.9319 164.691 38.1373 163.764 37.692 163.065C37.2468 162.366 36.3195 162.161 35.6209 162.606L37.2333 165.136ZM42.8224 157.613C42.1609 158.112 42.029 159.053 42.5277 159.714C43.0265 160.376 43.967 160.507 44.6285 160.009L42.8224 157.613ZM45.4345 159.395C46.0914 158.89 46.2146 157.949 45.7098 157.292C45.2049 156.635 44.2632 156.512 43.6064 157.016L45.4345 159.395ZM50.3162 151.393C49.7049 151.952 49.6625 152.901 50.2216 153.513C50.7807 154.124 51.7295 154.166 52.3408 153.607L50.3162 151.393ZM53.0844 152.92C53.6902 152.355 53.723 151.406 53.1579 150.8C52.5927 150.194 51.6435 150.162 51.0378 150.727L53.0844 152.92ZM57.1509 144.478C56.5998 145.096 56.6545 146.045 57.273 146.596C57.8916 147.147 58.8397 147.092 59.3908 146.474L57.1509 144.478ZM60.0558 145.719C60.6003 145.095 60.5355 144.147 59.9112 143.603C59.2868 143.058 58.3393 143.123 57.7948 143.747L60.0558 145.719ZM63.2028 136.899C62.7223 137.574 62.8798 138.511 63.5546 138.991C64.2294 139.472 65.166 139.314 65.6465 138.639L63.2028 136.899ZM66.2216 137.822C66.6946 137.142 66.5266 136.207 65.8464 135.734C65.1663 135.261 64.2315 135.429 63.7585 136.109L66.2216 137.822ZM68.3575 128.711C67.9574 129.436 68.2211 130.349 68.9466 130.749C69.672 131.149 70.5844 130.885 70.9844 130.16L68.3575 128.711ZM71.4613 129.283C71.8528 128.553 71.5784 127.644 70.8484 127.252C70.1183 126.861 69.2091 127.135 68.8175 127.865L71.4613 129.283ZM72.523 119.966C72.2123 120.734 72.5831 121.608 73.3511 121.919C74.119 122.229 74.9934 121.859 75.3041 121.091L72.523 119.966ZM75.6765 120.154C75.9778 119.382 75.5964 118.512 74.8247 118.211C74.053 117.909 73.1832 118.291 72.8819 119.063L75.6765 120.154ZM75.598 110.787C75.3836 111.587 75.8585 112.409 76.6587 112.624C77.4589 112.838 78.2814 112.363 78.4958 111.563L75.598 110.787ZM78.7495 110.592C78.954 109.789 78.469 108.973 77.6662 108.768C76.8634 108.564 76.0468 109.049 75.8423 109.852L78.7495 110.592ZM77.5173 101.31C77.4035 102.131 77.9765 102.888 78.7971 103.002C79.6176 103.116 80.3751 102.543 80.4889 101.723L77.5173 101.31ZM80.621 100.724C80.7246 99.9025 80.1423 99.1523 79.3203 99.0487C78.4984 98.9451 77.7481 99.5274 77.6446 100.349L80.621 100.724ZM78.2495 91.6594C78.2382 92.4878 78.9005 93.1685 79.7288 93.1799C80.5572 93.1913 81.2379 92.529 81.2493 91.7006L78.2495 91.6594ZM81.2569 90.6951C81.258 89.8667 80.5874 89.1942 79.7589 89.1931C78.9305 89.1919 78.258 89.8626 78.2569 90.691L81.2569 90.6951ZM77.7867 81.9932C77.877 82.8167 78.6177 83.4111 79.4412 83.3209C80.2647 83.2306 80.8591 82.4899 80.7689 81.6664L77.7867 81.9932ZM80.6532 80.6674C80.5529 79.8451 79.805 79.2598 78.9827 79.3601C78.1603 79.4604 77.575 80.2083 77.6753 81.0306L80.6532 80.6674ZM76.1506 72.452C76.3395 73.2586 77.1466 73.7593 77.9532 73.5703C78.7597 73.3813 79.2604 72.5743 79.0715 71.7677L76.1506 72.452ZM78.8368 70.7921C78.6382 69.9878 77.8252 69.4968 77.0209 69.6954C76.2166 69.894 75.7256 70.707 75.9242 71.5113L78.8368 70.7921ZM73.3858 63.1729C73.6687 63.9515 74.5293 64.3533 75.3079 64.0703C76.0865 63.7874 76.4883 62.9268 76.2053 62.1482L73.3858 63.1729ZM75.8563 61.2052C75.5643 60.43 74.6991 60.0383 73.9238 60.3304C73.1486 60.6224 72.7569 61.4876 73.049 62.2629L75.8563 61.2052ZM69.5502 54.2683C69.9212 55.009 70.8224 55.3087 71.5631 54.9377C72.3038 54.5667 72.6035 53.6655 72.2325 52.9248L69.5502 54.2683ZM71.778 52.0301C71.3986 51.2937 70.494 51.0043 69.7576 51.3837C69.0212 51.7631 68.7318 52.6677 69.1112 53.4042L71.778 52.0301ZM64.7293 45.8658C65.1811 46.5601 66.1103 46.7567 66.8046 46.3049C67.499 45.853 67.6956 44.9239 67.2437 44.2295L64.7293 45.8658ZM66.6929 43.3932C66.2334 42.7039 65.3021 42.5176 64.6128 42.9771C63.9235 43.4366 63.7372 44.3679 64.1967 45.0572L66.6929 43.3932ZM59.0021 38.0409C59.5269 38.6818 60.472 38.7759 61.1129 38.251C61.7539 37.7261 61.8479 36.7811 61.3231 36.1401L59.0021 38.0409ZM60.6815 35.3652C60.1497 34.73 59.2037 34.6461 58.5684 35.1779C57.9332 35.7096 57.8493 36.6557 58.3811 37.2909L60.6815 35.3652ZM52.4551 30.8626C53.0448 31.4445 53.9945 31.4382 54.5764 30.8485C55.1583 30.2588 55.152 29.3091 54.5623 28.7272L52.4551 30.8626ZM53.8434 28.0252C53.2477 27.4494 52.2981 27.4656 51.7223 28.0613C51.1466 28.657 51.1628 29.6066 51.7585 30.1823L53.8434 28.0252ZM45.2073 24.409C45.853 24.9279 46.7972 24.8251 47.3161 24.1793C47.8351 23.5336 47.7323 22.5894 47.0865 22.0705L45.2073 24.409ZM46.3072 21.4505C45.6563 20.938 44.7132 21.0502 44.2007 21.701C43.6882 22.3519 43.8004 23.295 44.4512 23.8075L46.3072 21.4505ZM37.3507 18.7073C38.044 19.1609 38.9736 18.9666 39.4272 18.2733C39.8807 17.5801 39.6864 16.6504 38.9931 16.1969L37.3507 18.7073ZM38.1534 15.6532C37.4559 15.2063 36.5281 15.4094 36.0812 16.1069C35.6343 16.8045 35.8374 17.7322 36.535 18.1792L38.1534 15.6532ZM28.9732 13.7721C29.7057 14.1592 30.6132 13.8793 31.0003 13.1468C31.3874 12.4144 31.1074 11.5068 30.375 11.1198L28.9732 13.7721ZM29.4843 10.6542C28.7483 10.2738 27.8434 10.562 27.463 11.298C27.0826 12.0339 27.3708 12.9389 28.1067 13.3193L29.4843 10.6542ZM20.1697 9.6113C20.9334 9.93213 21.8127 9.57305 22.1335 8.80927C22.4544 8.0455 22.0953 7.16624 21.3315 6.84541L20.1697 9.6113ZM20.3991 6.45849C19.6326 6.14428 18.7565 6.51096 18.4423 7.27749C18.128 8.04402 18.4947 8.92013 19.2613 9.23434L20.3991 6.45849ZM11.0302 6.21842C11.8181 6.47436 12.6643 6.04313 12.9202 5.25523C13.1762 4.46733 12.7449 3.62113 11.957 3.36519L11.0302 6.21842ZM10.992 3.05606C10.202 2.80658 9.35937 3.24473 9.10989 4.0347C8.86041 4.82467 9.29856 5.66731 10.0885 5.91679L10.992 3.05606ZM1.63817 3.57475C2.44373 3.76806 3.25347 3.27174 3.44678 2.46618C3.6401 1.66062 3.14377 0.850881 2.33822 0.657568L1.63817 3.57475ZM9.45149 178.524C9.75855 178.414 10.0646 178.305 10.3696 178.194L9.34764 175.374C9.04846 175.482 8.74825 175.59 8.44699 175.697L9.45149 178.524ZM18.7336 174.882C19.0339 174.752 19.333 174.622 19.6311 174.491L18.4237 171.744C18.1319 171.873 17.839 172 17.5449 172.127L18.7336 174.882ZM27.7427 170.607C28.0333 170.456 28.3226 170.304 28.6108 170.151L27.206 167.5C26.9245 167.649 26.6418 167.798 26.3578 167.946L27.7427 170.607ZM36.4046 165.66C36.6821 165.486 36.9584 165.311 37.2333 165.136L35.6209 162.606C35.3529 162.777 35.0836 162.947 34.8129 163.117L36.4046 165.66ZM44.6285 160.009C44.8987 159.805 45.1674 159.6 45.4345 159.395L43.6064 157.016C43.3466 157.216 43.0852 157.415 42.8224 157.613L44.6285 160.009ZM52.3408 153.607C52.5904 153.379 52.8382 153.15 53.0844 152.92L51.0378 150.727C50.7989 150.95 50.5584 151.172 50.3162 151.393L52.3408 153.607ZM59.3908 146.474C59.6142 146.223 59.8359 145.971 60.0558 145.719L57.7948 143.747C57.5819 143.992 57.3673 144.235 57.1509 144.478L59.3908 146.474ZM65.6465 138.639C65.8401 138.368 66.0318 138.095 66.2216 137.822L63.7585 136.109C63.5751 136.373 63.3898 136.636 63.2028 136.899L65.6465 138.639ZM70.9844 130.16C71.1453 129.868 71.3043 129.576 71.4613 129.283L68.8175 127.865C68.666 128.148 68.5127 128.43 68.3575 128.711L70.9844 130.16ZM75.3041 121.091C75.4303 120.779 75.5544 120.466 75.6765 120.154L72.8819 119.063C72.7642 119.364 72.6446 119.665 72.523 119.966L75.3041 121.091ZM78.4958 111.563C78.5824 111.24 78.667 110.916 78.7495 110.592L75.8423 109.852C75.7629 110.164 75.6814 110.475 75.598 110.787L78.4958 111.563ZM80.4889 101.723C80.535 101.39 80.5791 101.057 80.621 100.724L77.6446 100.349C77.6042 100.67 77.5618 100.99 77.5173 101.31L80.4889 101.723ZM81.2493 91.7006C81.2539 91.3654 81.2564 91.0303 81.2569 90.6951L78.2569 90.691C78.2564 91.0138 78.254 91.3366 78.2495 91.6594L81.2493 91.7006ZM80.7689 81.6664C80.7323 81.3332 80.6938 81.0002 80.6532 80.6674L77.6753 81.0306C77.7144 81.3513 77.7515 81.6722 77.7867 81.9932L80.7689 81.6664ZM79.0715 71.7677C78.9952 71.4422 78.917 71.117 78.8368 70.7921L75.9242 71.5113C76.0016 71.8245 76.077 72.1381 76.1506 72.452L79.0715 71.7677ZM76.2053 62.1482C76.0909 61.8334 75.9746 61.519 75.8563 61.2052L73.049 62.2629C73.1631 62.5657 73.2753 62.8691 73.3858 63.1729L76.2053 62.1482ZM72.2325 52.9248C72.0828 52.6259 71.9313 52.3277 71.778 52.0301L69.1112 53.4042C69.2593 53.6916 69.4056 53.9797 69.5502 54.2683L72.2325 52.9248ZM67.2437 44.2295C67.0618 43.95 66.8782 43.6712 66.6929 43.3932L64.1967 45.0572C64.3759 45.326 64.5534 45.5955 64.7293 45.8658L67.2437 44.2295ZM61.3231 36.1401C61.1108 35.881 60.897 35.6227 60.6815 35.3652L58.3811 37.2909C58.5897 37.5401 58.7966 37.7901 59.0021 38.0409L61.3231 36.1401ZM54.5623 28.7272C54.3242 28.4923 54.0845 28.2582 53.8434 28.0252L51.7585 30.1823C51.9922 30.4082 52.2244 30.6349 52.4551 30.8626L54.5623 28.7272ZM47.0865 22.0705C46.8281 21.8628 46.5684 21.6562 46.3072 21.4505L44.4512 23.8075C44.7046 24.007 44.9566 24.2075 45.2073 24.409L47.0865 22.0705ZM38.9931 16.1969C38.7145 16.0146 38.4346 15.8334 38.1534 15.6532L36.535 18.1792C36.8082 18.3542 37.0801 18.5303 37.3507 18.7073L38.9931 16.1969ZM30.375 11.1198C30.0793 10.9635 29.7824 10.8083 29.4843 10.6542L28.1067 13.3193C28.3968 13.4692 28.6856 13.6201 28.9732 13.7721L30.375 11.1198ZM21.3315 6.84541C21.0218 6.71532 20.711 6.58635 20.3991 6.45849L19.2613 9.23434C19.5652 9.35891 19.868 9.48456 20.1697 9.6113L21.3315 6.84541ZM11.957 3.36519C11.6364 3.26102 11.3147 3.15798 10.992 3.05606L10.0885 5.91679C10.4034 6.01624 10.7173 6.11679 11.0302 6.21842L11.957 3.36519ZM2.33822 0.657568C2.17384 0.618122 2.00923 0.578956 1.84439 0.540071L1.15561 3.45993C1.3167 3.49793 1.47755 3.5362 1.63817 3.57475L2.33822 0.657568Z" fill="#DEDAEC"/>
</svg>
