<svg width="148" height="50" viewBox="0 0 148 50" fill="none" xmlns="http://www.w3.org/2000/svg">
<path d="M148 13L136.162 0.356385L131.131 16.9302L148 13ZM1.22044 47.5668C2.03523 47.7165 2.81709 47.1773 2.96678 46.3625C3.11647 45.5477 2.57729 44.7659 1.7625 44.6162L1.22044 47.5668ZM10.3332 45.821C9.50856 45.7419 8.77593 46.3463 8.69684 47.171C8.61774 47.9956 9.22213 48.7282 10.0468 48.8073L10.3332 45.821ZM11.0285 48.8964C11.8539 48.9671 12.5803 48.3552 12.6509 47.5298C12.7216 46.7044 12.1097 45.978 11.2843 45.9074L11.0285 48.8964ZM19.8653 46.2269C19.0369 46.2374 18.3739 46.9174 18.3844 47.7458C18.3949 48.5742 19.0749 49.2372 19.9033 49.2267L19.8653 46.2269ZM20.9051 49.2082C21.7333 49.188 22.3883 48.5003 22.3682 47.6721C22.348 46.844 21.6603 46.1889 20.8321 46.209L20.9051 49.2082ZM29.3811 45.5468C28.5598 45.6552 27.9818 46.4088 28.0901 47.2301C28.1985 48.0514 28.9521 48.6294 29.7734 48.5211L29.3811 45.5468ZM30.7608 48.3847C31.5807 48.2664 32.1495 47.5058 32.0311 46.6858C31.9128 45.8659 31.1521 45.2971 30.3322 45.4155L30.7608 48.3847ZM38.7554 43.7283C37.953 43.9344 37.4696 44.7519 37.6757 45.5543C37.8818 46.3567 38.6994 46.8401 39.5017 46.634L38.7554 43.7283ZM40.457 46.3827C41.2569 46.1673 41.7308 45.3442 41.5153 44.5443C41.2999 43.7443 40.4768 43.2705 39.6769 43.4859L40.457 46.3827ZM47.865 40.8311C47.0902 41.1243 46.6998 41.9901 46.993 42.7649C47.2862 43.5397 48.152 43.9301 48.9268 43.6369L47.865 40.8311ZM49.8489 43.2827C50.6207 42.9817 51.0024 42.1121 50.7015 41.3402C50.4005 40.5684 49.5308 40.1867 48.759 40.4877L49.8489 43.2827ZM56.667 37.0195C55.9215 37.3808 55.61 38.278 55.9713 39.0235C56.3326 39.769 57.2298 40.0805 57.9753 39.7192L56.667 37.0195ZM58.862 39.2853C59.6048 38.9185 59.9095 38.0189 59.5427 37.2762C59.1758 36.5334 58.2763 36.2287 57.5335 36.5955L58.862 39.2853ZM65.1981 32.5304C64.476 32.9365 64.2197 33.851 64.6258 34.5731C65.0318 35.2952 65.9463 35.5514 66.6684 35.1454L65.1981 32.5304ZM67.5228 34.6625C68.2432 34.2534 68.4954 33.3377 68.0863 32.6174C67.6771 31.897 66.7615 31.6448 66.0412 32.0539L67.5228 34.6625ZM73.5642 27.6395C72.8536 28.0654 72.6229 28.9867 73.0488 29.6973C73.4747 30.4078 74.396 30.6385 75.1066 30.2126L73.5642 27.6395ZM75.9427 29.7109C76.6529 29.2844 76.8829 28.3629 76.4564 27.6527C76.0299 26.9425 75.1084 26.7126 74.3982 27.1391L75.9427 29.7109ZM81.9282 22.6387C81.214 23.0586 80.9754 23.9779 81.3953 24.692C81.8151 25.4062 82.7344 25.6448 83.4485 25.2249L81.9282 22.6387ZM84.284 24.7354C84.9994 24.3177 85.2407 23.3991 84.823 22.6837C84.4053 21.9683 83.4867 21.727 82.7713 22.1447L84.284 24.7354ZM90.4775 17.8457C89.7442 18.2311 89.462 19.1379 89.8474 19.8713C90.2327 20.6047 91.1396 20.8868 91.8729 20.5015L90.4775 17.8457ZM92.7256 20.0572C93.4617 19.677 93.7501 18.7722 93.37 18.0361C92.9898 17.3001 92.0849 17.0116 91.3489 17.3918L92.7256 20.0572ZM99.3862 13.6207C98.6216 13.9397 98.2604 14.818 98.5793 15.5826C98.8983 16.3472 99.7766 16.7084 100.541 16.3895L99.3862 13.6207ZM101.425 16.0263C102.194 15.7158 102.564 14.8414 102.254 14.0734C101.943 13.3054 101.069 12.9344 100.301 13.2449L101.425 16.0263ZM108.748 10.3634C107.949 10.5836 107.48 11.4095 107.7 12.2082C107.921 13.0068 108.747 13.4757 109.545 13.2555L108.748 10.3634ZM110.461 13.01C111.263 12.8012 111.743 11.982 111.535 11.1803C111.326 10.3787 110.507 9.89803 109.705 10.1068L110.461 13.01ZM118.5 8.43878C117.677 8.53654 117.089 9.28267 117.187 10.1053C117.285 10.9279 118.031 11.5156 118.854 11.4178L118.5 8.43878ZM119.795 11.3134C120.619 11.2285 121.218 10.4916 121.133 9.66756C121.048 8.84349 120.311 8.2443 119.487 8.32921L119.795 11.3134ZM128.436 8.03581C127.608 8.00595 126.913 8.65289 126.883 9.48078C126.853 10.3087 127.5 11.004 128.328 11.0339L128.436 8.03581ZM129.275 11.075C130.102 11.1172 130.807 10.4806 130.849 9.65323C130.891 8.82588 130.255 8.12104 129.427 8.07893L129.275 11.075ZM138.311 9.10179C137.496 8.95709 136.717 9.50104 136.572 10.3167C136.428 11.1324 136.972 11.911 137.787 12.0557L138.311 9.10179ZM138.715 12.2263C139.529 12.3812 140.314 11.8471 140.469 11.0333C140.624 10.2195 140.09 9.43414 139.276 9.2792L138.715 12.2263ZM147.952 11.418C147.159 11.1795 146.322 11.6293 146.084 12.4226C145.845 13.216 146.295 14.0525 147.089 14.291L147.952 11.418ZM0.722409 47.4741C0.888712 47.5055 1.05472 47.5363 1.22044 47.5668L1.7625 44.6162C1.60126 44.5865 1.43971 44.5565 1.27785 44.526L0.722409 47.4741ZM10.0468 48.8073C10.3752 48.8388 10.7024 48.8685 11.0285 48.8964L11.2843 45.9074C10.9685 45.8803 10.6515 45.8516 10.3332 45.821L10.0468 48.8073ZM19.9033 49.2267C20.2385 49.2224 20.5725 49.2162 20.9051 49.2082L20.8321 46.209C20.5112 46.2169 20.1889 46.2228 19.8653 46.2269L19.9033 49.2267ZM29.7734 48.5211C30.1039 48.4775 30.433 48.432 30.7608 48.3847L30.3322 45.4155C30.0164 45.4611 29.6994 45.5049 29.3811 45.5468L29.7734 48.5211ZM39.5017 46.634C39.8214 46.5519 40.1398 46.4681 40.457 46.3827L39.6769 43.4859C39.3709 43.5683 39.0637 43.6491 38.7554 43.7283L39.5017 46.634ZM48.9268 43.6369C49.2353 43.5202 49.5426 43.4021 49.8489 43.2827L48.759 40.4877C48.462 40.6035 48.164 40.718 47.865 40.8311L48.9268 43.6369ZM57.9753 39.7192C58.2718 39.5755 58.5673 39.4309 58.862 39.2853L57.5335 36.5955C57.2454 36.7378 56.9566 36.8792 56.667 37.0195L57.9753 39.7192ZM66.6684 35.1454C66.9539 34.9849 67.2387 34.8239 67.5228 34.6625L66.0412 32.0539C65.7606 32.2133 65.4796 32.3722 65.1981 32.5304L66.6684 35.1454ZM75.1066 30.2126C75.3856 30.0454 75.6643 29.8781 75.9427 29.7109L74.3982 27.1391C74.1204 27.3059 73.8424 27.4727 73.5642 27.6395L75.1066 30.2126ZM83.4485 25.2249C83.7271 25.0612 84.0055 24.898 84.284 24.7354L82.7713 22.1447C82.4901 22.3089 82.2091 22.4736 81.9282 22.6387L83.4485 25.2249ZM91.8729 20.5015C92.1569 20.3523 92.4411 20.2042 92.7256 20.0572L91.3489 17.3918C91.0579 17.542 90.7675 17.6934 90.4775 17.8457L91.8729 20.5015ZM100.541 16.3895C100.835 16.2668 101.13 16.1457 101.425 16.0263L100.301 13.2449C99.9953 13.3686 99.6903 13.4938 99.3862 13.6207L100.541 16.3895ZM109.545 13.2555C109.85 13.1716 110.155 13.0897 110.461 13.01L109.705 10.1068C109.385 10.1902 109.066 10.2758 108.748 10.3634L109.545 13.2555ZM118.854 11.4178C119.166 11.3807 119.48 11.3459 119.795 11.3134L119.487 8.32921C119.157 8.36326 118.828 8.3998 118.5 8.43878L118.854 11.4178ZM128.328 11.0339C128.642 11.0452 128.958 11.0589 129.275 11.075L129.427 8.07893C129.096 8.06204 128.765 8.04768 128.436 8.03581L128.328 11.0339ZM137.787 12.0557C138.095 12.1103 138.404 12.1672 138.715 12.2263L139.276 9.2792C138.953 9.21775 138.632 9.15862 138.311 9.10179L137.787 12.0557Z" fill="#DEDAEC"/>
</svg>
