<svg width="192" height="201" viewBox="0 0 192 201" fill="none" xmlns="http://www.w3.org/2000/svg">
<path opacity="0.5" d="M151.471 1.0023C150.643 1.00954 149.977 1.68695 149.985 2.51535C149.992 3.34375 150.669 4.00942 151.498 4.00218L151.471 1.0023ZM142.588 4.78158C143.405 4.64477 143.957 3.87151 143.82 3.05446C143.683 2.2374 142.91 1.68595 142.093 1.82277L142.588 4.78158ZM141.063 2.0044C140.249 2.15537 139.711 2.93808 139.862 3.75263C140.013 4.56719 140.795 5.10514 141.61 4.95416L141.063 2.0044ZM132.968 7.25167C133.751 6.97955 134.164 6.12465 133.892 5.3422C133.62 4.55973 132.765 4.14601 131.983 4.41813L132.968 7.25167ZM131.002 4.76807C130.224 5.0527 129.824 5.91413 130.109 6.69212C130.393 7.47011 131.255 7.87007 132.033 7.58543L131.002 4.76807ZM123.846 11.2425C124.578 10.855 124.858 9.94738 124.47 9.21511C124.083 8.48286 123.175 8.20331 122.443 8.59072L123.846 11.2425ZM121.523 9.08581C120.796 9.48349 120.53 10.395 120.927 11.1217C121.325 11.8485 122.236 12.1152 122.963 11.7175L121.523 9.08581ZM115.337 16.5033C116.012 16.024 116.171 15.0877 115.692 14.412C115.213 13.7364 114.276 13.5772 113.601 14.0566L115.337 16.5033ZM112.763 14.6584C112.093 15.1456 111.945 16.0838 112.432 16.7537C112.919 17.4237 113.857 17.5718 114.527 17.0846L112.763 14.6584ZM107.499 22.7542C108.118 22.2042 108.175 21.2562 107.625 20.6367C107.075 20.0172 106.127 19.9608 105.507 20.5108L107.499 22.7542ZM104.733 21.2052C104.119 21.7614 104.072 22.71 104.628 23.324C105.184 23.938 106.133 23.9849 106.747 23.4288L104.733 21.2052ZM100.284 29.7918C100.851 29.1878 100.821 28.2385 100.217 27.6715C99.6128 27.1046 98.6635 27.1346 98.0965 27.7387L100.284 29.7918ZM97.3992 28.4877C96.8372 29.0964 96.875 30.0453 97.4836 30.6074C98.0922 31.1694 99.0412 31.1316 99.6032 30.5229L97.3992 28.4877ZM93.6844 37.3982C94.2039 36.7528 94.1018 35.8086 93.4565 35.2891C92.8111 34.7697 91.8669 34.8717 91.3474 35.5171L93.6844 37.3982ZM90.704 36.3222C90.189 36.9711 90.2976 37.9147 90.9466 38.4296C91.5955 38.9446 92.539 38.836 93.054 38.187L90.704 36.3222ZM87.6096 45.4802C88.0863 44.8026 87.9234 43.8669 87.2459 43.3903C86.5683 42.9136 85.6327 43.0764 85.156 43.754L87.6096 45.4802ZM84.5624 44.6031C84.0898 45.2835 84.2582 46.2182 84.9386 46.6908C85.619 47.1634 86.5536 46.995 87.0263 46.3146L84.5624 44.6031ZM82.021 53.9252C82.4593 53.2222 82.2446 52.297 81.5416 51.8588C80.8386 51.4205 79.9134 51.6352 79.4752 52.3382L82.021 53.9252ZM78.9366 53.2071C78.502 53.9124 78.7214 54.8364 79.4266 55.2711C80.1319 55.7057 81.0559 55.4863 81.4906 54.7811L78.9366 53.2071ZM76.8819 62.6443C77.2854 61.9208 77.026 61.0072 76.3026 60.6036C75.5791 60.2001 74.6654 60.4594 74.2619 61.1829L76.8819 62.6443ZM73.7641 62.0801C73.3638 62.8054 73.6273 63.7179 74.3527 64.1182C75.078 64.5184 75.9904 64.2549 76.3907 63.5296L73.7641 62.0801ZM72.1394 71.6054C72.5113 70.8651 72.2126 69.9636 71.4723 69.5917C70.732 69.2198 69.8305 69.5185 69.4586 70.2588L72.1394 71.6054ZM68.9991 71.1783C68.6302 71.9201 68.9326 72.8205 69.6744 73.1893C70.4162 73.5581 71.3165 73.2558 71.6853 72.514L68.9991 71.1783ZM67.7653 80.7627C68.1079 80.0084 67.7742 79.1192 67.0199 78.7766C66.2656 78.434 65.3765 78.7678 65.0339 79.5221L67.7653 80.7627ZM64.6104 80.459C64.2706 81.2146 64.6077 82.1025 65.3632 82.4423C66.1188 82.782 67.0067 82.445 67.3465 81.6895L64.6104 80.459ZM63.7369 90.0793C64.0521 89.3132 63.6866 88.4366 62.9205 88.1214C62.1544 87.8062 61.2778 88.1717 60.9626 88.9378L63.7369 90.0793ZM60.574 89.8868C60.2615 90.654 60.63 91.5293 61.3972 91.8419C62.1644 92.1544 63.0397 91.7859 63.3523 91.0187L60.574 89.8868ZM60.0335 99.5339C60.3227 98.7576 59.9279 97.8938 59.1516 97.6045C58.3753 97.3153 57.5115 97.7101 57.2223 98.4864L60.0335 99.5339ZM56.8657 99.4481C56.579 100.225 56.9767 101.088 57.7539 101.375C58.5311 101.661 59.3936 101.264 59.6803 100.486L56.8657 99.4481ZM56.6412 109.108C56.9054 108.323 56.483 107.472 55.6978 107.208C54.9127 106.944 54.062 107.366 53.7978 108.151L56.6412 109.108ZM53.4727 109.123C53.211 109.909 53.636 110.758 54.422 111.02C55.208 111.281 56.0574 110.856 56.3191 110.07L53.4727 109.123ZM53.5538 118.782C53.7934 117.989 53.3447 117.151 52.5517 116.912C51.7587 116.672 50.9216 117.121 50.682 117.914L53.5538 118.782ZM50.3884 118.891C50.1512 119.685 50.6024 120.521 51.3962 120.758C52.1899 120.995 53.0257 120.544 53.2628 119.75L50.3884 118.891ZM50.768 128.545C50.9829 127.745 50.5086 126.922 49.7085 126.707C48.9085 126.492 48.0856 126.966 47.8707 127.767L50.768 128.545ZM47.6046 128.763C47.3921 129.564 47.869 130.385 48.6698 130.598C49.4705 130.81 50.2918 130.333 50.5043 129.533L47.6046 128.763ZM48.2839 138.407C48.4735 137.6 47.9734 136.793 47.167 136.603C46.3605 136.414 45.5531 136.914 45.3635 137.72L48.2839 138.407ZM45.1302 138.72C44.9433 139.527 45.4459 140.333 46.253 140.52C47.06 140.707 47.8659 140.204 48.0528 139.397L45.1302 138.72ZM46.1229 148.326C46.2857 147.514 45.7591 146.723 44.9469 146.56C44.1346 146.398 43.3441 146.924 43.1814 147.736L46.1229 148.326ZM42.9833 148.734C42.8232 149.547 43.3525 150.335 44.1653 150.495C44.9781 150.655 45.7668 150.126 45.9268 149.313L42.9833 148.734ZM44.3066 158.301C44.4401 157.484 43.8855 156.713 43.0678 156.579C42.2502 156.446 41.4793 157 41.3458 157.818L44.3066 158.301ZM41.1805 158.843C41.0503 159.661 41.6079 160.43 42.426 160.561C43.2441 160.691 44.013 160.133 44.1432 159.315L41.1805 158.843ZM42.8713 168.362C42.9709 167.539 42.3849 166.792 41.5625 166.692C40.7401 166.593 39.9927 167.179 39.893 168.001L42.8713 168.362ZM39.7727 169.013C39.6768 169.836 40.2661 170.581 41.0889 170.677C41.9118 170.773 42.6566 170.183 42.7525 169.361L39.7727 169.013ZM41.8963 178.429C41.9547 177.603 41.3322 176.885 40.5058 176.827C39.6794 176.769 38.9622 177.391 38.9038 178.218L41.8963 178.429ZM38.8332 179.259C38.7795 180.086 39.4063 180.8 40.2329 180.853C41.0596 180.907 41.7733 180.28 41.8269 179.453L38.8332 179.259ZM41.5011 188.512C41.5043 187.684 40.8354 187.009 40.007 187.006C39.1786 187.003 38.5044 187.672 38.5011 188.5L41.5011 188.512ZM152 0.999998C151.824 0.999985 151.647 1.00076 151.471 1.0023L151.498 4.00218C151.665 4.00073 151.832 3.99999 152 3.99999L152 0.999998ZM142.093 1.82277C141.749 1.88037 141.406 1.94093 141.063 2.0044L141.61 4.95416C141.935 4.89385 142.261 4.83631 142.588 4.78158L142.093 1.82277ZM131.983 4.41813C131.655 4.53209 131.328 4.64876 131.002 4.76807L132.033 7.58543C132.344 7.47161 132.656 7.36035 132.968 7.25167L131.983 4.41813ZM122.443 8.59072C122.136 8.7534 121.829 8.91842 121.523 9.08581L122.963 11.7175C123.257 11.5569 123.551 11.3985 123.846 11.2425L122.443 8.59072ZM113.601 14.0566C113.321 14.2552 113.041 14.4558 112.763 14.6584L114.527 17.0846C114.797 16.8889 115.066 16.6951 115.337 16.5033L113.601 14.0566ZM105.507 20.5108C105.248 20.7407 104.99 20.9721 104.733 21.2052L106.747 23.4288C106.997 23.2023 107.247 22.9774 107.499 22.7542L105.507 20.5108ZM98.0965 27.7387C97.8634 27.987 97.631 28.2367 97.3992 28.4877L99.6032 30.5229C99.8295 30.2779 100.056 30.0341 100.284 29.7918L98.0965 27.7387ZM91.3474 35.5171C91.1323 35.7843 90.9178 36.0527 90.704 36.3222L93.054 38.187C93.2635 37.9229 93.4737 37.66 93.6844 37.3982L91.3474 35.5171ZM85.156 43.754C84.9575 44.0361 84.7596 44.3191 84.5624 44.6031L87.0263 46.3146C87.2201 46.0355 87.4146 45.7574 87.6096 45.4802L85.156 43.754ZM79.4752 52.3382C79.2951 52.6271 79.1156 52.9167 78.9366 53.2071L81.4906 54.7811C81.6668 54.495 81.8437 54.2097 82.021 53.9252L79.4752 52.3382ZM74.2619 61.1829C74.0954 61.4814 73.9295 61.7805 73.7641 62.0801L76.3907 63.5296C76.5539 63.2339 76.7176 62.9388 76.8819 62.6443L74.2619 61.1829ZM69.4586 70.2588C69.3049 70.5648 69.1517 70.8714 68.9991 71.1783L71.6853 72.514C71.8362 72.2106 71.9875 71.9078 72.1394 71.6054L69.4586 70.2588ZM65.0339 79.5221C64.8922 79.834 64.751 80.1464 64.6104 80.459L67.3465 81.6895C67.4856 81.3802 67.6252 81.0712 67.7653 80.7627L65.0339 79.5221ZM60.9626 88.9378C60.8325 89.2539 60.703 89.5702 60.574 89.8868L63.3523 91.0187C63.48 90.7053 63.6082 90.3922 63.7369 90.0793L60.9626 88.9378ZM57.2223 98.4864C57.1029 98.8069 56.984 99.1274 56.8657 99.4481L59.6803 100.486C59.7975 100.169 59.9152 99.8512 60.0335 99.5339L57.2223 98.4864ZM53.7978 108.151C53.6889 108.475 53.5805 108.799 53.4727 109.123L56.3191 110.07C56.4259 109.75 56.5332 109.429 56.6412 109.108L53.7978 108.151ZM50.682 117.914C50.5835 118.24 50.4856 118.565 50.3884 118.891L53.2628 119.75C53.3592 119.427 53.4562 119.104 53.5538 118.782L50.682 117.914ZM47.8707 127.767C47.7814 128.099 47.6927 128.431 47.6046 128.763L50.5043 129.533C50.5916 129.204 50.6794 128.874 50.768 128.545L47.8707 127.767ZM45.3635 137.72C45.2851 138.054 45.2073 138.387 45.1302 138.72L48.0528 139.397C48.1292 139.067 48.2062 138.737 48.2839 138.407L45.3635 137.72ZM43.1814 147.736C43.1146 148.069 43.0486 148.402 42.9833 148.734L45.9268 149.313C45.9915 148.985 46.0568 148.656 46.1229 148.326L43.1814 147.736ZM41.3458 157.818C41.2899 158.161 41.2348 158.502 41.1805 158.843L44.1432 159.315C44.1969 158.978 44.2514 158.64 44.3066 158.301L41.3458 157.818ZM39.893 168.001C39.852 168.34 39.8119 168.677 39.7727 169.013L42.7525 169.361C42.7912 169.029 42.8308 168.696 42.8713 168.362L39.893 168.001ZM38.9038 178.218C38.8791 178.566 38.8556 178.914 38.8332 179.259L41.8269 179.453C41.8489 179.114 41.872 178.772 41.8963 178.429L38.9038 178.218ZM38.5011 188.5C38.5005 188.667 38.5002 188.834 38.5002 189L41.5001 189C41.5002 188.838 41.5005 188.675 41.5011 188.512L38.5011 188.5Z" fill="#FFDD59"/>
<circle cx="40" cy="194" r="7" fill="#FFDD59"/>
</svg>
