<svg width="138" height="96" viewBox="0 0 138 96" fill="none" xmlns="http://www.w3.org/2000/svg">
<path d="M137 3.99998L119.956 0.917327L125.808 17.2192L137 3.99998ZM1.24811 93.5712C2.06308 93.7199 2.8443 93.1798 2.99302 92.3648C3.14174 91.5498 2.60164 90.7686 1.78667 90.6199L1.24811 93.5712ZM10.6942 91.8864C9.86968 91.8056 9.13587 92.4086 9.05516 93.2331C8.97444 94.0576 9.57739 94.7914 10.4019 94.8721L10.6942 91.8864ZM11.42 94.9662C12.2454 95.038 12.9726 94.4271 13.0443 93.6018C13.1161 92.7765 12.5052 92.0493 11.6799 91.9775L11.42 94.9662ZM20.5345 92.2547C19.7064 92.28 19.0557 92.9718 19.081 93.7999C19.1064 94.6279 19.7982 95.2786 20.6262 95.2533L20.5345 92.2547ZM21.6768 95.2128C22.5044 95.1743 23.144 94.4723 23.1055 93.6448C23.067 92.8172 22.365 92.1776 21.5374 92.2161L21.6768 95.2128ZM30.26 91.1174C29.4502 91.2918 28.935 92.0897 29.1094 92.8996C29.2838 93.7095 30.0817 94.2246 30.8916 94.0502L30.26 91.1174ZM31.9188 93.8174C32.7247 93.6256 33.2225 92.8168 33.0307 92.0109C32.8389 91.205 32.0301 90.7071 31.2242 90.899L31.9188 93.8174ZM39.4674 88.0183C38.7189 88.3734 38.4001 89.268 38.7552 90.0165C39.1103 90.7649 40.0049 91.0838 40.7534 90.7287L39.4674 88.0183ZM41.6891 90.2708C42.4288 89.8977 42.7259 88.9956 42.3528 88.2559C41.9797 87.5163 41.0777 87.2191 40.338 87.5922L41.6891 90.2708ZM47.685 82.8538C47.0371 83.37 46.9303 84.3137 47.4465 84.9617C47.9628 85.6096 48.9065 85.7163 49.5544 85.2001L47.685 82.8538ZM50.3586 84.5458C50.996 84.0166 51.0837 83.0709 50.5544 82.4336C50.0252 81.7962 49.0795 81.7086 48.4422 82.2378L50.3586 84.5458ZM54.7736 76.0699C54.2211 76.6872 54.2736 77.6355 54.8909 78.188C55.5082 78.7405 56.4564 78.688 57.0089 78.0707L54.7736 76.0699ZM57.6889 77.3013C58.2337 76.6772 58.1694 75.7296 57.5453 75.1849C56.9212 74.6401 55.9736 74.7044 55.4288 75.3285L57.6889 77.3013ZM61.012 68.3288C60.5183 68.994 60.6572 69.9335 61.3224 70.4273C61.9876 70.921 62.9271 70.7821 63.4209 70.1169L61.012 68.3288ZM64.0295 69.2921C64.5196 68.6242 64.3755 67.6854 63.7076 67.1953C63.0397 66.7052 62.101 66.8494 61.6109 67.5173L64.0295 69.2921ZM66.842 60.1482C66.3684 60.8279 66.5354 61.7629 67.2151 62.2364C67.8949 62.71 68.8298 62.543 69.3034 61.8633L66.842 60.1482ZM69.8785 61.0375C70.3519 60.3576 70.1845 59.4227 69.5047 58.9494C68.8248 58.476 67.89 58.6433 67.4166 59.3232L69.8785 61.0375ZM72.6559 51.8777C72.1725 52.5505 72.3259 53.4877 72.9987 53.9712C73.6714 54.4546 74.6087 54.3012 75.0921 53.6284L72.6559 51.8777ZM75.6729 52.823C76.1586 52.1519 76.0083 51.2141 75.3372 50.7284C74.6661 50.2427 73.7283 50.393 73.2426 51.0641L75.6729 52.823ZM78.752 43.7601C78.2379 44.4097 78.3477 45.353 78.9972 45.8672C79.6468 46.3813 80.5902 46.2715 81.1043 45.6219L78.752 43.7601ZM81.721 44.8475C82.239 44.2009 82.1348 43.2569 81.4883 42.7389C80.8418 42.221 79.8978 42.3252 79.3798 42.9717L81.721 44.8475ZM85.3253 35.992C84.7679 36.6049 84.813 37.5536 85.4259 38.1109C86.0388 38.6682 86.9875 38.6232 87.5448 38.0103L85.3253 35.992ZM88.2224 37.2709C88.7845 36.6624 88.7468 35.7134 88.1383 35.1513C87.5297 34.5892 86.5807 34.6269 86.0186 35.2354L88.2224 37.2709ZM92.479 28.7341C91.8733 29.2993 91.8405 30.2485 92.4056 30.8541C92.9708 31.4598 93.92 31.4927 94.5257 30.9275L92.479 28.7341ZM95.262 30.2464C95.8726 29.6865 95.9137 28.7377 95.3539 28.1271C94.794 27.5165 93.8451 27.4753 93.2345 28.0352L95.262 30.2464ZM100.242 22.1028C99.5888 22.6125 99.4725 23.5551 99.9822 24.2082C100.492 24.8613 101.434 24.9776 102.088 24.468L100.242 22.1028ZM102.871 23.8623C103.528 23.3585 103.653 22.417 103.149 21.7594C102.645 21.1017 101.704 20.9771 101.046 21.4809L102.871 23.8623ZM108.573 16.1762C107.878 16.6264 107.679 17.5551 108.129 18.2505C108.579 18.946 109.508 19.1448 110.204 18.6947L108.573 16.1762ZM111.053 18.1503C111.752 17.7062 111.959 16.7793 111.515 16.0799C111.071 15.3806 110.144 15.1736 109.445 15.6177L111.053 18.1503ZM117.347 11.0085C116.616 11.3993 116.341 12.3082 116.731 13.0387C117.122 13.7692 118.031 14.0446 118.762 13.6538L117.347 11.0085ZM119.637 13.19C120.371 12.8051 120.653 11.8983 120.268 11.1648C119.883 10.4312 118.977 10.1486 118.243 10.5335L119.637 13.19ZM126.513 6.55381C125.754 6.88771 125.411 7.773 125.744 8.53116C126.078 9.28931 126.964 9.63323 127.722 9.29932L126.513 6.55381ZM128.649 8.89509C129.409 8.56672 129.76 7.68396 129.431 6.92339C129.103 6.16282 128.22 5.81245 127.46 6.14081L128.649 8.89509ZM136.003 2.76422C135.224 3.04542 134.82 3.90507 135.101 4.68432C135.382 5.46356 136.242 5.86731 137.021 5.58611L136.003 2.76422ZM0.724963 93.4746C0.899855 93.5072 1.07424 93.5394 1.24811 93.5712L1.78667 90.6199C1.6168 90.5889 1.44639 90.5574 1.27545 90.5255L0.724963 93.4746ZM10.4019 94.8721C10.7435 94.9055 11.0828 94.9369 11.42 94.9662L11.6799 91.9775C11.3536 91.9491 11.0251 91.9188 10.6942 91.8864L10.4019 94.8721ZM20.6262 95.2533C20.9791 95.2425 21.3293 95.229 21.6768 95.2128L21.5374 92.2161C21.206 92.2315 20.8716 92.2444 20.5345 92.2547L20.6262 95.2533ZM30.8916 94.0502C31.237 93.9758 31.5794 93.8982 31.9188 93.8174L31.2242 90.899C30.9058 90.9747 30.5845 91.0476 30.26 91.1174L30.8916 94.0502ZM40.7534 90.7287C41.0682 90.5793 41.3801 90.4266 41.6891 90.2708L40.338 87.5922C40.0505 87.7373 39.7603 87.8793 39.4674 88.0183L40.7534 90.7287ZM49.5544 85.2001C49.8247 84.9847 50.0928 84.7666 50.3586 84.5458L48.4422 82.2378C48.1916 82.4459 47.9392 82.6512 47.685 82.8538L49.5544 85.2001ZM57.0089 78.0707C57.2368 77.8161 57.4634 77.5597 57.6889 77.3013L55.4288 75.3285C55.2112 75.5778 54.9929 75.8249 54.7736 76.0699L57.0089 78.0707ZM63.4209 70.1169C63.624 69.8432 63.8269 69.5683 64.0295 69.2921L61.6109 67.5173C61.4113 67.7892 61.2117 68.0598 61.012 68.3288L63.4209 70.1169ZM69.3034 61.8633C69.4947 61.5887 69.6864 61.3134 69.8785 61.0375L67.4166 59.3232C67.2245 59.5991 67.033 59.8741 66.842 60.1482L69.3034 61.8633ZM75.0921 53.6284C75.2848 53.3603 75.4784 53.0918 75.6729 52.823L73.2426 51.0641C73.046 51.3358 72.8505 51.607 72.6559 51.8777L75.0921 53.6284ZM81.1043 45.6219C81.3086 45.3638 81.5142 45.1056 81.721 44.8475L79.3798 42.9717C79.1692 43.2346 78.9599 43.4974 78.752 43.7601L81.1043 45.6219ZM87.5448 38.0103C87.7691 37.7636 87.995 37.5172 88.2224 37.2709L86.0186 35.2354C85.7858 35.4874 85.5547 35.7396 85.3253 35.992L87.5448 38.0103ZM94.5257 30.9275C94.7694 30.7001 95.0148 30.473 95.262 30.2464L93.2345 28.0352C92.9809 28.2678 92.729 28.5008 92.479 28.7341L94.5257 30.9275ZM102.088 24.468C102.347 24.2656 102.608 24.0637 102.871 23.8623L101.046 21.4809C100.776 21.6877 100.508 21.895 100.242 22.1028L102.088 24.468ZM110.204 18.6947C110.485 18.5126 110.768 18.3312 111.053 18.1503L109.445 15.6177C109.152 15.8033 108.862 15.9894 108.573 16.1762L110.204 18.6947ZM118.762 13.6538C119.052 13.4986 119.343 13.344 119.637 13.19L118.243 10.5335C117.942 10.6913 117.644 10.8496 117.347 11.0085L118.762 13.6538ZM127.722 9.29932C128.029 9.16397 128.338 9.02922 128.649 8.89509L127.46 6.14081C127.142 6.27784 126.827 6.4155 126.513 6.55381L127.722 9.29932Z" fill="#DEDAEC"/>
</svg>
