<svg width="85" height="218" viewBox="0 0 85 218" fill="none" xmlns="http://www.w3.org/2000/svg">
<path d="M83.9379 3.43475C84.7303 3.19291 85.1765 2.35454 84.9347 1.5622C84.6928 0.769861 83.8545 0.323589 83.0621 0.565429L83.9379 3.43475ZM79.0001 214L67.1424 201.375L62.1375 217.957L79.0001 214ZM78.9484 212.418C78.156 212.176 77.3178 212.623 77.0762 213.415C76.8347 214.208 77.2813 215.046 78.0737 215.287L78.9484 212.418ZM69.3261 212.148C70.0914 212.465 70.969 212.102 71.2862 211.337C71.6034 210.571 71.2401 209.694 70.4748 209.377L69.3261 212.148ZM69.5508 208.988C68.789 208.663 67.9076 209.016 67.5823 209.778C67.2569 210.54 67.6108 211.422 68.3726 211.747L69.5508 208.988ZM60.0145 207.699C60.7423 208.094 61.6531 207.825 62.0488 207.097C62.4445 206.37 62.1753 205.459 61.4475 205.063L60.0145 207.699ZM60.5702 204.58C59.8465 204.177 58.933 204.437 58.5298 205.161C58.1266 205.884 58.3864 206.798 59.1101 207.201L60.5702 204.58ZM51.2171 202.318C51.9012 202.785 52.8345 202.609 53.3017 201.925C53.7689 201.241 53.5931 200.308 52.909 199.84L51.2171 202.318ZM52.0845 199.271C51.405 198.797 50.47 198.964 49.996 199.644C49.5221 200.323 49.6887 201.258 50.3682 201.732L52.0845 199.271ZM42.999 196.097C43.6347 196.628 44.5806 196.543 45.1118 195.907C45.643 195.272 45.5583 194.326 44.9226 193.794L42.999 196.097ZM44.1559 193.148C43.5253 192.61 42.5786 192.686 42.0414 193.317C41.5042 193.947 41.5799 194.894 42.2106 195.431L44.1559 193.148ZM35.4093 189.128C35.9931 189.716 36.9429 189.719 37.5306 189.135C38.1184 188.551 38.1216 187.602 37.5378 187.014L35.4093 189.128ZM36.835 186.3C36.2565 185.707 35.3068 185.695 34.7138 186.273C34.1208 186.852 34.109 187.801 34.6875 188.395L36.835 186.3ZM28.4883 181.507C29.0176 182.144 29.9633 182.231 30.6006 181.702C31.2379 181.173 31.3254 180.227 30.7961 179.59L28.4883 181.507ZM30.1586 178.815C29.6349 178.174 28.69 178.078 28.0481 178.602C27.4063 179.125 27.3105 180.07 27.8343 180.712L30.1586 178.815ZM22.26 173.314C22.7327 173.994 23.6674 174.162 24.3477 173.689C25.028 173.217 25.1963 172.282 24.7235 171.602L22.26 173.314ZM24.1541 170.775C23.6871 170.09 22.7538 169.914 22.0696 170.381C21.3853 170.848 21.2092 171.782 21.6762 172.466L24.1541 170.775ZM16.7473 164.625C17.1616 165.343 18.0791 165.588 18.7964 165.174C19.5138 164.76 19.7595 163.842 19.3451 163.125L16.7473 164.625ZM18.8462 162.253C18.4378 161.532 17.5225 161.279 16.8017 161.687C16.0809 162.096 15.8277 163.011 16.2361 163.732L18.8462 162.253ZM11.9725 155.512C12.3266 156.261 13.2208 156.581 13.9697 156.227C14.7186 155.873 15.0387 154.979 14.6847 154.23L11.9725 155.512ZM14.2589 153.32C13.911 152.568 13.0194 152.241 12.2676 152.588C11.5158 152.936 11.1884 153.828 11.5363 154.58L14.2589 153.32ZM7.95907 146.04C8.25087 146.816 9.11595 147.208 9.89129 146.916C10.6666 146.624 11.0586 145.759 10.7668 144.984L7.95907 146.04ZM10.4169 144.042C10.1314 143.264 9.26956 142.865 8.49186 143.151C7.71417 143.436 7.31512 144.298 7.60056 145.076L10.4169 144.042ZM4.73312 136.272C4.96033 137.068 5.79033 137.53 6.58699 137.303C7.38366 137.076 7.84529 136.246 7.61809 135.449L4.73312 136.272ZM7.34659 134.482C7.12598 133.683 6.29983 133.215 5.50131 133.435C4.7028 133.656 4.23431 134.482 4.45491 135.281L7.34659 134.482ZM2.32495 126.268C2.48494 127.081 3.27356 127.61 4.08639 127.45C4.89923 127.29 5.42846 126.501 5.26848 125.688L2.32495 126.268ZM5.07874 124.702C4.92563 123.888 4.14151 123.352 3.32736 123.505C2.5132 123.659 1.97731 124.443 2.13042 125.257L5.07874 124.702ZM0.7694 116.094C0.859249 116.917 1.5997 117.512 2.42324 117.422C3.24678 117.332 3.84155 116.592 3.7517 115.768L0.7694 116.094ZM3.64723 114.77C3.56456 113.946 2.82932 113.345 2.00503 113.427C1.18074 113.51 0.579532 114.245 0.662201 115.07L3.64723 114.77ZM0.104321 105.819C0.120952 106.648 0.805872 107.306 1.63413 107.289C2.46239 107.272 3.12035 106.587 3.10372 105.759L0.104321 105.819ZM3.08811 104.757C3.07897 103.928 2.40003 103.264 1.57165 103.273C0.743275 103.282 0.0791542 103.961 0.0882979 104.79L3.08811 104.757ZM0.36869 95.5221C0.309074 96.3484 0.930576 97.0666 1.75685 97.1262C2.58313 97.1858 3.30129 96.5643 3.36091 95.738L0.36869 95.5221ZM3.43776 94.7385C3.50516 93.9128 2.89045 93.1888 2.06477 93.1214C1.23908 93.054 0.515103 93.6687 0.447705 94.4944L3.43776 94.7385ZM1.59908 85.29C1.46059 86.1068 2.01045 86.8812 2.82722 87.0197C3.64399 87.1582 4.41838 86.6083 4.55686 85.7915L1.59908 85.29ZM4.72911 84.805C4.87559 83.9896 4.33336 83.2099 3.51798 83.0634C2.70261 82.9169 1.92287 83.4592 1.77638 84.2745L4.72911 84.805ZM3.82377 75.2236C3.60468 76.0226 4.07474 76.8478 4.87367 77.0669C5.6726 77.286 6.49787 76.816 6.71696 76.017L3.82377 75.2236ZM6.98664 75.0528C7.21384 74.2562 6.75219 73.4262 5.95553 73.199C5.15886 72.9718 4.32886 73.4334 4.10166 74.2301L6.98664 75.0528ZM7.05727 65.4297C6.75725 66.2019 7.14001 67.0711 7.9122 67.3711C8.68439 67.6712 9.55359 67.2884 9.85361 66.5162L7.05727 65.4297ZM10.2215 65.5838C10.5296 64.8148 10.1559 63.9417 9.38691 63.6336C8.6179 63.3255 7.74474 63.6992 7.43666 64.4682L10.2215 65.5838ZM11.2941 56.0194C10.9147 56.7559 11.2041 57.6604 11.9405 58.0399C12.677 58.4193 13.5815 58.1299 13.961 57.3935L11.2941 56.0194ZM14.4261 56.5024C14.8133 55.7701 14.5336 54.8625 13.8012 54.4752C13.0689 54.088 12.1613 54.3677 11.774 55.1001L14.4261 56.5024ZM16.5038 47.1023C16.0486 47.7945 16.2408 48.7246 16.933 49.1798C17.6251 49.6349 18.5552 49.4428 19.0104 48.7506L16.5038 47.1023ZM19.5643 47.9179C20.0267 47.2305 19.8444 46.2984 19.1571 45.836C18.4697 45.3736 17.5376 45.5559 17.0752 46.2432L19.5643 47.9179ZM22.616 38.7924C22.0911 39.4333 22.185 40.3784 22.8258 40.9033C23.4667 41.4283 24.4118 41.3344 24.9368 40.6935L22.616 38.7924ZM25.5689 39.9299C26.1004 39.2944 26.0161 38.3484 25.3807 37.8169C24.7452 37.2854 23.7992 37.3697 23.2677 38.0051L25.5689 39.9299ZM29.5426 31.1668C28.9554 31.7511 28.9531 32.7009 29.5375 33.2881C30.1219 33.8753 31.0716 33.8776 31.6588 33.2932L29.5426 31.1668ZM32.3662 32.5962C32.9591 32.0176 32.9708 31.068 32.3922 30.475C31.8136 29.8821 30.864 29.8705 30.271 30.449L32.3662 32.5962ZM37.1874 24.2683C36.5465 24.7931 36.4524 25.7382 36.9773 26.3791C37.5022 27.0201 38.4472 27.1141 39.0882 26.5893L37.1874 24.2683ZM39.8608 25.9625C40.5066 25.4436 40.6095 24.4994 40.0906 23.8537C39.5717 23.2079 38.6275 23.105 37.9817 23.6239L39.8608 25.9625ZM45.4408 18.1204C44.7548 18.5849 44.5754 19.5176 45.04 20.2035C45.5045 20.8894 46.4372 21.0688 47.1231 20.6043L45.4408 18.1204ZM47.9501 20.0494C48.64 19.5908 48.8275 18.6597 48.3689 17.9698C47.9103 17.2799 46.9792 17.0924 46.2893 17.551L47.9501 20.0494ZM54.1954 12.7207C53.4729 13.126 53.2157 14.0402 53.6209 14.7628C54.0261 15.4853 54.9404 15.7426 55.6629 15.3373L54.1954 12.7207ZM56.5329 14.854C57.2586 14.4545 57.5232 13.5423 57.1237 12.8166C56.7242 12.0908 55.812 11.8263 55.0863 12.2258L56.5329 14.854ZM63.3549 8.04596C62.6032 8.3942 62.2762 9.28586 62.6244 10.0375C62.9727 10.7892 63.8643 11.1163 64.616 10.768L63.3549 8.04596ZM65.5179 10.3542C66.2721 10.0114 66.6056 9.12211 66.2628 8.36793C65.92 7.61375 65.0307 7.28024 64.2766 7.62303L65.5179 10.3542ZM72.839 4.05813C72.0646 4.35255 71.6756 5.21895 71.97 5.99329C72.2644 6.76764 73.1308 7.1567 73.9051 6.86228L72.839 4.05813ZM74.8287 6.51459C75.605 6.22525 75.9997 5.36141 75.7103 4.58515C75.421 3.8089 74.5572 3.41418 73.7809 3.70352L74.8287 6.51459ZM82.5585 0.71999C81.767 0.964295 81.3233 1.80405 81.5676 2.59563C81.8119 3.38722 82.6517 3.83088 83.4433 3.58657L82.5585 0.71999ZM70.4748 209.377C70.166 209.249 69.858 209.119 69.5508 208.988L68.3726 211.747C68.6896 211.882 69.0074 212.016 69.3261 212.148L70.4748 209.377ZM61.4475 205.063C61.1542 204.904 60.8618 204.743 60.5702 204.58L59.1101 207.201C59.4107 207.368 59.7121 207.534 60.0145 207.699L61.4475 205.063ZM52.909 199.84C52.6332 199.652 52.3584 199.462 52.0845 199.271L50.3682 201.732C50.6502 201.929 50.9331 202.124 51.2171 202.318L52.909 199.84ZM44.9226 193.794C44.6661 193.58 44.4105 193.364 44.1559 193.148L42.2106 195.431C42.4724 195.654 42.7352 195.876 42.999 196.097L44.9226 193.794ZM37.5378 187.014C37.3025 186.777 37.0682 186.539 36.835 186.3L34.6875 188.395C34.927 188.64 35.1676 188.885 35.4093 189.128L37.5378 187.014ZM30.7961 179.59C30.5825 179.333 30.37 179.075 30.1586 178.815L27.8343 180.712C28.0512 180.978 28.2692 181.243 28.4883 181.507L30.7961 179.59ZM24.7235 171.602C24.5326 171.327 24.3428 171.051 24.1541 170.775L21.6762 172.466C21.8696 172.749 22.0642 173.032 22.26 173.314L24.7235 171.602ZM19.3451 163.125C19.1776 162.835 19.0113 162.544 18.8462 162.253L16.2361 163.732C16.4053 164.03 16.5757 164.328 16.7473 164.625L19.3451 163.125ZM14.6847 154.23C14.5415 153.927 14.3996 153.624 14.2589 153.32L11.5363 154.58C11.6805 154.891 11.8258 155.202 11.9725 155.512L14.6847 154.23ZM10.7668 144.984C10.6489 144.67 10.5322 144.356 10.4169 144.042L7.60056 145.076C7.71875 145.398 7.83825 145.719 7.95907 146.04L10.7668 144.984ZM7.61809 135.449C7.52625 135.127 7.43575 134.805 7.34659 134.482L4.45491 135.281C4.54628 135.611 4.63901 135.942 4.73312 136.272L7.61809 135.449ZM5.26848 125.688C5.20384 125.36 5.14059 125.031 5.07874 124.702L2.13042 125.257C2.19383 125.594 2.25868 125.931 2.32495 126.268L5.26848 125.688ZM3.7517 115.768C3.71542 115.436 3.6806 115.103 3.64723 114.77L0.662201 115.07C0.696443 115.411 0.732178 115.752 0.7694 116.094L3.7517 115.768ZM3.10372 105.759C3.097 105.425 3.0918 105.091 3.08811 104.757L0.0882979 104.79C0.0920864 105.133 0.0974288 105.476 0.104321 105.819L3.10372 105.759ZM3.36091 95.738C3.38496 95.4047 3.41058 95.0715 3.43776 94.7385L0.447705 94.4944C0.419753 94.8369 0.393417 95.1794 0.36869 95.5221L3.36091 95.738ZM4.55686 85.7915C4.61266 85.4624 4.67008 85.1336 4.72911 84.805L1.77638 84.2745C1.71561 84.6128 1.65651 84.9513 1.59908 85.29L4.55686 85.7915ZM6.71696 76.017C6.8052 75.6953 6.89509 75.3738 6.98664 75.0528L4.10166 74.2301C4.00732 74.5609 3.91469 74.8921 3.82377 75.2236L6.71696 76.017ZM9.85361 66.5162C9.97455 66.2049 10.0972 65.8941 10.2215 65.5838L7.43666 64.4682C7.30845 64.7882 7.18199 65.1087 7.05727 65.4297L9.85361 66.5162ZM13.961 57.3935C14.1143 57.0959 14.2694 56.7989 14.4261 56.5024L11.774 55.1001C11.6123 55.4059 11.4524 55.7124 11.2941 56.0194L13.961 57.3935ZM19.0104 48.7506C19.1934 48.4724 19.378 48.1948 19.5643 47.9179L17.0752 46.2432C16.883 46.5289 16.6925 46.8153 16.5038 47.1023L19.0104 48.7506ZM24.9368 40.6935C25.1459 40.4383 25.3566 40.1837 25.5689 39.9299L23.2677 38.0051C23.0488 38.2668 22.8316 38.5293 22.616 38.7924L24.9368 40.6935ZM31.6588 33.2932C31.8931 33.0601 32.1288 32.8278 32.3662 32.5962L30.271 30.449C30.0267 30.6875 29.7839 30.9267 29.5426 31.1668L31.6588 33.2932ZM39.0882 26.5893C39.3442 26.3796 39.6018 26.1706 39.8608 25.9625L37.9817 23.6239C37.7154 23.8379 37.4507 24.0527 37.1874 24.2683L39.0882 26.5893ZM47.1231 20.6043C47.3973 20.4185 47.673 20.2336 47.9501 20.0494L46.2893 17.551C46.0051 17.74 45.7222 17.9298 45.4408 18.1204L47.1231 20.6043ZM55.6629 15.3373C55.9516 15.1754 56.2416 15.0143 56.5329 14.854L55.0863 12.2258C54.788 12.3899 54.4911 12.5549 54.1954 12.7207L55.6629 15.3373ZM64.616 10.768C64.9154 10.6293 65.216 10.4914 65.5179 10.3542L64.2766 7.62303C63.9681 7.76321 63.6609 7.90419 63.3549 8.04596L64.616 10.768ZM73.9051 6.86228C74.2119 6.74566 74.5197 6.62976 74.8287 6.51459L73.7809 3.70352C73.4658 3.82097 73.1518 3.93917 72.839 4.05813L73.9051 6.86228ZM83.4433 3.58657C83.6079 3.53577 83.7727 3.48517 83.9379 3.43475L83.0621 0.565429C82.894 0.616749 82.7261 0.66827 82.5585 0.71999L83.4433 3.58657Z" fill="#DEDAEC"/>
</svg>
