<svg width="375" height="711" viewBox="0 0 375 711" fill="none" xmlns="http://www.w3.org/2000/svg">
<path d="M1276 626.208L1276 701.044L1273.98 700.857L1271.54 701.044C1266.25 702.286 1259.84 703.743 1246.11 704.204C1242.85 704.314 1230.63 704.488 1227.88 704.204C1223.48 703.751 1222.28 702.533 1222.68 698.902C1229.09 672.277 1220.26 686.396 1204.5 688.01C1197.23 688.816 1191.17 690.43 1177.04 692.044C1163.79 693.555 1143.52 693.848 1136.64 693.657C1114.79 691.713 1104.73 684.782 1108.78 700.87C1108.78 707.584 1091 704.138 1074.84 706.567C1057.07 710.996 1058.93 710.286 1046.15 711C1031.22 711 1005.77 691.922 983.147 691.922C960.527 691.922 927.164 700.964 907.237 701.458C880.144 702.129 869.253 695.774 866.087 695.774C863.052 695.774 837.326 712.863 808.243 680.766C794.105 677.432 784.007 690.272 762.97 687.714C741.933 685.156 750.884 677.548 723.821 681.145C711.703 684.551 669.878 690.295 670.089 691.048C670.431 692.269 669.977 692.429 665.922 692.514C655.181 692.74 646.31 692.419 641.798 691.641C626.876 687.201 597.389 681.902 594.477 688.501C594.643 689.853 593.991 690.336 590.409 691.517C586.948 692.658 583.468 692.976 571.968 693.201C525.892 688.501 475.456 689.383 471.929 690.272C427.736 695.675 416.651 690.39 395.017 685.589C376.298 681.436 354.044 677.463 333.619 676.714C302.112 675.559 295.649 673.487 284.743 673.487C260.507 673.487 249.197 675.907 224.961 671.47C224.961 670.896 203.956 669.453 190.626 669.453C174.873 669.453 157.099 672.277 134.075 673.89C112.667 677.117 95.1199 680.574 80.3518 682.362C67.022 683.976 45.0848 686.379 21.3773 683.169C-2.3302 679.958 -14.3201 673.734 -24.2673 669.453C-32.0931 666.084 -43.6562 656.095 -45.6759 649.282C-57.7939 636.43 -92.5325 650.492 -108.228 641.18C-109.449 640.042 -117.859 640.708 -120 641.779V566.996V46L578 46L1276 46V626.208Z" fill="url(#paint0_linear_216_78)"/>
<path d="M-356 36.4882V92.0682L-328.847 95.0351L-294.021 96.8019C-287.777 96.3851 -285.744 97.0217 -284.872 91.7959C-284.71 89.7603 -285.762 86.585 -286.62 83.9951C-287.346 81.8018 -287.934 80.0284 -287.528 79.7225C-286.642 79.0556 -260.899 77.8684 -219.351 80.606C-213.855 81.1281 -209.209 83.7414 -204.926 86.1506C-199.547 89.176 -194.74 91.8797 -189.542 89.7175C-186.888 89.8326 -180.083 86.6874 -174.772 84.2327C-172.083 82.99 -169.777 81.9243 -168.587 81.5482C-164.943 80.397 -147.632 82.3728 -132.58 87.4376C-122.469 90.84 -77.8954 94.5553 -77.6841 89.7175C-74.4375 75.011 -30.1666 83.5126 -30.1666 83.7567C-27.5104 88.5567 -10.3923 90.9125 13.5139 88.5567C34.6707 85.6189 48.4098 87.9677 57.5591 91.5014C64.6424 93.2682 58.8776 94.0889 64.0521 103.458C66 106.985 71.7619 108.405 76.5 110C81 111.515 83.225 111.371 86.5 111.5C89.775 111.629 113.518 112.498 128 111C142.5 109.5 147.5 108.5 152 107.287C164.23 103.991 167.615 103.646 175 101C179.784 99.2857 183.162 98.8128 186.465 98.8632C188.473 98.8632 190.386 98.8291 192.18 98.7972C200.934 98.6414 206.83 98.5365 206.83 102.691C205.501 107.088 210.682 107.601 213.623 107.892C213.948 107.924 214.245 107.953 214.504 107.985C216.022 108.171 220.924 107.761 226.602 107.287C233.518 106.709 241.584 106.035 246.083 106.225C258.845 106.636 282.692 104.156 298.5 109C310.103 112.555 328.5 109.775 347 102C358.026 97.3663 366.991 92.6153 375 90.5C385.035 87.8498 406.309 74.012 413.392 74.012C417.901 74.012 418.12 78.0541 418.546 85.9246C418.594 86.813 418.645 87.7501 418.705 88.7356C418.969 93.0807 442.65 88.3694 450.779 86.7521L451.17 86.6743C469.764 82.9781 486.674 82.8462 494.851 82.8462C502.597 82.8462 510.243 84.8821 517.203 86.7355C522.176 88.0597 526.799 89.2907 530.858 89.619C540.956 90.436 559.827 84.682 563.488 83.5655C563.786 83.4747 563.983 83.4146 564.067 83.3912C564.11 83.3789 564.318 83.2894 564.667 83.1389C568.044 81.681 584.682 74.4994 594.312 76.3678C602.957 79.8176 623.931 74.989 634.064 72.6563L634.065 72.6561C636.041 72.2013 637.604 71.8414 638.583 71.6563C639.132 71.5527 641.576 70.9788 644.946 70.1877L644.947 70.1874C654.828 67.8676 672.665 63.68 674 64L664 42.43V0H154H-356V36.4882Z" fill="white"/>
<defs>
<linearGradient id="paint0_linear_216_78" x1="578" y1="356" x2="578" y2="711" gradientUnits="userSpaceOnUse">
<stop offset="0.15682" stop-color="#271973"/>
<stop offset="0.927284" stop-color="#B2A9E0"/>
</linearGradient>
</defs>
</svg>
