<svg width="1728" height="441" viewBox="0 0 1728 441" fill="none" xmlns="http://www.w3.org/2000/svg">
<path d="M126.982 0.365479H179.111C194.261 0.788452 211.836 1.56689 231.5 2.86548C240.81 3.75208 248.681 8.18921 255.937 12.28C265.049 17.417 273.193 22.0078 282 18.3365C286.495 18.532 298.024 13.1914 307.022 9.02344L307.024 9.02234C311.578 6.91296 315.484 5.10388 317.5 4.46533C323.672 2.51074 353 5.86548 378.5 14.4653C395.63 20.2424 471.142 26.5509 471.5 18.3365C477 -6.63452 552 7.80078 552 8.21533C556.5 16.3655 585.5 20.3655 626 16.3655C661.842 11.3773 719 15.3655 734.5 21.3655C746.5 24.3655 748 25.3655 745.5 43.3655C751.786 47.3895 762.401 46.8069 770.858 46.3425L770.868 46.3418C773.311 46.208 775.574 46.0837 777.5 46.0837C783.041 46.303 789.899 46.5422 797.155 46.795L797.182 46.7961C819.383 47.5703 845.299 48.4741 848.64 49.3323C870.098 49.3323 886.181 43.5564 898.692 39.0632C906.797 36.1523 913.403 33.78 919 33.8655C922.399 33.8655 925.638 33.8076 928.675 33.7534H928.681C943.512 33.4889 953.5 33.3108 953.5 40.3655C951.249 47.8317 960.026 48.7018 965.008 49.1958C965.558 49.2502 966.062 49.3003 966.5 49.354C969.072 49.6699 977.376 48.9746 986.992 48.1693L986.996 48.1689L986.999 48.1686C998.715 47.1875 1012.38 46.0433 1020 46.3655C1041.62 47.0634 1069.5 49.8953 1096.28 58.1194C1115.94 64.1559 1183.04 49.4106 1183.9 48.6561C1184.84 47.8318 1207.93 39.4572 1221.5 35.8655C1238.5 31.3655 1274.5 28.8655 1286.5 28.8655C1294.14 28.8655 1294.51 35.7288 1295.23 49.0925L1295.23 49.1222C1295.31 50.6217 1295.4 52.203 1295.5 53.8655C1295.95 61.2433 1336.07 53.2438 1349.84 50.4976L1350.5 50.3655C1382 44.0894 1410.65 43.8655 1424.5 43.8655C1437.62 43.8655 1450.58 47.3225 1462.37 50.4694L1462.37 50.4701C1470.79 52.7183 1478.62 54.8081 1485.5 55.3655C1502.61 56.7527 1534.58 46.9827 1540.78 45.0869C1541.28 44.9327 1541.62 44.8307 1541.76 44.7909C1541.83 44.77 1542.19 44.618 1542.78 44.3625C1548.5 41.8871 1576.68 29.693 1593 32.8655C1607.64 38.7231 1643.18 30.5244 1660.34 26.5636L1660.35 26.5631C1663.69 25.7909 1666.34 25.1798 1668 24.8655C1668.93 24.6896 1673.07 23.7152 1678.78 22.3718L1678.78 22.3713C1695.52 18.4325 1725.74 11.3223 1728 11.8655V428.02L1725.5 427.789L1722.48 428.02C1715.94 429.56 1708 431.365 1691 431.937C1686.96 432.073 1671.84 432.289 1668.43 431.937C1662.99 431.375 1661.5 429.865 1662 425.365C1667.51 402.454 1663.92 403.885 1654.69 407.571C1650.62 409.194 1645.46 411.254 1639.5 411.865C1635.68 412.29 1632.13 412.894 1627.97 413.602C1622.33 414.563 1615.57 415.714 1605.5 416.865C1589.11 418.739 1564.02 419.102 1555.5 418.865C1548.65 418.255 1542.74 417.249 1537.8 416.409C1523.26 413.934 1517.27 412.915 1521.02 427.805C1521.02 433.13 1512 433.299 1500.27 433.518C1493.67 433.642 1486.2 433.781 1479 434.865C1460.25 439.544 1459.15 439.596 1449.45 440.057C1447.77 440.137 1445.82 440.229 1443.48 440.36C1435.2 440.36 1424.3 435.609 1412.27 430.366C1397.46 423.913 1380.95 416.715 1365.5 416.715C1350.51 416.715 1331.71 419.927 1313.68 423.006C1298.05 425.678 1283 428.249 1271.54 428.533C1246.3 429.159 1232.42 424.854 1225.43 422.684C1223.13 421.971 1221.57 421.488 1220.6 421.488C1220.07 421.488 1218.98 421.911 1217.39 422.526C1207.76 426.257 1179.91 437.047 1149 402.888C1140.65 400.916 1133.44 403.506 1125.36 406.411C1116.49 409.595 1106.58 413.157 1092.96 411.499C1082.32 410.203 1077.88 407.864 1074.06 405.853C1068.53 402.942 1064.31 400.72 1044.5 403.357C1035.89 405.782 1015.14 409.162 999.091 411.778C987.195 413.716 977.878 415.234 977.989 415.632C978.413 417.145 977.851 417.343 972.832 417.448C959.536 417.728 948.556 417.331 942.971 416.366C924.5 410.863 888 404.295 884.395 412.474C884.601 414.15 883.794 414.748 879.36 416.213C875.077 417.627 870.769 418.021 856.533 418.3C799.5 412.474 737.069 413.568 732.703 414.669C685.638 420.431 668.909 416.386 648.1 411.355C644.723 410.539 641.239 409.696 637.5 408.865C614.329 403.717 586.782 398.793 561.5 397.865C539.13 397.045 526.959 395.849 518.1 394.979C511.513 394.333 506.757 393.865 501 393.865C492.57 393.865 485.403 394.102 478.789 394.321C461.868 394.88 448.57 395.32 427 391.365C427 390.654 401 388.865 384.5 388.865C372.768 388.865 360.132 390.132 345.719 391.577C336.176 392.534 325.854 393.569 314.5 394.365C303.31 396.054 292.973 397.794 283.387 399.407C270.271 401.615 258.561 403.585 248 404.865C231.5 406.865 204.346 409.845 175 405.865C148.957 402.334 134.338 395.861 122.771 390.74C121.304 390.091 119.886 389.463 118.5 388.865C108.813 384.691 94.5 372.31 92 363.865C83.9785 355.347 67.9498 356.368 51.8007 357.397C37.7512 358.292 23.6105 359.193 14.5718 353.824C13.0598 352.413 2.64966 353.238 0 354.566V22.3279L46 27.3655L105 30.3655C106.319 30.2772 107.526 30.2168 108.633 30.1614C116.406 29.7726 119.205 29.6324 120.5 21.8655C120.773 18.4092 118.991 13.0177 117.538 8.62012C116.307 4.896 115.312 1.88477 116 1.36548C116.423 1.04602 120.199 0.656128 126.982 0.365479Z" fill="url(#paint0_linear_208_79)"/>
<defs>
<linearGradient id="paint0_linear_208_79" x1="864" y1="0.365479" x2="864" y2="440.36" gradientUnits="userSpaceOnUse">
<stop offset="0.15682" stop-color="#271973"/>
<stop offset="0.927284" stop-color="#B2A9E0"/>
</linearGradient>
</defs>
</svg>
