<svg width="1728" height="575" viewBox="0 0 1728 575" fill="none" xmlns="http://www.w3.org/2000/svg">
<path d="M1728 469.902L1728 562.655L1725.5 562.424L1722.48 562.655C1715.94 564.195 1708 566 1691 566.572C1686.96 566.708 1671.84 566.923 1668.43 566.572C1662.99 566.01 1661.5 564.5 1662 560C1669.93 527 1659 544.5 1639.5 546.5C1630.5 547.5 1623 549.5 1605.5 551.5C1589.11 553.374 1564.02 553.736 1555.5 553.5C1528.44 551.09 1516 542.5 1521.02 562.44C1521.02 570.761 1499 566.49 1479 569.5C1457 574.99 1459.3 574.109 1443.48 574.995C1425 574.995 1393.5 551.349 1365.5 551.349C1337.5 551.349 1296.2 562.556 1271.54 563.168C1238 564 1224.52 556.123 1220.6 556.123C1216.84 556.123 1185 577.304 1149 537.522C1131.5 533.39 1119 549.304 1092.96 546.133C1066.92 542.963 1078 533.534 1044.5 537.991C1029.5 542.214 977.728 549.332 977.989 550.266C978.413 551.779 977.851 551.977 972.832 552.083C959.536 552.363 948.556 551.965 942.971 551.001C924.5 545.498 888 538.93 884.395 547.109C884.601 548.784 883.794 549.383 879.36 550.847C875.077 552.261 870.769 552.655 856.533 552.935C799.5 547.109 737.069 548.203 732.703 549.304C678 556 664.278 549.45 637.5 543.5C614.329 538.352 586.782 533.428 561.5 532.5C522.5 531.069 514.5 528.5 501 528.5C471 528.5 457 531.5 427 526C427 525.289 401 523.5 384.5 523.5C365 523.5 343 527 314.5 529C288 533 266.28 537.284 248 539.5C231.5 541.5 204.346 544.479 175 540.5C145.654 536.521 130.813 528.807 118.5 523.5C108.813 519.325 94.5 506.945 92 498.5C77 482.571 34 500 14.5718 488.458C13.0598 487.048 2.6496 487.873 0 489.201V396.513V135L864 135L1728 135V469.902Z" fill="url(#paint0_linear_210_76)"/>
<path d="M0 62.59V156.962L46 162L105 165C115.578 164.292 119.021 165.373 120.5 156.5C120.773 153.044 118.991 147.652 117.538 143.255C116.307 139.531 115.312 136.519 116 136C117.5 134.868 161.112 132.852 231.5 137.5C240.81 138.387 248.681 142.824 255.937 146.915C265.049 152.051 273.193 156.642 282 152.971C286.495 153.167 298.024 147.826 307.022 143.658C311.577 141.548 315.483 139.739 317.5 139.1C323.672 137.145 353 140.5 378.5 149.1C395.63 154.877 471.142 161.185 471.5 152.971C477 128 552 142.435 552 142.85C556.5 151 585.5 155 626 151C661.842 146.012 719 150 734.5 156C746.5 159 748 160 745.5 178C751.786 182.024 762.401 181.441 770.858 180.977C773.305 180.843 775.571 180.718 777.5 180.718C783.048 180.938 789.916 181.177 797.182 181.431C819.383 182.205 845.299 183.109 848.64 183.967C870.098 183.967 886.181 178.191 898.692 173.698C906.797 170.787 913.403 168.415 919 168.5C922.401 168.5 925.642 168.442 928.681 168.388C943.512 168.123 953.5 167.945 953.5 175C951.249 182.466 960.026 183.336 965.008 183.83C965.558 183.885 966.062 183.935 966.5 183.989C969.073 184.304 977.378 183.609 986.996 182.803C998.713 181.822 1012.38 180.678 1020 181C1041.62 181.698 1069.5 184.53 1096.28 192.754C1115.94 198.79 1183.04 184.045 1183.9 183.291C1184.84 182.466 1207.93 174.092 1221.5 170.5C1238.5 166 1274.5 163.5 1286.5 163.5C1294.14 163.5 1294.51 170.363 1295.23 183.727C1295.31 185.235 1295.4 186.827 1295.5 188.5C1295.95 195.878 1336.07 187.878 1349.84 185.132L1350.5 185C1382 178.724 1410.65 178.5 1424.5 178.5C1437.62 178.5 1450.58 181.957 1462.37 185.104C1470.79 187.352 1478.62 189.442 1485.5 190C1502.61 191.387 1534.58 181.617 1540.78 179.721C1541.28 179.567 1541.62 179.465 1541.76 179.425C1541.83 179.405 1542.19 179.253 1542.78 178.997C1548.5 176.522 1576.68 164.327 1593 167.5C1607.64 173.358 1643.18 165.159 1660.34 161.198L1660.35 161.198C1663.69 160.425 1666.34 159.814 1668 159.5C1668.93 159.324 1673.07 158.35 1678.78 157.006L1678.78 157.006C1695.52 153.067 1725.74 145.957 1728 146.5V72.6788V0.634521H864H0V62.59Z" fill="white"/>
<defs>
<linearGradient id="paint0_linear_210_76" x1="864" y1="135" x2="864" y2="574.995" gradientUnits="userSpaceOnUse">
<stop offset="0.15682" stop-color="#271973"/>
<stop offset="0.927284" stop-color="#B2A9E0"/>
</linearGradient>
</defs>
</svg>
