<svg width="1728" height="440" viewBox="0 0 1728 440" fill="none" xmlns="http://www.w3.org/2000/svg">
<path d="M1728 334.902L1728 427.655L1725.5 427.424L1722.48 427.655C1715.94 429.195 1708 431 1691 431.572C1686.96 431.708 1671.84 431.923 1668.43 431.572C1662.99 431.01 1661.5 429.5 1662 425C1669.93 392 1659 409.5 1639.5 411.5C1630.5 412.5 1623 414.5 1605.5 416.5C1589.11 418.374 1564.02 418.736 1555.5 418.5C1528.44 416.09 1516 407.5 1521.02 427.44C1521.02 435.761 1499 431.49 1479 434.5C1457 439.99 1459.3 439.109 1443.48 439.995C1425 439.995 1393.5 416.349 1365.5 416.349C1337.5 416.349 1296.2 427.556 1271.54 428.168C1238 429 1224.52 421.123 1220.6 421.123C1216.84 421.123 1185 442.304 1149 402.522C1131.5 398.39 1119 414.304 1092.96 411.133C1066.92 407.963 1078 398.534 1044.5 402.991C1029.5 407.214 977.728 414.332 977.989 415.266C978.413 416.779 977.851 416.977 972.832 417.083C959.536 417.363 948.556 416.965 942.971 416.001C924.5 410.498 888 403.93 884.395 412.109C884.601 413.784 883.794 414.383 879.36 415.847C875.077 417.261 870.769 417.655 856.533 417.935C799.5 412.109 737.069 413.203 732.703 414.304C678 421 664.278 414.45 637.5 408.5C614.329 403.352 586.782 398.428 561.5 397.5C522.5 396.069 514.5 393.5 501 393.5C471 393.5 457 396.5 427 391C427 390.289 401 388.5 384.5 388.5C365 388.5 343 392 314.5 394C288 398 266.28 402.284 248 404.5C231.5 406.5 204.346 409.479 175 405.5C145.654 401.521 130.813 393.807 118.5 388.5C108.813 384.325 94.5 371.945 92 363.5C77 347.571 34 365 14.5718 353.458C13.0598 352.048 2.64966 352.873 0 354.201V261.513V0L864 0L1728 0V334.902Z" fill="url(#paint0_linear_36_113)"/>
<defs>
<linearGradient id="paint0_linear_36_113" x1="864" y1="0" x2="864" y2="439.995" gradientUnits="userSpaceOnUse">
<stop offset="0.15682" stop-color="#271973"/>
<stop offset="0.927284" stop-color="#B2A9E0"/>
</linearGradient>
</defs>
</svg>
