<svg width="1728" height="180" viewBox="0 0 1728 180" fill="none" xmlns="http://www.w3.org/2000/svg">
<path d="M0 88.093L0 5.3399L2.5 5.57101L5.52 5.3399C12.0643 3.80002 20 1.99469 37 1.42297C41.0398 1.28711 56.1638 1.07149 59.569 1.42297C65.0122 1.98482 70.5 2.99469 75.5 4.49469C82.5711 6.61601 86.5 13 106 11C115 10 128 6.49469 145.5 4.49469C161.893 2.62117 171.985 4.25827 180.5 4.49469C200.5 7 204 9.5 222.5 4.49469C232.478 1.79512 245.5 7.42297 255 4.49469C276.669 -2.18445 294.984 1.99469 310 4.49469C328.233 7.53024 334.5 6.6452 362.5 6.6452C390.5 6.6452 428.797 1.93907 453.463 1.32697C487 0.49469 508.619 7.02399 519.5 10C531 13.1452 553.797 15.5 590 15.5C610 15.5 609 8.69095 635.04 11.8615C661.08 15.032 650 24.461 683.5 20.0034C698.5 15.7812 721 11.8615 731.5 10.886C739 10.1893 752.619 9.90979 757.638 9.80371C770.934 9.52414 781.915 9.92145 787.5 10.886C805.971 16.3893 817 13.5 826.5 13.5C828.188 13.5 844 10.886 855.5 9.80371C867.236 8.69919 900.385 4 922.5 4C966 4 983.5 13.5 1016.5 13.5C1041.76 13.5 1063.72 8.54506 1090.5 14.4947C1113.67 19.6427 1141.22 24.5669 1166.5 25.4947C1205.5 26.9259 1213.5 29.4947 1227 29.4947C1257 29.4947 1271 26.4947 1301 31.9947C1301 32.7057 1327 34.4947 1343.5 34.4947C1363 34.4947 1385 30.9947 1413.5 28.9947C1440 24.9947 1461.72 20.7105 1480 18.4947C1496.5 16.4947 1523.65 13.5156 1553 17.4947C1582.35 21.4738 1590.09 23 1603.5 23C1615.5 23 1650.01 17.4947 1660 15C1688 8.00531 1697.07 -6.5419 1716.5 5C1718.01 6.41043 1725.35 10.8277 1728 9.5V181.482V182.995L864 182.995L0 182.995L0 88.093Z" fill="url(#paint0_linear_131_87)"/>
<defs>
<linearGradient id="paint0_linear_131_87" x1="864" y1="188" x2="864" y2="-17" gradientUnits="userSpaceOnUse">
<stop stop-color="#DDD8F4"/>
<stop offset="1" stop-color="#271973"/>
</linearGradient>
</defs>
</svg>
