<svg width="171" height="157" viewBox="0 0 171 157" fill="none" xmlns="http://www.w3.org/2000/svg">
<path d="M171 80C171 130 143 157 98 157C43 157 0 136 0 86C0 41.8172 46.8172 0 91 0C135.183 0 171 35.8172 171 80Z" fill="#FAF8EF"/>
<mask id="mask0_217_79" style="mask-type:alpha" maskUnits="userSpaceOnUse" x="0" y="0" width="171" height="157">
<path d="M171 80C171 130 143 157 98 157C43 157 0 136 0 86C0 41.8172 46.8172 0 91 0C135.183 0 171 35.8172 171 80Z" fill="#D9D9D9"/>
</mask>
<g mask="url(#mask0_217_79)">
<path opacity="0.6" d="M78.4912 169.287V171.193C78.4912 171.25 78.48 171.305 78.4583 171.357C78.4366 171.409 78.4048 171.457 78.3648 171.496C78.3247 171.536 78.2772 171.567 78.225 171.588C78.1727 171.609 78.1169 171.62 78.0605 171.619H24.2458C23.7866 171.62 23.3342 171.508 22.9284 171.293C22.5226 171.078 22.1758 170.767 21.9187 170.387C21.6615 170.006 21.5017 169.568 21.4534 169.112C21.4052 168.655 21.4699 168.194 21.6419 167.768L32.2158 141.586L38.6957 125.532L66.2541 125.72L65.3135 131.2L62.67 146.625L59.2345 166.669C59.1884 166.938 59.2016 167.214 59.2731 167.477C59.3446 167.741 59.4727 167.985 59.6486 168.194C59.8244 168.403 60.0436 168.571 60.291 168.686C60.5384 168.801 60.808 168.861 61.081 168.862H78.0605C78.1169 168.861 78.1727 168.872 78.225 168.893C78.2772 168.914 78.3247 168.945 78.3648 168.985C78.4048 169.024 78.4366 169.071 78.4583 169.123C78.48 169.175 78.4912 169.231 78.4912 169.287Z" fill="white"/>
<path opacity="0.2" d="M61.081 168.877H26.0675C25.8656 168.876 25.6668 168.827 25.4888 168.731C25.3108 168.636 25.159 168.498 25.0469 168.331C24.9347 168.163 24.8658 167.97 24.8461 167.769C24.8264 167.568 24.8565 167.365 24.9339 167.179L39.8838 131.215H65.3135L59.2345 166.684C59.1884 166.953 59.2016 167.228 59.2731 167.492C59.3446 167.755 59.4728 168 59.6486 168.209C59.8244 168.418 60.0436 168.586 60.291 168.701C60.5384 168.816 60.808 168.876 61.081 168.877Z" fill="black"/>
<path opacity="0.1" d="M66.2541 125.735L65.3136 131.215L62.6701 146.64L32.2158 141.6L38.6958 125.547L66.2541 125.735Z" fill="black"/>
<path d="M119.841 47.0148H-7.74306C-8.17188 47.0148 -8.59649 47.0993 -8.99261 47.2636C-9.38873 47.4278 -9.74858 47.6686 -10.0516 47.972C-10.3546 48.2755 -10.5948 48.6357 -10.7584 49.032C-10.9221 49.4284 -11.006 49.8532 -11.0053 50.282V136.64C-11.0053 137.505 -10.6616 138.335 -10.0498 138.947C-9.43803 139.559 -8.60826 139.902 -7.74306 139.902H119.841C120.27 139.903 120.695 139.819 121.091 139.655C121.487 139.492 121.848 139.252 122.151 138.949C122.455 138.646 122.695 138.286 122.86 137.89C123.024 137.493 123.108 137.069 123.108 136.64V50.2671C123.106 49.4028 122.76 48.5748 122.148 47.965C121.535 47.3552 120.706 47.0135 119.841 47.0148Z" fill="#5C4CB1"/>
<path opacity="0.7" d="M119.841 47.0148H-7.74306C-8.17188 47.0148 -8.59649 47.0993 -8.99261 47.2636C-9.38873 47.4278 -9.74858 47.6686 -10.0516 47.972C-10.3546 48.2755 -10.5948 48.6357 -10.7584 49.032C-10.9221 49.4284 -11.006 49.8532 -11.0053 50.282V136.64C-11.0053 137.505 -10.6616 138.335 -10.0498 138.947C-9.43803 139.559 -8.60826 139.902 -7.74306 139.902H119.841C120.27 139.903 120.695 139.819 121.091 139.655C121.487 139.492 121.848 139.252 122.151 138.949C122.455 138.646 122.695 138.286 122.86 137.89C123.024 137.493 123.108 137.069 123.108 136.64V50.2671C123.106 49.4028 122.76 48.5748 122.148 47.965C121.535 47.3552 120.706 47.0135 119.841 47.0148Z" fill="white"/>
<path d="M120.168 50.1979H-5.35706V133.487H120.168V50.1979Z" fill="#5C4CB1"/>
<path opacity="0.1" d="M107.084 50.1979C89.7284 67.5833 45.1509 106.285 -5.35706 103.448V50.1979H107.084Z" fill="white"/>
<path opacity="0.1" d="M120.168 82.162V133.487H44.5965C47.4924 123.121 53.2843 108.923 64.5264 98.7753C84.7435 80.5235 108.203 80.5779 120.168 82.162Z" fill="white"/>
<path opacity="0.8" d="M69.6252 73H45.1856C44.5732 73 44.0767 73.4965 44.0767 74.1089V74.3168C44.0767 74.9292 44.5732 75.4256 45.1856 75.4256H69.6252C70.2377 75.4256 70.7341 74.9292 70.7341 74.3168V74.1089C70.7341 73.4965 70.2377 73 69.6252 73Z" fill="white"/>
<path opacity="0.75" d="M73.1202 100.396H41.6907C41.2314 100.396 40.8591 100.768 40.8591 101.228V104.089C40.8591 104.548 41.2314 104.92 41.6907 104.92H73.1202C73.5795 104.92 73.9519 104.548 73.9519 104.089V101.228C73.9519 100.768 73.5795 100.396 73.1202 100.396Z" fill="white"/>
<path opacity="0.75" d="M73.1202 90.9204H41.6907C41.2314 90.9204 40.8591 91.2928 40.8591 91.7521V94.6133C40.8591 95.0727 41.2314 95.445 41.6907 95.445H73.1202C73.5795 95.445 73.9519 95.0727 73.9519 94.6133V91.7521C73.9519 91.2928 73.5795 90.9204 73.1202 90.9204Z" fill="white"/>
<path opacity="0.75" d="M73.1202 81.3959H41.6907C41.2314 81.3959 40.8591 81.7682 40.8591 82.2275V85.0888C40.8591 85.5481 41.2314 85.9205 41.6907 85.9205H73.1202C73.5795 85.9205 73.9519 85.5481 73.9519 85.0888V82.2275C73.9519 81.7682 73.5795 81.3959 73.1202 81.3959Z" fill="white"/>
<path d="M73.1153 100.935H70.353C70.1917 100.935 70.0609 101.066 70.0609 101.227V104.084C70.0609 104.245 70.1917 104.376 70.353 104.376H73.1153C73.2766 104.376 73.4073 104.245 73.4073 104.084V101.227C73.4073 101.066 73.2766 100.935 73.1153 100.935Z" fill="#5C4CB1"/>
</g>
</svg>
