<svg width="166" height="169" viewBox="0 0 166 169" fill="none" xmlns="http://www.w3.org/2000/svg">
<path d="M166 83C166 127.183 129.183 169 85 169C40.8172 169 0 133.183 0 89C0 44.8172 40.8172 0 85 0C129.183 0 166 38.8172 166 83Z" fill="#FAF8EF"/>
<mask id="mask0_217_80" style="mask-type:alpha" maskUnits="userSpaceOnUse" x="0" y="0" width="166" height="169">
<path d="M166 83C166 127.183 129.183 169 85 169C40.8172 169 0 133.183 0 89C0 44.8172 40.8172 0 85 0C129.183 0 166 38.8172 166 83Z" fill="#FFFAE4"/>
</mask>
<g mask="url(#mask0_217_80)">
<path d="M132.757 141.957H79.0992V169.659C79.0992 170.014 79.1691 170.366 79.3049 170.693C79.4407 171.021 79.6398 171.319 79.8908 171.57C80.1418 171.821 80.4398 172.02 80.7677 172.156C81.0956 172.292 81.4471 172.362 81.8021 172.362H130.054C130.409 172.362 130.76 172.292 131.088 172.156C131.416 172.02 131.714 171.821 131.965 171.57C132.216 171.319 132.415 171.021 132.551 170.693C132.687 170.366 132.757 170.014 132.757 169.659V141.957Z" fill="#5C4CB1"/>
<path d="M132.757 141.957H94.7862L99.4568 135.979C99.9706 135.323 101.241 134.793 102.298 134.793H136.445C137.498 134.793 137.941 135.323 137.427 135.979L132.757 141.957Z" fill="#5C4CB1"/>
<path opacity="0.2" d="M132.757 141.957H94.7862L99.4568 135.979C99.9706 135.323 101.241 134.793 102.298 134.793H136.445C137.498 134.793 137.941 135.323 137.427 135.979L132.757 141.957Z" fill="black"/>
<path d="M79.0993 141.957H117.066L112.395 138.059C111.881 137.642 110.611 137.287 109.554 137.287H75.4104C74.3535 137.287 73.9148 137.633 74.4287 138.059L79.0993 141.957Z" fill="#5C4CB1"/>
<path opacity="0.2" d="M117.066 141.957H79.0993V169.659C79.0993 170.014 79.1692 170.366 79.305 170.693C79.4409 171.021 79.64 171.319 79.891 171.57C80.1419 171.821 80.4399 172.02 80.7678 172.156C81.0958 172.292 81.4473 172.362 81.8022 172.362H114.363C114.718 172.362 115.069 172.292 115.397 172.156C115.725 172.02 116.023 171.821 116.274 171.57C116.525 171.319 116.724 171.021 116.86 170.693C116.996 170.366 117.066 170.014 117.066 169.659V141.957Z" fill="white"/>
<path d="M63.2698 138.498C62.3138 152.724 62.1317 176.551 62.1317 176.551L55.3826 176.847C53.2207 166.973 51.9071 156.932 51.4561 146.835C51.4106 145.393 51.3897 143.953 51.3935 142.515C50.0504 134.07 48.2188 125.71 45.9078 117.477C44.2348 111.365 42.7609 106.505 41.9642 101.856L61.8813 95.386C63.008 98.8743 64.9258 113.852 63.2698 138.498Z" fill="#263238"/>
<path opacity="0.4" d="M51.4733 146.834C51.4277 145.393 51.4069 143.953 51.4107 142.515C50.0676 134.07 48.2359 125.71 45.9249 117.477C48.0703 111.365 50.8018 106.778 53.7495 106.244C53.7495 106.255 58.9848 132.813 51.4733 146.834Z" fill="black"/>
<path d="M56.0598 56.5874C63.0592 57.7654 65.3355 65.9257 68.6531 70.8594C70.3603 72.191 72.6365 72.8852 74.7079 73.7047C77.041 74.5697 79.5961 75.446 81.9634 76.2598C82.1284 76.2939 82.2821 76.3907 82.3105 76.954C82.4958 78.6131 82.1083 80.2857 81.2122 81.6943C80.8992 82.178 80.7115 82.1951 80.5351 82.1438L80.0001 82.0585C76.0016 81.4425 72.0707 80.4479 68.2604 79.088C66.5021 78.4051 64.8461 77.7564 63.321 76.4134C60.2709 73.3405 58.6661 68.9531 55.8493 65.9029C55.5976 65.6179 55.313 65.3639 55.0014 65.1461C54.7965 65.0152 54.7794 65.0891 55.0526 65.1461C49.4189 64.2697 50.3522 56.1435 56.0598 56.6102V56.5874Z" fill="#5C4CB1"/>
<path opacity="0.5" d="M56.0598 56.5874C63.0592 57.7654 65.3355 65.9257 68.6531 70.8594C70.3603 72.191 72.6365 72.8852 74.7079 73.7047C77.041 74.5697 79.5961 75.446 81.9634 76.2598C82.1284 76.2939 82.2821 76.3907 82.3105 76.954C82.4958 78.6131 82.1083 80.2857 81.2122 81.6943C80.8992 82.178 80.7115 82.1951 80.5351 82.1438L80.0001 82.0585C76.0016 81.4425 72.0707 80.4479 68.2604 79.088C66.5021 78.4051 64.8461 77.7564 63.321 76.4134C60.2709 73.3405 58.6661 68.9531 55.8493 65.9029C55.5976 65.6179 55.313 65.3639 55.0014 65.1461C54.7965 65.0152 54.7794 65.0891 55.0526 65.1461C49.4189 64.2697 50.3522 56.1435 56.0598 56.6102V56.5874Z" fill="white"/>
<path opacity="0.1" d="M61.9894 62.3407C61.9894 62.3407 70.127 79.5832 62.6211 79.0141C56.8679 78.6215 61.9894 62.3407 61.9894 62.3407Z" fill="black"/>
<path d="M37.0249 58.71C42.4739 57.3785 48.0463 56.6157 53.6528 56.4338C55.9624 56.3818 58.2094 57.1878 59.9594 58.696C61.7094 60.2043 62.8381 62.3077 63.1276 64.5998C64.1974 73.1356 62.3252 76.1403 62.5927 89.3993C63.9641 90.7765 63.3837 93.0811 62.4276 93.4453C54.3925 96.4841 41.7765 95.7216 37.5711 95.2834C35.7217 95.0899 36.433 92.5576 36.433 92.5576C35.864 88.1474 36.7858 88.3807 35.864 82.9519C34.4299 77.6597 34.4812 73.5283 32.5065 66.5061C32.2829 65.6974 32.2227 64.8523 32.3296 64.0201C32.4365 63.1879 32.7082 62.3854 33.1289 61.6594C33.5497 60.9335 34.1109 60.2988 34.7798 59.7924C35.4488 59.2859 36.212 58.918 37.0249 58.71Z" fill="#5C4CB1"/>
<path opacity="0.5" d="M62.5925 89.4164C63.964 90.7935 63.3835 93.0982 62.4275 93.4624C54.3924 96.5012 41.7764 95.7387 37.571 95.3005C35.7216 95.107 36.4329 92.5747 36.4329 92.5747C36.2307 91.1654 36.1754 89.7389 36.2679 88.3181C36.3417 86.5244 36.1984 84.7283 35.8411 82.969C35.1198 80.0201 34.55 77.0362 34.1339 74.0291C33.7233 71.498 33.1704 68.9921 32.4779 66.5232C32.2522 65.7111 32.1915 64.862 32.2993 64.0261C32.407 63.1901 32.6812 62.3842 33.1055 61.656C33.5299 60.9277 34.0958 60.2918 34.7699 59.7858C35.444 59.2799 36.2126 58.9141 37.0304 58.71C42.4795 57.3785 48.0519 56.6157 53.6583 56.4338C55.968 56.3818 58.2149 57.1878 59.9649 58.696C61.7149 60.2043 62.8437 62.3077 63.1331 64.5998C64.1973 73.1356 62.3251 76.1687 62.5925 89.4164Z" fill="white"/>
<path d="M40.1091 58.1638C43.256 61.0773 51.1716 63.2853 52.4748 65.6127C53.2828 59.9221 52.8105 57.1736 50.54 57.1451C43.9674 57.1451 40.1091 58.1638 40.1091 58.1638Z" fill="white"/>
<path d="M62.547 97.7247C62.5925 96.144 62.4723 94.5629 62.1885 93.0072C62.1487 92.5121 39.1701 93.3373 37.2694 93.5763C34.8908 93.8551 37.7588 104.593 39.9155 108.161C56.606 107.951 62.2511 100.638 62.547 97.7247Z" fill="#263238"/>
<path d="M46.9548 93.2405C46.7841 93.599 46.9548 96.3703 46.9548 96.3703L45.7314 96.3248C45.7314 96.3248 45.3615 94.0087 45.5322 93.3486C46.0012 93.262 46.4781 93.2258 46.9548 93.2405Z" fill="#263238"/>
<path d="M57.1466 93.1893C57.3358 94.1252 57.3933 95.0829 57.3173 96.0346H58.4042C58.4042 96.0346 58.5806 93.7584 58.3644 93.1893C57.9654 93.0829 57.5456 93.0829 57.1466 93.1893Z" fill="#263238"/>
<path opacity="0.1" d="M59.3148 83.9648L56.9703 91.3626C56.9703 91.3626 44.451 92.404 36.285 88.301C36.3588 86.5073 36.2155 84.7112 35.8582 82.9519C35.1369 80.003 34.5671 77.0191 34.151 74.012C36.1768 71.9713 38.4386 70.1793 40.8887 68.6742C40.8887 68.6742 44.303 80.0554 45.3728 80.5618C46.4427 81.0683 59.3148 83.9648 59.3148 83.9648Z" fill="black"/>
<path d="M36.3817 142.18C37.241 121.443 36.4272 108.44 36.7117 98.6921L55.9687 98.0604C56.367 101.691 55.2915 116.748 48.7985 140.581C45.0598 154.312 40.183 177.666 40.183 177.666L33.5136 176.625C33.5136 176.625 32.9844 158.637 36.3817 142.18Z" fill="#263238"/>
<path d="M90.2091 74.3705L60.2879 75.3094L51.5415 79.0368L54.3982 100.149L84.325 99.2099L93.0657 95.4826L90.2091 74.3705Z" fill="#5C4CB1"/>
<path opacity="0.2" d="M84.325 99.2099L54.3982 100.149L63.1389 96.4215L93.0657 95.4825L84.325 99.2099Z" fill="black"/>
<path opacity="0.2" d="M60.288 75.3094L63.1389 96.4215L93.0657 95.4826L90.2091 74.3705L60.288 75.3094Z" fill="white"/>
<path d="M41.5373 48.0345C42.0434 51.2884 41.8317 54.6135 40.917 57.7768C40.8831 57.8961 40.8868 58.0229 40.9275 58.14C40.9683 58.2571 41.0441 58.3588 41.1447 58.4313C43.579 60.0346 46.5171 60.6887 49.4017 60.2693C52.9242 59.8653 52.5827 58.7898 51.5869 57.663C51.4446 57.5021 51.2675 57.3756 51.0691 57.2931C48.4798 56.155 48.1498 54.2771 48.6733 53.0366L41.5373 48.0345Z" fill="#FFC3BD"/>
<path opacity="0.2" d="M41.5374 48.0402L48.679 53.0365C48.5141 53.4327 48.4446 53.8622 48.4763 54.2902C48.5079 54.7182 48.6397 55.1328 48.8611 55.5005C47.5179 55.7117 46.1443 55.409 45.0143 54.6526C43.1876 53.469 42.4137 51.887 41.7024 49.6051C41.6625 49.11 41.6056 48.5921 41.5374 48.0402Z" fill="black"/>
<path d="M50.3749 38.9011C51.5699 40.1416 50.3749 41.9057 50.5342 43.1861C50.6935 44.4665 51.0008 46.1281 49.2367 44.4665C47.4727 42.8048 48.5197 37.1939 50.3749 38.9011Z" fill="#263238"/>
<path d="M39.2442 45.2746C40.0807 49.5312 39.5572 50.2994 42.0212 52.1887C45.7258 55.034 51.1262 54.9714 51.3424 50.5271C51.5131 46.5436 50.9725 39.3792 46.5452 38.2695C45.5645 38.0243 44.5376 38.0319 43.5606 38.2917C42.5836 38.5514 41.6885 39.0548 40.9591 39.7547C40.2296 40.4546 39.6897 41.3281 39.3897 42.2935C39.0898 43.2589 39.0398 44.2846 39.2442 45.2746Z" fill="#FFC3BD"/>
<path d="M39.1669 36.8832C44.8146 34.7239 50.2165 34.4535 52.7681 37.8959C51.8014 37.802 49.9819 38.5998 49.9819 38.5998C49.9115 40.394 41.1464 47.4301 37.4107 41.6166C35.7467 42.737 34.7528 39.4418 39.1669 36.8832Z" fill="#263238"/>
<path d="M40.0636 48.1255C42.0781 49.1669 42.5277 46.4183 42.3797 46.1964C41.7367 45.3087 41.7139 44.5234 42.3 42.7138C42.8862 40.9042 39.21 39.0945 36.6891 40.0278C34.3673 40.8871 36.8883 42.5715 36.6891 44.1364C36.3135 46.9191 38.4418 47.2833 40.0636 48.1255Z" fill="#263238"/>
<path d="M37.6622 48.4044C38.1625 49.2794 38.9759 49.9321 39.9384 50.2311C41.1562 50.5782 41.6456 49.3718 41.2017 48.1199C40.8091 46.9818 39.7051 45.4567 38.5328 45.6672C37.3606 45.8778 37.0248 47.2891 37.6622 48.4044Z" fill="#FFC3BD"/>
<path d="M44.4908 45.0186C44.5534 45.3828 44.7241 45.3942 44.9632 45.3543C45.2022 45.3145 45.4127 45.2291 45.3501 44.8649C45.2875 44.5007 45.0485 44.239 44.8095 44.2959C44.5705 44.3528 44.4282 44.6544 44.4908 45.0186Z" fill="#263238"/>
<path d="M49.0035 44.7056C49.0661 45.0698 49.2368 45.0812 49.4759 45.0356C49.7149 44.9901 49.9254 44.9161 49.8628 44.5519C49.8002 44.1877 49.5555 43.926 49.3222 43.9829C49.0889 44.0398 48.9409 44.3414 49.0035 44.7056Z" fill="#263238"/>
<path d="M48.2638 44.6316C48.6947 45.4614 49.2386 46.2274 49.8799 46.9078C49.7029 47.0682 49.4932 47.1884 49.2653 47.2601C49.0374 47.3318 48.7967 47.3533 48.5597 47.3232L48.2638 44.6316Z" fill="#D58745"/>
<path d="M43.5975 43.4707C43.5588 43.466 43.5218 43.4524 43.4893 43.4309C43.4662 43.4145 43.4465 43.3936 43.4313 43.3696C43.4162 43.3455 43.406 43.3187 43.4012 43.2907C43.3965 43.2627 43.3973 43.234 43.4036 43.2063C43.41 43.1786 43.4217 43.1525 43.4381 43.1293C43.6246 42.8424 43.8767 42.604 44.1736 42.4338C44.4704 42.2637 44.8035 42.1665 45.1453 42.1505C45.1739 42.1505 45.2023 42.1563 45.2286 42.1676C45.2549 42.1788 45.2787 42.1954 45.2984 42.2161C45.3181 42.2369 45.3333 42.2615 45.3432 42.2884C45.3531 42.3152 45.3574 42.3439 45.3559 42.3724C45.3529 42.4293 45.3283 42.4829 45.287 42.5221C45.2457 42.5613 45.1909 42.5831 45.1339 42.583C44.8604 42.5961 44.5941 42.6748 44.3574 42.8125C44.1206 42.9501 43.9205 43.1427 43.7739 43.374C43.7539 43.4026 43.7275 43.4261 43.6969 43.4429C43.6664 43.4597 43.6323 43.4692 43.5975 43.4707Z" fill="#263238"/>
<path d="M50.5399 42.7764C50.5059 42.7857 50.4702 42.7869 50.4356 42.7799C50.4011 42.773 50.3686 42.7582 50.3407 42.7366C50.1363 42.5564 49.8917 42.4277 49.6274 42.3614C49.363 42.2951 49.0867 42.293 48.8214 42.3553C48.7663 42.3711 48.7072 42.3644 48.657 42.3367C48.6069 42.3089 48.5698 42.2624 48.5539 42.2074C48.5379 42.153 48.5438 42.0946 48.5704 42.0445C48.597 41.9945 48.6421 41.957 48.6962 41.9399C49.0291 41.8538 49.3781 41.8508 49.7125 41.9312C50.0469 42.0116 50.3564 42.1728 50.6139 42.4008C50.6367 42.418 50.6557 42.4397 50.6696 42.4646C50.6835 42.4894 50.6921 42.517 50.6948 42.5453C50.6974 42.5737 50.6942 42.6024 50.6851 42.6294C50.6761 42.6565 50.6615 42.6813 50.6423 42.7024C50.6163 42.7367 50.5807 42.7625 50.5399 42.7764Z" fill="#263238"/>
<path d="M48.2637 49.6108C46.1354 49.6108 45.4184 48.3646 45.3729 48.302C45.3595 48.2777 45.3509 48.251 45.3478 48.2234C45.3447 48.1958 45.347 48.1679 45.3546 48.1412C45.3623 48.1145 45.3752 48.0896 45.3924 48.0679C45.4097 48.0462 45.4311 48.0281 45.4554 48.0146C45.4797 48.0012 45.5064 47.9926 45.534 47.9895C45.5616 47.9864 45.5895 47.9887 45.6162 47.9964C45.6429 48.004 45.6678 48.0169 45.6895 48.0342C45.7112 48.0515 45.7293 48.0729 45.7428 48.0971C45.7769 48.1541 46.5622 49.4458 48.9864 49.1385C49.0423 49.131 49.0988 49.1459 49.1437 49.1801C49.1885 49.2142 49.2179 49.2648 49.2254 49.3206C49.233 49.3765 49.218 49.433 49.1839 49.4778C49.1497 49.5227 49.0992 49.5521 49.0433 49.5596C48.7847 49.5924 48.5244 49.6095 48.2637 49.6108Z" fill="#263238"/>
<path d="M52.5431 87.1971L56.9704 85.2737L57.6987 91.0212C57.6987 91.0212 53.482 92.2731 52.452 90.1391L52.5431 87.1971Z" fill="#FFC3BD"/>
<path d="M61.6537 87.0719L61.5683 89.1262C61.5458 89.5207 61.3871 89.8951 61.1194 90.1856C60.8517 90.4762 60.4915 90.6649 60.1002 90.7196L57.6987 91.0155L56.9703 85.2737L60.0148 85.3363C60.4606 85.3541 60.8817 85.5456 61.188 85.87C61.4943 86.1944 61.6615 86.6258 61.6537 87.0719Z" fill="#FFC3BD"/>
<path d="M40.6725 64.2584C41.0936 69.8466 41.2416 75.6965 42.4537 81.1481C44.0129 82.5651 49.3677 84.3292 52.3439 85.3022L53.3398 85.6266L53.8348 85.7802C53.9999 85.8144 54.1763 85.8599 54.2104 86.4688C54.4388 88.1184 54.1147 89.7972 53.2885 91.2432C52.9642 91.8123 52.7821 91.7554 52.5943 91.7155C47.7004 91.0554 37.8386 89.3938 35.4713 84.4373C35.2313 83.9301 35.026 83.4073 34.8567 82.8724C33.1495 76.9371 32.6658 70.9221 32.074 64.8332C31.8179 59.0231 40.1433 58.454 40.6725 64.2641V64.2584Z" fill="#5C4CB1"/>
<path opacity="0.5" d="M40.6725 64.2584C41.0936 69.8466 41.2416 75.6965 42.4537 81.1481C44.0129 82.5651 49.3677 84.3292 52.3439 85.3022L53.3398 85.6266L53.8348 85.7802C53.9999 85.8144 54.1763 85.8599 54.2104 86.4688C54.4388 88.1184 54.1147 89.7972 53.2885 91.2432C52.9642 91.8123 52.7821 91.7554 52.5943 91.7155C47.7004 91.0554 37.8386 89.3938 35.4713 84.4373C35.2313 83.9301 35.026 83.4073 34.8567 82.8724C33.1495 76.9371 32.6658 70.9221 32.074 64.8332C31.8179 59.0231 40.1433 58.454 40.6725 64.2641V64.2584Z" fill="white"/>
</g>
</svg>
