<svg width="178" height="160" viewBox="0 0 178 160" fill="none" xmlns="http://www.w3.org/2000/svg">
<path d="M178 85C178 129.183 136.183 160 92 160C47.8172 160 0 129.183 0 85C0 40.8172 47.8172 0 92 0C136.183 0 178 40.8172 178 85Z" fill="#FAF8EF"/>
<mask id="mask0_217_81" style="mask-type:alpha" maskUnits="userSpaceOnUse" x="0" y="0" width="178" height="160">
<path d="M178 85C178 129.183 136.183 160 92 160C47.8172 160 0 129.183 0 85C0 40.8172 47.8172 0 92 0C136.183 0 178 40.8172 178 85Z" fill="#FFFAE4"/>
</mask>
<g mask="url(#mask0_217_81)">
<path d="M62.5906 54.5041C62.5906 54.5041 61.8463 52.684 57.2615 53.2239C52.6766 53.7637 52.2023 59.8332 49.9118 64.1481C47.6213 68.4631 45.1881 70.557 45.1881 70.557C45.1881 70.557 44.8526 73.1868 49.8424 74.6714C54.8321 76.156 64.6112 73.6765 64.6112 73.6765C64.6112 73.6765 65.8759 62.1893 63.998 58.6841C62.1201 55.1789 62.5906 54.5041 62.5906 54.5041Z" fill="#263238"/>
<path d="M75.9944 169.25L69.7822 169.635C69.7822 169.635 67.1485 145.697 64.2487 128.267C64.2487 128.209 64.2487 128.144 64.2218 128.078C63.0341 120.964 61.804 114.967 60.6934 112.156C60.6934 112.156 59.2667 134.472 58.8425 144.378C58.4183 154.284 56.4402 171.617 56.4402 171.617L50.6985 172.469C50.6985 172.469 49.7499 137.965 50.3129 131.448C50.8758 124.932 48.3116 100.792 52.7306 94.8156H68.7141C68.7141 94.8156 74.9031 128.726 75.3504 138.127C75.7977 147.528 75.9944 169.25 75.9944 169.25Z" fill="#263238"/>
<path opacity="0.3" d="M64.2217 128.074C63.034 120.96 61.8039 114.964 60.6934 112.153L61.4299 108.111C61.4299 108.111 63.3386 122.533 64.2217 128.074Z" fill="black"/>
<path d="M78.5663 85.8579C77.0239 86.5944 72.7822 87.4003 72.7822 87.4003C72.7822 87.4003 70.0058 80.2242 69.2732 76.1444C69.0433 74.6859 68.3466 73.3413 67.2877 72.3123C66.2288 71.2833 64.8648 70.6255 63.4003 70.4374C61.5263 70.1945 53.6136 70.2755 50.8372 70.8462C48.0608 71.4169 47.5788 75.4928 47.332 77.9414C47.0853 80.39 45.539 89.5096 46.8423 92.2089C48.1457 94.9081 52.7151 93.8362 52.7151 93.8362V94.8156H68.7025L68.3169 87.3348C68.3169 87.3348 69.8284 91.3066 72.1729 91.4685C74.5174 91.6305 79.8388 87.7204 79.8388 87.7204L78.5663 85.8579ZM50.4169 90.0418C50.4169 90.0418 50.5943 85.3836 50.9105 84.0417L51.3925 86.5289L52.0712 90.0418H50.4169Z" fill="#5C4CB1"/>
<path d="M60.5854 88.9851L63.0996 85.9427L66.6279 85.4028L67.1678 88.5378L64.4685 89.525C64.4685 89.525 63.169 91.0906 60.5739 90.8206L60.5854 88.9851Z" fill="#FFC3BD"/>
<path d="M78.5663 85.858L79.8735 83.4595L83.0625 82.1176L84.2694 85.3837L81.628 86.4132C81.628 86.4132 80.9378 87.9325 79.8735 87.7359L78.5663 85.858Z" fill="#FFC3BD"/>
<path d="M60.6394 67.5145C60.6221 67.7919 60.6221 68.07 60.6394 68.3474C60.6779 68.8757 60.5777 69.8436 61.615 70.3526C61.079 71.5094 59.7872 74.4092 59.0044 75.3925C57.8129 74.4169 55.0133 70.4798 55.0133 70.4798C55.0133 70.4798 56.9799 68.3474 55.5686 64.3294C55.5686 64.3294 53.5866 62.8795 53.9838 62.0813C54.4388 61.152 55.7306 61.6532 56.0043 62.0466C55.7151 61.6224 54.3694 56.9681 56.0043 55.256C57.0224 54.1879 58.0404 54.1763 59.9376 54.0992H60.0957C61.3103 54.0568 62.2126 54.0992 62.2126 54.0992C62.625 54.5434 62.9883 55.0308 63.2962 55.5529C64.1566 56.9575 64.6842 58.5403 64.8386 60.1802C65.1973 64.0016 64.4453 67.098 60.6394 67.5145Z" fill="#FFC3BD"/>
<path d="M61.6882 62.7638C61.6882 62.7638 59.9607 63.3499 59.3322 62.0388" stroke="#263238" stroke-width="0.5" stroke-linecap="round" stroke-linejoin="round"/>
<path d="M59.6021 57.2496C59.3132 57.2411 59.0277 57.3139 58.7781 57.4598C58.5286 57.6057 58.3251 57.8188 58.1908 58.0748" stroke="#263238" stroke-linecap="round" stroke-linejoin="round"/>
<path d="M63.998 56.8525C63.858 56.6993 63.6885 56.5759 63.4996 56.4898C63.3108 56.4036 63.1065 56.3565 62.899 56.3512" stroke="#263238" stroke-linecap="round" stroke-linejoin="round"/>
<path d="M62.4093 62.0543L62.0699 59.1661L63.7705 61.3487C63.7705 61.3487 63.6047 62.1006 62.4093 62.0543Z" fill="#FF5652"/>
<path d="M59.6175 59.1892C59.6368 59.4823 59.8103 59.7098 60.0031 59.6982C60.1959 59.6866 60.3309 59.436 60.3078 59.1391C60.2846 58.8422 60.1188 58.6185 59.9221 58.6339C59.7255 58.6494 59.5944 58.9077 59.6175 59.1892Z" fill="#263238"/>
<path d="M62.98 58.7073C63.0032 59.0042 63.1728 59.2317 63.3656 59.2163C63.5584 59.2009 63.6934 58.9541 63.6703 58.6571C63.6471 58.3602 63.4775 58.1366 63.2847 58.152C63.0919 58.1674 62.9607 58.4142 62.98 58.7073Z" fill="#263238"/>
<path d="M54.8321 59.9103C54.8321 59.9103 52.8617 57.2689 54.4889 55.5568C55.5069 54.4886 58.2448 53.7907 60.1381 53.7097C60.0957 54.157 60.1381 58.0748 54.8321 59.9103Z" fill="#263238"/>
<path d="M63.3271 55.5645C62.1165 55.4422 60.9804 54.9229 60.0957 54.0876L59.9453 53.9295C60.7048 53.8981 61.4654 53.9525 62.2127 54.0915C62.6251 54.5357 62.9884 55.0231 63.2962 55.5452L63.3271 55.5645Z" fill="#263238"/>
<path opacity="0.2" d="M60.6509 68.3475C59.8129 68.0927 59.0694 67.5948 58.5146 66.9169C59.1788 67.2483 59.8998 67.4511 60.6394 67.5146C60.6259 67.7922 60.6298 68.0704 60.6509 68.3475Z" fill="black"/>
<path opacity="0.2" d="M51.3963 86.5289L50.9143 84.0417V80.4709C50.9143 80.4709 51.4696 84.2383 51.3963 86.5289Z" fill="black"/>
<path d="M122.263 74.9768L94.1547 76.568L95.3793 98.2007L123.488 96.6095L122.263 74.9768Z" fill="#5C4CB1"/>
<path opacity="0.3" d="M122.263 74.9768L94.1547 76.568L95.3793 98.2007L123.488 96.6095L122.263 74.9768Z" fill="black"/>
<path d="M112.047 75.557L83.9388 77.1482L85.1634 98.7809L113.272 97.1897L112.047 75.557Z" fill="#5C4CB1"/>
<path opacity="0.3" d="M112.047 75.557L83.9388 77.1482L85.1634 98.7809L113.272 97.1897L112.047 75.557Z" fill="white"/>
<path d="M130.384 57.1455L128.842 59.1121C129.269 59.4104 129.761 59.6045 130.276 59.679L130.384 57.1455Z" fill="#A02724"/>
<path d="M140.233 67.4875C140.233 67.4875 134.179 69.1264 134.626 67.9387C134.851 67.2198 134.942 66.4654 134.892 65.7137C134.892 65.2201 134.83 64.8692 134.83 64.8692C132.64 64.9965 131.167 63.4116 130.512 61.4605C129.667 58.9579 129.976 56.1622 131.001 53.7869C131.082 53.5941 131.314 52.7766 131.518 52.6763L133.893 51.5812C133.893 51.5812 136.207 53.0966 137.41 54.0375C138.613 54.9784 139.581 59.3512 139.581 62.7523C139.581 66.1533 140.233 67.4875 140.233 67.4875Z" fill="#D2A588"/>
<path d="M130.203 56.4244C130.096 56.4537 130.001 56.5161 129.932 56.6027C129.863 56.6893 129.823 56.7957 129.817 56.9064C129.802 57.0094 129.818 57.1147 129.863 57.2083C129.908 57.302 129.981 57.3796 130.072 57.4309L130.203 56.4244Z" fill="#263238"/>
<path d="M130.203 54.4655C130.455 54.4599 130.703 54.5283 130.917 54.6622" stroke="#263238" stroke-linecap="round" stroke-linejoin="round"/>
<path d="M132.309 60.7239C132.309 60.7239 134.067 63.4694 136.866 64.0979C139.666 64.7265 140.549 63.7547 140.923 62.1699C141.247 60.6756 141.965 59.295 143.001 58.1711C143.969 57.1724 143.387 54.4616 142.157 52.2328C142.157 52.2328 143.476 51.1261 141.351 50.0618C139.226 48.9975 138.444 50.7675 136.6 49.734C134.757 48.7006 137.217 48.3574 135.478 51.5811C133.739 54.8048 132.779 52.4603 132.521 53.8947C132.262 55.3292 130.916 57.8202 132.309 60.7239Z" fill="#263238"/>
<path d="M132.521 54.5619C132.347 54.504 126.771 52.4873 126.717 51.5734C126.663 50.6595 131.04 52.3215 131.206 52.387L132.335 54.1724L132.521 54.5619Z" fill="#5C4CB1"/>
<path d="M143.773 56.7714C143.719 56.9372 143.387 58.0362 143.244 58.0362L142.778 58.0092C142.343 57.9732 141.911 57.9231 141.482 57.8589C141.008 57.7856 140.541 57.693 140.082 57.5851H140.063C139.597 57.4732 139.138 57.3498 138.69 57.1995C137.592 56.8679 136.515 56.4727 135.463 56.0156C134.869 55.7573 134.345 55.5066 133.92 55.2907C133.053 54.8588 132.536 54.5542 132.536 54.5542L132.459 54.4269L132.143 53.9295L131.468 52.8614L131.237 52.5028V52.4758C131.226 52.4432 131.226 52.408 131.237 52.3755C131.26 51.9668 132.096 50.8331 132.247 50.6403C132.866 49.8125 133.655 49.1263 134.56 48.6274C135.802 47.941 137.202 48.2418 138.521 48.4731C138.957 48.5637 139.382 48.7008 139.789 48.8819L140.048 48.9937L140.098 49.0169C140.144 49.0438 140.194 49.0631 140.241 49.0863L140.325 49.1287C141.305 49.5876 142.197 50.2154 142.959 50.9835C144.694 52.9308 143.989 56.1429 143.773 56.7714Z" fill="#5C4CB1"/>
<path d="M141.887 69.5582C141.887 69.5582 141.609 67.6302 141.004 67.2446C140.399 66.859 134.383 66.9168 133.446 67.5762C132.509 68.2356 132.675 70.3911 132.675 70.3911L141.887 69.5582Z" fill="#5C4CB1"/>
<path d="M131.21 57.6776C131.21 57.6776 132.235 56.3511 133.334 57.1725C134.433 57.9938 133.562 59.9411 132.27 60.4887C132.27 60.4887 130.6 61.0324 130.384 59.3319C130.168 57.6314 131.21 57.6776 131.21 57.6776Z" fill="#D2A588"/>
<path d="M127.095 103.843C127.095 103.843 124.801 125.795 124.161 135.891C123.521 145.986 125.873 171.802 125.873 171.802H131.453C131.453 171.802 132.093 146.155 133.057 138.463C134.021 130.77 137.221 120.339 137.221 120.339C137.221 120.339 139.149 136.847 141.077 143.58C143.005 150.312 149.268 170.881 149.268 170.881L155.692 169.647C155.692 169.647 147.98 143.26 147.98 135.085C147.98 126.91 148.053 110.406 146.133 103.85L127.095 103.843Z" fill="#5C4CB1"/>
<path opacity="0.3" d="M155.68 169.654L149.26 170.892C149.26 170.892 143.002 150.324 141.073 143.591C140.013 139.889 138.956 133.222 138.22 127.974C137.603 123.69 137.217 120.351 137.217 120.351C137.217 120.351 134.013 130.762 133.049 138.474C132.085 146.186 131.449 171.814 131.449 171.814H125.873C125.873 171.814 123.521 146.001 124.161 135.906C124.801 125.811 127.095 103.854 127.095 103.854H146.113C148.041 110.41 147.964 126.933 147.964 135.089C147.964 143.244 155.68 169.654 155.68 169.654Z" fill="black"/>
<path opacity="0.3" d="M138.216 127.974C137.603 123.69 137.217 120.351 137.217 120.351L137.603 114.358L138.216 127.974Z" fill="black"/>
<path opacity="0.3" d="M131.206 52.3871C131.325 53.0002 131.449 53.4706 132.463 54.5388C131.175 54.0606 126.764 52.3562 126.717 51.5734C126.671 50.7906 130.095 51.9667 131.206 52.3871Z" fill="black"/>
<path opacity="0.3" d="M131.206 52.4834C131.195 52.4509 131.195 52.4157 131.206 52.3832C131.206 52.3832 131.206 52.4256 131.206 52.5066V52.4834Z" fill="black"/>
<path opacity="0.3" d="M132.521 54.5619L132.401 54.5156C132.407 54.4995 132.415 54.484 132.424 54.4694L132.521 54.5619Z" fill="black"/>
<path d="M143.773 56.7714C143.719 56.9372 143.387 58.0362 143.244 58.0362L142.778 58.0092C142.343 57.9732 141.911 57.9231 141.482 57.8589C141.008 57.7856 140.541 57.693 140.082 57.5851H140.063C139.597 57.4732 139.138 57.3498 138.69 57.1995C137.592 56.8679 136.515 56.4727 135.463 56.0156C134.869 55.7573 134.345 55.5066 133.92 55.2907C133.053 54.8588 132.536 54.5542 132.536 54.5542L132.459 54.4269L132.143 53.9295L131.468 52.8614L131.237 52.5028V52.4758C131.226 52.4432 131.226 52.408 131.237 52.3755C131.26 51.9668 132.096 50.8331 132.247 50.6403C132.866 49.8125 133.655 49.1263 134.56 48.6274C135.802 47.941 137.202 48.2418 138.521 48.4731C138.957 48.5637 139.382 48.7008 139.789 48.8819L140.048 48.9937L140.098 49.0169C140.144 49.0438 140.194 49.0631 140.241 49.0863L140.325 49.1287C141.305 49.5876 142.197 50.2154 142.959 50.9835C144.694 52.9308 143.989 56.1429 143.773 56.7714Z" fill="#5C4CB1"/>
<path opacity="0.2" d="M136.188 64.499C135.777 64.9261 135.345 65.3316 134.892 65.7137C134.892 65.2201 134.83 64.8692 134.83 64.8692C135.296 64.7984 135.751 64.6742 136.188 64.499Z" fill="black"/>
<path d="M127.095 104.059V84.3077L123.49 82.8386C123.49 82.8386 124.18 72.2999 129.312 70.6379C134.445 68.976 143.58 68.278 146.094 70.6379C147.683 72.1379 147.895 74.5441 147.953 76.6071C148.076 80.8103 146.977 84.9209 146.734 89.1009C146.541 92.5019 146.426 95.903 146.349 99.3079C146.349 99.5701 146.248 104.059 146.241 104.059H127.095Z" fill="#263238"/>
<path d="M129.069 84.9826C129.069 84.9826 126.401 93.7976 123.763 94.349C121.126 94.9004 112.118 89.9839 112.118 89.9839H108.096L107.526 86.4479C107.526 86.4479 111.27 85.0597 113.765 86.7217C113.765 86.7217 119.591 89.2628 121.531 90.0032L124.342 83.201L129.069 84.9826Z" fill="#D2A588"/>
</g>
</svg>
