<svg width="177" height="160" viewBox="0 0 177 160" fill="none" xmlns="http://www.w3.org/2000/svg">
<path d="M177 80C177 124.183 141.183 160 97 160C52.8172 160 0 106.183 0 62C0 17.8172 52.8172 0 97 0C141.183 0 177 35.8172 177 80Z" fill="#FAF8EF"/>
<mask id="mask0_217_82" style="mask-type:alpha" maskUnits="userSpaceOnUse" x="0" y="0" width="177" height="160">
<path d="M177 80C177 124.183 141.183 160 97 160C52.8172 160 0 106.183 0 62C0 17.8172 52.8172 0 97 0C141.183 0 177 35.8172 177 80Z" fill="#FFFAE4"/>
</mask>
<g mask="url(#mask0_217_82)">
<path d="M36.3964 106.297C46.4106 96.2833 46.4106 80.0472 36.3964 70.0331C26.3823 60.019 10.1463 60.019 0.132148 70.0331C-9.88196 80.0472 -9.88196 96.2833 0.13215 106.297C10.1463 116.312 26.3823 116.312 36.3964 106.297Z" fill="#5C4CB1"/>
<path opacity="0.4" d="M36.3964 106.297C46.4106 96.2833 46.4106 80.0472 36.3964 70.0331C26.3823 60.019 10.1463 60.019 0.132148 70.0331C-9.88196 80.0472 -9.88196 96.2833 0.13215 106.297C10.1463 116.312 26.3823 116.312 36.3964 106.297Z" fill="black"/>
<path opacity="0.2" d="M39.4929 91.7862C41.4925 80.0632 33.6101 68.9387 21.8871 66.9391C10.164 64.9394 -0.960476 72.8218 -2.96013 84.5449C-4.95977 96.2679 2.92261 107.392 14.6457 109.392C26.3687 111.392 37.4932 103.509 39.4929 91.7862Z" fill="black"/>
<path d="M40.5219 90.2276C41.3211 78.8111 32.714 68.9084 21.2975 68.1093C9.88106 67.3101 -0.0216721 75.9171 -0.820826 87.3336C-1.61998 98.7501 6.98707 108.653 18.4036 109.452C29.82 110.251 39.7228 101.644 40.5219 90.2276Z" fill="#5C4CB1"/>
<path opacity="0.4" d="M40.5219 90.2276C41.3211 78.8111 32.714 68.9084 21.2975 68.1093C9.88106 67.3101 -0.0216721 75.9171 -0.820826 87.3336C-1.61998 98.7501 6.98707 108.653 18.4036 109.452C29.82 110.251 39.7228 101.644 40.5219 90.2276Z" fill="#4A3D8E"/>
<path d="M72.9842 67.773C79.364 60.2235 78.4158 48.9316 70.8663 42.5518C63.3168 36.172 52.0249 37.1202 45.6451 44.6697C39.2652 52.2192 40.2135 63.5111 47.763 69.8909C55.3124 76.2707 66.6044 75.3225 72.9842 67.773Z" fill="#5C4CB1"/>
<path opacity="0.4" d="M72.9842 67.773C79.364 60.2235 78.4158 48.9316 70.8663 42.5518C63.3168 36.172 52.0249 37.1202 45.6451 44.6697C39.2652 52.2192 40.2135 63.5111 47.763 69.8909C55.3124 76.2707 66.6044 75.3225 72.9842 67.773Z" fill="black"/>
<path opacity="0.2" d="M70.8983 65.7828C76.1864 59.386 75.2877 49.9135 68.8909 44.6254C62.4941 39.3373 53.0217 40.2361 47.7335 46.6328C42.4454 53.0296 43.3442 62.5021 49.7409 67.7902C56.1377 73.0783 65.6102 72.1795 70.8983 65.7828Z" fill="black"/>
<path d="M71.3517 65.9398C76.1899 59.6094 74.9803 50.5556 68.6499 45.7175C62.3196 40.8793 53.2658 42.0889 48.4276 48.4193C43.5895 54.7496 44.7991 63.8034 51.1294 68.6416C57.4598 73.4797 66.5136 72.2701 71.3517 65.9398Z" fill="#5C4CB1"/>
<path opacity="0.4" d="M71.3517 65.9398C76.1899 59.6094 74.9803 50.5556 68.6499 45.7175C62.3196 40.8793 53.2658 42.0889 48.4276 48.4193C43.5895 54.7496 44.7991 63.8034 51.1294 68.6416C57.4598 73.4797 66.5136 72.2701 71.3517 65.9398Z" fill="#4A3D8E"/>
<g opacity="0.7">
<path d="M52.7407 60.0507L59.2475 61.7941" stroke="white" stroke-width="1.8" stroke-linecap="round" stroke-linejoin="round"/>
<path d="M54.4728 63.0507L57.9597 50.0372L62.3961 51.2259C63.4159 51.4992 64.2853 52.1663 64.8131 53.0806C65.341 53.9948 65.484 55.0813 65.2108 56.101C64.9375 57.1208 64.2704 57.9902 63.3562 58.518C62.4419 59.0459 61.3554 59.1889 60.3357 58.9157L53.5332 57.093" stroke="white" stroke-width="1.8" stroke-linecap="round" stroke-linejoin="round"/>
</g>
<g opacity="0.7">
<path d="M12.3112 96.1829L22.0713 93.5676" stroke="white" stroke-width="2.5" stroke-linecap="round" stroke-linejoin="round"/>
<path d="M16.8113 98.781L11.5809 79.2608L18.2355 77.4777C19.7651 77.0679 21.3948 77.2824 22.7662 78.0742C24.1376 78.866 25.1383 80.1701 25.5482 81.6997C25.958 83.2293 25.7435 84.859 24.9517 86.2304C24.1599 87.6018 22.8558 88.6025 21.3262 89.0124L11.1224 91.7465" stroke="white" stroke-width="2.5" stroke-linecap="round" stroke-linejoin="round"/>
</g>
<path d="M140.096 100H55.9038C53.1955 100 51 102.229 51 104.979V155.021C51 157.771 53.1955 160 55.9038 160H140.096C142.804 160 145 157.771 145 155.021V104.979C145 102.229 142.804 100 140.096 100Z" fill="#5C4CB1"/>
<path opacity="0.2" d="M140.096 100H55.9038C53.1955 100 51 102.229 51 104.979V155.021C51 157.771 53.1955 160 55.9038 160H140.096C142.804 160 145 157.771 145 155.021V104.979C145 102.229 142.804 100 140.096 100Z" fill="black"/>
<path d="M135.67 135H113.33C112.595 135 112 136.119 112 137.5C112 138.881 112.595 140 113.33 140H135.67C136.405 140 137 138.881 137 137.5C137 136.119 136.405 135 135.67 135Z" fill="#5C4CB1"/>
<path opacity="0.3" d="M135.67 135H113.33C112.595 135 112 136.119 112 137.5C112 138.881 112.595 140 113.33 140H135.67C136.405 140 137 138.881 137 137.5C137 136.119 136.405 135 135.67 135Z" fill="white"/>
<path d="M131.862 113H64.1385L51 113V126H64.1385H131.862H145V113H131.862Z" fill="#5C4CB1"/>
<path opacity="0.3" d="M131.862 113H64.1385L51 113V126H64.1385H131.862H145V113H131.862Z" fill="white"/>
<path d="M107.559 69.1855C106.437 72.3529 105.192 75.4162 103.871 78.4795C102.534 81.5946 101 84.6215 99.2783 87.5416C99.0463 87.9156 98.8049 88.2897 98.5539 88.6637L98.3693 88.9431L98.1183 89.2887C97.9479 89.5065 97.7869 89.6959 97.6449 89.8805C97.0483 90.5455 96.4161 91.1778 95.751 91.7744C94.4869 92.9438 93.1991 94.0044 91.8971 95.0507C89.2835 97.1245 86.6132 99.0657 83.8482 100.907L82.1958 98.8574L89.1557 91.9969C90.3062 90.8558 91.4473 89.7053 92.5126 88.5548C93.0381 87.9819 93.5494 87.3948 93.9708 86.8551C94.075 86.7225 94.1649 86.5899 94.2454 86.4763L94.3449 86.3153L94.4822 86.0691C94.6668 85.7424 94.8609 85.4252 95.0408 85.0891C96.4896 82.3667 97.768 79.4075 98.999 76.4058C100.23 73.404 101.414 70.3786 102.55 67.3768L107.559 69.1855Z" fill="#FFC3BD"/>
<path d="M108.889 66.9033C109.964 70.0471 103.648 79.2938 103.648 79.2938L97.6162 75.9369C98.644 73.0518 99.8587 70.2366 101.252 67.5093C103.364 63.5133 107.71 63.4517 108.889 66.9033Z" fill="#5C4CB1"/>
<path opacity="0.7" d="M108.889 66.9033C109.964 70.0471 103.648 79.2938 103.648 79.2938L97.6162 75.9369C98.644 73.0518 99.8587 70.2366 101.252 67.5093C103.364 63.5133 107.71 63.4517 108.889 66.9033Z" fill="white"/>
<path opacity="0.31" d="M108.979 67.2964C107.625 66.6477 106.068 67.1922 104.425 69.7868C102.782 72.3814 101.385 76.7135 101.234 77.9493L103.653 79.2892C103.653 79.2892 109.481 70.7479 108.979 67.2964Z" fill="#5C4CB1"/>
<path d="M104.804 64.4982C104.804 64.4982 100.296 75.099 103.544 94.8377H122.317C122.549 91.9543 121.223 77.8972 124.476 64.3183C122.409 63.916 120.318 63.6503 118.217 63.5229C115.56 63.3713 112.896 63.3713 110.239 63.5229C108.405 63.7091 106.588 64.0352 104.804 64.4982Z" fill="#5C4CB1"/>
<path opacity="0.7" d="M104.804 64.4982C104.804 64.4982 100.296 75.099 103.544 94.8377H122.317C122.549 91.9543 121.223 77.8972 124.476 64.3183C122.409 63.916 120.318 63.6503 118.217 63.5229C115.56 63.3713 112.896 63.3713 110.239 63.5229C108.405 63.7091 106.588 64.0352 104.804 64.4982Z" fill="white"/>
<path d="M103.544 94.8377C103.544 94.8377 99.8463 120.433 98.5869 134.362C97.5737 145.541 121.744 178.868 121.744 178.868L126.417 174.469C126.417 174.469 108.766 144.589 110.125 132.147C111.441 120.097 115.901 94.8235 115.901 94.8235L103.544 94.8377Z" fill="#5C4CB1"/>
<path opacity="0.7" d="M103.544 94.8377C103.544 94.8377 99.8463 120.433 98.5869 134.362C97.5737 145.541 121.744 178.868 121.744 178.868L126.417 174.469C126.417 174.469 108.766 144.589 110.125 132.147C111.441 120.097 115.901 94.8235 115.901 94.8235L103.544 94.8377Z" fill="#5C4CB1"/>
<path opacity="0.2" d="M110.125 132.161C110.802 125.954 112.317 116.229 113.619 108.265C112.938 106.93 111.025 104.226 111.025 104.226C109.311 110.149 105.585 132.478 110.902 162.633C116.441 171.562 121.744 178.882 121.744 178.882L122.468 167.367C117.35 157.737 109.183 140.764 110.125 132.161Z" fill="black"/>
<path d="M110.22 94.8375C110.22 94.8375 109.888 121.659 110.457 131.711C111.077 142.714 114.202 179.171 114.202 179.171H120.631C120.631 179.171 120.437 143.604 120.816 132.715C121.237 120.878 122.326 94.8375 122.326 94.8375H110.22Z" fill="#5C4CB1"/>
<path opacity="0.7" d="M110.22 94.8375C110.22 94.8375 109.888 121.659 110.457 131.711C111.077 142.714 114.202 179.171 114.202 179.171H120.631C120.631 179.171 120.437 143.604 120.816 132.715C121.237 120.878 122.326 94.8375 122.326 94.8375H110.22Z" fill="#5C4CB1"/>
<path d="M82.991 98.417L79.3312 98.5448L80.0982 101.414C80.0982 101.414 83.9238 101.755 84.2647 100.6L82.991 98.417Z" fill="#FFC3BD"/>
<path d="M75.3826 100.254L77.9487 101.75L80.0983 101.414L79.3313 98.5448L75.3826 100.254Z" fill="#FFC3BD"/>
<path opacity="0.31" d="M120.281 67.6702C119.893 69.905 120.409 75.2456 122.326 81.4291C122.476 76.1313 123.093 70.8571 124.168 65.6675V65.6391C122.937 65.516 120.655 65.5728 120.281 67.6702Z" fill="#5C4CB1"/>
<path d="M117.739 54.5365C117.147 57.1027 116.479 61.8089 118.212 63.5323C118.212 63.5323 117.464 65.6581 112.691 65.6581C107.445 65.6581 110.234 63.5323 110.234 63.5323C113.122 62.8505 113.122 60.7247 112.691 58.7314L117.739 54.5365Z" fill="#FFC3BD"/>
<path d="M115.684 56.2457L112.696 58.7172C112.804 59.184 112.87 59.6592 112.895 60.1376C113.993 59.9813 115.537 58.7787 115.693 57.633C115.777 57.174 115.774 56.7035 115.684 56.2457Z" fill="#CE6F64"/>
<path d="M111.512 45.8342C109.718 46.445 108.283 51.2033 110.376 52.4627C112.469 53.7221 114.921 44.6742 111.512 45.8342Z" fill="#263238"/>
<path d="M118.861 51.8471C117.791 55.1614 117.336 57.1641 115.177 58.5229C114.481 58.9706 113.675 59.2193 112.847 59.2421C112.02 59.2649 111.202 59.061 110.482 58.6525C109.761 58.2439 109.167 57.6462 108.762 56.9241C108.357 56.2019 108.157 55.3828 108.184 54.5553C108.227 51.3689 109.969 46.4638 113.638 45.8483C114.429 45.6957 115.246 45.7535 116.008 46.0159C116.769 46.2784 117.448 46.7362 117.977 47.3437C118.506 47.9512 118.866 48.6869 119.021 49.4773C119.176 50.2676 119.121 51.0849 118.861 51.8471Z" fill="#FFC3BD"/>
<path d="M121.512 46.3077C120.442 48.8928 122.932 46.7338 122.288 49.8018C121.872 51.7998 118.264 56.5865 116.872 56.151C115.48 55.7154 115.494 52.3207 117.27 49.9202C118.292 48.5424 116.081 46.98 111.115 47.1457C106.148 47.3114 103.146 44.518 109.746 42.4679C109.746 42.4679 107.313 43.8883 108.757 44.3617C110.802 45.124 123.657 41.128 121.512 46.3077Z" fill="#263238"/>
<path d="M120.565 47.4912C120.513 47.4912 121.678 47.2024 122.298 45.1239C122.298 45.157 122.094 48.2203 120.565 47.4912Z" fill="#263238"/>
<path d="M111.271 42.9271C108.217 43.874 109.481 44.9393 110.745 45.2045L113.643 44.0682C109.24 44.6505 111.271 42.9271 111.271 42.9271Z" fill="#263238"/>
<path d="M119.448 55.8954C118.813 56.5125 117.966 56.8631 117.08 56.8754C115.911 56.8754 115.66 55.7675 116.29 54.8395C116.848 54.0063 118.127 53.0025 119.159 53.4523C120.191 53.9021 120.224 55.1331 119.448 55.8954Z" fill="#FFC3BD"/>
<path d="M113.468 51.6625C113.397 51.9371 113.193 52.136 112.994 52.0886C112.796 52.0413 112.725 51.7904 112.796 51.5158C112.867 51.2411 113.07 51.0423 113.269 51.0944C113.468 51.1465 113.539 51.3879 113.468 51.6625Z" fill="#263238"/>
<path d="M110.343 50.976C110.272 51.2506 110.068 51.4495 109.87 51.4021C109.671 51.3548 109.6 51.1086 109.671 50.834C109.742 50.5594 109.941 50.3605 110.144 50.4079C110.348 50.4552 110.4 50.7014 110.343 50.976Z" fill="#263238"/>
<path d="M111.299 51.3311C110.761 52.0976 110.124 52.7901 109.406 53.3906C109.564 53.5663 109.758 53.7053 109.976 53.7977C110.194 53.8901 110.429 53.9338 110.665 53.9256L111.299 51.3311Z" fill="#DE5753"/>
<path d="M111.82 54.9248C111.624 54.9246 111.429 54.9024 111.238 54.8585C111.217 54.8529 111.199 54.8395 111.187 54.821C111.176 54.8026 111.172 54.7804 111.176 54.7591C111.182 54.7381 111.195 54.72 111.214 54.7086C111.232 54.6971 111.255 54.6932 111.276 54.6976C111.624 54.7752 111.986 54.7729 112.334 54.6909C112.682 54.609 113.006 54.4493 113.283 54.2241C113.299 54.2088 113.32 54.2002 113.342 54.2002C113.365 54.2002 113.386 54.2088 113.402 54.2241C113.417 54.24 113.426 54.2612 113.426 54.2833C113.426 54.3054 113.417 54.3266 113.402 54.3425C112.962 54.7209 112.4 54.9278 111.82 54.9248Z" fill="#263238"/>
<path d="M114.708 50.8719C114.676 50.8725 114.644 50.8633 114.617 50.8456C114.59 50.8278 114.569 50.8024 114.557 50.7725C114.479 50.5826 114.357 50.4141 114.2 50.2814C114.044 50.1488 113.857 50.0557 113.657 50.0102C113.635 50.0073 113.614 50.0001 113.595 49.989C113.576 49.9778 113.56 49.963 113.546 49.9454C113.533 49.9277 113.524 49.9076 113.518 49.8863C113.513 49.8649 113.512 49.8426 113.515 49.8208C113.522 49.7772 113.546 49.7381 113.581 49.7116C113.617 49.6851 113.661 49.6733 113.705 49.6788C113.96 49.7308 114.198 49.8442 114.399 50.0092C114.601 50.1742 114.759 50.3858 114.86 50.6257C114.869 50.6455 114.874 50.667 114.875 50.6889C114.876 50.7108 114.872 50.7326 114.864 50.753C114.856 50.7734 114.844 50.7919 114.829 50.8075C114.813 50.823 114.795 50.8353 114.775 50.8435C114.755 50.8577 114.732 50.8674 114.708 50.8719Z" fill="#263238"/>
<path d="M109.287 49.6171C109.249 49.6168 109.212 49.6035 109.183 49.5793C109.149 49.5507 109.127 49.5099 109.123 49.4657C109.119 49.4215 109.132 49.3773 109.159 49.3425C109.326 49.135 109.538 48.9686 109.78 48.8561C110.021 48.7436 110.285 48.6881 110.551 48.6939C110.573 48.6957 110.594 48.7018 110.614 48.7118C110.633 48.7218 110.65 48.7356 110.665 48.7523C110.679 48.769 110.689 48.7884 110.696 48.8092C110.702 48.8301 110.705 48.852 110.703 48.8738C110.702 48.8958 110.696 48.9174 110.686 48.9371C110.676 48.9569 110.663 48.9744 110.646 48.9886C110.629 49.0028 110.609 49.0134 110.588 49.0197C110.567 49.026 110.545 49.0279 110.523 49.0253C110.31 49.0231 110.099 49.0697 109.907 49.1616C109.715 49.2536 109.547 49.3883 109.415 49.5556C109.4 49.5749 109.38 49.5905 109.358 49.6012C109.336 49.6119 109.312 49.6173 109.287 49.6171Z" fill="#263238"/>
<path d="M125.385 66.7375C125.754 67.3104 126.062 67.817 126.375 68.3663C126.687 68.9155 126.985 69.4458 127.279 69.995C127.856 71.0887 128.401 72.206 128.898 73.3471C129.941 75.683 130.724 78.1266 131.232 80.6337L131.28 80.8751L131.303 80.9935L131.336 81.1924C131.377 81.4572 131.397 81.7246 131.398 81.9925C131.393 82.4411 131.346 82.8882 131.256 83.3277C131.096 84.0526 130.864 84.7599 130.565 85.4393C130.033 86.6297 129.399 87.7719 128.671 88.853C127.294 90.9087 125.728 92.8314 123.993 94.5961L121.933 92.9437C123.079 90.9457 124.22 88.8719 125.177 86.8408C125.647 85.8694 126.049 84.8664 126.379 83.839C126.514 83.4105 126.606 82.9696 126.654 82.5228C126.67 82.3765 126.67 82.2288 126.654 82.0825C126.654 82.0399 126.654 82.002 126.625 81.9973C126.597 81.9925 126.625 81.9972 126.625 81.9736L126.597 81.8789L126.54 81.6848C126.241 80.6404 125.885 79.6131 125.475 78.6073C125.058 77.5798 124.594 76.5572 124.107 75.5392C123.619 74.5213 123.093 73.5175 122.554 72.5138C122.289 72.0119 122.009 71.5148 121.73 71.0224L120.897 69.602L125.385 66.7375Z" fill="#FFC3BD"/>
<path d="M122.871 92.1768L119.396 91.566L121.19 95.6141C121.19 95.6141 124.376 95.6141 124.234 93.9476L122.871 92.1768Z" fill="#FFC3BD"/>
<path d="M116.768 93.5972L118.411 96.8688L121.171 95.6094L119.377 91.566L116.768 93.5972Z" fill="#FFC3BD"/>
<path d="M124.476 64.3182C127.79 64.7917 131.185 76.3063 131.185 76.3063L124.083 80.2455C124.083 80.2455 121.199 74.7723 119.822 70.71C118.378 66.4535 120.93 63.7974 124.476 64.3182Z" fill="#5C4CB1"/>
<path opacity="0.7" d="M124.476 64.3182C127.79 64.7917 131.185 76.3063 131.185 76.3063L124.083 80.2455C124.083 80.2455 121.199 74.7723 119.822 70.71C118.378 66.4535 120.93 63.7974 124.476 64.3182Z" fill="white"/>
<path opacity="0.2" d="M112.559 65.6487L111.138 67.159L111.834 68.6173L112.966 68.6694L113.932 67.2774L112.559 65.6487Z" fill="black"/>
<path d="M112.559 65.6486C113.098 66.5219 113.411 67.5164 113.468 68.5414C113.468 68.5414 119.377 66.4582 119.097 63.4043C119.097 63.4043 118.259 62.9072 117.729 62.5048C117.729 62.5048 117.53 64.427 112.559 65.6486Z" fill="#5C4CB1"/>
<path opacity="0.6" d="M112.559 65.6486C113.098 66.5219 113.411 67.5164 113.468 68.5414C113.468 68.5414 119.377 66.4582 119.097 63.4043C119.097 63.4043 118.259 62.9072 117.729 62.5048C117.729 62.5048 117.53 64.427 112.559 65.6486Z" fill="white"/>
<path d="M112.559 65.6486C112.016 66.4754 111.625 67.3925 111.404 68.3568C111.404 68.3568 108.729 66.5481 109.533 63.5322C110.024 63.3346 110.529 63.1763 111.044 63.0587C111.044 63.0587 110.693 65.0094 112.559 65.6486Z" fill="#5C4CB1"/>
<path opacity="0.6" d="M112.559 65.6486C112.016 66.4754 111.625 67.3925 111.404 68.3568C111.404 68.3568 108.729 66.5481 109.533 63.5322C110.024 63.3346 110.529 63.1763 111.044 63.0587C111.044 63.0587 110.693 65.0094 112.559 65.6486Z" fill="white"/>
</g>
</svg>
