<svg width="222" height="68" viewBox="0 0 222 68" fill="none" xmlns="http://www.w3.org/2000/svg">
<path fill-rule="evenodd" clip-rule="evenodd" d="M110.646 5.72217C69.306 9.21606 62.5006 6.67774 62.4406 6.62081C62.4406 6.38307 61.7287 6.36552 57.995 6.51061C52.4854 6.72467 50.2495 7.77761 44.1047 7.49988C41.5712 7.3856 26.6183 6.97046 23.5546 6.72619C16.0948 6.13155 13.0173 6.13563 11.4496 6.74272C8.43366 7.91058 3.50824 8.37299 3.09397 10.8293C3.09397 11.873 3.26172 11.8641 3.46676 12.7338C3.81768 14.2208 3.87403 14.3153 4.40965 14.3153H4.97955L5.57591 15.7948C5.26803 16.9237 5.17162 18.0068 5.16884 20.3664C5.16477 23.8814 4.73948 24.3213 3.74003 26.6611C3.14078 28.0641 2.13049 28.1557 2.16391 31.804C2.18684 34.2974 2.30617 35.9744 2.52706 36.9055C3.31078 40.2087 2.10189 43.6774 0.942167 46.6114C0.450039 47.857 0.438041 48.0191 0.604726 51.1584C1.84854 54.7498 1.44167 53.3966 3.00824 55.373C3.54028 56.0441 4.35742 56.0297 4.79099 56.1921C5.27939 56.3751 5.181 57.1321 5.47029 57.5661L5.68162 57.8831C5.8821 58.1838 5.89727 58.5715 5.7209 58.8869C5.59403 59.1139 5.56432 59.3824 5.63853 59.6316L5.72273 59.9143C5.89838 60.5041 6.38566 60.9485 6.98909 61.0692L8.15517 61.3024C8.38998 61.3493 8.62885 61.373 8.8683 61.373H11.0082C14.3762 61.1065 17.2217 62.1903 20.8766 62.5619C22.703 62.7476 26.2702 63.1606 28.8037 63.48C32.5402 63.9507 33.7125 64.0277 35.0124 63.8871C35.8938 63.7916 38.7861 63.5224 41.4398 63.2889C44.0937 63.0553 50.3328 62.5013 55.3047 62.0574C58.0082 61.373 58.0475 61.1797 59.5082 61.373C60.4282 61.4946 58.8526 61.3534 62.0834 61.373C62.1106 61.3985 63.0082 61.3729 62.0082 62.8729C61.0082 64.3729 62.0834 66.6096 62.0834 66.8363C62.0834 67.0937 64.4279 67.1182 66.3865 67C67.6534 66.9237 70.1359 66.8241 71.9034 66.779C73.671 66.7341 76.0813 66.6468 77.2596 66.5851C78.438 66.5233 81.3785 66.3805 83.7942 66.2672C86.2098 66.1539 89.1504 66.0135 90.3288 65.955C91.5071 65.8964 93.6282 65.7907 95.0422 65.7201C98.0582 65.5697 99.673 64.1678 101.508 64.3729L103.008 63.3729L104.782 63.0043C103.775 63.1339 106.751 63.0043 106.13 63.0043C105.508 63.0043 103.561 63.0694 107.701 63.0043C110.659 62.9578 112.618 63.0247 113.86 63.2147C116.402 63.6032 141.289 63.5771 145.232 63.1653C149.589 62.7106 155.375 60.7545 160.063 61.2781C164.211 61.7414 168.294 62.4017 168.954 62.7164C170.466 63.4363 178.692 64.0428 184.059 63.8298C188.848 63.6398 189.49 63.5945 191.123 63.332C191.932 63.2023 192.77 63.1204 192.986 63.1504C193.202 63.1802 194.535 63.0921 195.949 62.9543C199.686 62.5905 202.437 62.3486 205.59 62.1068C207.122 61.9893 209.365 61.7899 210.573 61.6636L212.771 61.434L213.251 60.6766C213.516 60.2601 214.125 59.3652 214.606 58.6882C215.345 57.6474 213.164 58.6575 214.008 56.373C214.288 55.6163 214.861 56.0893 215.008 53.873C215.042 53.366 216.979 51.8851 217.134 51.5926C217.353 51.178 218.692 47.4707 218.503 46.8824C218.093 45.6103 218.603 41.2835 219.605 37.5406C220.362 34.7127 220.466 34.035 220.5 31.7229C220.535 29.3691 220.478 28.9218 219.938 27.2715C219.608 26.2624 219.338 25.3221 219.338 25.1817C219.338 25.0415 219.242 24.9266 219.124 24.9266C219.006 24.9266 218.969 24.8697 219.042 24.8001C219.116 24.7303 218.85 24.1887 218.452 23.5963L217.728 22.5191L218.67 23.5698C219.615 22.5768 219.986 21.9389 219.751 21.7148C219.682 21.6487 218.588 21.5522 217.321 21.5004C215.065 21.4079 215.006 21.393 214.462 20.7801L213.906 20.154L215.17 19.5845C217.356 18.6 218.665 17.6587 219.086 16.7678C219.621 15.6379 219.421 13.4497 218.718 12.7332C218.033 12.0355 217.792 11.9378 215.529 11.4399C212.937 10.8697 209.941 12.5118 205.269 12.2147C203.207 12.0834 201.496 11.9577 201.467 11.9355C201.438 11.9133 201.566 11.4696 201.752 10.9497C202.063 10.0818 202.061 9.90731 201.733 8.82332C201.468 7.94993 201.147 7.43834 200.497 6.85778C199.355 5.83726 198.779 5.64728 197.319 5.80869C196.657 5.88175 195.404 5.97194 194.533 6.00888C193.662 6.04602 191.455 6.1856 189.629 6.31926C187.803 6.45292 185.681 6.59087 184.916 6.62576C184.15 6.66066 182.077 6.79738 180.309 6.92982C178.542 7.06225 176.469 7.19612 175.703 7.22734C174.937 7.25856 173.635 7.34345 172.811 7.4159C171.113 7.56486 168.13 7.75158 166.062 7.83811C165.296 7.87014 163.994 7.96054 163.169 8.0389C162.344 8.11747 160.975 8.20461 160.126 8.23277L158.582 8.28378L158.702 7.451C159.034 5.13957 159.508 1.3729 153.508 0.872974C144.536 0.125375 124.964 4.16578 110.646 5.72217ZM14.5082 15.373C15.8411 14.1817 19.5344 14.3345 19.5082 14.3153C19.4457 14.2694 12.5252 12.332 12.5082 12.373C12.5012 12.3903 12.3354 14.6194 12.0082 15.873L10.5082 20.373L14.5082 15.373ZM32.7314 16.4999C33.2314 16.9999 33.5851 17.9696 34.1047 16.9999L35.1047 14.9275H33.057C32.6407 14.9275 32.107 14.6458 32.1047 14.9999C32.1032 15.2523 32.2314 15.9999 32.7314 16.4999ZM34 57C35.118 57 35.8953 57.0001 38 56C42.1108 54.0466 40.0346 53.0557 39 53C37.9464 52.4744 32.2826 56.2021 32 56.5C31.6724 56.8457 32.5 57 34 57ZM143.508 11.373C144.674 11.373 148.421 11.1256 148.508 10.873C148.619 10.5524 148.474 9.37299 147.508 9.37299C146.133 9.37299 137.435 10.444 136.508 10.873C135.761 11.2189 139.902 11.373 143.508 11.373ZM15.0082 44.8729C15.0082 44.6158 14.9716 43.9369 15.1047 43.4999C15.1762 43.3223 15.1092 42.3664 15.0082 42.3729C14.7961 42.3866 13.4115 43.9239 13.5 44C13.5324 44.0278 12.7768 46.6285 13.3955 46.5704C14.3929 46.4767 15.0082 45.2874 15.0082 44.8729ZM207.008 55.873C207.296 55.9418 205.008 55.373 207.008 55.873C207.008 55.373 206.508 56.0362 208.008 54.873L207.008 52.873L205.508 54.373L205.008 56.373L207.008 55.873ZM78.0082 60.7402C79.7126 60.4847 83.4506 59.6575 83.5082 59.373C83.5729 59.0526 78.8004 58.3585 77.0082 58.373C74.6753 58.3918 72.6593 58.75 71.602 59.6505L71.7943 60.3382L73.5964 60.7402C74.0995 60.6625 76.8316 60.9167 78.0082 60.7402ZM190.329 58.7385C190.538 58.7904 190.827 58.7869 190.972 58.731C191.117 58.6751 190.947 58.6328 190.593 58.6369C190.24 58.641 190.121 58.6867 190.329 58.7385Z" fill="#FFDD59"/>
<path d="M190.972 58.731C190.827 58.7869 190.538 58.7904 190.329 58.7385C190.121 58.6867 190.24 58.641 190.593 58.6369C190.947 58.6328 191.117 58.6751 190.972 58.731Z" fill="#FFDD59"/>
<path d="M83.5082 59.373C83.4506 59.6575 79.7126 60.4847 78.0082 60.7402C76.8316 60.9167 74.0995 60.6625 73.5964 60.7402L71.7943 60.3382L71.602 59.6505C72.6593 58.75 74.6753 58.3918 77.0082 58.373C78.8004 58.3585 83.5729 59.0526 83.5082 59.373Z" fill="#FFDD59"/>
<path d="M207.008 55.873L205.008 56.373L205.508 54.373L207.008 52.873L208.008 54.873C206.508 56.0362 207.008 55.373 207.008 55.873Z" fill="#FFDD59"/>
<path d="M49.989 41.5341V41.8212C49.989 41.9104 49.9438 41.9997 49.8532 42.0891V41.4001C49.7499 41.4001 49.6981 41.349 49.6981 41.247V41.113C49.6981 41.0747 49.6335 41.0108 49.5042 40.9216C49.3878 40.8194 49.3297 40.7556 49.3297 40.7302C49.3297 40.7174 49.362 40.7111 49.4266 40.7111V40.5771C49.4266 40.3857 49.4718 40.2452 49.5623 40.156V38.2228C49.5623 37.5721 49.5172 37.1127 49.4266 36.8447V34.0694C49.4266 33.7121 49.3814 33.4378 49.2909 33.2464V32.8444L49.2715 32.653C49.2457 32.5382 49.2197 32.3914 49.1939 32.2128C49.1681 32.034 49.1421 31.8426 49.1163 31.6386C49.1033 31.4344 49.084 31.2238 49.0582 31.007C49.0452 30.7899 49.0388 30.6114 49.0388 30.4711C49.0388 30.2031 49.0712 30.0691 49.1357 30.0691H49.1551C49.1551 29.8903 49.1033 29.7564 49 29.6672V29.227C49 28.9716 49.1033 28.7802 49.3103 28.6527C49.53 28.5122 49.7045 28.4422 49.8338 28.4422C49.8984 28.4805 50.0795 28.4996 50.3768 28.4996H50.8616C51.0425 28.4996 51.217 28.5122 51.3851 28.5379C51.5533 28.5505 51.6824 28.557 51.773 28.557C51.9927 28.557 52.3483 28.5505 52.8395 28.5379C53.3307 28.5251 53.6927 28.5188 53.9254 28.5188C54.7398 28.5188 55.2504 28.5825 55.4573 28.7102C55.9227 28.7102 56.5626 28.9398 57.377 29.3992C57.5322 29.4501 57.6937 29.5523 57.8618 29.7055C58.0427 29.8457 58.2045 29.9351 58.3466 29.9734C58.4372 30.0243 58.5081 30.1583 58.5599 30.3754C58.6245 30.5794 58.7087 30.707 58.812 30.7582C58.8638 30.8091 58.909 30.8793 58.9477 30.9687C58.9995 31.0579 59.0447 31.1281 59.0835 31.1792C59.368 31.3195 59.5101 31.5938 59.5101 32.0023C59.6394 32.0023 59.704 32.1363 59.704 32.4042C59.704 32.4551 59.6846 32.4999 59.6458 32.5382V33.2464C59.6458 33.4378 59.6007 33.5335 59.5101 33.5335V34.2034C59.4455 34.2671 59.3937 34.3437 59.355 34.4331C59.3292 34.5096 59.3098 34.5797 59.2968 34.6436C59.2968 34.7073 59.2774 34.7648 59.2386 34.8159C59.1998 34.8668 59.148 34.8924 59.0835 34.8924L58.6763 35.3135C58.5987 35.3901 58.5599 35.4347 58.5599 35.4475C58.5599 35.4984 58.6375 35.5815 58.7926 35.6963C58.9477 35.8112 59.1223 35.9323 59.3162 36.06C59.5101 36.1874 59.62 36.264 59.6458 36.2897C59.6716 36.3023 59.788 36.3471 59.9949 36.4237C60.2146 36.5002 60.3763 36.5831 60.4797 36.6725C60.583 36.749 60.6348 36.851 60.6348 36.9787V37.1127C60.7124 37.1893 60.7705 37.2721 60.8093 37.3615C60.8611 37.4507 60.9063 37.5721 60.945 37.7252C60.9968 37.8783 61.0356 37.9931 61.0614 38.0697V38.2228C61.0096 38.2611 60.9708 38.3057 60.945 38.3568C60.9193 38.3951 60.9063 38.4268 60.9063 38.4525V38.4908V38.9119C60.8157 39.0522 60.7254 39.1733 60.6348 39.2755C60.5572 39.3775 60.4927 39.4541 60.4409 39.5052C60.4021 39.5561 60.3051 39.6518 60.15 39.7923C60.0079 39.9326 59.8849 40.0538 59.7816 40.156L59.355 40.5771C59.3032 40.5771 59.245 40.6025 59.1804 40.6536C59.1287 40.6919 59.0317 40.7748 58.8896 40.9024C58.7602 41.0299 58.6893 41.1002 58.6763 41.113C58.5211 41.2661 58.2948 41.4255 57.9976 41.5915C57.7131 41.7446 57.5192 41.8212 57.4158 41.8212C57.2349 41.9997 57.0862 42.0891 56.9698 42.0891L56.8341 42.2423C56.7435 42.2932 56.6272 42.338 56.485 42.3762C56.3429 42.4271 56.2266 42.4719 56.136 42.5102V42.6442C56.0197 42.6442 55.8645 42.6888 55.6706 42.7782C55.4897 42.8674 55.3667 42.9122 55.3022 42.9122C55.134 42.9122 54.9531 43.0079 54.7592 43.1993C54.5653 43.1993 54.4232 43.2439 54.3326 43.3333H53.3437C53.3307 43.3204 53.1433 43.231 52.7813 43.0653C52.5098 43.0653 52.3289 43.0142 52.2383 42.9122H52.0832C51.7212 42.5548 51.4433 42.3762 51.2494 42.3762C51.0555 42.1848 50.868 42.0891 50.687 42.0891V41.9552H50.5319L50.2604 41.6681C50.1699 41.5787 50.0795 41.5341 49.989 41.5341ZM52.6068 39.888L53.2079 39.6009H53.3437C53.3694 39.6009 53.4148 39.6135 53.4794 39.6392C53.544 39.6518 53.5894 39.6583 53.6151 39.6583C53.6669 39.6583 53.7121 39.6392 53.7509 39.6009H53.906C54.3196 39.4095 54.6493 39.2755 54.895 39.199C54.882 39.1861 54.9144 39.1542 54.9919 39.1033C55.0825 39.0393 55.1988 38.9565 55.341 38.8545C55.4961 38.7396 55.6254 38.6182 55.7288 38.4908V38.3568C56.0003 38.3568 56.3687 38.1271 56.8341 37.6678C56.8859 37.6295 56.9634 37.5401 57.0668 37.3998C57.1701 37.2593 57.2413 37.1636 57.2801 37.1127C57.2801 37.0488 57.2737 37.0105 57.2607 36.9979C57.2477 36.985 57.2089 36.9787 57.1444 36.9787H54.4683L54.3908 36.9979C54.339 37.0105 54.268 37.0233 54.1775 37.0361C54.0869 37.0488 53.99 37.0616 53.8866 37.0744C53.796 37.087 53.6863 37.0999 53.557 37.1127C53.4406 37.1253 53.3307 37.1318 53.2273 37.1318C53.0464 37.1318 52.8977 37.0999 52.7813 37.0361C52.678 36.9722 52.6068 36.9085 52.568 36.8447C52.5292 36.7808 52.5034 36.749 52.4904 36.749C52.4774 36.749 52.471 36.7808 52.471 36.8447C52.3935 36.8447 52.3483 36.851 52.3353 36.8639C52.3223 36.8765 52.3159 36.9148 52.3159 36.9787V37.2467C52.3159 37.285 52.2901 37.3741 52.2383 37.5146C52.1996 37.6549 52.1802 37.7506 52.1802 37.8017V38.3568C52.0768 38.5354 52.025 38.7205 52.025 38.9119V39.065C51.9863 39.1033 51.9539 39.1479 51.9281 39.199C51.9023 39.2373 51.8893 39.269 51.8893 39.2947V39.333C51.9281 39.3712 51.9475 39.403 51.9475 39.4287C51.9217 39.6327 51.8569 39.7349 51.7536 39.7349L52.025 39.888C52.0768 39.8369 52.1284 39.7667 52.1802 39.6775C52.232 39.5753 52.2771 39.5052 52.3159 39.4669V39.7349C52.3159 39.8115 52.3223 39.856 52.3353 39.8689C52.3483 39.8815 52.3935 39.888 52.471 39.888H52.6068ZM54.3326 31.4472H53.4794H53.3824C53.2403 31.4472 53.1497 31.5238 53.111 31.6769C53.0722 31.8172 53.027 31.8874 52.9752 31.8874C52.9364 31.8874 52.904 31.8809 52.8783 31.8683C52.8783 31.9066 52.8525 31.9512 52.8007 32.0023C52.7619 32.0532 52.7425 32.098 52.7425 32.1363V34.2034H53.0334L53.0722 34.2608C53.098 34.2608 53.1173 34.1651 53.1304 33.9737C53.1561 33.7695 53.1885 33.6675 53.2273 33.6675C53.2531 33.6675 53.2919 33.7121 53.3437 33.8014C53.5246 33.8014 53.6151 33.7566 53.6151 33.6675H53.906C54.0223 33.5652 54.2033 33.4824 54.449 33.4186C54.6947 33.3547 54.8432 33.2973 54.895 33.2464C55.4767 32.9784 55.8451 32.7422 56.0003 32.5382C56.039 32.4871 56.1102 32.4425 56.2136 32.4042C56.3169 32.3531 56.3881 32.3085 56.4269 32.2702L56.6983 32.0023C56.6983 31.9129 56.6532 31.8172 56.5626 31.7152H56.136C55.9421 31.5364 55.341 31.4472 54.3326 31.4472ZM66.1155 27.7149V27.7914C66.1803 27.8552 66.2384 27.8871 66.29 27.8871C66.4064 27.8871 66.4969 27.8552 66.5615 27.7914H67.3177C67.305 27.7786 67.3243 27.7532 67.3759 27.7149C67.4277 27.6638 67.4601 27.6383 67.4729 27.6383C67.4859 27.6383 67.5183 27.6638 67.5698 27.7149L67.628 27.7723C67.6668 27.7723 67.6862 27.7532 67.6862 27.7149C67.738 27.7149 67.7961 27.7403 67.8607 27.7914H67.9577C68.643 27.97 69.0502 28.1231 69.1793 28.2508H69.2569C69.2569 28.4165 69.4444 28.6079 69.8192 28.825C69.8192 28.8505 69.8516 28.895 69.9162 28.959C69.981 29.0099 70.0519 29.0673 70.1295 29.1312C70.207 29.195 70.2524 29.2333 70.2652 29.2461C70.317 29.3098 70.414 29.3418 70.5561 29.3418H70.7306C70.7048 29.3927 70.6918 29.4438 70.6918 29.4949C70.6918 29.5204 70.6984 29.5458 70.7112 29.5715C70.7242 29.5969 70.7306 29.6161 70.7306 29.6289L70.9245 29.8203C71.0409 29.8203 71.0991 29.8712 71.0991 29.9734H71.2154C71.1766 30.0117 71.1572 30.0435 71.1572 30.0691C71.1572 30.1074 71.2478 30.1903 71.4287 30.3179C71.6226 30.4328 71.7584 30.5093 71.8359 30.5476C71.9783 30.6625 72.0752 30.7199 72.1268 30.7199L72.2044 30.7964C72.2561 30.8347 72.3013 30.873 72.3401 30.9113C72.3789 30.9496 72.4049 30.975 72.4177 30.9878C72.4307 31.0005 72.45 31.007 72.4758 31.007L72.7861 31.2749C72.8509 31.4281 72.9284 31.5747 73.0188 31.7152C73.1094 31.8426 73.1805 31.9383 73.2321 32.0023C73.2839 32.0532 73.3097 32.0851 73.3097 32.098V32.1745C73.4002 32.1745 73.5166 32.3594 73.6587 32.7296C73.8138 33.0867 73.8914 33.3038 73.8914 33.3804C74.1371 34.0055 74.2598 34.5223 74.2598 34.9307V35.103C74.2598 35.2433 74.234 35.339 74.1823 35.3901V35.658C74.1823 35.7218 74.1565 35.7983 74.1047 35.8877C74.0659 35.9643 74.0465 36.0152 74.0465 36.0408C74.0853 36.1046 74.1047 36.1557 74.1047 36.194C74.0144 36.5768 73.9432 36.7936 73.8914 36.8447V37.1318C73.8914 37.1827 73.8592 37.2402 73.7944 37.3041L73.523 37.9357V38.0314C73.2515 38.6182 73.0188 39.0713 72.8249 39.3904C72.631 39.7092 72.4952 39.888 72.4177 39.9263C72.3401 39.9518 72.2819 39.9772 72.2431 40.0029C72.2174 40.0155 72.2044 40.0603 72.2044 40.1368C72.114 40.2517 71.9847 40.4048 71.8165 40.5962C71.6486 40.7748 71.4999 40.9342 71.3705 41.0747C71.3317 41.1384 71.2154 41.2533 71.0215 41.4192C70.8406 41.585 70.6854 41.7446 70.5561 41.8977C70.5173 41.9232 70.4721 41.9423 70.4204 41.9552C70.3688 41.9678 70.33 41.9806 70.304 41.9934C70.2782 42.0061 70.2652 42.0317 70.2652 42.07L70.1877 42.1657C70.1231 42.204 70.0519 42.2294 69.9744 42.2423C69.8968 42.2677 69.8452 42.2932 69.8192 42.3188H69.7029C69.3798 42.6377 69.0114 42.7973 68.5976 42.7973H67.8607C67.5764 42.7973 67.3631 42.7399 67.2208 42.6251H67.1238C67.0463 42.6505 66.9947 42.6633 66.9687 42.6633C66.6844 42.6633 66.316 42.5294 65.8634 42.2614C65.411 42.0061 65.0877 41.7829 64.8938 41.5915C64.7905 41.5915 64.6935 41.5532 64.603 41.4767C64.5254 41.3873 64.4157 41.2533 64.2733 41.0747C64.1442 40.8833 64.0148 40.7237 63.8855 40.5962L63.4977 40.2325C63.4977 40.156 63.4395 40.0283 63.3231 39.8497C63.2068 39.671 63.1486 39.5498 63.1486 39.4861C62.6574 38.8479 62.4117 38.242 62.4117 37.6678C62.3084 37.4635 62.2438 37.1893 62.2178 36.8447C62.192 36.5002 62.1596 36.2577 62.1209 36.1174V35.5815C62.0563 35.339 62.0239 34.969 62.0239 34.4714V33.7249C62.0239 33.61 62.0369 33.4504 62.0627 33.2464C62.1015 33.0422 62.1209 32.8762 62.1209 32.7487C62.5863 31.5875 63.0453 30.6368 63.4977 29.8969C63.5494 29.8586 63.711 29.6735 63.9824 29.3418V29.2461C64.0472 29.2204 64.1182 29.163 64.1957 29.0738C64.2863 28.9844 64.3575 28.927 64.409 28.9016C64.435 28.8759 64.4932 28.8441 64.5836 28.8059C64.6871 28.7548 64.7647 28.7102 64.8163 28.6719C64.868 28.6208 64.8938 28.5697 64.8938 28.5188H64.9908C65.0168 28.4931 65.0683 28.4485 65.1459 28.3848C65.2235 28.3082 65.2947 28.2508 65.3592 28.2125C65.424 28.1742 65.4822 28.1551 65.5337 28.1551C65.5467 28.1551 65.6113 28.1423 65.7277 28.1168C65.844 28.0912 65.9282 28.0657 65.9797 28.0403C66.0315 28.002 66.0573 27.9509 66.0573 27.8871C66.0573 27.8615 66.0379 27.8297 65.9991 27.7914C65.9991 27.7403 66.0379 27.7149 66.1155 27.7149ZM70.5561 37.6678L70.6337 37.7635L70.7306 37.5721C71.0539 37.0488 71.2478 36.6277 71.3124 36.3088V35.9451C71.2996 34.6819 70.763 33.6992 69.7029 32.9976V32.9019L69.6059 32.8253C69.5544 32.8253 69.4508 32.7679 69.2957 32.653C69.1405 32.5382 69.0308 32.4808 68.966 32.4808H68.869C68.7915 32.4808 68.6751 32.436 68.52 32.3468C68.3649 32.2446 68.2227 32.1554 68.0934 32.0788C67.977 31.9894 67.8995 31.964 67.8607 32.0023C67.7444 32.066 67.6152 32.098 67.4729 32.098H66.9493L66.8524 32.1745C66.7102 32.1745 66.6133 32.2063 66.5615 32.2702C66.5227 32.2702 66.4711 32.2446 66.4063 32.1937C66.3418 32.1426 66.29 32.1171 66.2512 32.1171C66.1997 32.1171 66.1543 32.1363 66.1155 32.1745H65.9991C65.4174 32.1745 64.9586 32.9401 64.6223 34.4714V35.8303C64.6223 35.9195 64.6805 36.3214 64.7969 37.0361C65.0426 37.5209 65.2365 37.9229 65.3786 38.242C65.5337 38.3694 65.6825 38.58 65.8246 38.8736C65.967 39.0139 66.1609 39.135 66.4063 39.2373C66.665 39.3393 66.846 39.3904 66.9493 39.3904C67.0011 39.4541 67.0593 39.4861 67.1238 39.4861H67.4729C67.8219 39.4861 68.184 39.3393 68.5588 39.0459C68.9338 38.7522 69.1405 38.5991 69.1793 38.5865L69.4314 38.3185C69.4314 38.2929 69.4508 38.2674 69.4896 38.242C69.5414 38.2037 69.5801 38.1717 69.6059 38.1463L70.0907 37.6678V37.7635C70.1555 37.7252 70.22 37.6804 70.2846 37.6295C70.3622 37.5655 70.4203 37.5273 70.4591 37.5146V37.5721C70.4076 37.6103 70.3364 37.6995 70.2458 37.84C70.1555 37.9549 70.1101 37.9931 70.1101 37.9549C70.1101 37.9675 70.1361 37.9931 70.1877 38.0314L70.5561 37.6678ZM76.7111 31.2367H76.4978C76.4978 31.1727 76.5042 31.1153 76.5172 31.0644C76.5429 31.0133 76.5559 30.9813 76.5559 30.9687C76.5559 30.8539 76.4526 30.739 76.2457 30.6242C76.0388 30.4965 75.9354 30.4263 75.9354 30.4136C75.9354 30.3754 75.9548 30.3179 75.9936 30.2414H75.7027C75.7415 30.1392 75.7609 30.018 75.7609 29.8777V29.8012L76.1293 29.3801C77.4609 28.5505 78.5209 28.136 79.3095 28.136C79.5164 28.136 79.8137 28.1742 80.2015 28.2508C80.5893 28.3274 80.9772 28.3656 81.365 28.3656C81.8174 28.3656 82.244 28.4677 82.6448 28.6719C83.0456 28.8759 83.3171 29.0673 83.4592 29.2461C83.485 29.2844 83.5432 29.3609 83.6338 29.4758C83.7371 29.5906 83.8147 29.6926 83.8665 29.782C83.931 29.8586 83.9892 29.9543 84.041 30.0691C84.0928 30.184 84.1185 30.286 84.1185 30.3754C84.1185 30.5028 84.1509 30.6816 84.2155 30.9113C84.2931 31.141 84.3319 31.3132 84.3319 31.4281C84.3319 32.1297 83.9764 32.6913 83.2653 33.1124L83.3235 33.189C83.8277 33.2399 84.3382 33.5143 84.8554 34.012C85.3854 34.5096 85.8056 35.0582 86.1159 35.658C86.4261 36.2577 86.5812 36.7617 86.5812 37.1701V37.3615C86.5812 37.5273 86.607 37.6869 86.6588 37.84V38.0506C86.607 38.2802 86.5812 38.5928 86.5812 38.9884C86.607 39.1159 86.62 39.199 86.62 39.2373C86.62 39.8241 86.2904 40.5514 85.6311 41.4192L85.5729 41.4958C85.3532 41.8786 84.8424 42.2103 84.041 42.4911C83.2396 42.7845 82.6318 42.9313 82.2182 42.9313H81.4425C81.2874 42.9313 81.1581 42.9504 81.0547 42.9887C80.0206 42.9887 78.9799 42.676 77.9327 42.0509C76.8986 41.4384 76.2005 40.8131 75.8385 40.1751C75.8127 40.1623 75.7803 40.1368 75.7415 40.0986C75.7157 40.0475 75.6897 40.0092 75.6639 39.9837L75.6445 39.9454C75.6445 39.9072 75.6639 39.8689 75.7027 39.8306L75.6252 39.7732C75.6252 39.8115 75.58 39.8306 75.4894 39.8306C75.4118 39.7795 75.3473 39.7158 75.2955 39.6392C75.2437 39.5626 75.2115 39.4924 75.1985 39.4287C75.1855 39.3521 75.1792 39.2818 75.1792 39.2181C75.1792 39.1542 75.1728 39.1096 75.1598 39.0841C75.1468 39.0459 75.1274 39.033 75.1016 39.0459C75.0628 39.0076 75.0434 38.9119 75.0434 38.7588C75.0434 38.6694 75.0628 38.5991 75.1016 38.5482C75.1662 38.5482 75.2243 38.5737 75.2761 38.6248C75.3407 38.6757 75.4055 38.7013 75.47 38.7013C75.4958 38.7013 75.5412 38.7013 75.6058 38.7013C75.6703 38.6885 75.7221 38.6822 75.7609 38.6822C75.6963 38.4651 75.6639 38.344 75.6639 38.3185C75.6639 38.3057 75.6769 38.2611 75.7027 38.1845C75.7415 38.1845 75.7867 38.21 75.8385 38.2611C75.8385 38.1589 75.8127 38.0888 75.7609 38.0506H75.8966L75.8385 37.974C75.8385 37.8974 75.8709 37.8463 75.9354 37.8209C76.013 37.7952 76.0518 37.7506 76.0518 37.6869C76.2845 37.84 76.5108 37.9931 76.7305 38.1463C76.8468 38.2228 76.918 38.2611 76.9438 38.2611C76.9695 38.2611 76.9889 38.2611 77.0019 38.2611C77.2476 38.2611 77.4415 38.3377 77.5837 38.4908C77.6355 38.4651 77.6742 38.4525 77.7 38.4525L77.8939 38.5482L78.0879 38.7588C78.4887 39.1033 78.8053 39.2755 79.038 39.2755H79.4065C79.9236 39.3775 80.2985 39.4287 80.5312 39.4287C80.8284 39.4287 81.1259 39.3904 81.4232 39.3138C81.7204 39.2244 81.8692 39.135 81.8692 39.0459C82.3863 38.242 82.6448 37.5146 82.6448 36.8639C82.6448 36.2514 82.4639 35.7601 82.1019 35.3901C81.7398 35.0199 81.3004 34.835 80.7832 34.835C80.6411 34.835 80.3566 34.9307 79.93 35.1221C79.5164 35.3007 79.2383 35.3901 79.0962 35.3901C79.0574 35.3901 78.9862 35.3901 78.8829 35.3901C78.7923 35.3773 78.7214 35.3709 78.6696 35.3709C78.6308 35.3709 78.5726 35.3836 78.4951 35.4092C78.4305 35.4218 78.3917 35.4284 78.3787 35.4284C78.3012 35.4284 78.2106 35.3773 78.1072 35.2752C78.0039 35.173 77.9003 35.1221 77.797 35.1221C77.7324 35.1221 77.6288 35.0519 77.4867 34.9116C77.3446 34.7585 77.2346 34.6116 77.1571 34.4714V34.3948C77.0795 34.3437 76.9695 34.216 76.8274 34.012C76.6981 33.7949 76.6077 33.6866 76.5559 33.6866C76.6205 33.5844 76.6529 33.4824 76.6529 33.3804C76.6529 33.3547 76.6465 33.3164 76.6335 33.2655C76.6335 33.2144 76.6335 33.1698 76.6335 33.1315L76.7692 33.2081C76.795 33.2081 76.8404 33.1698 76.905 33.0933C76.9825 33.0167 77.0537 32.9401 77.1183 32.8636L77.2152 32.7487H77.4479L77.5837 32.5956L77.6806 32.4999C77.7582 32.4488 77.8294 32.3977 77.8939 32.3468C77.9585 32.2829 78.0167 32.2191 78.0685 32.1554C78.133 32.0915 78.1654 32.0469 78.1654 32.0214C78.2172 32.0086 78.3723 31.9894 78.6308 31.964C78.9023 31.9383 79.1092 31.9066 79.2513 31.8683H79.4646C79.6198 31.8683 79.7749 31.7852 79.93 31.6195C80.0852 31.4535 80.1627 31.3067 80.1627 31.1792C80.1627 30.975 80.0012 30.8347 79.6779 30.7582C79.3547 30.6816 79.0444 30.6433 78.7472 30.6433C78.4757 30.6433 77.797 30.841 76.7111 31.2367ZM88.8095 41.5341V41.8212C88.8095 41.9104 88.7643 41.9997 88.6737 42.0891V41.4001C88.5704 41.4001 88.5186 41.349 88.5186 41.247V41.113C88.5186 41.0747 88.4541 41.0108 88.3247 40.9216C88.2084 40.8194 88.1502 40.7556 88.1502 40.7302C88.1502 40.7174 88.1826 40.7111 88.2471 40.7111V40.5771C88.2471 40.3857 88.2923 40.2452 88.3829 40.156V38.2228C88.3829 37.5721 88.3377 37.1127 88.2471 36.8447V34.0694C88.2471 33.7121 88.202 33.4378 88.1114 33.2464V32.8444L88.092 32.653C88.0662 32.5382 88.0402 32.3914 88.0144 32.2128C87.9887 32.034 87.9627 31.8426 87.9369 31.6386C87.9239 31.4344 87.9045 31.2238 87.8787 31.007C87.8657 30.7899 87.8593 30.6114 87.8593 30.4711C87.8593 30.2031 87.8917 30.0691 87.9563 30.0691H87.9757C87.9757 29.8903 87.9239 29.7564 87.8205 29.6672V29.227C87.8205 28.9716 87.9239 28.7802 88.1308 28.6527C88.3505 28.5122 88.525 28.4422 88.6544 28.4422C88.7189 28.4805 88.9001 28.4996 89.1973 28.4996H89.6821C89.863 28.4996 90.0375 28.5122 90.2057 28.5379C90.3738 28.5505 90.5029 28.557 90.5935 28.557C90.8132 28.557 91.1688 28.5505 91.66 28.5379C92.1512 28.5251 92.5132 28.5188 92.7459 28.5188C93.5604 28.5188 94.0709 28.5825 94.2778 28.7102C94.7432 28.7102 95.3831 28.9398 96.1976 29.3992C96.3527 29.4501 96.5142 29.5523 96.6824 29.7055C96.8633 29.8457 97.025 29.9351 97.1671 29.9734C97.2577 30.0243 97.3287 30.1583 97.3804 30.3754C97.445 30.5794 97.5292 30.707 97.6325 30.7582C97.6843 30.8091 97.7295 30.8793 97.7683 30.9687C97.8201 31.0579 97.8652 31.1281 97.904 31.1792C98.1885 31.3195 98.3306 31.5938 98.3306 32.0023C98.46 32.0023 98.5245 32.1363 98.5245 32.4042C98.5245 32.4551 98.5051 32.4999 98.4664 32.5382V33.2464C98.4664 33.4378 98.4212 33.5335 98.3306 33.5335V34.2034C98.2661 34.2671 98.2143 34.3437 98.1755 34.4331C98.1497 34.5096 98.1303 34.5797 98.1173 34.6436C98.1173 34.7073 98.0979 34.7648 98.0591 34.8159C98.0204 34.8668 97.9686 34.8924 97.904 34.8924L97.4968 35.3135C97.4192 35.3901 97.3804 35.4347 97.3804 35.4475C97.3804 35.4984 97.458 35.5815 97.6131 35.6963C97.7683 35.8112 97.9428 35.9323 98.1367 36.06C98.3306 36.1874 98.4406 36.264 98.4664 36.2897C98.4921 36.3023 98.6085 36.3471 98.8154 36.4237C99.0351 36.5002 99.1968 36.5831 99.3002 36.6725C99.4035 36.749 99.4553 36.851 99.4553 36.9787V37.1127C99.5329 37.1893 99.5911 37.2721 99.6298 37.3615C99.6816 37.4507 99.7268 37.5721 99.7656 37.7252C99.8174 37.8783 99.8561 37.9931 99.8819 38.0697V38.2228C99.8301 38.2611 99.7914 38.3057 99.7656 38.3568C99.7398 38.3951 99.7268 38.4268 99.7268 38.4525V38.4908V38.9119C99.6362 39.0522 99.5459 39.1733 99.4553 39.2755C99.3778 39.3775 99.3132 39.4541 99.2614 39.5052C99.2226 39.5561 99.1257 39.6518 98.9705 39.7923C98.8284 39.9326 98.7054 40.0538 98.6021 40.156L98.1755 40.5771C98.1237 40.5771 98.0655 40.6025 98.001 40.6536C97.9492 40.6919 97.8522 40.7748 97.7101 40.9024C97.5807 41.0299 97.5098 41.1002 97.4968 41.113C97.3417 41.2661 97.1154 41.4255 96.8181 41.5915C96.5336 41.7446 96.3397 41.8212 96.2364 41.8212C96.0555 41.9997 95.9067 42.0891 95.7904 42.0891L95.6546 42.2423C95.5641 42.2932 95.4477 42.338 95.3056 42.3762C95.1634 42.4271 95.0471 42.4719 94.9565 42.5102V42.6442C94.8402 42.6442 94.6851 42.6888 94.4911 42.7782C94.3102 42.8674 94.1873 42.9122 94.1227 42.9122C93.9546 42.9122 93.7737 43.0079 93.5798 43.1993C93.3858 43.1993 93.2437 43.2439 93.1531 43.3333H92.1642C92.1512 43.3204 91.9639 43.231 91.6018 43.0653C91.3304 43.0653 91.1494 43.0142 91.0589 42.9122H90.9037C90.5417 42.5548 90.2638 42.3762 90.0699 42.3762C89.876 42.1848 89.6885 42.0891 89.5076 42.0891V41.9552H89.3524L89.081 41.6681C88.9904 41.5787 88.9001 41.5341 88.8095 41.5341ZM91.4273 39.888L92.0284 39.6009H92.1642C92.19 39.6009 92.2354 39.6135 92.2999 39.6392C92.3645 39.6518 92.4099 39.6583 92.4357 39.6583C92.4874 39.6583 92.5326 39.6392 92.5714 39.6009H92.7265C93.1401 39.4095 93.4698 39.2755 93.7155 39.199C93.7025 39.1861 93.7349 39.1542 93.8124 39.1033C93.903 39.0393 94.0194 38.9565 94.1615 38.8545C94.3166 38.7396 94.446 38.6182 94.5493 38.4908V38.3568C94.8208 38.3568 95.1892 38.1271 95.6546 37.6678C95.7064 37.6295 95.784 37.5401 95.8873 37.3998C95.9907 37.2593 96.0618 37.1636 96.1006 37.1127C96.1006 37.0488 96.0942 37.0105 96.0812 36.9979C96.0682 36.985 96.0294 36.9787 95.9649 36.9787H93.2889L93.2113 36.9979C93.1595 37.0105 93.0886 37.0233 92.998 37.0361C92.9074 37.0488 92.8105 37.0616 92.7071 37.0744C92.6166 37.087 92.5068 37.0999 92.3775 37.1127C92.2611 37.1253 92.1512 37.1318 92.0478 37.1318C91.8669 37.1318 91.7182 37.0999 91.6018 37.0361C91.4985 36.9722 91.4273 36.9085 91.3885 36.8447C91.3498 36.7808 91.324 36.749 91.311 36.749C91.298 36.749 91.2916 36.7808 91.2916 36.8447C91.214 36.8447 91.1688 36.851 91.1558 36.8639C91.1428 36.8765 91.1364 36.9148 91.1364 36.9787V37.2467C91.1364 37.285 91.1107 37.3741 91.0589 37.5146C91.0201 37.6549 91.0007 37.7506 91.0007 37.8017V38.3568C90.8974 38.5354 90.8456 38.7205 90.8456 38.9119V39.065C90.8068 39.1033 90.7744 39.1479 90.7486 39.199C90.7228 39.2373 90.7098 39.269 90.7098 39.2947V39.333C90.7486 39.3712 90.768 39.403 90.768 39.4287C90.7422 39.6327 90.6774 39.7349 90.5741 39.7349L90.8456 39.888C90.8974 39.8369 90.9489 39.7667 91.0007 39.6775C91.0525 39.5753 91.0977 39.5052 91.1364 39.4669V39.7349C91.1364 39.8115 91.1428 39.856 91.1558 39.8689C91.1688 39.8815 91.214 39.888 91.2916 39.888H91.4273ZM93.1531 31.4472H92.2999H92.203C92.0608 31.4472 91.9703 31.5238 91.9315 31.6769C91.8927 31.8172 91.8475 31.8874 91.7957 31.8874C91.757 31.8874 91.7246 31.8809 91.6988 31.8683C91.6988 31.9066 91.673 31.9512 91.6212 32.0023C91.5824 32.0532 91.5631 32.098 91.5631 32.1363V34.2034H91.8539L91.8927 34.2608C91.9185 34.2608 91.9379 34.1651 91.9509 33.9737C91.9767 33.7695 92.0091 33.6675 92.0478 33.6675C92.0736 33.6675 92.1124 33.7121 92.1642 33.8014C92.3451 33.8014 92.4357 33.7566 92.4357 33.6675H92.7265C92.8429 33.5652 93.0238 33.4824 93.2695 33.4186C93.5152 33.3547 93.6637 33.2973 93.7155 33.2464C94.2972 32.9784 94.6657 32.7422 94.8208 32.5382C94.8596 32.4871 94.9308 32.4425 95.0341 32.4042C95.1374 32.3531 95.2086 32.3085 95.2474 32.2702L95.5189 32.0023C95.5189 31.9129 95.4737 31.8172 95.3831 31.7152H94.9565C94.7626 31.5364 94.1615 31.4472 93.1531 31.4472ZM111.781 34.1651C111.768 34.1651 111.6 34.4905 111.277 35.1413C111.109 35.4218 111.025 35.5941 111.025 35.658V35.7346C111.025 35.9897 110.896 36.2386 110.637 36.4811C110.379 36.7234 110.081 36.9276 109.745 37.0936C109.409 37.2467 109.118 37.3678 108.872 37.4572C108.627 37.5464 108.472 37.5975 108.407 37.6103C108.368 37.6103 108.297 37.6358 108.194 37.6869C108.065 37.7635 107.554 37.8592 106.662 37.974C106.623 37.9866 106.558 37.9995 106.468 38.0123C106.39 38.0249 106.332 38.0377 106.293 38.0506C106.242 37.9483 106.119 37.8974 105.925 37.8974C105.912 37.9101 105.893 37.9166 105.867 37.9166C105.815 37.9166 105.738 37.9038 105.634 37.8783C105.531 37.84 105.453 37.8209 105.401 37.8209H104.858L104.839 37.8592C104.839 37.8974 104.839 37.9229 104.839 37.9357C104.839 38.1271 104.858 38.2737 104.897 38.3759C104.949 38.4651 104.981 38.58 104.994 38.7205L105.227 40.8068C105.227 40.8705 105.233 40.9599 105.246 41.0747C105.272 41.1896 105.285 41.2724 105.285 41.3235C105.246 41.349 105.188 41.4701 105.111 41.6872C105.085 41.6872 105.059 41.6807 105.033 41.6681C105.007 41.6552 104.981 41.6489 104.955 41.6489C104.93 41.6489 104.897 41.6681 104.858 41.7063C104.82 41.7318 104.787 41.7446 104.761 41.7446C104.736 41.7446 104.703 41.7255 104.665 41.6872C104.626 41.6872 104.516 41.7829 104.335 41.9743C104.154 42.1657 103.947 42.2805 103.714 42.3188C103.456 42.4463 103.314 42.5102 103.288 42.5102C103.275 42.5102 103.256 42.5037 103.23 42.4911C103.204 42.4911 103.178 42.4911 103.152 42.4911C103.152 42.542 103.1 42.5803 102.997 42.6059C102.907 42.6314 102.784 42.6568 102.628 42.6825C102.473 42.7079 102.389 42.7208 102.376 42.7208C102.299 42.7462 102.247 42.759 102.221 42.759C101.989 42.759 101.788 42.5931 101.62 42.2614C101.465 41.9423 101.375 41.6169 101.349 41.2853L101.232 39.3904C101.155 38.3694 101.116 37.623 101.116 37.151C101.116 36.9596 101.129 36.666 101.155 36.2705C101.193 35.8621 101.213 35.5558 101.213 35.3518C101.213 34.9816 101.155 34.2926 101.038 33.2847C101.038 33.1824 101.058 33.0422 101.097 32.8636C101.148 32.6722 101.174 32.5573 101.174 32.5191C101.123 32.4679 101.097 31.5747 101.097 29.8394C101.097 29.2524 101.174 28.9207 101.329 28.8441H101.504C101.556 28.6145 101.581 28.4613 101.581 28.3848C101.62 28.3848 101.769 28.4165 102.027 28.4805H102.202H102.241C102.267 28.4677 102.286 28.4613 102.299 28.4613C102.351 28.4613 102.428 28.4931 102.531 28.557C102.674 28.5314 102.913 28.5188 103.249 28.5188C103.792 28.5188 104.529 28.5762 105.46 28.691C106.39 28.793 106.869 28.8441 106.895 28.8441C107.683 28.8441 108.653 29.163 109.803 29.8012C109.946 29.8903 110.062 29.986 110.152 30.0883C110.256 30.1774 110.372 30.3051 110.501 30.4711C110.631 30.6242 110.753 30.7582 110.87 30.873C111.025 30.975 111.161 31.1856 111.277 31.5046C111.406 31.8109 111.497 32.0086 111.548 32.098C111.717 32.3914 111.801 32.7359 111.801 33.1315C111.801 33.425 111.762 33.6866 111.684 33.9163L111.781 34.1651ZM105.091 35.103C105.44 35.0264 105.822 34.969 106.235 34.9307C106.662 34.8924 106.953 34.8605 107.108 34.835C107.263 34.7967 107.412 34.701 107.554 34.5479C107.709 34.3948 107.825 34.1586 107.903 33.8397C107.942 33.6866 107.961 33.5335 107.961 33.3804C107.961 33.1633 107.832 32.9019 107.573 32.5956C107.328 32.2765 107.017 32.0723 106.642 31.9831C106.332 31.9192 105.97 31.8874 105.557 31.8874C105.091 31.8874 104.858 31.9575 104.858 32.098C104.858 32.1489 104.865 32.1937 104.878 32.232V32.4042C104.878 32.7742 104.897 33.1698 104.936 33.5909C104.975 33.9992 105.007 34.3437 105.033 34.6245C105.072 34.8924 105.091 35.0519 105.091 35.103ZM120.356 41.802L120.278 41.5149C120.253 41.5021 120.22 41.4255 120.181 41.2853V41.2661C120.181 41.2404 120.169 41.2022 120.143 41.1513C120.13 41.1002 120.123 41.0619 120.123 41.0364V40.9982C119.994 40.8705 119.929 40.7556 119.929 40.6536L119.852 40.5579V40.5388C119.852 40.5131 119.832 40.4877 119.794 40.4622C119.768 40.4366 119.755 40.4111 119.755 40.3857V40.3665C119.755 40.29 119.684 40.1495 119.541 39.9454C119.412 39.7412 119.348 39.6135 119.348 39.5626L119.251 39.4861C119.277 39.4604 119.289 39.435 119.289 39.4095V39.3904C119.277 39.3647 119.27 39.3393 119.27 39.3138H119.251C119.199 39.3138 119.089 39.1861 118.921 38.931C118.753 38.6757 118.598 38.5482 118.455 38.5482H118.3C118.288 38.5482 118.249 38.5417 118.184 38.5291C118.119 38.5162 118.068 38.5099 118.029 38.5099C117.926 38.5099 117.822 38.5225 117.719 38.5482C117.615 38.5737 117.551 38.5865 117.525 38.5865C117.512 38.5865 117.493 38.5865 117.467 38.5865C117.454 38.5737 117.441 38.5674 117.428 38.5674C117.311 38.5674 117.221 38.5928 117.156 38.6439C117.144 38.6439 117.118 38.6439 117.079 38.6439C117.04 38.6311 117.008 38.6248 116.982 38.6248C116.943 38.6248 116.704 38.6565 116.264 38.7205C115.838 38.7714 115.515 38.797 115.295 38.797H115.217L115.353 38.7779C115.353 38.7651 115.327 38.7588 115.275 38.7588C115.159 38.7842 115.101 38.8162 115.101 38.8545H115.004C114.862 38.8545 114.791 38.9693 114.791 39.199C114.791 39.2116 114.797 39.2181 114.81 39.2181L114.829 39.199V39.2181C114.829 39.3584 114.784 39.6009 114.694 39.9454C114.603 40.29 114.564 40.4877 114.577 40.5388L114.558 40.6153V40.7111V40.8833C114.584 40.9599 114.597 41.0173 114.597 41.0556C114.597 41.1704 114.532 41.3361 114.403 41.5532C114.274 41.7572 114.157 41.8595 114.054 41.8595C114.041 41.8595 114.021 41.8529 113.995 41.8403C113.97 41.8275 113.95 41.8212 113.937 41.8212L113.782 41.9169L113.685 41.8977C113.659 41.936 113.491 41.9552 113.181 41.9552C112.884 41.9552 112.709 41.9678 112.658 41.9934H112.483C112.47 42.0317 112.418 42.0763 112.328 42.1274C112.237 42.1911 112.173 42.2231 112.134 42.2231H112.115C112.024 42.274 111.953 42.2997 111.901 42.2997C111.85 42.2997 111.804 42.274 111.765 42.2231H111.688C111.546 42.1592 111.475 42.0891 111.475 42.0126C111.475 41.9486 111.488 41.904 111.513 41.8786V41.7829C111.449 41.719 111.416 41.5978 111.416 41.4192C111.442 41.4064 111.539 41.3553 111.707 41.2661L111.688 41.1704C111.688 41.1447 111.701 41.1065 111.727 41.0556C111.766 41.0045 111.785 40.9662 111.785 40.9407C111.759 40.8642 111.746 40.8194 111.746 40.8068C111.746 40.7939 111.772 40.7685 111.824 40.7302C111.875 40.6919 111.914 40.6728 111.94 40.6728H111.979C112.031 40.6599 112.056 40.6153 112.056 40.5388V40.4814C112.173 40.29 112.263 40.022 112.328 39.6775C112.405 39.3201 112.464 39.1224 112.502 39.0841C112.502 38.9693 112.477 38.8799 112.425 38.8162H112.502C112.451 38.7522 112.412 38.7076 112.386 38.6822C112.36 38.6439 112.334 38.6182 112.308 38.6056C112.283 38.58 112.263 38.5674 112.25 38.5674C112.237 38.5545 112.211 38.5417 112.173 38.5291C112.134 38.5162 112.095 38.4971 112.056 38.4716C112.069 38.3823 112.147 38.2611 112.289 38.108C112.444 37.942 112.619 37.7952 112.813 37.6678C112.864 37.6295 112.923 37.489 112.987 37.2467C113.052 37.0042 113.11 36.7362 113.162 36.4428C113.226 36.1365 113.278 35.9386 113.317 35.8494C113.459 35.441 113.646 34.7456 113.879 33.7632C114.112 32.7679 114.286 32.0915 114.403 31.7343C114.442 31.6704 114.474 31.5364 114.5 31.3324C114.526 31.1153 114.584 30.8985 114.674 30.6816L114.694 30.5093C114.732 30.4582 114.765 30.3688 114.791 30.2414C114.817 30.1137 114.842 30.0243 114.868 29.9734C114.829 29.9351 114.81 29.884 114.81 29.8203C114.888 29.782 114.946 29.6989 114.984 29.5715C115.036 29.4438 115.075 29.3801 115.101 29.3801H115.159C115.25 29.3035 115.34 29.1887 115.43 29.0355L115.721 28.7676C115.786 28.7676 115.883 28.7228 116.012 28.6336C116.155 28.5314 116.29 28.4805 116.419 28.4805C116.445 28.4805 116.484 28.4868 116.536 28.4996C116.562 28.5251 116.588 28.5379 116.613 28.5379H116.633L116.691 28.6145C116.717 28.5634 116.82 28.5122 117.001 28.4613C117.182 28.4102 117.376 28.3591 117.583 28.3082C117.79 28.2571 117.913 28.2251 117.951 28.2125C118.068 28.3017 118.126 28.3911 118.126 28.4805L118.203 28.3848C118.501 28.5379 118.734 28.7228 118.902 28.9398C119.083 29.1439 119.199 29.2587 119.251 29.2844C119.38 29.4118 119.587 29.7055 119.871 30.1648C120.156 30.6113 120.382 30.9176 120.55 31.0835C120.666 31.2367 120.795 31.4598 120.938 31.7535C121.093 32.0469 121.17 32.2383 121.17 32.3277L121.248 32.3085C121.3 32.3722 121.325 32.4679 121.325 32.5956V32.6913C121.429 32.8188 121.532 33.0676 121.636 33.4378C121.752 33.7949 121.849 34.0437 121.927 34.1843C122.172 34.5925 122.45 35.2496 122.76 36.1557C122.76 36.1683 122.812 36.2577 122.915 36.4237C123.032 36.5768 123.09 36.7042 123.09 36.8065V36.8256C123.62 38.178 123.904 38.899 123.943 38.9884C124.098 39.269 124.318 39.6838 124.603 40.2325L124.796 40.5962V40.5771C124.952 40.8576 125.029 41.0556 125.029 41.1704C125.029 41.2087 125.01 41.247 124.971 41.2853V41.381C124.971 41.5467 124.939 41.6615 124.874 41.7255L124.68 41.8977C124.629 41.8977 124.603 41.9295 124.603 41.9934L124.68 42.1657H124.603C124.551 42.1146 124.512 42.0891 124.486 42.0891C124.473 42.0891 124.454 42.1083 124.428 42.1466C124.415 42.1848 124.402 42.204 124.389 42.204C124.325 42.204 124.26 42.1848 124.195 42.1466C124.131 42.1083 124.079 42.07 124.04 42.0317C124.014 41.9934 123.982 41.9423 123.943 41.8786C123.904 41.8275 123.885 41.802 123.885 41.802C123.743 41.802 123.594 41.7701 123.439 41.7063C123.297 41.6298 123.181 41.5915 123.09 41.5915C123.09 41.6169 123.09 41.6361 123.09 41.6489L123.109 41.6872C123.109 41.904 123.006 42.0509 122.799 42.1274H122.78C122.754 42.1274 122.702 42.1592 122.625 42.2231C122.547 42.2869 122.424 42.3188 122.256 42.3188C121.959 42.3188 121.694 42.2932 121.461 42.2423C121.241 42.204 121.093 42.1592 121.015 42.1083C120.938 42.07 120.892 42.0317 120.879 41.9934L120.802 41.8977L120.705 41.9743C120.666 42.0126 120.627 42.0317 120.589 42.0317C120.537 42.0317 120.492 41.9869 120.453 41.8977L120.356 41.802ZM117.854 36.883C117.893 36.883 117.913 36.8893 117.913 36.9022C117.732 36.4171 117.583 36.0343 117.467 35.7537C117.363 35.473 117.299 35.307 117.273 35.2561C117.26 35.205 117.234 35.1413 117.195 35.0647C117.169 34.9881 117.131 34.8668 117.079 34.701C117.053 34.6245 116.943 34.4331 116.749 34.1268C116.555 33.8206 116.445 33.6227 116.419 33.5335C116.342 33.7758 116.271 33.9992 116.206 34.2034C116.142 34.3948 116.09 34.5351 116.051 34.6245C116.012 34.7137 115.98 34.7967 115.954 34.8733C115.928 34.937 115.909 34.9881 115.896 35.0264C115.896 35.0519 115.896 35.0773 115.896 35.103C115.896 35.1539 115.857 35.2113 115.78 35.2752C115.508 36.2066 115.372 36.7299 115.372 36.8447C115.308 36.8956 115.275 36.9467 115.275 36.9979C115.702 36.9467 116.562 36.9085 117.854 36.883ZM123.479 31.6003V31.5429C123.635 31.4663 123.751 31.4024 123.828 31.3515L123.751 31.2367L124.061 30.9687C123.945 30.9176 123.828 30.7453 123.712 30.4519L123.654 30.3371C123.628 30.2988 123.615 30.2477 123.615 30.184C123.615 29.9669 123.861 29.8586 124.352 29.8586C124.417 29.8586 124.514 29.884 124.643 29.9351C124.772 29.9734 124.876 29.9926 124.953 29.9926C125.225 29.9926 125.36 29.9606 125.36 29.8969L125.089 29.6863C125.089 29.6352 125.14 29.6098 125.244 29.6098L125.166 29.5523C125.14 29.5267 125.128 29.5012 125.128 29.4758C125.128 29.4375 125.16 29.4184 125.225 29.4184L125.419 29.4758L125.36 29.1504C125.645 29.1504 125.858 29.1439 126 29.1312C126 29.1184 125.968 29.0355 125.903 28.8824C126.317 28.9973 126.776 29.0547 127.28 29.0547C127.422 29.0547 127.629 29.0482 127.901 29.0355C128.185 29.0227 128.405 29.0164 128.56 29.0164C128.793 29.0164 128.974 29.0227 129.103 29.0355C129.775 29.0099 130.176 28.9781 130.305 28.9398C130.331 28.9781 130.492 29.0099 130.79 29.0355C131.1 29.061 131.533 29.0864 132.089 29.1121C132.658 29.1376 132.955 29.1504 132.981 29.1504C133.33 29.1758 133.653 29.2078 133.951 29.2461C134.261 29.2715 134.584 29.297 134.92 29.3227L135.87 29.4375C136.271 29.4884 136.562 29.7755 136.743 30.2988C136.743 30.3242 136.724 30.3562 136.685 30.3945C136.659 30.4199 136.646 30.4391 136.646 30.4519C136.646 30.5157 136.691 30.5794 136.782 30.6433L136.898 30.7582C136.821 30.9367 136.691 31.141 136.51 31.3706C136.329 31.5875 136.193 31.7023 136.103 31.7152L136.161 31.9449C136.123 31.9703 136.045 32.0469 135.929 32.1745C135.812 32.2894 135.702 32.3851 135.599 32.4616C135.508 32.5254 135.431 32.5573 135.366 32.5573C134.435 32.6211 133.867 32.653 133.66 32.653C133.427 32.653 133.246 32.6402 133.117 32.6148H132.147C132.031 32.6148 131.966 32.6785 131.953 32.8062L131.895 33.3229C131.856 33.6164 131.837 34.1077 131.837 34.7967C131.837 35.205 131.843 35.4984 131.856 35.6772V35.4475C131.856 35.307 131.863 35.237 131.876 35.237V35.3327L131.953 36.6151C131.953 36.7682 131.966 36.9913 131.992 37.285C132.031 37.5655 132.05 37.7635 132.05 37.8783L131.992 38.3377L131.953 39.2564C131.85 39.6392 131.798 39.8752 131.798 39.9646L131.74 40.6345C131.74 40.6854 131.714 40.7428 131.663 40.8068C131.624 40.8576 131.604 40.9025 131.604 40.9407C131.604 41.0939 131.617 41.317 131.643 41.6106C131.669 41.904 131.682 42.1209 131.682 42.2614C131.643 42.2486 131.591 42.2423 131.527 42.2423C131.514 42.2423 131.365 42.3506 131.081 42.5676C130.796 42.7973 130.635 42.9122 130.596 42.9122C130.544 42.9122 130.499 42.8865 130.46 42.8356C130.344 42.9248 130.247 42.9696 130.169 42.9696C130.079 42.9696 129.995 42.9313 129.917 42.8547L129.84 43.0079C129.801 43.0844 129.749 43.1227 129.685 43.1227C129.542 43.1227 129.42 42.9887 129.316 42.7208C129.213 42.4654 129.142 42.14 129.103 41.7446C129.077 41.3362 129.057 41.0236 129.045 40.8068C129.032 40.5897 129.025 40.4048 129.025 40.2517L128.87 40.29C128.87 40.2643 128.857 40.1877 128.831 40.0603C128.818 39.9198 128.812 39.8178 128.812 39.754L128.579 36.9213C128.566 36.8065 128.541 36.5639 128.502 36.194C128.476 35.8112 128.456 35.5175 128.444 35.3135V35.1795C128.444 35.0264 128.463 34.1651 128.502 32.5956V32.4999C128.489 32.4999 128.482 32.4999 128.482 32.4999L128.444 32.4808C127.616 32.3403 126.976 32.2702 126.524 32.2702C126.459 32.2702 126.375 32.2829 126.272 32.3085C126.168 32.3211 126.091 32.3277 126.039 32.3277C125.923 32.3277 125.703 32.2829 125.38 32.1937C125.069 32.1043 124.901 32.0597 124.876 32.0597C124.837 32.0597 124.811 32.066 124.798 32.0788C124.772 32.0788 124.753 32.0723 124.74 32.0597L124.236 31.9449C124.184 31.9192 124.119 31.8874 124.042 31.8492C123.977 31.798 123.912 31.7598 123.848 31.7343C123.796 31.696 123.731 31.6704 123.654 31.6578L123.479 31.6003ZM141.579 27.7149V27.7914C141.644 27.8552 141.702 27.8871 141.753 27.8871C141.87 27.8871 141.96 27.8552 142.025 27.7914H142.781C142.768 27.7786 142.788 27.7532 142.839 27.7149C142.891 27.6638 142.923 27.6383 142.936 27.6383C142.949 27.6383 142.982 27.6638 143.033 27.7149L143.091 27.7723C143.13 27.7723 143.149 27.7532 143.149 27.7149C143.201 27.7149 143.259 27.7403 143.324 27.7914H143.421C144.106 27.97 144.513 28.1231 144.643 28.2508H144.72C144.72 28.4165 144.908 28.6079 145.283 28.825C145.283 28.8505 145.315 28.895 145.379 28.959C145.444 29.0099 145.515 29.0673 145.593 29.1312C145.67 29.195 145.716 29.2333 145.729 29.2461C145.78 29.3098 145.877 29.3418 146.019 29.3418H146.194C146.168 29.3927 146.155 29.4438 146.155 29.4949C146.155 29.5204 146.162 29.5458 146.174 29.5715C146.188 29.5969 146.194 29.6161 146.194 29.6289L146.388 29.8203C146.504 29.8203 146.562 29.8712 146.562 29.9734H146.679C146.64 30.0117 146.621 30.0435 146.621 30.0691C146.621 30.1074 146.711 30.1903 146.892 30.3179C147.086 30.4328 147.222 30.5093 147.299 30.5476C147.442 30.6625 147.538 30.7199 147.59 30.7199L147.668 30.7964C147.719 30.8347 147.765 30.873 147.803 30.9113C147.842 30.9496 147.868 30.975 147.881 30.9878C147.894 31.0005 147.913 31.007 147.939 31.007L148.249 31.2749C148.314 31.4281 148.392 31.5747 148.482 31.7152C148.573 31.8426 148.644 31.9383 148.695 32.0023C148.747 32.0532 148.773 32.0851 148.773 32.098V32.1745C148.864 32.1745 148.98 32.3594 149.122 32.7296C149.277 33.0867 149.355 33.3038 149.355 33.3804C149.6 34.0055 149.723 34.5223 149.723 34.9307V35.103C149.723 35.2433 149.697 35.339 149.646 35.3901V35.658C149.646 35.7218 149.62 35.7983 149.568 35.8877C149.529 35.9643 149.51 36.0152 149.51 36.0408C149.549 36.1046 149.568 36.1557 149.568 36.194C149.478 36.5768 149.406 36.7936 149.355 36.8447V37.1318C149.355 37.1827 149.322 37.2402 149.258 37.3041L148.986 37.9357V38.0314C148.715 38.6182 148.482 39.0713 148.288 39.3904C148.094 39.7092 147.958 39.888 147.881 39.9263C147.803 39.9518 147.745 39.9772 147.706 40.0029C147.681 40.0155 147.668 40.0603 147.668 40.1368C147.577 40.2517 147.448 40.4048 147.28 40.5962C147.112 40.7748 146.963 40.9342 146.834 41.0747C146.795 41.1384 146.679 41.2533 146.485 41.4192C146.304 41.585 146.149 41.7446 146.019 41.8977C145.981 41.9232 145.935 41.9423 145.884 41.9552C145.832 41.9678 145.793 41.9806 145.767 41.9934C145.742 42.0061 145.729 42.0317 145.729 42.07L145.651 42.1657C145.586 42.204 145.515 42.2294 145.438 42.2423C145.36 42.2677 145.309 42.2932 145.283 42.3188H145.166C144.843 42.6377 144.475 42.7973 144.061 42.7973H143.324C143.04 42.7973 142.826 42.7399 142.684 42.6251H142.587C142.51 42.6505 142.458 42.6633 142.432 42.6633C142.148 42.6633 141.779 42.5294 141.327 42.2614C140.874 42.0061 140.551 41.7829 140.357 41.5915C140.254 41.5915 140.157 41.5532 140.066 41.4767C139.989 41.3873 139.879 41.2533 139.737 41.0747C139.607 40.8833 139.478 40.7237 139.349 40.5962L138.961 40.2325C138.961 40.156 138.903 40.0283 138.786 39.8497C138.67 39.671 138.612 39.5498 138.612 39.4861C138.121 38.8479 137.875 38.242 137.875 37.6678C137.772 37.4635 137.707 37.1893 137.681 36.8447C137.655 36.5002 137.623 36.2577 137.584 36.1174V35.5815C137.52 35.339 137.487 34.969 137.487 34.4714V33.7249C137.487 33.61 137.5 33.4504 137.526 33.2464C137.565 33.0422 137.584 32.8762 137.584 32.7487C138.05 31.5875 138.509 30.6368 138.961 29.8969C139.013 29.8586 139.174 29.6735 139.446 29.3418V29.2461C139.511 29.2204 139.581 29.163 139.659 29.0738C139.75 28.9844 139.821 28.927 139.872 28.9016C139.898 28.8759 139.956 28.8441 140.047 28.8059C140.15 28.7548 140.228 28.7102 140.28 28.6719C140.331 28.6208 140.357 28.5697 140.357 28.5188H140.454C140.48 28.4931 140.532 28.4485 140.609 28.3848C140.687 28.3082 140.758 28.2508 140.823 28.2125C140.887 28.1742 140.945 28.1551 140.997 28.1551C141.01 28.1551 141.075 28.1423 141.191 28.1168C141.307 28.0912 141.391 28.0657 141.443 28.0403C141.495 28.002 141.521 27.9509 141.521 27.8871C141.521 27.8615 141.501 27.8297 141.462 27.7914C141.462 27.7403 141.501 27.7149 141.579 27.7149ZM146.019 37.6678L146.097 37.7635L146.194 37.5721C146.517 37.0488 146.711 36.6277 146.776 36.3088V35.9451C146.763 34.6819 146.226 33.6992 145.166 32.9976V32.9019L145.069 32.8253C145.018 32.8253 144.914 32.7679 144.759 32.653C144.604 32.5382 144.494 32.4808 144.429 32.4808H144.332C144.255 32.4808 144.138 32.436 143.983 32.3468C143.828 32.2446 143.686 32.1554 143.557 32.0788C143.44 31.9894 143.363 31.964 143.324 32.0023C143.208 32.066 143.078 32.098 142.936 32.098H142.413L142.316 32.1745C142.174 32.1745 142.077 32.2063 142.025 32.2702C141.986 32.2702 141.934 32.2446 141.87 32.1937C141.805 32.1426 141.753 32.1171 141.715 32.1171C141.663 32.1171 141.618 32.1363 141.579 32.1745H141.462C140.881 32.1745 140.422 32.9401 140.086 34.4714V35.8303C140.086 35.9195 140.144 36.3214 140.26 37.0361C140.506 37.5209 140.7 37.9229 140.842 38.242C140.997 38.3694 141.146 38.58 141.288 38.8736C141.43 39.0139 141.624 39.135 141.87 39.2373C142.128 39.3393 142.309 39.3904 142.413 39.3904C142.464 39.4541 142.523 39.4861 142.587 39.4861H142.936C143.285 39.4861 143.647 39.3393 144.022 39.0459C144.397 38.7522 144.604 38.5991 144.643 38.5865L144.895 38.3185C144.895 38.2929 144.914 38.2674 144.953 38.242C145.005 38.2037 145.043 38.1717 145.069 38.1463L145.554 37.6678V37.7635C145.619 37.7252 145.683 37.6804 145.748 37.6295C145.825 37.5655 145.884 37.5273 145.922 37.5146V37.5721C145.871 37.6103 145.8 37.6995 145.709 37.84C145.619 37.9549 145.573 37.9931 145.573 37.9549C145.573 37.9675 145.599 37.9931 145.651 38.0314L146.019 37.6678ZM165.38 35.6006L165.535 40.3474C165.535 40.3217 165.522 40.3346 165.496 40.3857C165.276 40.7556 165.128 40.9533 165.05 40.979C165.024 40.9916 165.005 40.9982 164.992 40.9982C164.966 40.9982 164.921 41.0364 164.856 41.113C164.804 41.1896 164.746 41.2724 164.682 41.3618C164.617 41.451 164.578 41.5021 164.565 41.5149H164.236C164.21 41.5532 164.178 41.585 164.139 41.6106C164.1 41.6361 164.068 41.6615 164.042 41.6872C164.029 41.6998 164.022 41.719 164.022 41.7446C164.022 41.8338 163.835 41.9615 163.46 42.1274C163.085 42.306 162.859 42.5037 162.781 42.7208L162.684 42.8165C162.684 42.7399 162.626 42.6314 162.51 42.4911C162.407 42.3506 162.284 42.2423 162.141 42.1657C161.986 42.1657 161.87 42.0763 161.792 41.8977C161.715 41.719 161.657 41.4575 161.618 41.113C161.592 40.7685 161.573 40.5771 161.56 40.5388C161.495 40.2963 161.463 39.7221 161.463 38.8162C161.463 37.7952 161.398 36.7108 161.269 35.5623V35.3518V34.9881C161.256 35.0136 161.224 35.103 161.172 35.2561C161.12 35.3964 161.075 35.4858 161.036 35.5241C160.842 35.894 160.435 36.3854 159.815 36.9979C159.789 37.0233 159.711 37.1318 159.582 37.3232C159.452 37.5146 159.369 37.623 159.33 37.6486C159.304 37.6741 159.142 37.8846 158.845 38.2802C158.548 38.6757 158.38 38.8927 158.341 38.931C158.276 38.931 158.205 38.9628 158.127 39.0267C158.05 38.9756 157.992 38.9502 157.953 38.9502C157.914 38.9502 157.869 38.9756 157.817 39.0267H157.255C157.203 39.0267 157.061 38.9436 156.828 38.7779C156.596 38.5991 156.421 38.5099 156.305 38.5099L156.072 38.2802C156.046 38.2674 156.014 38.242 155.975 38.2037C155.936 38.1526 155.891 38.1143 155.839 38.0888V38.5099C155.839 38.7268 155.884 38.899 155.975 39.0267V40.3282C155.897 40.3282 155.846 40.4174 155.82 40.5962C155.794 40.7748 155.697 40.8642 155.529 40.8642C155.529 40.9025 155.471 40.9853 155.355 41.113C155.238 41.2278 155.148 41.2853 155.083 41.2853L154.443 41.6106H154.327C154.301 41.5724 154.275 41.5532 154.249 41.5532L154.036 41.6681C153.984 41.6935 153.939 41.7063 153.9 41.7063C153.797 41.7063 153.693 41.7764 153.59 41.9169C153.499 42.0572 153.39 42.1274 153.26 42.1274H152.834C152.782 42.1911 152.743 42.2231 152.717 42.2231L152.64 42.1848C152.601 42.1466 152.543 42.1083 152.465 42.07C152.401 42.0443 152.336 42.0317 152.271 42.0317C151.767 41.8912 151.515 40.7876 151.515 38.7205C151.515 38.2994 151.483 37.6741 151.418 36.8447C151.354 36.0152 151.321 35.4284 151.321 35.0838C151.321 34.8542 151.295 34.5542 151.244 34.1843C151.205 33.8141 151.185 33.5398 151.185 33.3612V29.6289C151.185 29.4884 151.153 29.3801 151.088 29.3035C151.166 29.2652 151.257 29.2141 151.36 29.1504C151.463 29.0864 151.554 29.0355 151.631 28.9973C151.657 28.9716 151.703 28.895 151.767 28.7676C151.832 28.6271 151.916 28.5059 152.019 28.4039C152.123 28.3017 152.246 28.2508 152.388 28.2508C152.439 28.3017 152.491 28.3274 152.543 28.3274C152.607 28.3274 152.666 28.3017 152.717 28.2508H152.834C152.924 28.2762 153.066 28.3082 153.26 28.3465C153.454 28.3848 153.622 28.4294 153.764 28.4805C153.907 28.5314 154.03 28.5953 154.133 28.6719C154.262 28.9525 154.366 29.1247 154.443 29.1887C154.546 29.5332 154.656 29.8903 154.773 30.2605C154.812 30.4008 154.857 30.6114 154.909 30.8921C154.96 31.1727 155.012 31.4152 155.064 31.6195C155.128 31.8235 155.212 31.9831 155.316 32.098C155.717 32.4934 156.111 33.0613 156.499 33.8014C156.537 33.8652 156.576 33.9737 156.615 34.1268C156.654 34.2671 156.693 34.3691 156.731 34.4331C156.835 34.5479 156.925 34.6819 157.003 34.835C157.08 34.9753 157.164 35.1476 157.255 35.3518C157.345 35.5432 157.423 35.7026 157.488 35.8303L157.72 35.4666C158.858 33.744 159.427 32.7231 159.427 32.4042C159.53 32.4042 159.627 32.3277 159.718 32.1745C159.821 32.0086 159.873 31.8683 159.873 31.7535C159.937 31.8172 160.008 31.8492 160.086 31.8492C160.177 31.4535 160.319 31.0644 160.513 30.6816V31.007C160.59 31.007 160.629 31.0835 160.629 31.2367L160.823 30.9304V31.007C160.978 30.8921 161.056 30.7836 161.056 30.6816H160.959C161.01 30.4774 161.036 30.3179 161.036 30.2031C161.036 30.1137 161.01 29.9543 160.959 29.7246C160.894 29.7629 160.842 29.8075 160.803 29.8586C160.765 29.9095 160.732 29.9669 160.707 30.0308C160.681 30.0946 160.655 30.1392 160.629 30.1648H160.513C160.72 29.9606 160.823 29.7755 160.823 29.6098C160.875 29.5841 160.939 29.5523 161.017 29.5141C161.107 29.4629 161.166 29.431 161.191 29.4184C161.217 29.3927 161.249 29.3609 161.288 29.3227C161.327 29.2715 161.353 29.2204 161.366 29.1695C161.379 29.1184 161.385 29.0547 161.385 28.9781C161.476 28.927 161.644 28.895 161.889 28.8824C162.135 28.8696 162.29 28.8313 162.355 28.7676C163.208 28.7676 163.893 29.3353 164.41 30.4711V30.6816C164.501 30.9113 164.578 31.1727 164.643 31.4664C164.721 31.7598 164.792 31.9958 164.856 32.1745C165.063 32.787 165.167 33.2207 165.167 33.4761C165.167 33.4887 165.16 33.5207 165.147 33.5718C165.134 33.6227 165.128 33.6609 165.128 33.6866C165.128 33.8652 165.212 34.4331 165.38 35.3901V35.6006ZM160.823 30.9304V30.7964H160.881L160.823 30.9304ZM160.959 30.6816C160.959 30.7582 160.933 30.7964 160.881 30.7964L160.959 30.6816ZM167.478 40.0603C167.465 40.0092 167.426 39.9518 167.362 39.888C167.297 39.8241 167.265 39.7667 167.265 39.7158C167.265 39.5115 167.342 39.3393 167.497 39.199C167.665 39.0585 167.749 38.9693 167.749 38.931C167.762 38.9182 167.782 38.8862 167.808 38.8353C167.846 38.7842 167.872 38.7459 167.885 38.7205C167.911 38.6948 167.95 38.6694 168.001 38.6439C168.053 38.6056 168.118 38.58 168.195 38.5674C168.247 38.5674 168.312 38.58 168.389 38.6056C168.363 38.6056 168.344 38.6119 168.331 38.6248H168.312C168.312 38.6374 168.325 38.6565 168.35 38.6822L168.389 38.7205L168.35 38.7779C168.325 38.8033 168.312 38.8288 168.312 38.8545C168.312 38.8671 168.318 38.8736 168.331 38.8736C168.357 38.8736 168.37 38.8799 168.37 38.8927C168.383 38.8927 168.389 38.9053 168.389 38.931H168.467C168.544 38.931 168.596 38.899 168.622 38.8353L168.719 38.7588C168.9 38.6822 169.042 38.6439 169.146 38.6439C169.262 38.6439 169.391 38.6822 169.533 38.7588C169.688 38.8225 169.792 38.8545 169.844 38.8545C169.96 38.8927 170.115 38.9693 170.309 39.0841C170.503 39.1861 170.6 39.2499 170.6 39.2755L170.697 39.4861C170.697 39.5244 170.729 39.5753 170.794 39.6392C170.859 39.7029 170.891 39.7412 170.891 39.754V39.7923L170.929 39.9263C170.955 40.0155 170.981 40.1177 171.007 40.2325C171.046 40.3474 171.065 40.4494 171.065 40.5388C171.065 40.8833 170.981 41.1447 170.813 41.3235L170.794 41.3044H170.774H170.736L170.522 41.5724L170.037 41.9552C169.701 42.1975 169.443 42.3188 169.262 42.3188C169.158 42.3188 169.062 42.2997 168.971 42.2614L168.603 42.1848C168.525 42.172 168.447 42.1529 168.37 42.1274C168.292 42.1018 168.221 42.07 168.157 42.0317C168.105 42.0061 168.047 41.9806 167.982 41.9552C167.93 41.9295 167.879 41.904 167.827 41.8786C167.788 41.8403 167.749 41.8147 167.711 41.802C167.685 41.7764 167.665 41.7572 167.652 41.7446L167.633 41.7255H167.614C167.446 41.7255 167.316 41.6489 167.226 41.4958C167.135 41.3427 167.09 41.1767 167.09 40.9982C167.09 40.8576 167.155 40.6728 167.284 40.4431C167.413 40.2006 167.478 40.0729 167.478 40.0603ZM183.362 34.1651C183.349 34.1651 183.182 34.4905 182.858 35.1413C182.69 35.4218 182.606 35.5941 182.606 35.658V35.7346C182.606 35.9897 182.477 36.2386 182.218 36.4811C181.96 36.7234 181.662 36.9276 181.326 37.0936C180.99 37.2467 180.699 37.3678 180.454 37.4572C180.208 37.5464 180.053 37.5975 179.988 37.6103C179.95 37.6103 179.878 37.6358 179.775 37.6869C179.646 37.7635 179.135 37.8592 178.243 37.974C178.204 37.9866 178.14 37.9995 178.049 38.0123C177.972 38.0249 177.913 38.0377 177.875 38.0506C177.823 37.9483 177.7 37.8974 177.506 37.8974C177.493 37.9101 177.474 37.9166 177.448 37.9166C177.396 37.9166 177.319 37.9038 177.215 37.8783C177.112 37.84 177.034 37.8209 176.983 37.8209H176.44L176.42 37.8592C176.42 37.8974 176.42 37.9229 176.42 37.9357C176.42 38.1271 176.44 38.2737 176.479 38.3759C176.53 38.4651 176.562 38.58 176.575 38.7205L176.808 40.8068C176.808 40.8705 176.815 40.9599 176.828 41.0747C176.853 41.1896 176.866 41.2724 176.866 41.3235C176.828 41.349 176.769 41.4701 176.692 41.6872C176.666 41.6872 176.64 41.6807 176.614 41.6681C176.588 41.6552 176.562 41.6489 176.537 41.6489C176.511 41.6489 176.479 41.6681 176.44 41.7063C176.401 41.7318 176.369 41.7446 176.343 41.7446C176.317 41.7446 176.285 41.7255 176.246 41.6872C176.207 41.6872 176.097 41.7829 175.916 41.9743C175.735 42.1657 175.528 42.2805 175.296 42.3188C175.037 42.4463 174.895 42.5102 174.869 42.5102C174.856 42.5102 174.837 42.5037 174.811 42.4911C174.785 42.4911 174.759 42.4911 174.733 42.4911C174.733 42.542 174.682 42.5803 174.578 42.6059C174.488 42.6314 174.365 42.6568 174.21 42.6825C174.055 42.7079 173.971 42.7208 173.958 42.7208C173.88 42.7462 173.828 42.759 173.802 42.759C173.57 42.759 173.369 42.5931 173.201 42.2614C173.046 41.9423 172.956 41.6169 172.93 41.2853L172.814 39.3904C172.736 38.3694 172.697 37.623 172.697 37.151C172.697 36.9596 172.71 36.666 172.736 36.2705C172.775 35.8621 172.794 35.5558 172.794 35.3518C172.794 34.9816 172.736 34.2926 172.62 33.2847C172.62 33.1824 172.639 33.0422 172.678 32.8636C172.73 32.6722 172.755 32.5573 172.755 32.5191C172.704 32.4679 172.678 31.5747 172.678 29.8394C172.678 29.2524 172.755 28.9207 172.91 28.8441H173.085C173.137 28.6145 173.163 28.4613 173.163 28.3848C173.201 28.3848 173.35 28.4165 173.609 28.4805H173.783H173.822C173.848 28.4677 173.867 28.4613 173.88 28.4613C173.932 28.4613 174.009 28.4931 174.113 28.557C174.255 28.5314 174.494 28.5188 174.83 28.5188C175.373 28.5188 176.11 28.5762 177.041 28.691C177.972 28.793 178.45 28.8441 178.476 28.8441C179.264 28.8441 180.234 29.163 181.385 29.8012C181.527 29.8903 181.643 29.986 181.734 30.0883C181.837 30.1774 181.953 30.3051 182.083 30.4711C182.212 30.6242 182.335 30.7582 182.451 30.873C182.606 30.975 182.742 31.1856 182.858 31.5046C182.988 31.8109 183.078 32.0086 183.13 32.098C183.298 32.3914 183.382 32.7359 183.382 33.1315C183.382 33.425 183.343 33.6866 183.265 33.9163L183.362 34.1651ZM176.672 35.103C177.021 35.0264 177.403 34.969 177.817 34.9307C178.243 34.8924 178.534 34.8605 178.689 34.835C178.844 34.7967 178.993 34.701 179.135 34.5479C179.29 34.3948 179.407 34.1586 179.484 33.8397C179.523 33.6866 179.542 33.5335 179.542 33.3804C179.542 33.1633 179.413 32.9019 179.155 32.5956C178.909 32.2765 178.599 32.0723 178.224 31.9831C177.913 31.9192 177.551 31.8874 177.138 31.8874C176.672 31.8874 176.44 31.9575 176.44 32.098C176.44 32.1489 176.446 32.1937 176.459 32.232V32.4042C176.459 32.7742 176.479 33.1698 176.517 33.5909C176.556 33.9992 176.588 34.3437 176.614 34.6245C176.653 34.8924 176.672 35.0519 176.672 35.103ZM191.763 27.9828V27.734C191.763 27.6446 191.938 27.5235 192.287 27.3704C192.313 27.3447 192.326 27.3321 192.326 27.3321C192.403 27.3321 192.442 27.2938 192.442 27.2172C192.442 27.2044 192.429 27.1598 192.403 27.0833H192.578C192.785 27.0833 192.94 27.3001 193.043 27.734C193.147 27.3255 193.308 27.1215 193.528 27.1215H193.703C193.677 27.1598 193.664 27.2044 193.664 27.2555C193.664 27.3958 193.774 27.4978 193.993 27.5618C194.226 27.6255 194.343 27.6957 194.343 27.7723V28.0211C194.355 28.0466 194.452 28.0594 194.633 28.0594H194.711C194.814 28.2508 194.892 28.4357 194.944 28.6145C194.995 28.7802 195.034 28.9398 195.06 29.093C195.086 29.2461 195.112 29.3609 195.138 29.4375V29.8777C196.805 30.0691 197.852 30.2349 198.279 30.3754C198.731 30.5156 199.223 30.7325 199.753 31.0261C199.895 31.1153 200.011 31.2047 200.102 31.2941C200.205 31.3833 200.321 31.5109 200.451 31.6769C200.593 31.8426 200.716 31.9831 200.819 32.098C200.974 32.2 201.11 32.4105 201.226 32.7296C201.356 33.0358 201.446 33.2336 201.498 33.3229C201.666 33.6164 201.75 33.9609 201.75 34.3565C201.75 34.6499 201.711 34.9116 201.634 35.1413L201.731 36.7873C201.718 36.7873 201.549 37.1127 201.226 37.7635C201.058 38.044 200.974 38.2163 200.974 38.2802V38.3568C200.974 38.6119 200.845 38.8608 200.587 39.1033C200.328 39.3456 200.031 39.5498 199.695 39.7158C199.358 39.8689 199.067 39.99 198.822 40.0794C198.576 40.1686 198.421 40.2197 198.357 40.2325C198.318 40.2325 198.247 40.258 198.143 40.3091C198.014 40.3857 197.503 40.4814 196.611 40.5962C196.573 40.6088 196.508 40.6217 196.417 40.6345C196.34 40.6471 196.282 40.6599 196.243 40.6728C196.191 40.5705 196.068 40.5196 195.874 40.5196C195.861 40.5323 195.842 40.5388 195.816 40.5388C195.764 40.5388 195.687 40.526 195.584 40.5005C195.48 40.4622 195.402 40.4431 195.351 40.4431H195.06L195.118 42.7208C195.118 42.8228 194.963 42.9313 194.653 43.0461C194.343 43.1736 194.09 43.2376 193.897 43.2376C193.832 43.2376 193.793 43.231 193.78 43.2184C193.767 43.2184 193.657 43.1993 193.451 43.161C193.257 43.1353 193.127 43.1036 193.063 43.0653C193.024 43.1036 192.953 43.1353 192.849 43.161C192.759 43.1864 192.655 43.2056 192.539 43.2184C192.423 43.231 192.352 43.2439 192.326 43.2567C192.3 43.2693 192.261 43.2758 192.209 43.2758C192.016 43.2758 191.763 43.2119 191.453 43.0844C191.143 42.9696 190.988 42.8611 190.988 42.759L191.046 40.4048H190.755C190.703 40.4048 190.619 40.4239 190.503 40.4622C190.399 40.4877 190.322 40.5005 190.27 40.5005C190.257 40.5005 190.244 40.494 190.232 40.4814C190.038 40.4814 189.915 40.5323 189.863 40.6345C189.824 40.6217 189.76 40.6088 189.669 40.5962C189.592 40.5834 189.533 40.5705 189.495 40.5579C188.667 40.4303 188.086 40.3091 187.749 40.1943C187.116 40.1303 186.521 39.8624 185.965 39.3904C185.41 38.9053 185.132 38.5482 185.132 38.3185V38.242C185.132 38.178 185.047 38.0058 184.88 37.7252C184.556 37.0744 184.388 36.749 184.375 36.749C184.44 35.6772 184.472 35.1284 184.472 35.103C184.395 34.8733 184.356 34.6116 184.356 34.3182C184.356 33.9226 184.44 33.5781 184.608 33.2847C184.66 33.1953 184.744 32.9976 184.86 32.6913C184.989 32.3722 185.132 32.1617 185.287 32.0597C185.687 31.5109 186.185 31.0835 186.78 30.7773C187.374 30.4582 187.885 30.2605 188.312 30.184C188.738 30.1074 189.482 30.0052 190.542 29.8777C190.606 29.8649 190.652 29.8586 190.678 29.8586C190.716 29.8457 190.762 29.8394 190.813 29.8394C190.865 29.8266 190.917 29.8203 190.968 29.8203V29.4758C190.994 29.3992 191.02 29.2844 191.046 29.1312C191.072 28.9781 191.111 28.8185 191.162 28.6527C191.214 28.474 191.291 28.2891 191.395 28.0977H191.589C191.628 28.0594 191.686 28.0211 191.763 27.9828ZM195.506 37.6486C195.635 37.5847 195.803 37.5401 196.01 37.5146C196.23 37.489 196.43 37.4764 196.611 37.4764C196.792 37.4635 196.98 37.4252 197.174 37.3615C197.38 37.2976 197.548 37.2019 197.678 37.0744C197.82 36.9467 197.936 36.7362 198.027 36.4428C198.117 36.1492 198.163 35.7855 198.163 35.3518C198.163 34.3948 197.962 33.7375 197.561 33.3804C197.161 33.0102 196.476 32.8253 195.506 32.8253C195.467 32.8253 195.402 32.8316 195.312 32.8444C195.222 32.8444 195.15 32.8444 195.099 32.8444H195.06V32.9976C195.099 33.1507 195.118 33.291 195.118 33.4186L195.06 34.2417V35.0456C195.06 35.071 195.053 35.2752 195.041 35.658C195.028 36.0408 195.021 36.3471 195.021 36.5768C195.021 36.9339 195.034 37.1381 195.06 37.1893V37.7252C195.267 37.6741 195.415 37.6486 195.506 37.6486ZM191.046 37.6869V37.2275C191.072 37.1764 191.085 36.9722 191.085 36.6151C191.085 36.3854 191.078 36.0791 191.065 35.6963C191.052 35.3135 191.046 35.1093 191.046 35.0838V34.28L190.988 33.4569C190.988 33.3293 191.007 33.189 191.046 33.0358V32.8062H191.007H190.949C190.781 32.8062 190.555 32.8762 190.27 33.0167C189.986 33.157 189.773 33.2399 189.63 33.2655C189.1 33.393 188.712 33.6035 188.467 33.8972C188.221 34.1906 188.099 34.6245 188.099 35.1987C188.099 35.5432 188.144 35.8749 188.234 36.194C188.325 36.5128 188.486 36.7999 188.719 37.0553C188.965 37.3104 189.268 37.4635 189.63 37.5146C189.992 37.5146 190.464 37.5721 191.046 37.6869Z" fill="black"/>
<path d="M27.9126 23.4558C30.2625 21.8433 34.7864 21.0026 37.2954 22.308C39.3175 23.3667 40.763 25.4647 41.7139 27.3411C41.8618 25.2732 42.4374 23.2197 43.7095 21.9943C44.0598 21.6564 44.8495 21.7103 44.833 22.3532C44.7907 25.1955 43.7564 28.1121 44.4521 31.0026C44.7732 32.3053 43.5215 33.2431 42.4295 32.49C40.2239 30.9921 38.0614 30.8527 35.5985 30.2938C34.1887 29.968 34.3715 28.0648 35.7103 27.7814C37.3055 27.4507 39.0337 27.8328 40.6679 28.5053C38.7203 25.3814 35.4218 23.3438 31.8866 24.9774C29.8673 25.9083 26.8358 31.57 27.803 35.3567C28.8661 39.5197 34.1284 41.815 36.1048 42.3514C36.6751 42.7293 40.2659 47.4785 33.5846 46.4336C31.0261 45.5713 29.1153 44.5917 26.061 41.7998C21.607 37.7281 22.3467 27.242 27.9126 23.4558Z" fill="black"/>
<path d="M21.5445 31.2733L21.5424 31.3031C21.2106 32.7034 21.039 33.4833 21.0277 33.6428C20.9369 34.9186 21.035 37.6494 21.8449 39.0248C22.5069 39.8095 22.6174 40.3912 22.7518 40.5803L23.7185 41.6622L24.2666 42.2496C24.3965 42.4985 24.8103 42.7929 25.3297 43.2076C25.87 43.6237 26.0581 43.875 26.1352 43.9802C26.2192 43.9857 26.5488 44.205 26.8919 44.4281C27.2559 44.6522 27.7691 44.9118 27.9063 45.061C28.007 45.1278 28.2107 45.214 28.3967 45.2663C28.5831 45.3186 28.9359 45.5248 29.0171 45.5701L29.645 45.9253C29.9812 45.9475 30.3104 46.2092 30.9647 46.2948C31.6188 46.3806 31.9118 46.3843 32.2355 46.3394C32.9635 46.4994 33.3031 46.4725 33.9968 46.5183L34.8476 46.5743C35.2469 46.6006 35.5446 46.5701 35.7407 46.4828L35.867 46.4911C36.9806 46.5644 38.0348 46.0589 39.0945 45.4075C39.1855 45.3134 39.2835 45.2696 39.3886 45.2766L39.8575 44.9168C40.0761 44.8111 40.3111 44.6264 40.5621 44.3624C40.813 44.0984 41.2466 44.035 41.3478 43.8014L41.3583 43.6517C41.4215 43.6559 41.5132 43.5519 41.634 43.3394C41.7532 43.147 41.824 43.0415 41.8465 43.0229L41.9832 42.8817C41.9903 42.7822 42.3122 42.5769 42.4987 42.3289C42.6839 42.1006 42.7785 41.9566 42.7829 41.8968C42.7842 41.8769 42.9835 41.7638 42.9303 41.6202C43.1023 41.4024 43.0663 41.4994 43.295 41.1544L43.3405 41.024C43.6096 40.8896 43.358 40.7747 43.3596 40.7548C43.2713 40.809 43.3609 40.7348 43.3596 40.7548L43.5277 40.6156C43.8168 40.1139 43.7388 39.8543 43.7445 39.7747C43.7474 39.7348 43.7229 39.6331 43.6712 39.4693C43.6392 39.3271 43.6253 39.226 43.6296 39.1662C43.631 39.1463 43.6562 39.0879 43.7054 38.9909C43.7545 38.8939 43.5566 38.837 43.5623 38.7571C43.6417 37.6407 43.8689 37.9392 43.2811 37.2997C43.3477 37.0434 42.9546 37.0198 42.8202 36.8307C42.6803 36.7212 42.5567 36.8635 42.4603 36.737C42.3834 36.6317 42.3559 36.5498 42.3181 36.4872C42.2803 36.4246 42.0578 36.31 42.0258 36.1675C42.0132 36.0464 41.821 35.9539 41.8237 35.9138C41.8251 35.8939 41.9935 36.1754 42.0048 36.016C42.0162 35.8565 41.7923 36.3557 41.7937 36.3356C41.7589 36.2331 41.528 36.0878 41.4764 35.9241C41.4247 35.7606 41.3296 36.2071 41.2737 36.1031C41.2386 36.0007 41.2739 36.1432 41.1758 36.0366L41.0821 36.0305L40.9081 35.8989C40.9208 35.7195 40.9995 35.7547 40.7263 35.7367L40.4984 35.872C40.5404 35.8746 40.5607 35.886 40.5593 35.9059C40.558 35.9258 40.4513 35.9289 40.426 35.9873C40.4008 36.0458 40.4267 35.9773 40.4237 36.0173L40.3302 36.011C40.2256 36.1543 40.1478 35.9269 40.1478 35.9269C40.1619 35.7276 39.9449 35.9937 39.8664 35.9083C39.7558 35.9812 39.567 35.9088 39.4714 36.0626C39.3957 36.238 39.2012 35.5811 39.1523 35.6779C39.1015 35.7947 39.413 36.1189 39.3711 36.116C39.1721 36.2432 39.3086 35.8085 39.1147 35.8858C38.9885 35.8775 39.5024 35.7311 39.2169 35.7724C39.0517 35.7214 39.2021 35.9817 39.0249 35.9701C38.9227 35.9232 38.8709 35.9099 38.8695 35.9298C38.7644 35.9228 38.8545 35.9687 38.7648 36.0432C38.8235 36.1071 38.6682 36.0668 38.7585 36.1327L38.7162 36.19L38.7457 36.3122C38.3044 36.283 38.4054 36.5871 38.4084 36.978L38.3663 37.1253L38.3544 37.3049C38.3417 37.4842 38.4386 37.4606 38.4291 37.5801C38.4195 37.7298 38.4821 37.7239 38.475 37.8234L38.4557 38.0927C38.5048 37.9957 38.4586 38.0517 38.4589 38.0478C38.4727 37.8534 38.4664 37.9432 38.468 37.9202L38.462 38.0055C38.4611 38.0158 38.47 37.8933 38.4643 37.9729L38.4536 38.1226C38.4513 38.1535 38.4711 38.3139 38.4655 38.3938C38.4591 38.4833 38.4568 38.5133 38.4655 38.3938C38.4655 38.3938 38.4846 38.1246 38.4652 38.1774C38.4682 38.2597 38.4718 38.3041 38.4718 38.3041L38.4382 38.5582L38.4118 38.711C38.3986 38.8977 38.2138 39.5674 37.9718 40.1198C37.58 41.0143 37.2727 41.2115 37.0693 41.3985C36.8648 41.6053 36.0604 41.9329 35.8923 41.9218L34.7516 41.9671C34.0018 41.9176 33.3623 41.8756 32.604 41.7055L30.6781 40.9778C28.2084 39.4632 27.7634 38.2623 27.1212 37.1986C27.082 37.1559 27.0052 37.0506 26.8903 36.8827C26.7965 36.7164 26.5261 36.3881 26.428 36.2815C26.1873 36.1055 26.3181 35.8536 26.0704 35.4769C25.8424 35.1213 25.6973 34.3406 25.5273 33.9389C25.4705 33.5745 25.3099 33.0232 25.3353 32.6645C25.3481 32.485 25.3444 32.3946 25.3635 32.1254L25.3742 31.9759C25.4011 31.5973 25.5722 31.0976 25.8574 30.0549C26.4537 28.8623 26.9747 28.4258 27.1669 28.098C27.1908 28.0597 27.302 27.9568 27.3737 27.8412C27.4451 27.7259 27.5568 27.613 27.5821 27.5545C27.606 27.516 27.8412 27.4514 27.9126 27.3359C28.0039 27.2418 28.0726 27.1662 28.1187 27.1091C28.1861 27.0535 28.4654 26.8115 28.5567 26.7173C28.6463 26.6431 28.7466 26.5696 28.8574 26.4967C28.9666 26.444 29.0865 26.3917 29.2169 26.3402C29.2239 26.2404 30.0977 25.9075 30.6876 25.6258C31.2987 25.3455 31.9643 24.8686 32.2585 24.888L32.5422 24.9066C32.7369 24.8392 33.034 24.8189 33.4333 24.8451C33.6014 24.8561 33.8264 24.5105 34.032 24.8845C34.2377 25.2586 34.4417 24.9115 34.5678 24.9198L34.7254 24.9301C34.7156 25.0697 34.7684 24.953 34.8665 25.0596C34.9347 24.9438 35.1106 25.1557 35.2127 25.2025C35.336 25.2507 35.397 25.2848 35.3954 25.3048C35.3856 25.4444 35.8711 25.6096 36.4467 25.9478L37.9588 26.9487C38.0473 26.8944 38.4252 27.2199 38.5765 27.1697C38.728 27.1196 38.698 27.0343 38.7605 26.9684C38.867 26.9553 38.8099 26.941 38.8099 26.941C38.8153 26.8642 38.854 26.9132 38.8572 26.8668C38.8406 26.8058 38.9132 27.0597 38.8461 26.8147C38.7792 26.57 39.3675 25.8344 39.2694 25.7278L39.1539 25.57L39.1625 25.4505C39.084 25.3652 39.0169 25.2706 38.9609 25.1669C38.905 25.0629 38.8686 24.9804 38.852 24.9193C38.8338 24.878 38.8037 24.8561 38.7617 24.8532C38.6675 24.3853 38.24 24.0257 38.0928 24.0161L38.1035 23.8663C37.9775 23.8583 37.7889 23.5516 37.4231 23.35C37.2258 23.1568 37.1166 23.0594 37.0957 23.0581L36.9967 23.1115L36.7911 22.8878C36.7144 22.48 36.4039 22.6919 35.9446 22.3213C35.4869 21.9307 35.2023 22.0742 35.1477 21.9504C35.0396 21.6882 34.7434 21.7087 34.7013 21.7059C34.5557 21.6763 34.3451 21.6945 34.1444 21.6814L33.6557 21.714C33.5509 21.7072 33.4915 21.7998 33.4972 21.7199L33.2863 21.7963C33.097 21.7838 33.0499 21.7744 33.057 21.6746L32.8775 21.7993L32.7628 21.8024C32.6832 21.737 32.8063 21.7494 32.6621 21.6998C32.5192 21.6304 32.3047 21.7164 32.2023 21.6696C32.0972 21.6626 31.9186 21.6531 31.9043 21.8525L31.8139 21.7941C31.6727 21.7048 31.6117 21.8109 31.4647 21.8013C31.3176 21.7915 31.1235 21.8488 30.8824 21.9731C30.6428 22.0775 30.4915 22.1279 30.4285 22.1237C30.3891 22.081 30.3382 22.0576 30.2752 22.0535C30.191 22.048 30.0838 22.071 29.9535 22.1224C29.8441 22.1754 29.7581 22.1997 29.6951 22.1955L28.97 22.1478C28.9 22.2434 28.6722 22.3286 28.2869 22.4032C27.924 22.4595 27.6653 22.5326 27.5113 22.6227L26.8848 22.972C26.2528 23.2509 25.8188 23.5628 25.5833 23.9077C25.3686 24.2542 25.1961 24.4531 25.0658 24.5046L25.0551 24.6543C25.0132 24.6514 24.9704 24.6587 24.927 24.6757C24.9045 24.6943 24.8708 24.7221 24.826 24.7593C24.8007 24.8178 24.7657 24.8655 24.7209 24.9027L24.2834 25.2645C23.8302 25.9957 23.4972 26.5245 23.284 26.8511C23.1423 27.0621 22.978 27.4418 22.7913 27.9903C22.6255 28.5403 22.4479 28.9592 22.2586 29.2473L22.2373 29.5462C22.0831 29.6362 22.0053 29.6911 22.0039 29.711C22.0235 29.7325 22.0424 29.7638 22.0606 29.8049C22.0129 29.882 21.9616 30.0087 21.9068 30.1856C21.8521 30.3622 21.7896 30.4981 21.7195 30.5937L21.8456 30.6021L21.8098 30.6598C21.7649 30.6968 21.7313 30.7246 21.7089 30.7432L21.7004 30.863C21.6302 30.9584 21.5783 31.0952 21.5445 31.2733L21.6812 31.1319C21.6741 31.2318 21.6286 31.2788 21.5445 31.2733Z" fill="black"/>
</svg>
