<svg width="204" height="62" viewBox="0 0 204 62" fill="none" xmlns="http://www.w3.org/2000/svg">
<g opacity="0.25">
<path d="M35.0418 35.4456L35.0433 35.4345L35.0428 35.4274L35.0418 35.4456Z" fill="white"/>
<path d="M48.091 36.8966L48.6459 36.6316H48.7711C48.7949 36.6316 48.8369 36.6432 48.8965 36.6669C48.956 36.6786 48.9979 36.6846 49.0217 36.6846C49.0695 36.6846 49.1112 36.6669 49.147 36.6316H49.2902C49.672 36.4549 49.9763 36.3312 50.2031 36.2606C50.1911 36.2487 50.221 36.2192 50.2926 36.1722C50.3762 36.1132 50.4836 36.0367 50.6148 35.9426C50.758 35.8366 50.8774 35.7245 50.9728 35.6069V35.4832C51.2234 35.4832 51.5635 35.2712 51.9931 34.8472C52.0409 34.8118 52.1125 34.7293 52.2079 34.5998C52.3033 34.4701 52.369 34.3818 52.4048 34.3348C52.4048 34.2758 52.3989 34.2404 52.3869 34.2288C52.3749 34.2169 52.3391 34.2111 52.2795 34.2111H49.8093L49.7377 34.2288C49.6899 34.2404 49.6244 34.2523 49.5408 34.2641C49.4572 34.2758 49.3677 34.2876 49.2723 34.2994C49.1887 34.3111 49.0874 34.3229 48.968 34.3348C48.8606 34.3464 48.7592 34.3525 48.6638 34.3525C48.4968 34.3525 48.3595 34.3229 48.2521 34.2641C48.1567 34.2051 48.091 34.1463 48.0552 34.0874C48.0194 34.0284 47.9956 33.9991 47.9836 33.9991C47.9716 33.9991 47.9657 34.0284 47.9657 34.0874C47.8941 34.0874 47.8524 34.0933 47.8404 34.1051C47.8284 34.1167 47.8225 34.1521 47.8225 34.2111V34.4585C47.8225 34.4938 47.7987 34.5761 47.7509 34.7058C47.7151 34.8353 47.6972 34.9236 47.6972 34.9708V35.4832C47.6018 35.648 47.554 35.8189 47.554 35.9956V36.1369C47.5182 36.1722 47.4883 36.2134 47.4645 36.2606C47.4407 36.2959 47.4287 36.3252 47.4287 36.3489V36.3843C47.4645 36.4196 47.4824 36.4489 47.4824 36.4726C47.4586 36.6609 47.3988 36.7553 47.3034 36.7553L47.554 36.8966C47.6018 36.8494 47.6494 36.7846 47.6972 36.7023C47.745 36.6079 47.7867 36.5433 47.8225 36.5079V36.7553C47.8225 36.8259 47.8284 36.8671 47.8404 36.879C47.8524 36.8906 47.8941 36.8966 47.9657 36.8966H48.091Z" fill="white"/>
<path d="M49.684 29.1051H48.807C48.6758 29.1051 48.5922 29.1758 48.5564 29.3171C48.5206 29.4466 48.4789 29.5115 48.4311 29.5115C48.3953 29.5115 48.3654 29.5054 48.3416 29.4938C48.3416 29.5291 48.3178 29.5703 48.27 29.6175C48.2342 29.6644 48.2163 29.7058 48.2163 29.7411V31.6493H48.4848L48.5206 31.7023C48.5444 31.7023 48.5623 31.6139 48.5743 31.4373C48.5981 31.2487 48.628 31.1546 48.6638 31.1546C48.6876 31.1546 48.7233 31.1957 48.7711 31.2782C48.9381 31.2782 49.0217 31.2369 49.0217 31.1546H49.2902C49.3976 31.0602 49.5646 30.9837 49.7914 30.9249C50.0182 30.8659 50.1553 30.8129 50.2031 30.7659C50.7401 30.5185 51.0802 30.3005 51.2234 30.1122C51.2592 30.065 51.3249 30.0238 51.4203 29.9885C51.5157 29.9413 51.5814 29.9002 51.6172 29.8648L51.8678 29.6175C51.8678 29.535 51.8261 29.4466 51.7425 29.3525H51.3487C51.1697 29.1874 50.6148 29.1051 49.684 29.1051Z" fill="white"/>
<path d="M64.6596 34.8472L64.7312 34.9355L64.8206 34.7588C65.119 34.2758 65.298 33.8871 65.3576 33.5927V33.257C65.3458 32.091 64.8505 31.1839 63.872 30.5362V30.4479L63.7825 30.3772C63.7349 30.3772 63.6393 30.3242 63.4961 30.2182C63.3529 30.1122 63.2516 30.0592 63.1918 30.0592H63.1023C63.0307 30.0592 62.9233 30.0178 62.7801 29.9355C62.6369 29.8411 62.5057 29.7588 62.3863 29.6881C62.2789 29.6056 62.2073 29.5821 62.1715 29.6175C62.0641 29.6763 61.9449 29.7058 61.8135 29.7058H61.3302L61.2407 29.7765C61.1095 29.7765 61.02 29.8058 60.9722 29.8648C60.9364 29.8648 60.8888 29.8411 60.829 29.7941C60.7694 29.747 60.7216 29.7235 60.6858 29.7235C60.6382 29.7235 60.5963 29.7411 60.5605 29.7765H60.4531C59.9161 29.7765 59.4926 30.4832 59.1823 31.8966V33.151C59.1823 33.2334 59.236 33.6044 59.3434 34.2641C59.5702 34.7116 59.7491 35.0827 59.8803 35.3772C60.0235 35.4948 60.1608 35.6892 60.292 35.9602C60.4234 36.0897 60.6024 36.2016 60.829 36.2959C61.0678 36.3901 61.2348 36.4373 61.3302 36.4373C61.378 36.4961 61.4317 36.5256 61.4913 36.5256H61.8135C62.1357 36.5256 62.4699 36.3901 62.8159 36.1192C63.1621 35.8482 63.3529 35.7069 63.3887 35.6952L63.6214 35.4479C63.6214 35.4242 63.6393 35.4007 63.6751 35.3772C63.7229 35.3419 63.7587 35.3123 63.7825 35.2888L64.23 34.8472V34.9355C64.2898 34.9002 64.3494 34.8588 64.409 34.8118C64.4806 34.7528 64.5343 34.7175 64.5701 34.7058V34.7588C64.5225 34.7942 64.4568 34.8765 64.3732 35.0062C64.3079 35.0891 64.2681 35.1288 64.2538 35.1252C64.2636 35.1384 64.2855 35.1577 64.3195 35.1828L64.6596 34.8472Z" fill="white"/>
<path d="M83.9253 36.8966L84.4802 36.6316H84.6055C84.6293 36.6316 84.6712 36.6432 84.7308 36.6669C84.7904 36.6786 84.8323 36.6846 84.8561 36.6846C84.9039 36.6846 84.9456 36.6669 84.9814 36.6316H85.1246C85.5064 36.4549 85.8107 36.3312 86.0375 36.2606C86.0255 36.2487 86.0554 36.2192 86.127 36.1722C86.2106 36.1132 86.318 36.0367 86.4492 35.9426C86.5924 35.8366 86.7118 35.7245 86.8072 35.6069V35.4832C87.0577 35.4832 87.3978 35.2712 87.8274 34.8472C87.8752 34.8118 87.9468 34.7293 88.0422 34.5998C88.1376 34.4701 88.2033 34.3818 88.2391 34.3348C88.2391 34.2758 88.2332 34.2404 88.2212 34.2288C88.2092 34.2169 88.1734 34.2111 88.1138 34.2111H85.6437L85.5721 34.2288C85.5243 34.2404 85.4588 34.2523 85.3752 34.2641C85.2916 34.2758 85.2021 34.2876 85.1067 34.2994C85.0231 34.3111 84.9218 34.3229 84.8024 34.3348C84.695 34.3464 84.5935 34.3525 84.4981 34.3525C84.3311 34.3525 84.1938 34.3229 84.0864 34.2641C83.991 34.2051 83.9253 34.1463 83.8895 34.0874C83.8537 34.0284 83.8299 33.9991 83.8179 33.9991C83.8059 33.9991 83.8 34.0284 83.8 34.0874C83.7284 34.0874 83.6867 34.0933 83.6747 34.1051C83.6627 34.1167 83.6568 34.1521 83.6568 34.2111V34.4585C83.6568 34.4938 83.633 34.5761 83.5852 34.7058C83.5494 34.8353 83.5315 34.9236 83.5315 34.9708V35.4832C83.4361 35.648 83.3883 35.8189 83.3883 35.9956V36.1369C83.3525 36.1722 83.3226 36.2134 83.2988 36.2606C83.275 36.2959 83.263 36.3252 83.263 36.3489V36.3843C83.2988 36.4196 83.3167 36.4489 83.3167 36.4726C83.2929 36.6609 83.2331 36.7553 83.1377 36.7553L83.3883 36.8966C83.4361 36.8494 83.4837 36.7846 83.5315 36.7023C83.5793 36.6079 83.621 36.5433 83.6568 36.5079V36.7553C83.6568 36.8259 83.6627 36.8671 83.6747 36.879C83.6867 36.8906 83.7284 36.8966 83.8 36.8966H83.9253Z" fill="white"/>
<path d="M85.5184 29.1051H84.6413C84.5101 29.1051 84.4265 29.1758 84.3907 29.3171C84.3549 29.4466 84.3132 29.5115 84.2654 29.5115C84.2296 29.5115 84.1997 29.5054 84.1759 29.4938C84.1759 29.5291 84.1521 29.5703 84.1043 29.6175C84.0685 29.6644 84.0506 29.7058 84.0506 29.7411V31.6493H84.3191L84.3549 31.7023C84.3787 31.7023 84.3966 31.6139 84.4086 31.4373C84.4324 31.2487 84.4623 31.1546 84.4981 31.1546C84.5219 31.1546 84.5577 31.1957 84.6055 31.2782C84.7725 31.2782 84.8561 31.2369 84.8561 31.1546H85.1246C85.232 31.0602 85.399 30.9837 85.6258 30.9249C85.8526 30.8659 85.9897 30.8129 86.0375 30.7659C86.5745 30.5185 86.9145 30.3005 87.0577 30.1122C87.0935 30.065 87.1592 30.0238 87.2546 29.9885C87.35 29.9413 87.4157 29.9002 87.4515 29.8648L87.7021 29.6175C87.7021 29.535 87.6604 29.4466 87.5768 29.3525H87.183C87.004 29.1874 86.4492 29.1051 85.5184 29.1051Z" fill="white"/>
<path d="M96.5381 32.4797C96.8603 32.409 97.2124 32.356 97.5941 32.3206C97.9879 32.2853 98.2564 32.2558 98.3996 32.2323C98.5428 32.197 98.6801 32.1086 98.8113 31.9673C98.9545 31.826 99.0619 31.6079 99.1335 31.3136C99.1693 31.1722 99.1872 31.0309 99.1872 30.8896C99.1872 30.6892 99.068 30.4479 98.8292 30.1652C98.6026 29.8706 98.3162 29.6821 97.97 29.5998C97.6836 29.5408 97.3496 29.5115 96.9677 29.5115C96.5381 29.5115 96.3233 29.5761 96.3233 29.7058C96.3233 29.7528 96.3294 29.7941 96.3412 29.8295V29.9885C96.3412 30.33 96.3591 30.6952 96.3949 31.0839C96.4307 31.4607 96.4606 31.7788 96.4844 32.038C96.5202 32.2853 96.5381 32.4325 96.5381 32.4797Z" fill="white"/>
<path d="M108.32 34.1228C108.347 34.1228 108.364 34.1263 108.371 34.1335C108.205 33.6891 108.068 33.338 107.962 33.0804C107.866 32.8212 107.807 32.668 107.783 32.621C107.771 32.5738 107.747 32.515 107.711 32.4443C107.687 32.3737 107.651 32.2616 107.604 32.1086C107.58 32.038 107.478 31.8613 107.299 31.5786C107.12 31.2959 107.019 31.1132 106.995 31.0309C106.923 31.2546 106.858 31.4608 106.798 31.6493C106.738 31.826 106.691 31.9554 106.655 32.038C106.619 32.1203 106.589 32.197 106.565 32.2676C106.542 32.3265 106.524 32.3737 106.512 32.409V32.4797C106.512 32.5266 106.476 32.5796 106.404 32.6387C106.154 33.4984 106.028 33.9814 106.028 34.0874C105.969 34.1344 105.939 34.1816 105.939 34.2288C106.333 34.1816 107.126 34.1463 108.32 34.1228Z" fill="white"/>
<path d="M134.318 34.8472L134.39 34.9355L134.479 34.7588C134.777 34.2758 134.956 33.8871 135.016 33.5927V33.257C135.004 32.091 134.509 31.1839 133.53 30.5362V30.4479L133.441 30.3772C133.393 30.3772 133.298 30.3242 133.154 30.2182C133.011 30.1122 132.91 30.0592 132.85 30.0592H132.761C132.689 30.0592 132.582 30.0178 132.438 29.9355C132.295 29.8411 132.164 29.7588 132.045 29.6881C131.937 29.6056 131.866 29.5821 131.83 29.6175C131.723 29.6763 131.603 29.7058 131.472 29.7058H130.989L130.899 29.7765C130.768 29.7765 130.678 29.8058 130.631 29.8648C130.595 29.8648 130.547 29.8411 130.487 29.7941C130.428 29.747 130.38 29.7235 130.344 29.7235C130.297 29.7235 130.255 29.7411 130.219 29.7765H130.112C129.575 29.7765 129.151 30.4832 128.841 31.8966V33.151C128.841 33.2334 128.894 33.6044 129.002 34.2641C129.229 34.7116 129.408 35.0827 129.539 35.3772C129.682 35.4948 129.819 35.6892 129.95 35.9602C130.082 36.0897 130.261 36.2016 130.487 36.2959C130.726 36.3901 130.893 36.4373 130.989 36.4373C131.036 36.4961 131.09 36.5256 131.15 36.5256H131.472C131.794 36.5256 132.128 36.3901 132.474 36.1192C132.82 35.8482 133.011 35.7069 133.047 35.6952L133.28 35.4479C133.28 35.4242 133.298 35.4007 133.333 35.3772C133.381 35.3419 133.417 35.3123 133.441 35.2888L133.888 34.8472V34.9355C133.948 34.9002 134.008 34.8588 134.067 34.8118C134.139 34.7528 134.193 34.7175 134.228 34.7058V34.7588C134.181 34.7942 134.115 34.8765 134.032 35.0062C133.966 35.0891 133.926 35.1288 133.912 35.1252C133.922 35.1384 133.944 35.1577 133.978 35.1828L134.318 34.8472Z" fill="white"/>
<path d="M162.613 32.4797C162.935 32.409 163.287 32.356 163.669 32.3206C164.063 32.2853 164.331 32.2558 164.475 32.2323C164.618 32.197 164.755 32.1086 164.886 31.9673C165.03 31.826 165.137 31.6079 165.209 31.3136C165.244 31.1722 165.262 31.0309 165.262 30.8896C165.262 30.6892 165.143 30.4479 164.904 30.1652C164.677 29.8706 164.391 29.6821 164.045 29.5998C163.759 29.5408 163.424 29.5115 163.043 29.5115C162.613 29.5115 162.398 29.5761 162.398 29.7058C162.398 29.7528 162.404 29.7941 162.416 29.8295V29.9885C162.416 30.33 162.434 30.6952 162.47 31.0839C162.506 31.4607 162.536 31.7788 162.559 32.038C162.595 32.2853 162.613 32.4325 162.613 32.4797Z" fill="white"/>
<path d="M179.998 34.8295C180.117 34.7705 180.272 34.7293 180.463 34.7058C180.666 34.6821 180.851 34.6705 181.018 34.6705C181.185 34.6586 181.358 34.6233 181.537 34.5645C181.728 34.5054 181.883 34.4171 182.003 34.2994C182.134 34.1816 182.241 33.9873 182.325 33.7164C182.408 33.4454 182.45 33.1097 182.45 32.7093C182.45 31.826 182.265 31.2192 181.895 30.8896C181.525 30.5478 180.893 30.3772 179.998 30.3772C179.962 30.3772 179.902 30.383 179.819 30.3949H179.586V30.5362C179.622 30.6775 179.64 30.807 179.64 30.9249L179.586 31.6846V32.4267C179.586 32.4501 179.58 32.6387 179.568 32.992C179.556 33.3454 179.55 33.6281 179.55 33.8401C179.55 34.1698 179.562 34.3583 179.586 34.4055V34.9002C179.777 34.853 179.914 34.8295 179.998 34.8295Z" fill="white"/>
<path d="M175.881 34.4408C175.905 34.3936 175.917 34.2051 175.917 33.8754C175.917 33.6634 175.911 33.3807 175.899 33.0274C175.887 32.674 175.881 32.4855 175.881 32.462V31.7199L175.827 30.9602C175.827 30.8424 175.845 30.7129 175.881 30.5715V30.3595H175.792C175.636 30.3595 175.427 30.4242 175.165 30.5539C174.902 30.6834 174.706 30.7599 174.574 30.7835C174.085 30.9012 173.727 31.0955 173.5 31.3666C173.274 31.6374 173.16 32.038 173.16 32.568C173.16 32.886 173.202 33.1922 173.286 33.4867C173.369 33.7811 173.518 34.0461 173.733 34.2818C173.96 34.5173 174.24 34.6586 174.574 34.7058C174.908 34.7058 175.344 34.7588 175.881 34.8648V34.4408Z" fill="white"/>
<path fill-rule="evenodd" clip-rule="evenodd" d="M101.666 5.35891C63.5056 8.58404 57.2237 6.24098 57.1684 6.18842C57.1684 5.96898 56.5112 5.95278 53.0647 6.0867C50.9906 6.16729 49.4191 6.37665 47.9006 6.57897C45.6954 6.87276 43.6018 7.15169 40.2429 6.99987C39.4931 6.96605 37.5648 6.90368 35.1977 6.82712C30.1817 6.66487 23.1949 6.43888 21.2736 6.2857C14.3876 5.7368 11.5468 5.74057 10.0997 6.30096C9.33251 6.59805 8.4314 6.84569 7.52048 7.09602C5.12607 7.75404 2.66384 8.43069 2.38682 10.0732C2.38682 10.7188 2.45637 10.9281 2.55922 11.2376C2.60984 11.3899 2.66852 11.5664 2.73094 11.8312C3.05487 13.2038 3.10688 13.2911 3.6013 13.2911H4.12737L4.67785 14.6567C4.39366 15.6988 4.30466 16.6986 4.30209 18.8767C4.29882 21.7004 4.00102 22.3744 3.31571 23.9253C3.21358 24.1565 3.10284 24.4071 2.98319 24.6872C2.83196 25.0412 2.65237 25.3048 2.47187 25.5697C1.99213 26.2738 1.5059 26.9875 1.52831 29.4344C1.54948 31.7361 1.65963 33.284 1.86353 34.1436C2.58696 37.1927 1.47106 40.3945 0.400549 43.1028C-0.0537236 44.2526 -0.0647988 44.4022 0.0890643 47.3C0.906887 49.6614 0.951613 49.707 1.43228 50.1972C1.62641 50.3951 1.89167 50.6656 2.30769 51.1904C2.67184 51.6498 3.18083 51.7613 3.58274 51.8493C3.7228 51.88 3.84988 51.9078 3.95331 51.9466C4.22792 52.0494 4.30156 52.3489 4.37753 52.6579C4.42627 52.8561 4.47598 53.0583 4.58036 53.2148L4.77542 53.5074C4.96049 53.785 4.97449 54.1429 4.81168 54.4341C4.69458 54.6436 4.66715 54.8915 4.73565 55.1215L4.81338 55.3824C4.97551 55.9269 5.42531 56.337 5.98233 56.4484L7.0587 56.6637C7.27545 56.7071 7.49594 56.7289 7.71698 56.7289H9.69231C11.6384 56.5749 13.3955 56.9093 15.2652 57.2652C16.3823 57.4778 17.5397 57.698 18.8015 57.8263C20.4875 57.9977 23.7803 58.379 26.1189 58.6738C29.5679 59.1084 30.6501 59.1794 31.85 59.0496C32.6636 58.9614 35.3334 58.713 37.783 58.4975C40.2327 58.2818 45.9919 57.7704 50.5813 57.3607C51.1683 57.2121 51.6193 57.0886 51.9832 56.9889C53.1666 56.6647 53.4303 56.5925 54.4615 56.7289C54.6141 56.7491 54.6925 56.7614 54.7355 56.7682C54.7535 56.7711 54.7653 56.7729 54.7737 56.774L54.7798 56.7746L54.7843 56.7749C54.7852 56.775 54.7862 56.775 54.787 56.775C54.7883 56.775 54.7895 56.775 54.7906 56.7749L54.7937 56.7746L54.7984 56.7739L54.8058 56.7723C54.8561 56.7609 55.0446 56.718 56.8386 56.7289L56.8417 56.7303C56.8428 56.7308 56.8442 56.7313 56.8456 56.7317C56.8486 56.7324 56.8523 56.7332 56.8568 56.734L56.8676 56.736C57.0117 56.7618 57.6002 56.867 56.7692 58.1135C56.015 59.2448 56.5396 60.83 56.7567 61.4864C56.8054 61.6333 56.8386 61.7337 56.8386 61.772C56.8386 62.0095 59.0027 62.0321 60.8107 61.9231C61.9801 61.8526 64.2717 61.7607 65.9033 61.7191C67.5348 61.6776 69.7597 61.597 70.8474 61.5401C71.9352 61.483 74.6495 61.3512 76.8793 61.2466C79.1092 61.1421 81.8235 61.0125 82.9113 60.9584C83.999 60.9044 85.9569 60.8068 87.2621 60.7416C88.673 60.6713 89.7517 60.3042 90.6931 59.9839C91.6092 59.6722 92.3952 59.4047 93.2308 59.4981L94.6154 58.575L96.06 58.2748C96.0897 58.3036 96.8731 58.2789 97.3019 58.2575C97.6705 58.2536 98.2018 58.2464 98.9467 58.2347C101.678 58.1918 103.486 58.2535 104.633 58.4289C106.979 58.7876 129.951 58.7635 133.591 58.3833C134.997 58.2367 136.563 57.9207 138.191 57.5924C141.222 56.9812 144.466 56.3269 147.281 56.6413C151.11 57.0689 154.879 57.6785 155.488 57.9689C156.884 58.6335 164.477 59.1933 169.431 58.9967C173.852 58.8213 174.444 58.7795 175.952 58.5373C176.699 58.4175 177.472 58.3419 177.672 58.3696C177.871 58.3971 179.102 58.3157 180.407 58.1886C183.856 57.8527 186.396 57.6295 189.307 57.4063C190.721 57.2978 192.791 57.1138 193.906 56.9972L195.935 56.7853L196.378 56.086C196.622 55.7016 197.185 54.8756 197.629 54.2506C197.913 53.8507 197.73 53.7788 197.475 53.679C197.119 53.5392 196.622 53.3444 197.077 52.1135C197.161 51.8847 197.275 51.7777 197.395 51.6653C197.64 51.4347 197.909 51.1813 198 49.8058C198.02 49.507 198.756 48.8415 199.323 48.3292C199.644 48.0393 199.911 47.7984 199.962 47.7009C200.165 47.3181 201.401 43.8961 201.226 43.353C200.847 42.1787 201.318 38.1848 202.243 34.7298C202.942 32.1194 203.038 31.4938 203.069 29.3596C203.102 27.1868 203.049 26.7739 202.551 25.2506C202.246 24.3191 201.997 23.4511 201.997 23.3215C201.997 23.1921 201.908 23.0861 201.799 23.0861C201.69 23.0861 201.656 23.0335 201.724 22.9693C201.791 22.9049 201.546 22.4049 201.179 21.8581L200.511 20.8637L201.38 21.8336C202.252 20.917 202.595 20.3282 202.378 20.1214C202.314 20.0603 201.305 19.9712 200.135 19.9234C198.052 19.8381 197.998 19.8243 197.495 19.2585L196.983 18.6806L198.15 18.1549C200.167 17.2462 201.375 16.3772 201.764 15.5548C202.258 14.5119 202.074 12.492 201.424 11.8306C200.792 11.1866 200.57 11.0964 198.481 10.6368C197.313 10.38 196.057 10.6093 194.576 10.8796C193.021 11.1634 191.218 11.4924 189.01 11.352C187.107 11.2309 185.527 11.1148 185.5 11.0943C185.473 11.0738 185.592 10.6643 185.763 10.1843C186.05 9.38317 186.049 9.22212 185.746 8.22152C185.501 7.41531 185.205 6.94307 184.605 6.40717C183.551 5.46515 183.019 5.28978 181.671 5.43878C181.061 5.50621 179.903 5.58947 179.1 5.62357C178.296 5.65785 176.259 5.78669 174.573 5.91007C172.887 6.03345 170.929 6.16079 170.222 6.193C169.515 6.22521 167.602 6.35141 165.97 6.47366C164.339 6.59591 162.425 6.71948 161.718 6.7483C161.011 6.77712 159.81 6.85548 159.048 6.92235C157.482 7.05986 154.728 7.23222 152.819 7.31208C152.112 7.34166 150.91 7.4251 150.149 7.49744C149.387 7.56996 148.123 7.65039 147.339 7.67638L145.914 7.72348L146.025 6.95475C146.332 4.82112 146.769 1.3442 141.231 0.882731C135.818 0.431756 126.227 1.86827 116.542 3.31887C111.407 4.08801 106.245 4.86111 101.666 5.35891ZM97.4967 58.2347C97.0349 58.2347 95.78 58.2737 97.3019 58.2575C97.5408 58.2456 97.6696 58.2347 97.4967 58.2347ZM96.2531 58.2347C96.1066 58.2535 96.0514 58.2664 96.06 58.2748L96.2531 58.2347ZM12.9231 14.2674C14.0149 13.2914 16.8228 13.2927 17.4241 13.293C17.5004 13.293 17.5412 13.293 17.5385 13.2911C17.4807 13.2487 11.0925 11.4603 11.0769 11.4981C11.076 11.5003 11.0723 11.5415 11.0658 11.6139C11.0253 12.0654 10.8757 13.7316 10.6154 14.7289L9.23077 18.8827L12.9231 14.2674ZM29.7444 15.3076C29.8527 15.4159 29.9536 15.5481 30.0508 15.6754C30.3677 16.0906 30.6451 16.4541 31.0121 15.7691L31.9352 13.8562H30.045C29.9189 13.8562 29.7811 13.8281 29.6528 13.8021C29.3902 13.7487 29.1674 13.7034 29.1659 13.9229C29.1646 14.156 29.2829 14.846 29.7444 15.3076ZM29.0693 52.2308C28.7669 52.5498 29.5309 52.6923 30.9155 52.6923C31.9473 52.6923 32.6652 52.6923 34.6078 51.7692C38.4024 49.9661 36.4859 49.0514 35.5309 49C34.5583 48.5148 29.3302 51.9557 29.0693 52.2308ZM132 10.5751C133.076 10.5751 136.535 10.3467 136.615 10.1135C136.718 9.81759 136.584 8.7289 135.692 8.7289C134.423 8.7289 126.394 9.71749 125.538 10.1135C124.849 10.4328 128.671 10.5751 132 10.5751ZM13.3846 41.4981C13.3846 41.4623 13.3838 41.4176 13.383 41.3663C13.378 41.0769 13.3693 40.5732 13.4736 40.2306C13.5397 40.0668 13.4778 39.1843 13.3846 39.1904C13.1888 39.203 11.9107 40.622 11.9924 40.6923C11.9984 40.6975 11.9748 40.7996 11.9379 40.9587C11.7923 41.5876 11.4402 43.1078 11.896 43.065C12.8166 42.9785 13.3846 41.8806 13.3846 41.4981ZM19.4181 28.9446L19.4161 28.9721C19.1099 30.2647 18.9515 30.9845 18.941 31.1318C18.8573 32.3095 18.9478 34.8302 19.6954 36.0998C20.13 36.6149 20.3071 37.0353 20.4177 37.2979C20.4627 37.4046 20.4967 37.4853 20.5325 37.5357L21.4249 38.5343L21.9308 39.0766C22.0298 39.2663 22.3077 39.4848 22.6716 39.7708C22.7482 39.8311 22.8287 39.8943 22.9121 39.9609C23.4108 40.345 23.5845 40.5769 23.6557 40.6741C23.7265 40.6787 23.9872 40.8484 24.2734 41.0349L24.3541 41.0874C24.4625 41.1542 24.5853 41.2243 24.7061 41.2934C24.9597 41.4383 25.2047 41.5784 25.2905 41.6717C25.3835 41.7333 25.5715 41.8129 25.7432 41.8612C25.8973 41.9045 26.1747 42.0617 26.2847 42.1241L26.8955 42.4695C27.0337 42.4786 27.1706 42.5316 27.3333 42.5945C27.536 42.6729 27.7787 42.7668 28.1137 42.8106C28.7174 42.8898 28.9879 42.8932 29.2867 42.8518C29.7904 42.9625 30.0927 42.9762 30.4821 42.994C30.6123 42.9999 30.7521 43.0063 30.9125 43.0168L31.6979 43.0686C31.7689 43.0732 32.2697 43.0406 32.6351 43.0167C32.8299 43.004 32.9862 42.9938 33.0184 42.9931C33.9079 42.9418 34.7611 42.5183 35.6181 41.9915C35.7021 41.9046 35.7926 41.8642 35.8896 41.8707L36.3224 41.5386C36.5242 41.441 36.7411 41.2705 36.9727 41.0268C37.0802 40.9138 37.2239 40.8406 37.3564 40.7731C37.5096 40.695 37.648 40.6246 37.6981 40.509L37.7077 40.3708C37.7661 40.3747 37.8507 40.2787 37.9622 40.0825C38.0723 39.9049 38.1376 39.8075 38.1584 39.7904L38.2846 39.6601C38.288 39.6122 38.3701 39.538 38.4723 39.4455C38.5665 39.3602 38.6779 39.2595 38.7604 39.1497C38.9314 38.939 39.0187 38.8061 39.0227 38.7509C39.023 38.7465 39.0338 38.7372 39.0493 38.7237C39.0986 38.681 39.1962 38.5964 39.1588 38.4955C39.2172 38.4216 39.2496 38.387 39.2778 38.3569C39.3262 38.3052 39.362 38.2669 39.4954 38.0656L39.5374 37.9452C39.7368 37.8457 39.6266 37.7577 39.5761 37.7173L39.5665 37.7096L39.5624 37.7061C39.5577 37.7019 39.5549 37.6988 39.5551 37.6967L39.7103 37.5682C39.9353 37.1777 39.9194 36.9458 39.912 36.8387C39.9112 36.8276 39.9105 36.8179 39.9103 36.8095C39.91 36.8028 39.91 36.797 39.9104 36.792C39.9131 36.7552 39.8904 36.6613 39.8428 36.5102C39.8131 36.3788 39.8003 36.2855 39.8043 36.2303C39.8056 36.2119 39.8289 36.158 39.8743 36.0685C39.8997 36.0183 39.8534 35.9798 39.8088 35.9426C39.7738 35.9134 39.7399 35.8851 39.7422 35.8527C39.7631 35.5587 39.7951 35.371 39.8176 35.2392C39.8395 35.1105 39.8524 35.035 39.837 34.9659C39.8151 34.8679 39.7365 34.7827 39.5464 34.5767L39.4826 34.5074C39.5202 34.3627 39.3991 34.2983 39.271 34.2302C39.1896 34.187 39.1054 34.1422 39.0572 34.0744C38.9942 34.0252 38.9348 34.0312 38.8801 34.0367C38.8227 34.0425 38.7706 34.0478 38.725 33.988C38.6784 33.9242 38.6514 33.8697 38.6285 33.8234C38.6227 33.8116 38.6171 33.8003 38.6115 33.7895C38.6056 33.7783 38.5998 33.7676 38.5937 33.7574C38.5817 33.7375 38.5492 33.7118 38.5108 33.6812C38.4379 33.6234 38.3432 33.5483 38.3239 33.4623C38.3203 33.428 38.3012 33.3962 38.2764 33.3676C38.2913 33.3694 38.302 33.3575 38.3045 33.3225C38.3082 33.2711 38.2855 33.2937 38.2544 33.3441C38.2345 33.3244 38.2131 33.3064 38.1941 33.2905L38.1806 33.2792C38.2013 33.3058 38.2265 33.336 38.2487 33.3534C38.2149 33.4099 38.173 33.4942 38.1441 33.5524C38.1234 33.5941 38.1093 33.6223 38.1097 33.6174C38.0956 33.5761 38.047 33.5272 37.9927 33.4726C37.9228 33.4024 37.8436 33.3227 37.8167 33.2376C37.7917 33.1583 37.7555 33.2345 37.7194 33.3107C37.6868 33.3796 37.6541 33.4484 37.6296 33.4029C37.6154 33.3612 37.6137 33.3635 37.6086 33.3706C37.6021 33.3796 37.5899 33.3965 37.5393 33.3415L37.4528 33.3358L37.2922 33.2144C37.2949 33.175 37.3012 33.1468 37.3057 33.1265C37.3103 33.1054 37.3131 33.0929 37.3083 33.085C37.301 33.0734 37.2769 33.0723 37.217 33.0696L37.1813 33.068C37.1645 33.0671 37.1456 33.0661 37.1244 33.0647L36.914 33.1895C36.9528 33.192 36.9715 33.2025 36.9702 33.2208C36.9697 33.2279 36.955 33.2327 36.9356 33.2389C36.9045 33.2489 36.8615 33.2627 36.8472 33.296C36.8391 33.3146 36.8369 33.3189 36.8369 33.3189C36.8369 33.3189 36.8469 33.2994 36.8451 33.3237L36.7588 33.3178C36.6622 33.4502 36.5903 33.2402 36.5903 33.2402C36.5975 33.1384 36.5395 33.1681 36.4739 33.2016C36.4209 33.2287 36.363 33.2583 36.3306 33.2231C36.2904 33.2496 36.2389 33.2553 36.1859 33.2611C36.1045 33.2701 36.0195 33.2795 35.966 33.3655C35.9266 33.4568 35.8522 33.3035 35.7868 33.1687L35.764 33.122C35.8169 33.0989 35.8434 33.0829 35.7504 33.0949C35.7154 33.0264 35.6862 32.9811 35.6714 33.0103C35.662 33.032 35.6661 33.0615 35.6784 33.0947C35.653 33.1048 35.65 33.1378 35.6468 33.1733C35.6539 33.1696 35.6619 33.1658 35.6706 33.1619C35.6807 33.1574 35.6917 33.1527 35.7029 33.148C35.7358 33.2097 35.7847 33.2763 35.8223 33.3275C35.8604 33.3795 35.887 33.4157 35.8734 33.4148C35.78 33.4745 35.7667 33.4001 35.7526 33.322C35.7394 33.2485 35.7255 33.1716 35.644 33.1996C35.6381 33.2441 35.6231 33.2846 35.5538 33.28C35.4595 33.2368 35.4116 33.2245 35.4104 33.2429C35.359 33.2394 35.3582 33.2497 35.3564 33.2704C35.3549 33.2887 35.3527 33.3152 35.3138 33.3475C35.34 33.376 35.32 33.3821 35.3018 33.3876C35.2823 33.3935 35.2648 33.3987 35.3079 33.4302L35.2688 33.4831L35.2961 33.5958C34.9552 33.5733 34.9649 33.7662 34.9787 34.0412C34.9814 34.0948 34.9843 34.1516 34.9847 34.2104L34.9459 34.3464L34.935 34.5122C34.9285 34.6031 34.9526 34.6375 34.9741 34.6683C34.9918 34.6936 35.0078 34.7165 35.0038 34.7662C34.999 34.8421 35.0142 34.8747 35.0279 34.9038C35.0391 34.9278 35.0492 34.9494 35.0462 34.9909L35.0418 35.0421L35.0462 35.0817L35.0331 35.0766L24.9155 31C24.9467 27.8737 27.092 24.3462 28.6707 23.2992C28.9381 23.1531 29.1683 23.0412 29.3079 23.0505L29.5698 23.0676C29.7495 23.0054 30.0238 22.9866 30.3923 23.0109C30.4412 23.0141 30.4952 22.9847 30.5522 22.9536C30.6765 22.886 30.8149 22.8106 30.945 23.0472C31.0786 23.2901 31.2113 23.2036 31.3189 23.1336C31.3642 23.1041 31.4051 23.0775 31.4396 23.0798L31.5851 23.0893C31.5802 23.1589 31.5922 23.1595 31.6185 23.1608C31.6409 23.162 31.6737 23.1636 31.7153 23.2089C31.759 23.1347 31.8506 23.2062 31.934 23.2713C31.9708 23.3001 32.006 23.3276 32.0349 23.3408C32.1487 23.3852 32.205 23.4168 32.2035 23.4351C32.1978 23.5176 32.3792 23.6098 32.6498 23.7473C32.8021 23.8246 32.9826 23.9163 33.1739 24.0287L34.5698 24.9526C34.608 24.9292 34.7046 24.9824 34.8109 25.041C34.932 25.1077 35.0656 25.1813 35.1399 25.1567C35.2323 25.1261 35.2516 25.0813 35.2707 25.0369C35.2804 25.0141 35.2902 24.9914 35.3098 24.9708C35.4081 24.9587 35.3554 24.9456 35.3554 24.9456C35.3582 24.9057 35.3707 24.9025 35.3817 24.8998C35.3902 24.8977 35.3978 24.8958 35.399 24.8771C35.3938 24.8578 35.3982 24.8726 35.4038 24.8913C35.4145 24.9272 35.4295 24.9776 35.3888 24.829C35.3662 24.7465 35.4243 24.6036 35.5028 24.4506C36.0927 25.0092 36.6206 25.668 37.0705 26.3895C35.562 25.7687 33.9667 25.416 32.4942 25.7212C31.2584 25.9829 31.0896 27.7397 32.391 28.0404C32.8703 28.1492 33.3373 28.2407 33.7949 28.3305C35.5079 28.6663 37.0898 28.9765 38.6965 30.0676C39.7045 30.7628 40.86 29.8972 40.5636 28.6947C40.1542 26.9937 40.3938 25.2829 40.6315 23.5864C40.7666 22.6217 40.901 21.6617 40.9152 20.7107C40.9304 20.1172 40.2014 20.0675 39.8781 20.3793C38.7038 21.5105 38.1725 23.406 38.036 25.3148C37.1583 23.5828 35.824 21.6462 33.9574 20.6689C32.9139 20.126 31.4928 19.9852 30.0478 20.1306C30.0444 20.1181 30.0437 20.1029 30.045 20.0842L29.966 20.1391C29.8927 20.147 29.8195 20.1557 29.7462 20.165C29.7461 20.1635 29.7461 20.1621 29.7463 20.1608C29.7464 20.16 29.7465 20.1592 29.7467 20.1584C29.7471 20.1565 29.7482 20.1531 29.7482 20.1531C29.7522 20.1408 29.7547 20.133 29.6804 20.1075C29.6082 20.0724 29.5161 20.0803 29.4321 20.0876C29.3627 20.0936 29.2988 20.0991 29.256 20.0796C29.159 20.0731 28.9942 20.0644 28.9809 20.2485L28.8976 20.1945C28.8184 20.1445 28.7666 20.1609 28.7077 20.1796C28.6696 20.1917 28.6286 20.2047 28.5752 20.2012C28.4394 20.1921 28.2602 20.245 28.0376 20.3598C27.8165 20.4562 27.6769 20.5026 27.6187 20.4988C27.5824 20.4594 27.5353 20.4378 27.4772 20.4339C27.3995 20.4289 27.3006 20.4501 27.1802 20.4976C27.0792 20.5465 26.9998 20.5689 26.9417 20.5651L26.2724 20.521C26.2077 20.6093 25.9975 20.6879 25.6418 20.7568C25.3069 20.8087 25.0681 20.8762 24.9259 20.9594L24.3476 21.2819C23.7642 21.5393 23.3636 21.8272 23.1462 22.1456C22.948 22.4654 22.7888 22.649 22.6685 22.6965L22.6586 22.8347C22.62 22.8321 22.5805 22.8387 22.5404 22.8545L22.4471 22.9317C22.4238 22.9856 22.3915 23.0297 22.3501 23.064L21.9463 23.398C21.528 24.073 21.2206 24.5611 21.0238 24.8625C20.893 25.0573 20.7414 25.4078 20.569 25.9141C20.4159 26.4218 20.252 26.8085 20.0772 27.0744L20.0576 27.3504C19.9153 27.4334 19.8435 27.4841 19.8422 27.5025C19.8602 27.5223 19.8777 27.5512 19.8945 27.5892C19.8504 27.6603 19.8031 27.7773 19.7526 27.9405C19.702 28.1035 19.6444 28.229 19.5796 28.3173L19.696 28.325L19.663 28.3783L19.5698 28.4553L19.5619 28.5658C19.4972 28.6539 19.4493 28.7801 19.4181 28.9446ZM19.5443 28.8141L19.4181 28.9446C19.4957 28.9497 19.5377 28.9062 19.5443 28.8141ZM34.4591 37.3729L34.4382 37.4141L33.0184 42.9931L34.4591 37.3729ZM35.7029 33.148C35.693 33.1296 35.6846 33.1116 35.6784 33.0947C35.6902 33.0899 35.707 33.0902 35.731 33.0976L35.7504 33.0949L35.764 33.122C35.7522 33.1272 35.7391 33.1327 35.7257 33.1383L35.7029 33.148ZM38.2487 33.3534L38.2544 33.3441C38.259 33.3486 38.2635 33.3533 38.2679 33.3581L38.2764 33.3676C38.2682 33.3665 38.2587 33.3613 38.2487 33.3534ZM45.6745 38.6811V38.4161C45.7581 38.4161 45.8415 38.4572 45.9251 38.5397L46.1757 38.8048H46.3189V38.9284C46.4859 38.9284 46.659 39.0168 46.838 39.1934C47.017 39.1934 47.2735 39.3583 47.6077 39.6881H47.7509C47.8345 39.7823 48.0015 39.8295 48.2521 39.8295C48.5863 39.9825 48.7591 40.065 48.7711 40.0768H49.684C49.7676 39.9943 49.8988 39.9532 50.0778 39.9532C50.2568 39.7765 50.4238 39.6881 50.579 39.6881C50.6386 39.6881 50.7521 39.6468 50.9191 39.5645C51.0981 39.4819 51.2413 39.4408 51.3487 39.4408V39.3171C51.4323 39.2818 51.5397 39.2404 51.6709 39.1934C51.8021 39.1581 51.9095 39.1167 51.9931 39.0698L52.1184 38.9284C52.2258 38.9284 52.3631 38.8459 52.5301 38.6811C52.6255 38.6811 52.8045 38.6104 53.0671 38.4691C53.3415 38.3159 53.5504 38.1687 53.6936 38.0274L53.7697 37.9522L53.8905 37.833C54.0217 37.7152 54.1112 37.6387 54.159 37.6033C54.2186 37.5562 54.2723 37.5327 54.32 37.5327L55.0539 36.8083C55.1971 36.6786 55.2866 36.5902 55.3224 36.5433C55.3702 36.4961 55.4298 36.4254 55.5014 36.3312C55.585 36.2369 55.6684 36.1251 55.752 35.9956V35.5715C55.752 35.5478 55.764 35.5185 55.7878 35.4832C55.8116 35.436 55.8474 35.3949 55.8952 35.3595V35.2182L55.7878 34.9002C55.752 34.7588 55.7103 34.6468 55.6625 34.5645C55.6267 34.4819 55.573 34.4055 55.5014 34.3348V34.2111C55.5014 34.0933 55.4536 33.9991 55.3582 33.9284C55.2628 33.8459 55.1135 33.7694 54.9107 33.6987C54.7197 33.6281 54.6123 33.5867 54.5885 33.5751C54.5647 33.5514 54.4632 33.4807 54.2843 33.3631C54.1053 33.2452 53.9442 33.1334 53.801 33.0274C53.6578 32.9214 53.5862 32.8447 53.5862 32.7977C53.5862 32.7858 53.622 32.7447 53.6936 32.674L54.0695 32.2853C54.1291 32.2853 54.1769 32.2616 54.2127 32.2146C54.2485 32.1675 54.2664 32.1145 54.2664 32.0556C54.2784 31.9966 54.2962 31.932 54.32 31.8613C54.3559 31.7788 54.4037 31.7081 54.4632 31.6493V31.0309C54.5468 31.0309 54.5885 30.9426 54.5885 30.7659V30.1122C54.6243 30.0768 54.6422 30.0355 54.6422 29.9885C54.6422 29.7411 54.5826 29.6175 54.4632 29.6175C54.4632 29.2404 54.3321 28.9872 54.0695 28.8578C54.0337 28.8106 53.992 28.7457 53.9442 28.6634C53.9084 28.5809 53.8667 28.516 53.8189 28.4691C53.7235 28.4219 53.6458 28.304 53.5862 28.1157C53.5384 27.9153 53.4729 27.7917 53.3893 27.7447C53.2581 27.7093 53.1088 27.6268 52.9418 27.4973C52.7866 27.356 52.6375 27.2616 52.4943 27.2146C51.7425 26.7906 51.1518 26.5786 50.7222 26.5786C50.5312 26.4607 50.0599 26.4019 49.3081 26.4019C49.0933 26.4019 48.7592 26.4077 48.3058 26.4196C47.8524 26.4312 47.5241 26.4373 47.3213 26.4373C47.2377 26.4373 47.1185 26.4312 46.9633 26.4196C46.8081 26.3959 46.647 26.3843 46.48 26.3843H46.0325C45.7581 26.3843 45.5909 26.3666 45.5313 26.3313C45.4119 26.3313 45.2508 26.3959 45.048 26.5256C44.857 26.6432 44.7616 26.8199 44.7616 27.0556V27.462C44.857 27.5443 44.9048 27.668 44.9048 27.833H44.8869C44.8273 27.833 44.7974 27.9567 44.7974 28.204C44.7974 28.3335 44.8033 28.4984 44.8153 28.6987C44.8391 28.8989 44.857 29.0933 44.869 29.2818C44.8928 29.4701 44.9168 29.6468 44.9406 29.8118C44.9644 29.9767 44.9884 30.1122 45.0122 30.2182L45.0301 30.3949V30.7659C45.1137 30.9426 45.1554 31.1957 45.1554 31.5256V34.0874C45.239 34.3348 45.2807 34.7588 45.2807 35.3595V37.144C45.1971 37.2263 45.1554 37.356 45.1554 37.5327V37.6563C45.0958 37.6563 45.0659 37.6622 45.0659 37.674C45.0659 37.6975 45.1196 37.7563 45.227 37.8507C45.3464 37.933 45.406 37.992 45.406 38.0274V38.151C45.406 38.2452 45.4538 38.2924 45.5492 38.2924V38.9284C45.6328 38.8459 45.6745 38.7634 45.6745 38.6811ZM60.5605 25.7305V25.6599C60.4889 25.6599 60.4531 25.6834 60.4531 25.7305C60.4889 25.7659 60.5068 25.7952 60.5068 25.8189C60.5068 25.8777 60.483 25.9249 60.4352 25.9602C60.3876 25.9837 60.3099 26.0072 60.2025 26.0309C60.0951 26.0544 60.0355 26.0662 60.0235 26.0662C59.9759 26.0662 59.9222 26.0839 59.8624 26.1192C59.8028 26.1546 59.7371 26.2076 59.6655 26.2782C59.5939 26.3371 59.5463 26.3782 59.5224 26.4019H59.4329C59.4329 26.4489 59.4091 26.4961 59.3613 26.5433C59.3137 26.5786 59.2421 26.6198 59.1465 26.6669C59.0631 26.7023 59.0094 26.7316 58.9854 26.7553C58.9378 26.7788 58.8721 26.8318 58.7885 26.9143C58.7169 26.9966 58.6514 27.0496 58.5916 27.0733V27.1616C58.341 27.4678 58.1919 27.6387 58.1441 27.674C57.7265 28.357 57.3028 29.2346 56.8732 30.3065C56.8732 30.4242 56.8553 30.5774 56.8195 30.7659C56.7957 30.9542 56.7837 31.1016 56.7837 31.2076V31.8966C56.7837 32.356 56.8136 32.6975 56.8732 32.9214V33.4161C56.909 33.5456 56.9389 33.7694 56.9627 34.0874C56.9867 34.4055 57.0463 34.6586 57.1417 34.8472C57.1417 35.3772 57.3685 35.9365 57.8219 36.5256C57.8219 36.5844 57.8756 36.6963 57.983 36.8613C58.0904 37.0261 58.1441 37.144 58.1441 37.2146L58.5021 37.5503C58.6215 37.668 58.7409 37.8153 58.8601 37.992C58.9915 38.1569 59.0928 38.2805 59.1644 38.3631C59.248 38.4337 59.3375 38.4691 59.4329 38.4691C59.6118 38.6457 59.9102 38.8517 60.3278 39.0874C60.7456 39.3348 61.0857 39.4585 61.3481 39.4585C61.3721 39.4585 61.4197 39.4466 61.4913 39.4231H61.5808C61.7122 39.5291 61.9091 39.5821 62.1715 39.5821H62.8517C63.2337 39.5821 63.5738 39.4348 63.872 39.1404H63.9794C64.0034 39.1167 64.051 39.0933 64.1226 39.0698C64.1942 39.0579 64.2599 39.0344 64.3195 38.9991L64.3911 38.9108C64.3911 38.8754 64.4031 38.8517 64.4269 38.8401C64.4509 38.8282 64.4867 38.8164 64.5343 38.8048C64.5821 38.7929 64.6238 38.7752 64.6596 38.7517C64.779 38.6104 64.9221 38.463 65.0891 38.3101C65.2681 38.1569 65.3755 38.0509 65.4113 37.992C65.5307 37.8623 65.668 37.7152 65.823 37.5503C65.9782 37.3737 66.0976 37.2323 66.181 37.1263C66.181 37.0556 66.193 37.0143 66.2168 37.0026C66.2526 36.9789 66.3063 36.9554 66.3779 36.932C66.4495 36.8966 66.5748 36.7316 66.7538 36.4373C66.9328 36.1427 67.1476 35.7245 67.3982 35.1828V35.0945L67.6488 34.5115C67.7086 34.4524 67.7383 34.3994 67.7383 34.3525V34.0874C67.7861 34.0403 67.8518 33.8401 67.9352 33.4867C67.9352 33.4514 67.9173 33.4042 67.8815 33.3454C67.8815 33.3217 67.8994 33.2747 67.9352 33.204C67.983 33.1215 68.0068 33.0509 68.0068 32.992V32.7447C68.0546 32.6975 68.0784 32.6092 68.0784 32.4797V32.3206C68.0784 31.9436 67.9651 31.4666 67.7383 30.8896C67.7383 30.8189 67.6667 30.6185 67.5235 30.2889C67.3923 29.9471 67.2849 29.7765 67.2013 29.7765V29.7058C67.2013 29.694 67.1775 29.6644 67.1297 29.6175C67.0821 29.5584 67.0164 29.4701 66.9328 29.3525C66.8494 29.2228 66.7778 29.0874 66.718 28.9461L66.4316 28.6987C66.4078 28.6987 66.3899 28.6927 66.3779 28.6811L66.3414 28.645L66.3063 28.6104C66.2705 28.5751 66.2288 28.5397 66.181 28.5044L66.1094 28.4337C66.0618 28.4337 65.9723 28.3807 65.8409 28.2747C65.7693 28.2394 65.644 28.1687 65.465 28.0627C65.298 27.9448 65.2144 27.8684 65.2144 27.833C65.2144 27.8093 65.2323 27.78 65.2681 27.7447H65.1607C65.1607 27.6503 65.107 27.6033 64.9996 27.6033L64.8206 27.4267C64.8206 27.4148 64.8148 27.3971 64.8027 27.3737C64.791 27.35 64.7849 27.3265 64.7849 27.303C64.7849 27.2558 64.7969 27.2086 64.8206 27.1616H64.6596C64.5284 27.1616 64.4389 27.1321 64.3911 27.0733C64.3793 27.0615 64.3374 27.0261 64.2658 26.9673C64.1942 26.9083 64.1287 26.8553 64.0689 26.8083C64.0093 26.7493 63.9794 26.7081 63.9794 26.6846C63.6334 26.4842 63.4603 26.3076 63.4603 26.1546H63.3887C63.2695 26.0367 62.8936 25.8954 62.261 25.7305H62.1715C62.1119 25.6834 62.0582 25.6599 62.0104 25.6599C62.0104 25.6952 61.9925 25.7129 61.9567 25.7129L61.903 25.6599C61.8554 25.6127 61.8255 25.5892 61.8135 25.5892C61.8017 25.5892 61.7718 25.6127 61.724 25.6599C61.6764 25.6952 61.6585 25.7187 61.6703 25.7305H60.9722C60.9126 25.7894 60.829 25.8189 60.7216 25.8189C60.674 25.8189 60.6203 25.7894 60.5605 25.7305ZM70.1442 28.9108H70.3411C71.3435 28.5456 71.9699 28.3631 72.2205 28.3631C72.4949 28.3631 72.7813 28.3984 73.0797 28.4691C73.3781 28.5397 73.5272 28.6692 73.5272 28.8578C73.5272 28.9754 73.4556 29.1109 73.3124 29.2641C73.1692 29.4171 73.026 29.4938 72.8828 29.4938H72.6859C72.5547 29.5291 72.3637 29.5584 72.1131 29.5821C71.8745 29.6056 71.7313 29.6233 71.6836 29.6351C71.6836 29.6586 71.6536 29.6998 71.5941 29.7588C71.5462 29.8176 71.4926 29.8765 71.433 29.9355C71.3734 29.9825 71.3077 30.0297 71.2361 30.0768L71.1466 30.1652L71.0213 30.3065H70.8065L70.717 30.4125C70.6574 30.4832 70.5917 30.5539 70.5201 30.6245C70.4605 30.6952 70.4186 30.7305 70.3948 30.7305L70.2695 30.6599V30.7835C70.2815 30.8305 70.2874 30.8659 70.2874 30.8896C70.2874 30.9837 70.2575 31.0779 70.1979 31.1722C70.2457 31.1722 70.3291 31.2722 70.4485 31.4726C70.5797 31.6609 70.6812 31.7788 70.7528 31.826V31.8966C70.8244 32.0261 70.9259 32.1616 71.0571 32.303C71.1883 32.4325 71.2839 32.4973 71.3435 32.4973C71.4389 32.4973 71.5345 32.5443 71.6299 32.6387C71.7253 32.7328 71.8088 32.78 71.8804 32.78C71.8924 32.78 71.9282 32.774 71.9878 32.7623C72.0594 32.7387 72.1131 32.727 72.1489 32.727C72.1967 32.727 72.2622 32.7328 72.3458 32.7447H72.5427C72.6739 32.7447 72.9306 32.6622 73.3124 32.4973C73.7062 32.3207 73.9688 32.2323 74.1 32.2323C74.5774 32.2323 74.983 32.403 75.3172 32.7447C75.6514 33.0862 75.8184 33.5397 75.8184 34.1051C75.8184 34.7058 75.5798 35.3772 75.1024 36.1192C75.1024 36.2015 74.9651 36.2841 74.6907 36.3666C74.4163 36.4373 74.1417 36.4726 73.8673 36.4726C73.6525 36.4726 73.3065 36.4254 72.8291 36.3312H72.489C72.2742 36.3312 71.9819 36.1722 71.612 35.8542L71.433 35.6599L71.254 35.5715C71.2302 35.5715 71.1944 35.5832 71.1466 35.6069C71.0154 35.4655 70.8364 35.3949 70.6096 35.3949H70.5559C70.5321 35.3949 70.4664 35.3595 70.359 35.2888C70.1562 35.1475 69.9473 35.0062 69.7325 34.8648C69.7325 34.9236 69.6967 34.9648 69.6251 34.9885C69.5655 35.012 69.5356 35.0592 69.5356 35.1298L69.5893 35.2005H69.464C69.5118 35.2358 69.5356 35.3005 69.5356 35.3949C69.4878 35.3477 69.4461 35.3242 69.4103 35.3242C69.3865 35.3949 69.3745 35.436 69.3745 35.4479C69.3745 35.4713 69.4044 35.5832 69.464 35.7835C69.4282 35.7835 69.3804 35.7894 69.3208 35.8012H69.1955C69.1359 35.8012 69.0761 35.7775 69.0165 35.7305C68.9687 35.6834 68.915 35.6599 68.8554 35.6599C68.8196 35.7069 68.8017 35.7717 68.8017 35.8542C68.8017 35.9956 68.8196 36.0839 68.8554 36.1192C68.8792 36.1074 68.8971 36.1192 68.9091 36.1546C68.9211 36.1781 68.927 36.2192 68.927 36.2782C68.927 36.3371 68.9329 36.4019 68.9449 36.4726C68.9569 36.5314 68.9866 36.5963 69.0344 36.6669C69.0822 36.7376 69.1418 36.7964 69.2134 36.8436C69.297 36.8436 69.3387 36.826 69.3387 36.7906L69.4103 36.8436C69.3745 36.879 69.3566 36.9143 69.3566 36.9496L69.3745 36.985C69.3983 37.0084 69.4223 37.0438 69.4461 37.091C69.4819 37.1263 69.5118 37.1498 69.5356 37.1616C69.8698 37.7505 70.5142 38.3277 71.4688 38.8931C72.4353 39.4701 73.396 39.7588 74.3506 39.7588C74.446 39.7235 74.5654 39.7058 74.7086 39.7058H75.4246C75.8064 39.7058 76.3674 39.5703 77.1071 39.2994C77.8469 39.0403 78.3184 38.7341 78.5212 38.3807L78.5749 38.3101C79.1835 37.509 79.4878 36.8376 79.4878 36.2959C79.4878 36.2606 79.4758 36.1839 79.452 36.0662C79.452 35.701 79.4758 35.4125 79.5236 35.2005V35.0062C79.4758 34.8648 79.452 34.7175 79.452 34.5645V34.3878C79.452 34.0107 79.3088 33.5456 79.0224 32.992C78.736 32.4383 78.3481 31.932 77.8589 31.4726C77.3815 31.0132 76.9103 30.7599 76.4449 30.7129L76.3912 30.6422C77.0475 30.2535 77.3756 29.7351 77.3756 29.0874C77.3756 28.9814 77.3399 28.8224 77.2682 28.6104C77.2086 28.3984 77.1787 28.2334 77.1787 28.1157C77.1787 28.0332 77.155 27.939 77.1071 27.833C77.0593 27.727 77.0057 27.6387 76.9461 27.568C76.8983 27.4855 76.8267 27.3913 76.7313 27.2853C76.6477 27.1793 76.594 27.1086 76.5702 27.0733C76.439 26.9083 76.1884 26.7316 75.8184 26.5433C75.4484 26.3547 75.0546 26.2606 74.637 26.2606C74.279 26.2606 73.921 26.2252 73.563 26.1546C73.205 26.0839 72.9306 26.0486 72.7396 26.0486C72.0116 26.0486 71.0333 26.4312 69.8041 27.197L69.464 27.5857V27.6563C69.464 27.7858 69.4461 27.8977 69.4103 27.992H69.6788C69.643 28.0627 69.6251 28.1157 69.6251 28.151C69.6251 28.1627 69.7205 28.2275 69.9115 28.3454C70.1025 28.4514 70.1979 28.5574 70.1979 28.6634C70.1979 28.6751 70.1859 28.7046 70.1621 28.7517C70.1501 28.7987 70.1442 28.8517 70.1442 28.9108ZM81.5088 38.6811V38.4161C81.5924 38.4161 81.6758 38.4572 81.7594 38.5397L82.01 38.8048H82.1532V38.9284C82.3202 38.9284 82.4933 39.0168 82.6723 39.1934C82.8513 39.1934 83.1078 39.3583 83.442 39.6881H83.5852C83.6688 39.7823 83.8358 39.8295 84.0864 39.8295C84.4206 39.9825 84.5935 40.065 84.6055 40.0768H85.5184C85.602 39.9943 85.7332 39.9532 85.9122 39.9532C86.0912 39.7765 86.2582 39.6881 86.4134 39.6881C86.473 39.6881 86.5864 39.6468 86.7534 39.5645C86.9324 39.4819 87.0756 39.4408 87.183 39.4408V39.3171C87.2666 39.2818 87.374 39.2404 87.5052 39.1934C87.6364 39.1581 87.7438 39.1167 87.8274 39.0698L87.9527 38.9284C88.0601 38.9284 88.1974 38.8459 88.3644 38.6811C88.4598 38.6811 88.6388 38.6104 88.9014 38.4691C89.1758 38.3159 89.3847 38.1687 89.5279 38.0274L89.543 38.0124L89.5451 38.0104C89.5735 37.9823 89.6333 37.9232 89.7248 37.833C89.856 37.7152 89.9455 37.6387 89.9933 37.6033C90.0529 37.5562 90.1066 37.5327 90.1544 37.5327L90.8883 36.8083C91.0315 36.6786 91.121 36.5902 91.1568 36.5433C91.2046 36.4961 91.2642 36.4254 91.3358 36.3312C91.4194 36.2369 91.5028 36.1251 91.5864 35.9956V35.5715C91.5864 35.5478 91.5984 35.5185 91.6222 35.4832C91.646 35.436 91.6818 35.3949 91.7296 35.3595V35.2182L91.6222 34.9002C91.5864 34.7588 91.5447 34.6468 91.4969 34.5645C91.4611 34.4819 91.4074 34.4055 91.3358 34.3348V34.2111C91.3358 34.0933 91.288 33.9991 91.1926 33.9284C91.0972 33.8459 90.9479 33.7694 90.7451 33.6987C90.5541 33.6281 90.4467 33.5867 90.4229 33.5751C90.3991 33.5514 90.2976 33.4807 90.1186 33.3631C89.9396 33.2452 89.7785 33.1334 89.6353 33.0274C89.4921 32.9214 89.4205 32.8447 89.4205 32.7977C89.4205 32.7858 89.4563 32.7447 89.5279 32.674L89.9038 32.2853C89.9634 32.2853 90.0112 32.2616 90.047 32.2146C90.0828 32.1675 90.1007 32.1145 90.1007 32.0556C90.1127 31.9966 90.1306 31.932 90.1544 31.8613C90.1902 31.7788 90.238 31.7081 90.2976 31.6493V31.0309C90.3812 31.0309 90.4229 30.9426 90.4229 30.7659V30.1122C90.4587 30.0768 90.4766 30.0355 90.4766 29.9885C90.4766 29.7411 90.417 29.6175 90.2976 29.6175C90.2976 29.2404 90.1664 28.9872 89.9038 28.8578C89.868 28.8106 89.8263 28.7457 89.7785 28.6634C89.7427 28.5809 89.701 28.516 89.6532 28.4691C89.5578 28.4219 89.4801 28.304 89.4205 28.1157C89.3727 27.9153 89.3072 27.7917 89.2236 27.7447C89.0924 27.7093 88.9431 27.6268 88.7761 27.4973C88.6209 27.356 88.4718 27.2616 88.3286 27.2146C87.5768 26.7906 86.9861 26.5786 86.5566 26.5786C86.3656 26.4607 85.8943 26.4019 85.1425 26.4019C84.9277 26.4019 84.5935 26.4077 84.1401 26.4196C83.6867 26.4312 83.3584 26.4373 83.1556 26.4373C83.072 26.4373 82.9528 26.4312 82.7976 26.4196C82.6424 26.3959 82.4813 26.3843 82.3143 26.3843H81.8668C81.5925 26.3843 81.4252 26.3666 81.3656 26.3313C81.2462 26.3313 81.0852 26.3959 80.8824 26.5256C80.6914 26.6432 80.596 26.8199 80.596 27.0556V27.462C80.6914 27.5443 80.7392 27.668 80.7392 27.833H80.7213C80.6617 27.833 80.6318 27.9567 80.6318 28.204C80.6318 28.3335 80.6377 28.4984 80.6497 28.6987C80.6735 28.8989 80.6914 29.0933 80.7034 29.2818C80.7272 29.4701 80.7512 29.6468 80.775 29.8118C80.7988 29.9767 80.8228 30.1122 80.8466 30.2182L80.8645 30.3949V30.7659C80.9481 30.9426 80.9898 31.1957 80.9898 31.5256V34.0874C81.0734 34.3348 81.1151 34.7588 81.1151 35.3595V37.144C81.0315 37.2263 80.9898 37.356 80.9898 37.5327V37.6563C80.9302 37.6563 80.9003 37.6622 80.9003 37.674C80.9003 37.6975 80.954 37.7563 81.0614 37.8507C81.1808 37.933 81.2403 37.992 81.2403 38.0274V38.151C81.2403 38.2452 81.2881 38.2924 81.3835 38.2924V38.9284C81.4671 38.8459 81.5088 38.7634 81.5088 38.6811ZM102.248 32.515C102.546 31.9143 102.702 31.6139 102.713 31.6139L102.624 31.3843C102.696 31.1722 102.731 30.9307 102.731 30.6599C102.731 30.2947 102.654 29.9766 102.499 29.7058C102.451 29.6233 102.367 29.4408 102.248 29.1581C102.141 28.8636 102.015 28.6692 101.872 28.5751C101.765 28.4691 101.651 28.3454 101.532 28.204C101.413 28.0509 101.305 27.933 101.21 27.8507C101.126 27.7563 101.019 27.668 100.888 27.5857C99.8257 26.9966 98.9307 26.7023 98.2027 26.7023C98.1789 26.7023 97.7373 26.6551 96.8782 26.5609C96.019 26.4549 95.3388 26.4019 94.8376 26.4019C94.5274 26.4019 94.3067 26.4136 94.1753 26.4373C94.0799 26.3782 94.0083 26.3489 93.9605 26.3489C93.9487 26.3489 93.9308 26.3547 93.9068 26.3666H93.7099C93.4713 26.3076 93.334 26.2782 93.2982 26.2782C93.2982 26.3489 93.2744 26.4903 93.2266 26.7023H93.0655C92.9223 26.7729 92.8507 27.0791 92.8507 27.621C92.8507 29.2228 92.8747 30.0473 92.9223 30.0945C92.9223 30.1298 92.8985 30.2358 92.8507 30.4125C92.8149 30.5774 92.797 30.7069 92.797 30.8012C92.9044 31.7316 92.9581 32.3676 92.9581 32.7093C92.9581 32.8977 92.9402 33.1804 92.9044 33.5574C92.8806 33.9224 92.8686 34.1934 92.8686 34.3701C92.8686 34.8058 92.9044 35.4948 92.976 36.4373L93.0834 38.1864C93.1074 38.4926 93.1908 38.7929 93.334 39.0874C93.4892 39.3936 93.6741 39.5468 93.8889 39.5468C93.9129 39.5468 93.9605 39.535 94.0321 39.5115C94.0441 39.5115 94.1216 39.4996 94.2648 39.4761C94.408 39.4524 94.5215 39.4289 94.6049 39.4055C94.7005 39.3818 94.7481 39.3464 94.7481 39.2994H94.8197C94.8437 39.3111 94.8616 39.3171 94.8734 39.3171C94.8974 39.3171 95.0286 39.2581 95.2672 39.1404C95.482 39.1051 95.673 38.9991 95.84 38.8224C96.0072 38.6457 96.1085 38.5574 96.1443 38.5574C96.1801 38.5927 96.21 38.6104 96.2338 38.6104C96.2578 38.6104 96.2875 38.5986 96.3233 38.5751C96.3591 38.5397 96.389 38.5221 96.4128 38.5221C96.4368 38.5221 96.4606 38.5279 96.4844 38.5397C96.5084 38.5514 96.5322 38.5574 96.556 38.5574C96.6276 38.357 96.6813 38.2452 96.7171 38.2217C96.7171 38.1745 96.7053 38.098 96.6813 37.992C96.6695 37.886 96.6634 37.8035 96.6634 37.7447L96.4486 35.8189C96.4368 35.6892 96.4069 35.5832 96.3591 35.5009C96.3233 35.4065 96.3054 35.2712 96.3054 35.0945V35.0238L96.3233 34.9885H96.8245C96.8723 34.9885 96.9439 35.0062 97.0393 35.0415C97.1349 35.065 97.2065 35.0768 97.2541 35.0768C97.2781 35.0768 97.2959 35.0708 97.3077 35.0592C97.4867 35.0592 97.6002 35.1061 97.6478 35.2005C97.6836 35.1887 97.7373 35.1768 97.8089 35.1652C97.8925 35.1533 97.9521 35.1415 97.9879 35.1298C98.8113 35.0238 99.2828 34.9355 99.402 34.8648C99.4976 34.8176 99.5631 34.7942 99.5989 34.7942C99.6587 34.7823 99.8019 34.7351 100.029 34.6528C100.255 34.5703 100.524 34.4585 100.834 34.3171C101.144 34.1639 101.419 33.9754 101.657 33.7517C101.896 33.5279 102.015 33.2982 102.015 33.0627V32.992C102.015 32.933 102.093 32.774 102.248 32.515ZM110.557 38.3984L110.629 38.6634L110.718 38.7517C110.754 38.8341 110.796 38.8754 110.843 38.8754C110.879 38.8754 110.915 38.8578 110.951 38.8224L111.04 38.7517L111.112 38.8401C111.124 38.8754 111.166 38.9108 111.237 38.9461C111.309 38.9931 111.446 39.0344 111.649 39.0698C111.864 39.1167 112.108 39.1404 112.383 39.1404C112.538 39.1404 112.651 39.1109 112.723 39.0521C112.794 38.9931 112.842 38.9638 112.866 38.9638H112.884C113.075 38.8931 113.17 38.7576 113.17 38.5574L113.152 38.5221V38.4691C113.236 38.4691 113.343 38.5044 113.475 38.5751C113.618 38.6339 113.755 38.6634 113.886 38.6634L113.94 38.7341C113.976 38.7929 114.006 38.8401 114.029 38.8754C114.065 38.9108 114.113 38.9461 114.173 38.9814C114.232 39.0168 114.292 39.0344 114.352 39.0344C114.364 39.0344 114.376 39.0168 114.387 38.9814C114.411 38.9461 114.429 38.9284 114.441 38.9284C114.465 38.9284 114.501 38.9519 114.549 38.9991H114.62L114.549 38.8401C114.549 38.7811 114.573 38.7517 114.62 38.7517L114.799 38.5927C114.859 38.5337 114.889 38.4277 114.889 38.2747V38.1864C114.924 38.151 114.942 38.1157 114.942 38.0804C114.942 37.9744 114.871 37.7917 114.728 37.5327V37.5503L114.549 37.2146C114.286 36.7081 114.083 36.3252 113.94 36.0662C113.904 35.9837 113.642 35.3182 113.152 34.0698V34.0521C113.152 33.9577 113.099 33.8401 112.991 33.6987C112.896 33.5456 112.848 33.463 112.848 33.4514C112.562 32.615 112.305 32.0084 112.078 31.6316C112.007 31.5019 111.917 31.2722 111.81 30.9426C111.715 30.6008 111.619 30.3712 111.524 30.2535V30.1652C111.524 30.0473 111.5 29.959 111.452 29.9002L111.38 29.9178C111.38 29.8353 111.309 29.6586 111.166 29.3878C111.034 29.1167 110.915 28.9108 110.808 28.7694C110.653 28.6162 110.444 28.3335 110.181 27.9214C109.919 27.4973 109.728 27.2263 109.608 27.1086C109.561 27.0849 109.453 26.9789 109.286 26.7906C109.131 26.5902 108.916 26.4196 108.642 26.2782L108.57 26.3666C108.57 26.2841 108.516 26.2016 108.409 26.1192C108.373 26.1309 108.26 26.1604 108.069 26.2076C107.878 26.2546 107.699 26.3017 107.532 26.3489C107.365 26.3959 107.27 26.4431 107.246 26.4903L107.192 26.4196H107.174C107.15 26.4196 107.126 26.4077 107.102 26.3843C107.055 26.3724 107.019 26.3666 106.995 26.3666C106.876 26.3666 106.75 26.4136 106.619 26.5079C106.5 26.5902 106.41 26.6316 106.351 26.6316L106.082 26.879C105.999 27.0203 105.915 27.1263 105.831 27.197H105.778C105.754 27.197 105.718 27.2558 105.67 27.3737C105.635 27.4913 105.581 27.568 105.509 27.6033C105.509 27.6622 105.527 27.7093 105.563 27.7447C105.539 27.7917 105.515 27.8742 105.491 27.992C105.468 28.1097 105.438 28.1922 105.402 28.2394L105.384 28.3984C105.301 28.5986 105.247 28.7987 105.223 28.9991C105.199 29.1874 105.169 29.3111 105.133 29.3701C105.026 29.6998 104.865 30.3242 104.65 31.2429C104.435 32.1498 104.262 32.7917 104.131 33.1687C104.095 33.251 104.048 33.4337 103.988 33.7164C103.94 33.9873 103.886 34.2346 103.827 34.4585C103.767 34.6821 103.713 34.8118 103.666 34.8472C103.487 34.9648 103.326 35.1003 103.182 35.2535C103.051 35.3949 102.979 35.5067 102.967 35.5892C103.003 35.6127 103.039 35.6304 103.075 35.6422C103.111 35.6539 103.135 35.6657 103.146 35.6775C103.159 35.6775 103.176 35.6892 103.2 35.7129C103.224 35.7245 103.248 35.7482 103.272 35.7835C103.296 35.807 103.332 35.8482 103.379 35.9072H103.308C103.355 35.966 103.379 36.0486 103.379 36.1546C103.343 36.1899 103.29 36.3724 103.218 36.7023C103.158 37.0203 103.075 37.2676 102.967 37.4443V37.4973C102.967 37.568 102.944 37.6092 102.896 37.621H102.86C102.836 37.621 102.801 37.6387 102.753 37.674C102.705 37.7093 102.681 37.7328 102.681 37.7447C102.681 37.7563 102.693 37.7977 102.717 37.8684C102.717 37.8918 102.699 37.9272 102.663 37.9744C102.639 38.0213 102.627 38.0567 102.627 38.0804L102.645 38.1687C102.49 38.251 102.401 38.2982 102.377 38.3101C102.377 38.4749 102.407 38.5867 102.466 38.6457V38.7341C102.443 38.7576 102.431 38.7987 102.431 38.8578C102.431 38.9284 102.496 38.9931 102.627 39.0521H102.699C102.735 39.0991 102.777 39.1228 102.824 39.1228C102.872 39.1228 102.938 39.0991 103.021 39.0521H103.039C103.075 39.0521 103.135 39.0226 103.218 38.9638C103.302 38.9166 103.35 38.8754 103.361 38.8401H103.522C103.57 38.8164 103.731 38.8048 104.006 38.8048C104.292 38.8048 104.447 38.7871 104.471 38.7517L104.561 38.7694L104.704 38.6811C104.716 38.6811 104.734 38.6869 104.757 38.6987C104.781 38.7104 104.799 38.7164 104.811 38.7164C104.907 38.7164 105.014 38.622 105.133 38.4337C105.253 38.2334 105.312 38.0804 105.312 37.9744C105.312 37.939 105.301 37.886 105.277 37.8153V37.568L105.294 37.4973C105.283 37.4501 105.318 37.2676 105.402 36.9496C105.485 36.6316 105.527 36.4077 105.527 36.2782V36.2606L105.509 36.2782C105.497 36.2782 105.491 36.2722 105.491 36.2606C105.491 36.0486 105.557 35.9426 105.688 35.9426H105.778C105.778 35.9072 105.831 35.8777 105.939 35.8542C105.987 35.8542 106.01 35.86 106.01 35.8719L105.885 35.8896H105.957C106.16 35.8896 106.458 35.8659 106.852 35.8189C107.258 35.7599 107.478 35.7305 107.514 35.7305C107.538 35.7305 107.568 35.7364 107.604 35.7482H107.675C107.735 35.701 107.818 35.6775 107.926 35.6775C107.938 35.6775 107.95 35.6834 107.962 35.6952H108.015C108.039 35.6952 108.099 35.6834 108.194 35.6599C108.29 35.6362 108.385 35.6245 108.481 35.6245C108.516 35.6245 108.564 35.6304 108.624 35.6422C108.659 35.6491 108.686 35.6541 108.705 35.6569L108.716 35.6586C108.723 35.6594 108.728 35.6599 108.731 35.6599H108.874C109.006 35.6599 109.149 35.7775 109.304 36.0132C109.459 36.2487 109.561 36.3666 109.608 36.3666H109.626C109.626 36.3901 109.632 36.4136 109.644 36.4373V36.4549C109.644 36.4784 109.632 36.5019 109.608 36.5256L109.698 36.5963C109.698 36.6432 109.758 36.7611 109.877 36.9496C110.008 37.138 110.074 37.2676 110.074 37.3383V37.356C110.074 37.3795 110.086 37.403 110.109 37.4267C110.145 37.4501 110.163 37.4736 110.163 37.4973V37.515L110.235 37.6033C110.235 37.6975 110.295 37.8035 110.414 37.9214V37.9567C110.414 37.9802 110.42 38.0155 110.432 38.0627C110.456 38.1097 110.467 38.145 110.467 38.1687V38.1864C110.503 38.3159 110.533 38.3865 110.557 38.3984ZM113.512 29.1934V29.2464L113.673 29.2994C113.745 29.3111 113.804 29.3348 113.852 29.3701C113.912 29.3936 113.971 29.4289 114.031 29.4761L114.21 29.5645L114.675 29.6705C114.687 29.6821 114.705 29.6881 114.729 29.6881C114.741 29.6763 114.765 29.6705 114.801 29.6705C114.824 29.6705 114.98 29.7116 115.266 29.7941C115.564 29.8765 115.767 29.9178 115.875 29.9178C115.922 29.9178 115.994 29.9118 116.089 29.9002C116.185 29.8765 116.262 29.8648 116.322 29.8648C116.74 29.8648 117.33 29.9295 118.094 30.0592L118.13 30.0768H118.148V30.1652C118.112 31.6139 118.094 32.409 118.094 32.5503V32.674C118.106 32.8623 118.124 33.1334 118.148 33.4867C118.184 33.8282 118.207 34.0521 118.219 34.1581L118.434 36.7729C118.434 36.8318 118.44 36.9259 118.452 37.0556C118.476 37.1733 118.488 37.244 118.488 37.2676L118.631 37.2323C118.631 37.3737 118.637 37.5443 118.649 37.7447C118.661 37.9449 118.679 38.2334 118.703 38.6104C118.739 38.9754 118.804 39.2758 118.9 39.5115C118.995 39.7588 119.108 39.8825 119.24 39.8825C119.299 39.8825 119.347 39.8472 119.383 39.7765L119.455 39.6351C119.526 39.7058 119.604 39.7411 119.687 39.7411C119.759 39.7411 119.848 39.6998 119.956 39.6175C119.992 39.6644 120.033 39.6881 120.081 39.6881C120.117 39.6881 120.266 39.5821 120.529 39.3701C120.791 39.1698 120.928 39.0698 120.94 39.0698C121 39.0698 121.048 39.0756 121.083 39.0874C121.083 38.9577 121.071 38.7576 121.048 38.4867C121.024 38.2157 121.012 38.0097 121.012 37.8684C121.012 37.833 121.03 37.7917 121.065 37.7447C121.113 37.6857 121.137 37.6326 121.137 37.5857L121.191 36.9673C121.191 36.8848 121.238 36.6669 121.334 36.3136L121.37 35.4655L121.423 35.0415C121.423 34.9355 121.406 34.7528 121.37 34.4938C121.346 34.2228 121.334 34.0168 121.334 33.8754L121.262 32.6917V32.6033C121.25 32.6033 121.244 32.668 121.244 32.7977V33.0097C121.232 32.8447 121.227 32.5738 121.227 32.197C121.227 31.5609 121.244 31.1074 121.28 30.8365L121.334 30.3595C121.346 30.2417 121.406 30.1828 121.513 30.1828H122.408C122.527 30.2063 122.694 30.2182 122.909 30.2182C123.1 30.2182 123.625 30.1887 124.484 30.1298C124.544 30.1298 124.616 30.1003 124.699 30.0415C124.795 29.9708 124.896 29.8825 125.003 29.7765C125.111 29.6586 125.182 29.588 125.218 29.5645L125.165 29.3525C125.248 29.3406 125.373 29.2346 125.54 29.0344C125.707 28.8224 125.827 28.6339 125.898 28.4691L125.791 28.3631C125.707 28.304 125.666 28.2452 125.666 28.1864C125.666 28.1745 125.678 28.1569 125.702 28.1334C125.737 28.098 125.755 28.0685 125.755 28.045C125.588 27.562 125.32 27.297 124.95 27.25L124.073 27.144C123.762 27.1203 123.464 27.0968 123.178 27.0733C122.903 27.038 122.605 27.0085 122.283 26.985C122.259 26.985 121.984 26.9731 121.459 26.9496C120.946 26.9259 120.546 26.9024 120.26 26.879C119.985 26.8553 119.836 26.8259 119.813 26.7906C119.693 26.8259 119.323 26.8553 118.703 26.879C118.583 26.8671 118.416 26.8613 118.202 26.8613C118.058 26.8613 117.855 26.8671 117.593 26.879C117.342 26.8906 117.151 26.8966 117.02 26.8966C116.555 26.8966 116.131 26.8436 115.749 26.7376C115.809 26.879 115.839 26.9554 115.839 26.9673C115.707 26.9789 115.51 26.985 115.248 26.985L115.302 27.2853L115.123 27.2323C115.063 27.2323 115.033 27.25 115.033 27.2853C115.033 27.3088 115.045 27.3323 115.069 27.356L115.141 27.409C115.045 27.409 114.998 27.4325 114.998 27.4797L115.248 27.674C115.248 27.7328 115.123 27.7623 114.872 27.7623C114.801 27.7623 114.705 27.7447 114.586 27.7093C114.466 27.6622 114.377 27.6387 114.317 27.6387C113.864 27.6387 113.637 27.7387 113.637 27.939C113.637 27.9979 113.649 28.045 113.673 28.0804L113.727 28.1864C113.834 28.4572 113.941 28.6162 114.049 28.6634L113.762 28.9108L113.834 29.0168C113.762 29.0637 113.655 29.1228 113.512 29.1934ZM130.219 25.7305V25.6599C130.147 25.6599 130.112 25.6834 130.112 25.7305C130.147 25.7659 130.165 25.7952 130.165 25.8189C130.165 25.8777 130.141 25.9249 130.094 25.9602C130.046 25.9837 129.968 26.0072 129.861 26.0309C129.754 26.0544 129.694 26.0662 129.682 26.0662C129.634 26.0662 129.581 26.0839 129.521 26.1192C129.461 26.1546 129.396 26.2076 129.324 26.2782C129.252 26.3371 129.205 26.3782 129.181 26.4019H129.091C129.091 26.4489 129.067 26.4961 129.02 26.5433C128.972 26.5786 128.9 26.6198 128.805 26.6669C128.721 26.7023 128.668 26.7316 128.644 26.7553C128.596 26.7788 128.53 26.8318 128.447 26.9143C128.375 26.9966 128.31 27.0496 128.25 27.0733V27.1616C127.999 27.4678 127.85 27.6387 127.802 27.674C127.385 28.357 126.961 29.2346 126.532 30.3065C126.532 30.4242 126.514 30.5774 126.478 30.7659C126.454 30.9542 126.442 31.1016 126.442 31.2076V31.8966C126.442 32.356 126.472 32.6975 126.532 32.9214V33.4161C126.567 33.5456 126.597 33.7694 126.621 34.0874C126.645 34.4055 126.705 34.6586 126.8 34.8472C126.8 35.3772 127.027 35.9365 127.48 36.5256C127.48 36.5844 127.534 36.6963 127.641 36.8613C127.749 37.0261 127.802 37.144 127.802 37.2146L128.16 37.5503C128.28 37.668 128.399 37.8153 128.518 37.992C128.65 38.1569 128.751 38.2805 128.823 38.3631C128.906 38.4337 128.996 38.4691 129.091 38.4691C129.27 38.6457 129.569 38.8517 129.986 39.0874C130.404 39.3348 130.744 39.4585 131.007 39.4585C131.031 39.4585 131.078 39.4466 131.15 39.4231H131.239C131.371 39.5291 131.568 39.5821 131.83 39.5821H132.51C132.892 39.5821 133.232 39.4348 133.53 39.1404H133.638C133.662 39.1167 133.709 39.0933 133.781 39.0698C133.853 39.0579 133.918 39.0344 133.978 38.9991L134.049 38.9108C134.049 38.8754 134.061 38.8517 134.085 38.8401C134.109 38.8282 134.145 38.8164 134.193 38.8048C134.24 38.7929 134.282 38.7752 134.318 38.7517C134.437 38.6104 134.581 38.463 134.748 38.3101C134.927 38.1569 135.034 38.0509 135.07 37.992C135.189 37.8623 135.326 37.7152 135.481 37.5503C135.637 37.3737 135.756 37.2323 135.839 37.1263C135.839 37.0556 135.851 37.0143 135.875 37.0026C135.911 36.9789 135.965 36.9554 136.036 36.932C136.108 36.8966 136.233 36.7316 136.412 36.4373C136.591 36.1427 136.806 35.7245 137.057 35.1828V35.0945L137.307 34.5115C137.367 34.4524 137.397 34.3994 137.397 34.3525V34.0874C137.445 34.0403 137.51 33.8401 137.594 33.4867C137.594 33.4514 137.576 33.4042 137.54 33.3454C137.54 33.3217 137.558 33.2747 137.594 33.204C137.641 33.1215 137.665 33.0509 137.665 32.992V32.7447C137.713 32.6975 137.737 32.6092 137.737 32.4797V32.3206C137.737 31.9436 137.624 31.4666 137.397 30.8896C137.397 30.8189 137.325 30.6185 137.182 30.2889C137.051 29.9471 136.943 29.7765 136.86 29.7765V29.7058C136.86 29.694 136.836 29.6644 136.788 29.6175C136.741 29.5584 136.675 29.4701 136.591 29.3525C136.508 29.2228 136.436 29.0874 136.376 28.9461L136.09 28.6987C136.066 28.6987 136.048 28.6927 136.036 28.6811C136.025 28.6692 136.001 28.6457 135.965 28.6104C135.929 28.5751 135.887 28.5397 135.839 28.5044L135.768 28.4337C135.72 28.4337 135.631 28.3807 135.499 28.2747C135.428 28.2394 135.302 28.1687 135.123 28.0627C134.956 27.9448 134.873 27.8684 134.873 27.833C134.873 27.8093 134.891 27.78 134.927 27.7447H134.819C134.819 27.6503 134.765 27.6033 134.658 27.6033L134.479 27.4267C134.479 27.4148 134.473 27.3971 134.461 27.3737C134.449 27.35 134.443 27.3265 134.443 27.303C134.443 27.2558 134.455 27.2086 134.479 27.1616H134.318C134.187 27.1616 134.097 27.1321 134.049 27.0733C134.038 27.0615 133.996 27.0261 133.924 26.9673C133.853 26.9083 133.787 26.8553 133.727 26.8083C133.668 26.7493 133.638 26.7081 133.638 26.6846C133.292 26.4842 133.119 26.3076 133.119 26.1546H133.047C132.928 26.0367 132.552 25.8954 131.919 25.7305H131.83C131.77 25.6834 131.717 25.6599 131.669 25.6599C131.669 25.6952 131.651 25.7129 131.615 25.7129L131.561 25.6599C131.514 25.6127 131.484 25.5892 131.472 25.5892C131.46 25.5892 131.43 25.6127 131.382 25.6599C131.335 25.6952 131.317 25.7187 131.329 25.7305H130.631C130.571 25.7894 130.487 25.8189 130.38 25.8189C130.332 25.8189 130.279 25.7894 130.219 25.7305ZM152.332 37.3168L152.189 32.939V32.7447C152.034 31.8613 151.956 31.3371 151.956 31.1722C151.956 31.1485 151.962 31.1132 151.974 31.0662C151.986 31.0191 151.992 30.9895 151.992 30.9779C151.992 30.7422 151.897 30.3419 151.706 29.7765C151.646 29.6114 151.581 29.3936 151.509 29.1228C151.449 28.8517 151.378 28.6104 151.294 28.3984V28.204C150.817 27.1556 150.184 26.6316 149.397 26.6316C149.337 26.6904 149.194 26.7258 148.967 26.7376C148.74 26.7493 148.585 26.7788 148.502 26.826C148.502 26.8966 148.496 26.9554 148.484 27.0026C148.472 27.0496 148.448 27.0968 148.412 27.144L148.377 27.1784L148.323 27.2323C148.299 27.244 148.245 27.2735 148.162 27.3206L147.983 27.409C147.983 27.562 147.887 27.7328 147.696 27.9214H147.804C147.828 27.8977 147.852 27.8565 147.875 27.7977C147.899 27.7387 147.929 27.6856 147.965 27.6387C148.001 27.5915 148.048 27.5503 148.108 27.515C148.156 27.727 148.18 27.8742 148.18 27.9567C148.18 28.0627 148.156 28.2099 148.108 28.3984L148.036 28.5044H147.983V28.6281L147.804 28.9108C147.804 28.7694 147.768 28.6987 147.696 28.6987V28.3984C147.517 28.7517 147.386 29.1109 147.303 29.4761C147.231 29.4761 147.165 29.4466 147.106 29.3878C147.106 29.4938 147.058 29.6233 146.962 29.7765C146.879 29.9178 146.789 29.9885 146.694 29.9885C146.694 30.2828 146.169 31.2252 145.119 32.8153L144.904 33.151C144.844 33.0332 144.773 32.886 144.689 32.7093C144.606 32.5208 144.528 32.3618 144.457 32.2323C144.385 32.091 144.301 31.9673 144.206 31.8613C144.17 31.8023 144.134 31.7081 144.099 31.5786C144.063 31.4373 144.027 31.3371 143.991 31.2782C143.633 30.595 143.269 30.0708 142.899 29.7058C142.804 29.5998 142.726 29.4524 142.667 29.2641C142.619 29.0756 142.571 28.8517 142.523 28.5927C142.476 28.3335 142.434 28.1392 142.398 28.0097C142.291 27.668 142.189 27.3383 142.094 27.0203C142.022 26.9613 141.927 26.8023 141.807 26.5433C141.712 26.4726 141.598 26.4136 141.467 26.3666C141.336 26.3194 141.181 26.2782 141.002 26.2429C140.823 26.2076 140.692 26.1781 140.608 26.1546H140.501C140.453 26.2016 140.399 26.2252 140.34 26.2252C140.292 26.2252 140.244 26.2016 140.196 26.1546C140.065 26.1546 139.952 26.2016 139.856 26.2959C139.761 26.3901 139.683 26.5019 139.624 26.6316C139.564 26.7493 139.522 26.8199 139.498 26.8436C139.427 26.879 139.343 26.9259 139.248 26.985C139.152 27.0438 139.069 27.091 138.997 27.1263C139.057 27.197 139.087 27.297 139.087 27.4267V30.8719C139.087 31.0367 139.105 31.2899 139.14 31.6316C139.188 31.9731 139.212 32.25 139.212 32.462C139.212 32.78 139.242 33.3217 139.301 34.0874C139.361 34.853 139.391 35.4302 139.391 35.8189C139.391 37.727 139.624 38.7457 140.089 38.8754C140.149 38.8754 140.208 38.8871 140.268 38.9108C140.34 38.9461 140.393 38.9814 140.429 39.0168L140.501 39.0521C140.524 39.0521 140.56 39.0226 140.608 38.9638H141.002C141.121 38.9638 141.223 38.8989 141.306 38.7694C141.402 38.6397 141.497 38.5751 141.593 38.5751C141.628 38.5751 141.67 38.5632 141.718 38.5397L141.915 38.4337C141.939 38.4337 141.963 38.4514 141.986 38.4867H142.094L142.684 38.1864C142.744 38.1864 142.828 38.1334 142.935 38.0274C143.042 37.9095 143.096 37.833 143.096 37.7977C143.251 37.7977 143.341 37.7152 143.365 37.5503C143.388 37.3853 143.436 37.303 143.508 37.303V36.1016C143.424 35.9837 143.383 35.8247 143.383 35.6245V35.2358C143.43 35.2593 143.472 35.2947 143.508 35.3419C143.544 35.3772 143.574 35.4007 143.597 35.4125L143.812 35.6245C143.92 35.6245 144.081 35.7069 144.295 35.8719C144.51 36.0249 144.641 36.1016 144.689 36.1016H145.208C145.256 36.0544 145.298 36.0309 145.334 36.0309C145.369 36.0309 145.423 36.0544 145.495 36.1016C145.566 36.0425 145.632 36.0132 145.692 36.0132C145.727 35.9779 145.883 35.7775 146.157 35.4125C146.431 35.0473 146.581 34.853 146.604 34.8295C146.64 34.8058 146.718 34.7058 146.837 34.5291C146.957 34.3525 147.028 34.2523 147.052 34.2288C147.625 33.6634 148.001 33.2099 148.18 32.8684C148.215 32.833 148.257 32.7505 148.305 32.621C148.353 32.4797 148.382 32.3971 148.394 32.3737V32.9037C148.514 33.9638 148.573 34.9648 148.573 35.9072C148.573 36.7434 148.603 37.2735 148.663 37.4973C148.675 37.5327 148.693 37.7093 148.717 38.0274C148.752 38.3454 148.806 38.5867 148.878 38.7517C148.949 38.9166 149.057 38.9991 149.2 38.9991C149.331 39.0698 149.445 39.1698 149.54 39.2994C149.647 39.4289 149.701 39.5291 149.701 39.5998L149.791 39.5115C149.862 39.3111 150.071 39.1286 150.417 38.9638C150.763 38.8106 150.936 38.6927 150.936 38.6104C150.936 38.5867 150.942 38.569 150.954 38.5574C150.978 38.5337 151.008 38.5102 151.044 38.4867C151.079 38.463 151.109 38.4337 151.133 38.3984H151.437C151.449 38.3865 151.485 38.3394 151.545 38.257C151.604 38.1745 151.658 38.098 151.706 38.0274C151.765 37.9567 151.807 37.9214 151.831 37.9214C151.843 37.9214 151.861 37.9153 151.885 37.9037C151.956 37.88 152.094 37.6975 152.297 37.356C152.319 37.3116 152.331 37.2985 152.332 37.3168ZM147.983 28.6281L148.036 28.5044C148.084 28.5044 148.108 28.4691 148.108 28.3984H148.198C148.198 28.4926 148.126 28.5927 147.983 28.6987V28.6281ZM154.018 36.8966C154.078 36.9554 154.114 37.0084 154.126 37.0556C154.126 37.0673 154.066 37.1851 153.947 37.409C153.828 37.621 153.768 37.7917 153.768 37.9214C153.768 38.0862 153.81 38.2394 153.893 38.3807C153.977 38.5221 154.096 38.5927 154.251 38.5927H154.269L154.287 38.6104L154.314 38.6367L154.341 38.6634C154.376 38.675 154.412 38.6987 154.448 38.7341L154.549 38.7838L154.591 38.8048C154.651 38.8282 154.705 38.8517 154.752 38.8754C154.812 38.9108 154.878 38.9401 154.949 38.9638C155.021 38.9872 155.092 39.0049 155.164 39.0168L155.504 39.0874C155.588 39.1228 155.677 39.1404 155.773 39.1404C155.94 39.1404 156.178 39.0284 156.489 38.8048L156.936 38.4514L157.133 38.204H157.187L157.205 38.2217C157.36 38.0567 157.437 37.8153 157.437 37.4973C157.437 37.4148 157.419 37.3206 157.384 37.2146C157.36 37.1086 157.336 37.0143 157.312 36.932L157.276 36.8083V36.7729C157.276 36.7611 157.246 36.7258 157.187 36.6669C157.127 36.6079 157.097 36.5609 157.097 36.5256L157.008 36.3312C157.008 36.3076 156.918 36.2487 156.739 36.1546C156.56 36.0486 156.417 35.9779 156.31 35.9426C156.262 35.9426 156.166 35.913 156.023 35.8542C155.892 35.7836 155.773 35.7482 155.665 35.7482C155.57 35.7482 155.439 35.7836 155.271 35.8542L155.182 35.9249C155.158 35.9837 155.11 36.0132 155.039 36.0132H154.967C154.967 35.9895 154.961 35.9779 154.949 35.9779C154.949 35.966 154.937 35.9602 154.913 35.9602C154.902 35.9602 154.895 35.9542 154.895 35.9426C154.895 35.9189 154.907 35.8954 154.931 35.8719L154.967 35.8189L154.931 35.7835C154.907 35.7599 154.895 35.7422 154.895 35.7305H154.913C154.925 35.7187 154.943 35.7129 154.967 35.7129C154.895 35.6892 154.836 35.6775 154.788 35.6775C154.716 35.6892 154.657 35.7129 154.609 35.7482C154.561 35.7717 154.526 35.7952 154.502 35.8189C154.49 35.8424 154.466 35.8777 154.43 35.9249C154.406 35.9719 154.388 36.0014 154.376 36.0132C154.376 36.0486 154.299 36.1309 154.144 36.2606C154 36.3901 153.929 36.5491 153.929 36.7376C153.929 36.7846 153.959 36.8376 154.018 36.8966ZM168.323 32.515C168.621 31.9143 168.776 31.6139 168.788 31.6139L168.699 31.3843C168.771 31.1722 168.806 30.9307 168.806 30.6599C168.806 30.2947 168.729 29.9766 168.574 29.7058C168.526 29.6233 168.442 29.4408 168.323 29.1581C168.216 28.8636 168.09 28.6692 167.947 28.5751C167.84 28.4691 167.726 28.3454 167.607 28.204C167.488 28.0509 167.38 27.933 167.285 27.8507C167.201 27.7563 167.094 27.668 166.963 27.5857C165.901 26.9966 165.006 26.7023 164.278 26.7023C164.254 26.7023 163.812 26.6551 162.953 26.5609C162.094 26.4549 161.414 26.4019 160.913 26.4019C160.602 26.4019 160.382 26.4136 160.25 26.4373C160.155 26.3782 160.083 26.3489 160.036 26.3489C160.024 26.3489 160.006 26.3547 159.982 26.3666H159.785C159.546 26.3076 159.409 26.2782 159.373 26.2782C159.373 26.3489 159.349 26.4903 159.302 26.7023H159.141C158.997 26.7729 158.926 27.0791 158.926 27.621C158.926 29.2228 158.95 30.0473 158.997 30.0945C158.997 30.1298 158.974 30.2358 158.926 30.4125C158.89 30.5774 158.872 30.7069 158.872 30.8012C158.979 31.7316 159.033 32.3676 159.033 32.7093C159.033 32.8977 159.015 33.1804 158.979 33.5574C158.956 33.9224 158.944 34.1934 158.944 34.3701C158.944 34.8058 158.979 35.4948 159.051 36.4373L159.158 38.1864C159.182 38.4926 159.266 38.7929 159.409 39.0874C159.564 39.3936 159.749 39.5468 159.964 39.5468C159.988 39.5468 160.036 39.535 160.107 39.5115C160.119 39.5115 160.197 39.4996 160.34 39.4761C160.483 39.4524 160.596 39.4289 160.68 39.4055C160.775 39.3818 160.823 39.3464 160.823 39.2994H160.895C160.919 39.3111 160.936 39.3171 160.948 39.3171C160.972 39.3171 161.104 39.2581 161.342 39.1404C161.557 39.1051 161.748 38.9991 161.915 38.8224C162.082 38.6457 162.183 38.5574 162.219 38.5574C162.255 38.5927 162.285 38.6104 162.309 38.6104C162.333 38.6104 162.362 38.5986 162.398 38.5751C162.434 38.5397 162.464 38.5221 162.488 38.5221C162.512 38.5221 162.536 38.5279 162.559 38.5397C162.583 38.5514 162.607 38.5574 162.631 38.5574C162.703 38.357 162.756 38.2452 162.792 38.2217C162.792 38.1745 162.78 38.098 162.756 37.992C162.744 37.886 162.738 37.8035 162.738 37.7447L162.524 35.8189C162.512 35.6892 162.482 35.5832 162.434 35.5009C162.398 35.4065 162.38 35.2712 162.38 35.0945V35.0238L162.398 34.9885H162.899C162.947 34.9885 163.019 35.0062 163.114 35.0415C163.21 35.065 163.281 35.0768 163.329 35.0768C163.353 35.0768 163.371 35.0708 163.383 35.0592C163.562 35.0592 163.675 35.1061 163.723 35.2005C163.759 35.1887 163.812 35.1768 163.884 35.1652C163.968 35.1533 164.027 35.1415 164.063 35.1298C164.886 35.0238 165.358 34.9355 165.477 34.8648C165.572 34.8176 165.638 34.7942 165.674 34.7942C165.734 34.7823 165.877 34.7351 166.104 34.6528C166.33 34.5703 166.599 34.4585 166.909 34.3171C167.219 34.1639 167.494 33.9754 167.732 33.7517C167.971 33.5279 168.09 33.2982 168.09 33.0627V32.992C168.09 32.933 168.168 32.774 168.323 32.515ZM176.543 25.6775V25.9072C176.472 25.9426 176.418 25.9779 176.382 26.0132H176.203C176.108 26.1899 176.036 26.3606 175.988 26.5256C175.941 26.6786 175.905 26.826 175.881 26.9673C175.857 27.1086 175.833 27.2146 175.809 27.2853V27.6033C175.762 27.6033 175.714 27.6092 175.666 27.621C175.618 27.621 175.577 27.6268 175.541 27.6387C175.517 27.6387 175.475 27.6445 175.416 27.6563C174.437 27.774 173.751 27.8684 173.357 27.939C172.963 28.0097 172.492 28.1922 171.943 28.4867C171.394 28.7694 170.935 29.1639 170.565 29.6705C170.422 29.7646 170.29 29.959 170.171 30.2535C170.064 30.5362 169.986 30.7187 169.938 30.8012C169.783 31.0721 169.706 31.3901 169.706 31.7553C169.706 32.0261 169.741 32.2677 169.813 32.4797C169.813 32.5032 169.783 33.0097 169.724 33.9991C169.735 33.9991 169.891 34.2994 170.189 34.9002C170.344 35.1592 170.422 35.3182 170.422 35.3772V35.4479C170.422 35.6599 170.678 35.9895 171.191 36.4373C171.704 36.8729 172.253 37.1203 172.838 37.1793C173.148 37.2853 173.685 37.3971 174.449 37.515C174.485 37.5266 174.539 37.5385 174.61 37.5503C174.694 37.562 174.753 37.5738 174.789 37.5857C174.837 37.4913 174.95 37.4443 175.129 37.4443C175.134 37.4494 175.14 37.4534 175.145 37.4563C175.151 37.4601 175.158 37.462 175.165 37.462C175.213 37.462 175.284 37.4501 175.38 37.4267C175.487 37.3913 175.565 37.3737 175.613 37.3737H175.881L175.827 39.5468C175.827 39.641 175.971 39.7411 176.257 39.8472C176.543 39.9648 176.776 40.0238 176.955 40.0238C177.003 40.0238 177.038 40.0178 177.062 40.0062C177.086 39.9943 177.152 39.9825 177.259 39.9708C177.367 39.959 177.462 39.9413 177.546 39.9178C177.641 39.8941 177.707 39.8648 177.743 39.8295C177.802 39.8648 177.922 39.8941 178.101 39.9178C178.291 39.9532 178.393 39.9708 178.405 39.9708C178.417 39.9825 178.452 39.9885 178.512 39.9885C178.691 39.9885 178.924 39.9295 179.21 39.8118C179.497 39.7058 179.64 39.6056 179.64 39.5115L179.586 37.409H179.855C179.902 37.409 179.974 37.4267 180.07 37.462C180.165 37.4855 180.237 37.4973 180.284 37.4973C180.308 37.4973 180.326 37.4913 180.338 37.4797C180.517 37.4797 180.63 37.5266 180.678 37.621C180.714 37.6092 180.768 37.5973 180.839 37.5857C180.923 37.5738 180.982 37.562 181.018 37.5503C181.842 37.4443 182.313 37.356 182.432 37.2853C182.528 37.2381 182.593 37.2146 182.629 37.2146C182.689 37.2028 182.832 37.1556 183.059 37.0733C183.285 36.9908 183.554 36.879 183.864 36.7376C184.174 36.5844 184.449 36.3959 184.688 36.1722C184.926 35.9484 185.046 35.7187 185.046 35.4832V35.4125C185.046 35.3535 185.123 35.1945 185.278 34.9355C185.577 34.3348 185.732 34.0344 185.744 34.0344L185.654 32.515C185.726 32.303 185.762 32.0615 185.762 31.7906C185.762 31.4254 185.684 31.1074 185.529 30.8365C185.481 30.754 185.398 30.5715 185.278 30.2889C185.171 29.9943 185.046 29.8 184.902 29.7058C184.807 29.5998 184.694 29.4701 184.562 29.3171C184.443 29.1639 184.336 29.0461 184.24 28.9638C184.157 28.8812 184.049 28.7987 183.918 28.7164C183.429 28.4454 182.975 28.2452 182.558 28.1157C182.164 27.986 181.197 27.833 179.658 27.6563V27.25C179.634 27.1793 179.61 27.0733 179.586 26.932C179.562 26.7906 179.526 26.6432 179.479 26.4903C179.431 26.3252 179.359 26.1546 179.264 25.9779H179.192C179.025 25.9779 178.936 25.966 178.924 25.9426V25.7129C178.924 25.6422 178.817 25.5774 178.602 25.5185C178.399 25.4595 178.297 25.3653 178.297 25.2358C178.297 25.1887 178.309 25.1475 178.333 25.1122H178.172C177.969 25.1122 177.82 25.3005 177.725 25.6775C177.629 25.277 177.486 25.0768 177.295 25.0768H177.134C177.158 25.1475 177.17 25.1887 177.17 25.2005C177.17 25.2712 177.134 25.3065 177.062 25.3065L177.053 25.3156L177.027 25.3419C176.704 25.4832 176.543 25.595 176.543 25.6775Z" fill="white"/>
<path d="M33.7487 38.2909C33.7702 38.2711 33.7929 38.2513 33.8169 38.2303C33.9738 38.0932 34.1834 37.91 34.4382 37.4141L35.0331 35.0766L24.917 31.1223C24.9342 31.6361 25.0811 32.2672 25.1952 32.7138C26.0199 35.9433 29.5822 37.9551 31.7811 38.8089L32.6622 38.7739C32.8174 38.7842 33.5599 38.4818 33.7487 38.2909Z" fill="white"/>
<path d="M24.9155 31C24.9151 31.0399 24.9156 31.0807 24.917 31.1223L35.0331 35.0766L24.9155 31Z" fill="white"/>
</g>
</svg>
