<svg width="907" height="690" viewBox="0 0 907 690" fill="none" xmlns="http://www.w3.org/2000/svg">
<path d="M965.976 649.299H150V649.884H965.976V649.299Z" fill="#F6F4FF"/>
<path d="M694.795 669.624H640.744V670.21H694.795V669.624Z" fill="#F6F4FF"/>
<path d="M809.129 688.568H794.948V689.154H809.129V688.568Z" fill="#F6F4FF"/>
<path d="M728.984 679.776H697.667V680.362H728.984V679.776Z" fill="#F6F4FF"/>
<path d="M306.096 669.203H235.612V669.789H306.096V669.203Z" fill="#F6F4FF"/>
<path d="M559.62 669.203H549.29V669.789H559.62V669.203Z" fill="#F6F4FF"/>
<path d="M455.175 679.401H381.231V679.987H455.175V679.401Z" fill="#F6F4FF"/>
<path d="M603.046 250.181L857.892 250.181V-30.7765L603.046 -30.7765V250.181Z" fill="#F6F4FF"/>
<path d="M862.804 -30.7998H857.892V250.158H862.804V-30.7998Z" fill="#E6E6E6"/>
<path d="M848.72 237.005V-17.6477L612.202 -17.6477V237.005L848.72 237.005Z" fill="#FAFAFA"/>
<path d="M617.114 -17.6243H612.202V237.029H617.114V-17.6243Z" fill="#E6E6E6"/>
<path d="M819.313 237.005L776.001 -17.6243H748.943L792.271 237.005H819.313Z" fill="white"/>
<path d="M784.895 237.005L741.583 -17.6243H724.855L768.167 237.005H784.895Z" fill="white"/>
<path d="M695.121 237.005L651.809 -17.6243H635.082L678.394 237.005H695.121Z" fill="white"/>
<path opacity="0.5" d="M867.586 -26.4155V386.464C867.586 390.194 866.554 393.772 864.718 396.41C862.882 399.048 860.391 400.53 857.794 400.53H840.969C838.389 400.531 835.913 399.068 834.079 396.46C832.246 393.852 831.203 390.311 831.177 386.604C830.949 363.676 831.879 191.125 841.719 159.194C842.311 157.236 842.585 155.11 842.52 152.977C842.455 150.845 842.053 148.762 841.344 146.885C825.514 104.686 804.788 44.7148 802.177 -25.8997C802.111 -27.8053 802.315 -29.7103 802.777 -31.499C803.24 -33.2877 803.95 -34.9225 804.866 -36.3042C805.782 -37.6858 806.884 -38.7853 808.105 -39.5358C809.326 -40.2863 810.641 -40.672 811.969 -40.6697H857.778C859.076 -40.6729 860.362 -40.3053 861.56 -39.588C862.759 -38.8708 863.846 -37.8183 864.759 -36.4919C865.672 -35.1654 866.392 -33.5915 866.877 -31.8616C867.362 -30.1317 867.603 -28.2804 867.586 -26.4155Z" fill="#F5F3FF"/>
<path d="M844.151 158.584H866.427C867.398 158.584 868.33 158.032 869.018 157.047C869.706 156.063 870.095 154.728 870.099 153.333C870.099 151.934 869.712 150.592 869.024 149.603C868.335 148.613 867.401 148.058 866.427 148.058H844.151C843.18 148.064 842.25 148.622 841.565 149.611C840.88 150.599 840.495 151.938 840.495 153.333C840.5 154.724 840.886 156.056 841.571 157.039C842.255 158.023 843.183 158.578 844.151 158.584Z" fill="#FDF8E4"/>
<path opacity="0.5" d="M596.845 -26.4153V386.464C596.845 390.195 597.877 393.773 599.713 396.411C601.549 399.049 604.04 400.531 606.637 400.531H623.43C626.01 400.531 628.485 399.068 630.319 396.46C632.152 393.853 633.195 390.311 633.221 386.605C633.45 363.676 632.536 191.125 622.695 159.194C622.104 157.236 621.83 155.11 621.895 152.978C621.96 150.845 622.362 148.762 623.07 146.886C638.884 104.686 659.626 44.715 662.237 -25.8995C662.304 -27.8051 662.1 -29.7102 661.637 -31.4988C661.175 -33.2875 660.464 -34.9224 659.548 -36.304C658.632 -37.6856 657.53 -38.7851 656.309 -39.5356C655.088 -40.2861 653.774 -40.6719 652.446 -40.6695H606.686C605.385 -40.679 604.095 -40.3159 602.893 -39.6015C601.691 -38.8871 600.6 -37.8356 599.684 -36.5085C598.767 -35.1814 598.044 -33.6053 597.557 -31.8724C597.07 -30.1394 596.828 -28.2842 596.845 -26.4153Z" fill="#F5F3FF"/>
<path d="M620.28 158.584H597.987C597.016 158.584 596.085 158.032 595.397 157.047C594.709 156.063 594.32 154.728 594.316 153.333C594.316 151.934 594.702 150.592 595.391 149.603C596.08 148.613 597.014 148.058 597.987 148.058H620.28C621.251 148.064 622.181 148.622 622.866 149.611C623.551 150.599 623.935 151.938 623.935 153.333C623.931 154.724 623.545 156.056 622.86 157.039C622.175 158.023 621.248 158.578 620.28 158.584Z" fill="#FDF8E4"/>
<path d="M252.078 250.181L506.924 250.181V-30.7765L252.078 -30.7765L252.078 250.181Z" fill="#F6F4FF"/>
<path d="M511.82 -30.7998H506.908V250.158H511.82V-30.7998Z" fill="#E6E6E6"/>
<path d="M497.753 237.005V-17.6477L261.234 -17.6477V237.005L497.753 237.005Z" fill="#FAFAFA"/>
<path d="M266.146 -17.6243H261.234V237.029H266.146V-17.6243Z" fill="#E6E6E6"/>
<path d="M468.329 237.005L425.017 -17.6243H397.959L441.287 237.005H468.329Z" fill="white"/>
<path d="M433.911 237.005L390.599 -17.6243H373.871L417.183 237.005H433.911Z" fill="white"/>
<path d="M344.137 237.005L300.825 -17.6243H284.097L327.409 237.005H344.137Z" fill="white"/>
<path opacity="0.5" d="M516.602 -26.4153V386.464C516.602 390.195 515.57 393.773 513.734 396.411C511.898 399.049 509.407 400.531 506.81 400.531H489.985C487.405 400.531 484.929 399.068 483.095 396.46C481.262 393.853 480.219 390.311 480.193 386.605C479.948 363.676 480.878 191.125 490.719 159.194C491.311 157.236 491.584 155.11 491.519 152.978C491.454 150.845 491.052 148.762 490.344 146.886C474.514 104.686 453.788 44.715 451.177 -25.8995C451.11 -27.8051 451.315 -29.7102 451.777 -31.4988C452.239 -33.2875 452.95 -34.9224 453.866 -36.304C454.782 -37.6856 455.884 -38.7851 457.105 -39.5356C458.326 -40.2861 459.64 -40.6719 460.969 -40.6695H506.761C508.062 -40.679 509.351 -40.3159 510.554 -39.6015C511.756 -38.8871 512.847 -37.8356 513.763 -36.5085C514.679 -35.1814 515.402 -33.6053 515.89 -31.8724C516.377 -30.1394 516.619 -28.2842 516.602 -26.4153Z" fill="#F5F3FF"/>
<path d="M493.183 158.584H515.557C516.526 158.578 517.453 158.023 518.138 157.039C518.822 156.056 519.209 154.724 519.213 153.333C519.213 151.938 518.828 150.599 518.143 149.611C517.458 148.622 516.528 148.064 515.557 148.058H493.183C492.21 148.058 491.276 148.613 490.587 149.603C489.898 150.592 489.511 151.934 489.511 153.333C489.516 154.728 489.905 156.063 490.593 157.047C491.281 158.032 492.212 158.584 493.183 158.584Z" fill="#FDF8E4"/>
<path opacity="0.5" d="M245.861 -26.4159V386.463C245.861 388.311 246.114 390.14 246.606 391.846C247.098 393.553 247.82 395.104 248.729 396.41C249.638 397.716 250.718 398.752 251.906 399.459C253.094 400.166 254.367 400.53 255.653 400.53H272.494C275.074 400.53 277.55 399.067 279.384 396.46C281.217 393.852 282.26 390.31 282.286 386.604C282.515 363.675 281.601 191.125 271.76 159.193C271.168 157.235 270.895 155.11 270.96 152.977C271.025 150.845 271.427 148.761 272.135 146.885C287.965 104.685 308.691 44.7144 311.302 -25.9001C311.369 -27.8057 311.165 -29.7108 310.702 -31.4994C310.24 -33.2881 309.529 -34.923 308.613 -36.3046C307.697 -37.6862 306.595 -38.7857 305.374 -39.5362C304.153 -40.2867 302.839 -40.6725 301.511 -40.6701H255.718C254.416 -40.6827 253.124 -40.322 251.92 -39.6089C250.716 -38.8959 249.623 -37.8449 248.705 -36.5175C247.787 -35.1901 247.063 -33.613 246.575 -31.8784C246.086 -30.1439 245.844 -28.2868 245.861 -26.4159Z" fill="#F5F3FF"/>
<path d="M269.296 158.584H247.003C246.035 158.578 245.108 158.023 244.423 157.039C243.738 156.056 243.352 154.724 243.348 153.333C243.348 151.938 243.732 150.599 244.417 149.611C245.102 148.622 246.032 148.064 247.003 148.058H269.296C270.27 148.058 271.204 148.613 271.892 149.603C272.581 150.592 272.968 151.934 272.968 153.333C272.963 154.728 272.575 156.063 271.886 157.047C271.198 158.032 270.267 158.584 269.296 158.584Z" fill="#FDF8E4"/>
<path d="M768.2 318.006C767.998 331.646 764.085 344.63 757.299 354.174C750.513 363.718 741.394 369.064 731.897 369.064C722.4 369.064 713.281 363.718 706.495 354.174C699.709 344.63 695.796 331.646 695.594 318.006H768.2Z" fill="#FDF8E4"/>
<path d="M711.996 329.962C711.819 340.455 708.794 350.432 703.566 357.763C698.338 365.095 691.322 369.199 684.016 369.199C676.71 369.199 669.694 365.095 664.466 357.763C659.238 350.432 656.212 340.455 656.036 329.962H711.996Z" fill="#F6F4FF"/>
<path d="M505.994 422.802L850.597 422.802V370.17L505.994 370.17V422.802Z" fill="#F6F4FF"/>
<path d="M510.156 417.387H636.926V375.562H510.156V417.387Z" fill="#F5F3FF"/>
<path d="M641.43 417.387H768.2V375.562H641.43V417.387Z" fill="#F5F3FF"/>
<path d="M780.652 649.299H788.273L772.002 422.779H764.397L780.652 649.299Z" fill="#F5F3FF"/>
<path d="M847.692 649.299H855.297L839.027 422.779H831.422L847.692 649.299Z" fill="#F5F3FF"/>
<path d="M575.94 649.299H568.319L584.589 422.779H592.21L575.94 649.299Z" fill="#F5F3FF"/>
<path d="M508.915 649.299H501.294L517.565 422.779H525.186L508.915 649.299Z" fill="#F5F3FF"/>
<path d="M424.168 472.293H458.782V637.905C458.782 640.933 457.944 643.837 456.454 645.978C454.963 648.119 452.942 649.322 450.834 649.322H424.168V472.293Z" fill="#F6F4FF"/>
<path d="M455.436 449.857H294.036C289.449 449.857 285.729 455.199 285.729 461.79V491.166C285.729 497.756 289.449 503.099 294.036 503.099H455.436C460.024 503.099 463.743 497.756 463.743 491.166V461.79C463.743 455.199 460.024 449.857 455.436 449.857Z" fill="#EAE8F6"/>
<path d="M402.346 679C624.398 679 804.407 668.49 804.407 655.526C804.407 642.562 624.398 632.052 402.346 632.052C180.294 632.052 0.2854 642.562 0.2854 655.526C0.2854 668.49 180.294 679 402.346 679Z" fill="#EAE8F6"/>
<path d="M569.739 624.04L556.423 625.982L548.132 595.84L561.433 593.898L569.739 624.04Z" fill="#FFC3BD"/>
<path d="M624.769 636.818H611.338L607.535 605.729H620.966L624.769 636.818Z" fill="#FFC3BD"/>
<path d="M609.575 635.268H625.895C626.162 635.268 626.422 635.358 626.632 635.524C626.843 635.69 626.991 635.921 627.053 636.182L629.828 648.111C629.892 648.4 629.89 648.7 629.821 648.987C629.753 649.275 629.621 649.544 629.434 649.773C629.247 650.002 629.011 650.186 628.742 650.311C628.474 650.436 628.181 650.499 627.886 650.494C622.614 650.412 618.763 650.102 612.137 650.102C608.057 650.102 595.818 650.527 590.122 650.527C584.427 650.527 583.692 644.945 585.993 644.439C596.324 642.187 604.075 639.07 607.356 636.084C607.967 635.544 608.759 635.253 609.575 635.268Z" fill="#D6BF65"/>
<path d="M555.411 622.293L568.711 616.027C568.955 615.917 569.228 615.891 569.488 615.953C569.747 616.015 569.979 616.161 570.147 616.369L577.719 625.965C577.905 626.195 578.035 626.464 578.1 626.753C578.165 627.041 578.162 627.34 578.093 627.627C578.023 627.914 577.889 628.182 577.7 628.409C577.51 628.635 577.271 628.816 577.001 628.935C572.105 631.106 565.104 634.092 559.05 636.932C553.91 639.462 548.605 641.643 543.171 643.46C537.981 645.353 534.603 640.653 536.643 639.396C545.749 633.668 547.153 633.554 552.963 624.709C553.537 623.691 554.385 622.854 555.411 622.293Z" fill="#D6BF65"/>
<path opacity="0.2" d="M548.132 595.856L552.408 611.392L565.725 609.45L561.449 593.914L548.132 595.856Z" fill="black"/>
<path opacity="0.2" d="M620.966 605.729H607.535L609.51 621.755H622.925L620.966 605.729Z" fill="black"/>
<path d="M546.941 609.059L569.478 605.795C569.478 605.795 552.897 522.794 556.732 481.162C557.907 468.515 560.241 456.683 564.403 437.85C569.674 414.089 576.283 388.419 581.701 368.329C587.413 347.114 591.77 332.165 591.77 332.165L544.672 328.526C544.672 328.526 523.049 436.235 521.825 477.18C520.405 519.709 546.941 609.059 546.941 609.059Z" fill="#9F94D8"/>
<path opacity="0.3" d="M546.941 609.059L569.478 605.795C569.478 605.795 552.897 522.794 556.732 481.162C557.907 468.515 560.241 456.683 564.403 437.85C569.674 414.089 576.283 388.419 581.701 368.329C587.413 347.114 591.77 332.165 591.77 332.165L544.672 328.526C544.672 328.526 523.049 436.235 521.825 477.18C520.405 519.709 546.941 609.059 546.941 609.059Z" fill="black"/>
<path opacity="0.2" d="M564.403 437.817C569.674 414.056 576.283 388.386 581.702 368.296L576.806 357.721C565.072 371.511 562.085 414.448 564.403 437.817Z" fill="black"/>
<path d="M570.082 330.451C570.082 330.451 575.418 445.422 581.179 484.393C587.478 527.069 603.259 618.654 603.259 618.654H627.853C627.853 618.654 618.306 504.907 616.152 482.582C611.55 434.88 616.315 334.074 616.315 334.074L570.082 330.451Z" fill="#9F94D8"/>
<path opacity="0.3" d="M570.082 330.451C570.082 330.451 575.418 445.422 581.179 484.393C587.478 527.069 603.259 618.654 603.259 618.654H627.853C627.853 618.654 618.306 504.907 616.152 482.582C611.55 434.88 616.315 334.074 616.315 334.074L570.082 330.451Z" fill="black"/>
<path d="M600.322 619.193H629.289L629.191 610.543L596.83 609.972L600.322 619.193Z" fill="#263238"/>
<path d="M544.183 609.989L571.061 606.072L569.723 597.439L539.613 601.372L544.183 609.989Z" fill="#263238"/>
<path d="M605.169 637.601C604.251 637.676 603.335 637.434 602.574 636.916C602.337 636.72 602.153 636.468 602.036 636.183C601.919 635.899 601.874 635.59 601.905 635.284C601.901 635.101 601.948 634.92 602.04 634.762C602.132 634.603 602.266 634.473 602.427 634.386C603.912 633.619 608.27 636.296 608.759 636.59C608.813 636.624 608.855 636.673 608.881 636.731C608.907 636.789 608.916 636.853 608.906 636.916C608.898 636.977 608.873 637.035 608.832 637.081C608.791 637.128 608.737 637.161 608.678 637.177C607.528 637.451 606.351 637.593 605.169 637.601ZM603.145 634.827C603.005 634.824 602.866 634.851 602.737 634.909C602.639 634.909 602.541 635.039 602.541 635.284C602.513 635.498 602.539 635.717 602.616 635.919C602.692 636.121 602.818 636.301 602.982 636.443C603.716 637.046 605.479 637.128 607.747 636.671C606.345 635.768 604.783 635.142 603.145 634.827Z" fill="#9F94D8"/>
<path d="M608.596 637.079C608.548 637.094 608.497 637.094 608.449 637.079C607.046 636.328 604.337 633.374 604.598 631.889C604.64 631.653 604.765 631.44 604.951 631.287C605.136 631.135 605.37 631.053 605.61 631.057C605.852 631.019 606.099 631.036 606.333 631.107C606.568 631.177 606.783 631.3 606.964 631.465C608.596 632.738 608.906 636.606 608.906 636.769C608.915 636.825 608.908 636.883 608.885 636.935C608.861 636.987 608.824 637.032 608.776 637.063C608.718 637.085 608.656 637.09 608.596 637.079ZM605.871 631.693H605.724C605.316 631.693 605.283 631.938 605.267 632.02C605.104 632.901 606.899 635.121 608.221 636.181C608.115 634.645 607.546 633.177 606.589 631.971C606.391 631.794 606.136 631.696 605.871 631.693Z" fill="#9F94D8"/>
<path d="M555.019 624.513C553.24 625.835 549.976 627.94 548.083 627.401C547.805 627.322 547.549 627.177 547.339 626.978C547.129 626.779 546.97 626.533 546.875 626.259C546.808 626.1 546.783 625.926 546.803 625.754C546.823 625.582 546.887 625.419 546.99 625.28C548.067 623.746 554.154 623.925 554.839 623.942C554.905 623.949 554.966 623.974 555.018 624.015C555.07 624.055 555.11 624.109 555.133 624.17C555.152 624.232 555.152 624.298 555.131 624.36C555.111 624.421 555.071 624.475 555.019 624.513ZM547.561 625.59V625.671C547.525 625.73 547.506 625.798 547.506 625.867C547.506 625.936 547.525 626.004 547.561 626.063C547.623 626.245 547.728 626.41 547.868 626.544C548.007 626.677 548.176 626.775 548.361 626.83C549.421 627.124 551.478 626.308 553.958 624.594C551.461 624.594 548.328 624.839 547.561 625.655V625.59Z" fill="#9F94D8"/>
<path d="M555.019 624.513C554.992 624.543 554.96 624.567 554.923 624.584C554.887 624.601 554.847 624.61 554.807 624.611C553.012 624.611 548.85 623.403 548.41 621.934C548.312 621.592 548.41 621.086 549.111 620.629C549.383 620.465 549.685 620.357 549.999 620.313C550.313 620.268 550.633 620.286 550.939 620.368C553.093 620.906 554.986 624.007 555.068 624.137C555.099 624.183 555.115 624.237 555.115 624.293C555.115 624.348 555.099 624.402 555.068 624.448C555.068 624.448 555.035 624.496 555.019 624.513ZM549.177 621.379C548.965 621.575 549.014 621.706 549.03 621.771C549.291 622.652 552.294 623.762 554.187 623.958C553.386 622.644 552.201 621.607 550.792 620.988C550.566 620.92 550.327 620.903 550.094 620.937C549.86 620.971 549.636 621.055 549.438 621.184C549.34 621.232 549.251 621.299 549.177 621.379Z" fill="#9F94D8"/>
<path d="M562.787 232.044C559.523 238.779 556.123 245.486 552.587 252.166L542.11 272.076C540.478 275.34 538.618 278.604 537.018 281.868C535.794 284.337 534.222 286.617 532.351 288.641C530.048 291.112 527.14 292.94 523.914 293.944C522.269 294.423 520.567 294.675 518.855 294.695C517.321 294.671 515.794 294.48 514.302 294.124C511.758 293.472 509.338 292.408 507.137 290.974C505.214 289.746 503.425 288.318 501.801 286.715C501.001 285.948 500.267 285.083 499.565 284.332C498.863 283.582 498.243 282.7 497.46 281.688L504.657 274.622L506.762 275.764C507.496 276.156 508.247 276.531 508.982 276.874C510.365 277.536 511.8 278.082 513.274 278.506C514.411 278.872 515.606 279.027 516.799 278.963C517.745 278.963 518.202 278.637 518.349 278.343C518.496 278.049 518.692 277.837 519.034 277.168C519.491 276.24 519.894 275.286 520.242 274.312C521.727 270.656 523.212 267.148 524.779 263.639C527.88 256.676 531.084 249.789 534.391 242.979C536.023 239.568 537.655 236.157 539.45 232.795C541.245 229.433 542.877 226.039 544.689 222.693L562.787 232.044Z" fill="#FFC3BD"/>
<path d="M568.564 223.249C572.269 235.57 547.006 269.074 547.006 269.074L521.205 252.461C525.967 241.809 531.865 231.703 538.797 222.318C549.242 208.936 564.501 209.72 568.564 223.249Z" fill="#263238"/>
<path opacity="0.2" d="M552.016 240.106C545.488 243.093 538.504 254.157 537.476 262.954L547.039 269.106C553.063 260.99 558.474 252.437 563.228 243.517C561.22 240.351 559.491 236.696 552.016 240.106Z" fill="black"/>
<path d="M628.375 217.993C624.467 232.45 621.646 247.178 619.938 262.056C618.698 272.452 617.947 282.374 617.506 291.431C616.429 312.532 616.935 328.623 616.315 334.058L544.672 328.525C534.75 252.085 553.289 212.885 553.289 212.885C558.955 211.872 564.677 211.207 570.424 210.894C571.632 210.894 572.872 210.796 574.129 210.78C584.317 210.976 594.484 211.761 604.581 213.13C606.507 213.375 608.449 213.669 610.326 213.995C619.922 215.594 628.375 217.993 628.375 217.993Z" fill="#263238"/>
<path d="M580.249 220.588C580.249 220.588 585.063 223.477 586.777 232.779C592.57 230.315 607.666 220.017 607.78 212.69C606.381 211.244 604.827 209.958 603.145 208.855C596.181 213.952 588.453 217.913 580.249 220.588Z" fill="white"/>
<path d="M580.249 220.588C577.721 221.138 575.339 222.218 573.26 223.757C571.181 225.296 569.453 227.258 568.189 229.515C562.363 227.034 569.184 211.939 573.411 210.192C575.184 209.166 577.188 208.604 579.237 208.561C579.237 208.561 574.031 218.466 580.249 220.588Z" fill="white"/>
<path opacity="0.75" d="M620.558 214.811L608.645 211.139C608.25 211.005 607.819 211.026 607.44 211.199C607.061 211.372 606.762 211.683 606.605 212.07C603.7 218.695 590.285 247.777 571.289 263.737C567.16 255.608 565.114 246.581 565.337 237.465C565.559 228.35 568.042 219.433 572.562 211.515C572.639 211.388 572.679 211.241 572.677 211.093C572.675 210.944 572.632 210.799 572.552 210.674C572.473 210.549 572.36 210.448 572.226 210.383C572.092 210.318 571.943 210.292 571.795 210.307L556.031 211.694C555.65 211.718 555.289 211.875 555.012 212.138C554.735 212.4 554.558 212.751 554.513 213.13C547.985 256.459 540.511 278.996 540.511 278.996C540.511 296.327 541.67 316.205 541.751 334.482C541.751 334.993 541.954 335.483 542.315 335.844C542.676 336.205 543.166 336.408 543.677 336.408H617.294C617.795 336.409 618.277 336.215 618.639 335.868C619.001 335.522 619.215 335.048 619.236 334.548L621.407 281.411C621.407 281.411 599.914 249.425 621.586 217.422C621.76 217.199 621.872 216.934 621.912 216.654C621.952 216.374 621.919 216.088 621.815 215.824C621.712 215.561 621.541 215.329 621.321 215.152C621.1 214.974 620.838 214.857 620.558 214.811Z" fill="#FFDD59"/>
<path opacity="0.2" d="M570.082 336.8C569.982 336.801 569.885 336.764 569.809 336.698C569.734 336.632 569.686 336.54 569.674 336.441C567.198 312.233 567.608 287.816 570.898 263.705C570.906 263.651 570.924 263.599 570.953 263.552C570.981 263.506 571.018 263.465 571.062 263.434C571.106 263.402 571.156 263.379 571.209 263.366C571.263 263.354 571.317 263.353 571.371 263.362C571.475 263.385 571.566 263.447 571.627 263.535C571.687 263.623 571.712 263.73 571.698 263.835C568.428 287.872 568.023 312.211 570.49 336.343C570.499 336.453 570.465 336.562 570.395 336.647C570.325 336.733 570.224 336.787 570.115 336.8H570.082Z" fill="black"/>
<g opacity="0.2">
<path d="M618.453 214.158L610.522 211.743C594.3 243.582 588.898 284.087 594.463 332.181C594.675 334.025 594.888 335.918 594.888 336.391H603.047C603.047 335.478 602.901 334.156 602.558 331.251C597.123 284.12 602.46 244.725 618.453 214.158Z" fill="white"/>
<path d="M559.164 211.433C548.964 243.942 545.847 284.431 549.878 331.871C550.058 333.993 550.221 335.837 550.221 336.392H558.381C558.381 335.527 558.267 334.091 558.005 331.17C553.926 283.19 557.287 242.669 567.993 210.666L559.164 211.433Z" fill="white"/>
</g>
<path d="M603.88 178.598C601.301 188.243 598.168 206.031 604.581 213.098C601.342 216.014 597.512 218.195 593.352 219.494C589.191 220.792 584.8 221.177 580.477 220.621C572.056 219.772 572.024 213.865 574.129 210.748C585.226 208.985 585.553 200.858 584.1 193.106L603.88 178.598Z" fill="#FFC3BD"/>
<path opacity="0.2" d="M595.818 184.522L584.116 193.09C584.474 194.897 584.665 196.732 584.688 198.573C588.914 198.296 594.953 194.151 595.687 189.826C596.059 188.082 596.103 186.283 595.818 184.522Z" fill="black"/>
<path d="M593.859 168.17C577.458 163.274 566.475 152.226 564.843 141.373C566.867 143.332 577.295 143.952 577.295 143.952C583.823 140.949 596.878 143.185 598.625 149.5C608.204 147.493 608.155 169.981 593.859 168.17Z" fill="#263238"/>
<path d="M606.05 163.959C604.336 177.146 604.01 184.963 596.846 191.262C586.075 200.711 570.098 193.367 567.83 179.838C565.79 167.697 568.923 148.162 582.273 143.935C585.23 142.994 588.378 142.817 591.423 143.421C594.468 144.025 597.31 145.39 599.684 147.39C602.058 149.389 603.887 151.957 605 154.855C606.114 157.752 606.475 160.885 606.05 163.959Z" fill="#FFC3BD"/>
<path d="M590.971 150.218C592.13 157.007 595.769 169.165 604.206 173.066C619.253 168.17 621.978 154.657 611.729 151.589C601.481 148.521 589.959 144.229 590.971 150.218Z" fill="#263238"/>
<path d="M601.905 163.176C585.585 157.921 573.085 148.668 573.362 135.89C575.353 137.881 580.787 139.334 580.787 139.334C584.051 135.237 615.76 134.715 614.014 155.245C619.66 155.653 616.168 165.233 601.905 163.176Z" fill="#263238"/>
<path d="M610.228 153.222C610.228 153.222 613.981 147.673 621.293 153.646C617.624 153.18 613.921 153.038 610.228 153.222Z" fill="#263238"/>
<path d="M610.766 152.748C610.766 152.748 616.152 153.515 616.576 145.845C614.837 148.305 612.893 150.614 610.766 152.748Z" fill="#263238"/>
<path d="M610.407 175.351C609.8 176.888 608.893 178.288 607.739 179.471C606.584 180.653 605.206 181.594 603.684 182.237C599.604 183.869 596.976 180.393 597.645 176.232C598.233 172.495 601.073 167.125 605.397 167.191C606.346 167.22 607.273 167.484 608.095 167.961C608.917 168.437 609.607 169.11 610.104 169.919C610.601 170.728 610.888 171.648 610.941 172.596C610.994 173.545 610.811 174.491 610.407 175.351Z" fill="#FFC3BD"/>
<path d="M585.667 166.098C585.667 167.175 584.965 168.007 584.264 167.958C583.562 167.909 583.04 166.979 583.105 165.902C583.17 164.825 583.807 163.992 584.525 164.041C585.243 164.09 585.749 165.021 585.667 166.098Z" fill="#263238"/>
<path d="M573.46 165.151C573.378 166.228 572.758 167.06 572.04 167.012C571.322 166.963 570.833 166.032 570.898 164.955C570.963 163.878 571.6 163.046 572.301 163.095C573.003 163.144 573.525 164.074 573.46 165.151Z" fill="#263238"/>
<path d="M577.295 166C575.75 169.085 573.784 171.942 571.453 174.486C572.161 175.045 572.979 175.447 573.854 175.667C574.729 175.886 575.64 175.917 576.528 175.759L577.295 166Z" fill="#ED847E"/>
<path d="M583.023 183.217C582.557 183.257 582.087 183.257 581.62 183.217C581.538 183.217 581.459 183.184 581.401 183.126C581.343 183.068 581.31 182.989 581.31 182.907C581.31 182.824 581.343 182.746 581.401 182.687C581.459 182.629 581.538 182.597 581.62 182.597C582.958 182.73 584.31 182.546 585.563 182.058C586.817 181.57 587.937 180.793 588.833 179.79C588.862 179.761 588.896 179.737 588.934 179.722C588.972 179.706 589.013 179.698 589.054 179.698C589.095 179.698 589.135 179.706 589.173 179.722C589.211 179.737 589.245 179.761 589.274 179.79C589.327 179.854 589.356 179.935 589.356 180.018C589.356 180.101 589.327 180.182 589.274 180.247C588.484 181.135 587.524 181.856 586.45 182.366C585.376 182.876 584.211 183.165 583.023 183.217Z" fill="#263238"/>
<path d="M589.698 162.458C589.586 162.459 589.475 162.433 589.376 162.382C589.276 162.331 589.191 162.256 589.127 162.164C588.708 161.482 588.136 160.907 587.456 160.485C586.776 160.062 586.007 159.805 585.21 159.732C585.041 159.728 584.88 159.661 584.759 159.543C584.637 159.424 584.566 159.265 584.557 159.096C584.557 158.927 584.624 158.765 584.744 158.646C584.863 158.527 585.025 158.459 585.194 158.459C586.207 158.527 587.189 158.836 588.058 159.361C588.927 159.887 589.657 160.613 590.188 161.479C590.281 161.619 590.314 161.791 590.28 161.956C590.247 162.122 590.149 162.267 590.008 162.36C589.911 162.41 589.806 162.443 589.698 162.458Z" fill="#263238"/>
<path d="M568.483 160.549C568.365 160.581 568.241 160.581 568.124 160.549C567.975 160.463 567.867 160.323 567.821 160.158C567.775 159.994 567.796 159.817 567.879 159.668C568.36 158.781 569.047 158.022 569.882 157.454C570.716 156.886 571.675 156.526 572.677 156.404C572.846 156.399 573.011 156.459 573.139 156.571C573.266 156.683 573.346 156.839 573.362 157.008C573.369 157.092 573.358 157.176 573.331 157.256C573.304 157.336 573.261 157.41 573.204 157.472C573.148 157.535 573.079 157.585 573.002 157.621C572.926 157.656 572.843 157.675 572.758 157.677C571.966 157.769 571.209 158.054 570.552 158.507C569.895 158.959 569.358 159.565 568.989 160.272C568.932 160.354 568.857 160.423 568.769 160.471C568.681 160.519 568.583 160.546 568.483 160.549Z" fill="#263238"/>
<path d="M505.195 274.622L494.196 266.462L491.307 281.362C491.307 281.362 501.556 288.02 504.771 282.602L505.195 274.622Z" fill="#FFC3BD"/>
<path d="M480.683 265.271L482.56 278.931L491.307 281.395L494.196 266.495L480.683 265.271Z" fill="#FFC3BD"/>
<path d="M635.001 226.953C637.759 230.788 640.092 234.493 642.491 238.377C644.89 242.261 647.11 246.145 649.248 250.192C651.386 254.24 653.36 258.352 655.188 262.791C657.128 267.417 658.609 272.221 659.611 277.136C660.213 280.165 660.378 283.264 660.1 286.34C659.9 288.384 659.394 290.387 658.599 292.28C658.11 293.431 657.497 294.526 656.771 295.544C656.635 295.752 656.482 295.948 656.314 296.132L655.906 296.589L655.106 297.503C652.953 299.774 650.431 301.667 647.648 303.1C645.13 304.427 642.446 305.415 639.668 306.038C634.684 307.143 629.555 307.446 624.475 306.935C622.061 306.691 619.664 306.31 617.294 305.793C614.927 305.293 612.595 304.644 610.309 303.851L612.349 293.978C620.166 293.863 628.669 292.998 634.789 290.355C636.19 289.753 637.52 288.998 638.754 288.103C639.743 287.357 640.612 286.465 641.333 285.459L641.561 285.1L641.675 284.92C641.675 284.92 641.675 284.79 641.675 284.92C641.675 285.051 641.48 285.214 641.414 285.263C641.349 285.312 641.414 285.263 641.414 284.855C641.346 283.586 641.143 282.328 640.811 281.102C639.836 277.541 638.536 274.077 636.926 270.755C635.295 267.165 633.352 263.542 631.345 259.935C629.338 256.329 627.184 252.755 625.013 249.181C622.843 245.607 620.476 242.016 618.306 238.687L635.001 226.953Z" fill="#FFC3BD"/>
<path d="M628.375 217.994C640.664 221.796 655.694 257.161 655.694 257.161L625.797 270.951C620.728 262.372 616.852 253.143 614.275 243.518C612.807 238.034 617.621 214.681 628.375 217.994Z" fill="#263238"/>
<path d="M607.104 278.94L487.146 263.275L473.913 364.607L593.871 380.272L607.104 278.94Z" fill="#FFDD59"/>
<path opacity="0.1" d="M522.707 267.915L487.139 263.27L473.906 364.603L509.474 369.247L522.707 267.915Z" fill="black"/>
<path d="M615.369 295.25L604.696 286.813L600.746 303.573C600.746 303.573 611.419 308.714 614.749 303.312L615.369 295.25Z" fill="#FFC3BD"/>
<path d="M593.533 286.748L590.922 300.766L600.746 303.573L604.695 286.813L593.533 286.748Z" fill="#FFC3BD"/>
<path d="M481.679 528.211H336.909V650.51H481.679V528.211Z" fill="#5C4CB1"/>
<path opacity="0.1" d="M379.829 528.211H336.909V650.51H379.829V528.211Z" fill="black"/>
<path d="M397.846 283.615H253.075V405.913H397.846V283.615Z" fill="#8A7CD8"/>
<path opacity="0.1" d="M313.8 283.615H253.075V405.913H313.8V283.615Z" fill="black"/>
<path d="M176.096 650.527H320.867L320.867 405.913H176.096L176.096 650.527Z" fill="#5C4CB1"/>
<path opacity="0.5" d="M286.008 483.121C290.577 517.8 310.569 526.906 320.801 570.382V444.378C299.619 422.314 281.488 448.426 286.008 483.121Z" fill="#A797FF"/>
<path opacity="0.5" d="M237.392 436.235C239.036 441.45 238.85 447.071 236.864 452.166C234.879 457.262 231.213 461.527 226.474 464.255C216.944 469.657 206.091 464.516 198.552 455.28C191.012 446.043 195.63 432.122 205.079 426.704C214.528 421.286 234.161 424.762 237.392 436.235Z" fill="#A797FF"/>
<path opacity="0.5" d="M191.877 594.648C178.397 553.931 195.223 500.795 227.029 491.607C258.836 482.419 271.843 508.155 277.946 522.843C303.862 546.473 313.164 608.373 277.946 624.595C266.849 640.245 205.357 635.349 191.877 594.648Z" fill="#A797FF"/>
<path opacity="0.1" d="M277.946 405.913H176.096V650.527H277.946V405.913Z" fill="black"/>
<path d="M494.115 405.913H371.816V528.212H494.115V405.913Z" fill="#5C4CB1"/>
<path opacity="0.4" d="M494.115 405.913H371.816V528.212H494.115V405.913Z" fill="white"/>
<path d="M283.966 394.158C299.644 378.48 299.644 353.061 283.966 337.383C268.288 321.705 242.869 321.705 227.191 337.383C211.513 353.061 211.513 378.48 227.191 394.158C242.869 409.836 268.288 409.836 283.966 394.158Z" fill="#FFDD59"/>
</svg>
