<svg width="1728" height="503" viewBox="0 0 1728 503" fill="none" xmlns="http://www.w3.org/2000/svg">
<path opacity="0.25" d="M209.463 148H446C446 148 435.185 128.842 414.663 128.842C394.14 128.842 413.381 139.447 397.522 139.447C381.663 139.447 365.204 105 314.671 105C264.139 105 305.911 130.917 279.791 130.917C253.67 130.917 169.838 107.983 209.463 148Z" fill="#CECAE4"/>
<path opacity="0.25" d="M156.218 253H274C274 253 268.642 243.633 258.421 243.633C248.199 243.633 257.777 248.823 249.855 248.823C241.933 248.823 233.758 232 208.602 232C183.445 232 204.255 244.6 191.217 244.6C178.179 244.6 136.477 233.457 156.218 253Z" fill="#CECAE4"/>
<path opacity="0.25" d="M580.77 223.716C570.791 223.716 580.147 228.883 572.417 228.883C564.687 228.883 556.692 212.112 532.117 212.112C507.946 212.112 526.187 226.375 514.73 226.865H514.107C502.639 226.865 490.801 202 454.377 202C417.953 202 448.089 220.661 429.226 220.661C410.362 220.661 349.974 204.123 378.553 233H596C596 233 590.762 223.716 580.77 223.716Z" fill="#CECAE4"/>
<mask id="mask0_100_10" style="mask-type:alpha" maskUnits="userSpaceOnUse" x="0" y="0" width="1728" height="440">
<path d="M1728 334.902L1728 427.655L1725.5 427.424L1722.48 427.655C1715.94 429.195 1708 431 1691 431.572C1686.96 431.708 1671.84 431.923 1668.43 431.572C1662.99 431.01 1661.5 429.5 1662 425C1669.93 392 1659 409.5 1639.5 411.5C1630.5 412.5 1623 414.5 1605.5 416.5C1589.11 418.374 1564.02 418.736 1555.5 418.5C1528.44 416.09 1516 407.5 1521.02 427.44C1521.02 435.761 1499 431.49 1479 434.5C1457 439.99 1459.3 439.109 1443.48 439.995C1425 439.995 1393.5 416.349 1365.5 416.349C1337.5 416.349 1296.2 427.556 1271.54 428.168C1238 429 1224.52 421.123 1220.6 421.123C1216.84 421.123 1185 442.304 1149 402.522C1131.5 398.39 1119 414.304 1092.96 411.133C1066.92 407.963 1078 398.534 1044.5 402.991C1029.5 407.214 977.728 414.332 977.989 415.266C978.413 416.779 977.851 416.977 972.832 417.083C959.536 417.363 948.556 416.965 942.971 416.001C924.5 410.498 888 403.93 884.395 412.109C884.601 413.784 883.794 414.383 879.36 415.847C875.077 417.261 870.769 417.655 856.533 417.935C799.5 412.109 737.069 413.203 732.703 414.304C661 427 607.5 397.5 561.5 397.5C542.5 399.5 507.546 382.22 501.6 381.706C498.96 381.478 463 391.847 427 391C299.5 388 274.5 411 201.5 409C170.836 408.16 151 404 138 399C121.461 392.639 97 374.374 94.5 365.929C79.5 350 34 365 14.5718 353.458C13.0598 352.048 2.6496 352.873 0 354.201V261.513V0L864 0L1728 0V334.902Z" fill="#D9D9D9"/>
</mask>
<g mask="url(#mask0_100_10)">
<path d="M229.917 411.37H459.384L344.651 221.463L229.917 411.37Z" fill="#D0CAEF"/>
<path d="M315.557 411.37H525.33L420.443 262.06L315.557 411.37Z" fill="#E0DDF5"/>
<path d="M173.781 411.37H355.087L243.069 306.051L173.781 411.37Z" fill="#DEDBED"/>
</g>
<path d="M455 442.681C364.425 442.681 291 436.048 291 427.865C291 419.682 364.425 413.049 455 413.049C545.575 413.049 619 419.682 619 427.865C619 436.048 545.575 442.681 455 442.681Z" fill="#E3E0F4"/>
<path d="M329.64 420.358C316.092 420.358 310.772 405.384 315.657 392.883C320.541 380.383 318.509 376.989 318.509 376.989C318.509 376.989 324.542 383.727 324.542 388.733C329.305 382.979 317.504 370.6 322.402 358.206C326.032 366.471 328.449 370.614 339.409 382.743C349.713 394.138 356.095 420.358 329.64 420.358Z" fill="#FF820E"/>
<path opacity="0.5" d="M332.328 418.426C339.702 418.426 343.132 409.619 339.645 402.802C336.158 395.985 337.869 393.803 337.869 393.803C337.869 393.803 334.19 397.811 334.518 400.535C331.544 397.397 335.716 389.71 332.243 382.957C330.817 387.457 331.159 390.623 326.032 397.276C320.627 404.278 317.91 418.426 332.328 418.426Z" fill="#F3F3F3"/>
<path opacity="0.5" d="M330.909 415.795C327.622 415.795 326.096 411.873 327.651 408.828C329.205 405.783 328.442 404.821 328.442 404.821C328.442 404.821 330.082 406.603 329.94 407.823C331.259 406.396 329.405 402.988 330.952 399.979C331.594 401.99 331.43 403.402 333.719 406.361C336.129 409.491 337.341 415.795 330.909 415.795Z" fill="#F3F3F3"/>
<path d="M347.938 423.995C347.938 422.444 347.322 420.957 346.225 419.861C345.129 418.764 343.641 418.148 342.091 418.148H320.605V423.995H347.938Z" fill="#FF820E"/>
<path opacity="0.2" d="M347.938 423.995C347.938 422.444 347.322 420.957 346.225 419.861C345.129 418.764 343.641 418.148 342.091 418.148H320.605V423.995H347.938Z" fill="black"/>
<path d="M320.605 418.134C319.055 418.134 317.567 418.75 316.471 419.846C315.374 420.943 314.758 422.43 314.758 423.981H326.453C326.453 422.43 325.837 420.943 324.74 419.846C323.644 418.75 322.156 418.134 320.605 418.134Z" fill="#FF820E"/>
<path d="M392.606 421.656C392.535 421.651 392.466 421.625 392.41 421.582C392.353 421.539 392.309 421.481 392.285 421.414C392.241 421.313 392.232 421.2 392.261 421.094C392.289 420.988 392.353 420.894 392.442 420.829C431.226 396.948 448.383 328.3 448.547 327.608C448.554 327.558 448.572 327.51 448.599 327.467C448.627 327.424 448.663 327.388 448.705 327.36C448.748 327.333 448.796 327.314 448.846 327.307C448.896 327.299 448.947 327.302 448.996 327.316C449.095 327.362 449.173 327.443 449.218 327.542C449.262 327.641 449.269 327.753 449.239 327.858C449.067 328.571 431.825 397.554 392.77 421.606C392.72 421.636 392.664 421.653 392.606 421.656V421.656Z" fill="#5C4CB1"/>
<path d="M432.781 423.895H465.019L448.896 327.729L432.781 423.895Z" fill="white"/>
<path d="M479.081 423.895L448.896 327.729H532.391L570.27 423.895H479.081Z" fill="#5C4CB1"/>
<path opacity="0.2" d="M479.081 423.895L448.896 327.729H532.391L570.27 423.895H479.081Z" fill="black"/>
<path d="M453.988 423.895L448.896 327.729L479.081 423.895H453.988Z" fill="#5C4CB1"/>
<path d="M443.812 423.895L448.896 327.729L418.719 423.895H443.812Z" fill="#5C4CB1"/>
<path d="M530.159 424.331C502.57 424.331 481.848 398.082 469.319 376.062C460.773 360.752 453.817 344.607 448.561 327.879C448.526 327.775 448.529 327.663 448.57 327.561C448.61 327.459 448.685 327.375 448.782 327.323C448.829 327.306 448.88 327.299 448.93 327.303C448.98 327.307 449.029 327.323 449.072 327.348C449.116 327.373 449.153 327.407 449.182 327.449C449.211 327.49 449.23 327.537 449.239 327.587C454.473 344.248 461.403 360.329 469.918 375.577C482.347 397.419 502.884 423.461 530.159 423.461C530.264 423.471 530.36 423.523 530.427 423.605C530.494 423.686 530.525 423.791 530.515 423.896C530.525 424 530.494 424.105 530.427 424.186C530.36 424.268 530.264 424.32 530.159 424.331V424.331Z" fill="white"/>
<path d="M584.688 390.566H521.816V387.065H584.688V390.566Z" fill="#887AD7"/>
<path opacity="0.2" d="M584.688 390.566H562.084V387.065H584.688V390.566Z" fill="black"/>
<path d="M542.367 423.896H539.279L564.123 390.566H567.218L542.367 423.896Z" fill="#887AD7"/>
<path d="M564.123 423.896H567.218L542.367 390.566H539.279L564.123 423.896Z" fill="#887AD7"/>
<path d="M531.656 377.067C531.656 382.594 537.268 387.051 544.192 387.051C551.116 387.051 556.721 382.572 556.721 377.067H531.656Z" fill="#887AD7"/>
<path d="M418.692 243.858C418.692 243.858 425.017 260.045 419.012 290.209H390.339C390.14 285.809 392.907 264.338 388.664 243.602C391.834 242.992 395.04 242.587 398.262 242.389C402.321 242.154 406.39 242.154 410.448 242.389C413.23 242.662 415.987 243.153 418.692 243.858V243.858Z" fill="#FFDD59"/>
<path d="M417.173 254.29C417.886 257.029 418.685 259.803 419.455 262.541C420.225 265.279 420.988 268.032 421.701 270.748C422.036 272.096 422.414 273.458 422.663 274.742L422.877 275.676C422.913 275.89 422.963 276.102 423.027 276.31C423.027 276.31 423.027 276.31 423.07 276.139C423.091 275.972 423.129 275.807 423.184 275.647C423.253 275.399 423.351 275.159 423.476 274.934C423.531 274.833 423.593 274.735 423.662 274.642C423.74 274.529 423.826 274.422 423.919 274.321C424.243 273.953 424.641 273.657 425.087 273.454C425.533 273.25 426.017 273.142 426.507 273.137C426.746 273.129 426.985 273.149 427.22 273.194C427.388 273.222 427.552 273.265 427.712 273.323C427.839 273.365 427.962 273.415 428.083 273.472C428.182 273.517 428.277 273.57 428.368 273.629C428.489 273.695 428.603 273.772 428.71 273.857C428.889 273.991 429.047 274.149 429.181 274.328C429.302 274.492 429.295 274.513 429.295 274.528C429.145 274.37 429.018 274.193 428.917 274C428.589 273.487 428.247 272.88 427.919 272.274L426.892 270.413C426.179 269.165 425.466 267.896 424.71 266.662L420.731 267.996C420.892 269.481 421.13 270.957 421.444 272.417C421.742 273.93 422.133 275.423 422.614 276.888C422.779 277.379 422.985 277.856 423.227 278.314C423.495 278.819 423.864 279.263 424.311 279.619C424.436 279.718 424.567 279.808 424.703 279.89C424.807 279.953 424.914 280.01 425.024 280.061C425.153 280.122 425.287 280.174 425.423 280.218C425.595 280.28 425.771 280.327 425.951 280.361C426.186 280.404 426.425 280.423 426.664 280.418C427.225 280.41 427.776 280.273 428.275 280.018C428.693 279.812 429.066 279.526 429.374 279.177C429.475 279.068 429.568 278.951 429.652 278.828C429.709 278.733 429.761 278.635 429.809 278.535C429.956 278.281 430.073 278.011 430.158 277.729C430.231 277.482 430.286 277.229 430.322 276.974C430.353 276.737 430.372 276.499 430.379 276.26C430.41 275.752 430.41 275.243 430.379 274.734C430.379 274.307 430.322 273.914 430.265 273.529C430.08 271.961 429.837 270.499 429.552 269.023C429.003 266.092 428.361 263.233 427.655 260.387C426.949 257.542 426.186 254.747 425.309 251.93L417.173 254.29Z" fill="#FFA59C"/>
<path d="M412.331 247.524C410.52 252.323 419.676 266.442 419.676 266.442L430.372 260.623C428.763 256.229 426.686 252.021 424.175 248.073C420.403 242.418 414.313 242.261 412.331 247.524Z" fill="#FFDD59"/>
<path d="M418.528 243.595C417.101 243.029 415.595 242.692 414.064 242.596C414.035 242.596 414.006 242.603 413.981 242.617C413.956 242.63 413.934 242.65 413.919 242.674C413.903 242.699 413.894 242.726 413.892 242.755C413.89 242.784 413.895 242.813 413.907 242.839C414.784 244.55 416.759 248.194 416.552 262.762C416.353 275.933 419.312 281.302 420.275 282.643C420.297 282.677 420.33 282.703 420.367 282.717C420.405 282.732 420.447 282.735 420.486 282.726C420.525 282.717 420.561 282.695 420.588 282.665C420.616 282.635 420.633 282.598 420.638 282.557L420.931 280.768C420.952 280.674 420.952 280.576 420.931 280.482C420.653 279.541 419.077 273.708 419.847 264.795C421.194 249.15 418.848 244.115 418.606 243.659C418.587 243.63 418.56 243.607 418.528 243.595V243.595Z" fill="#5C4CB1"/>
<path d="M415.625 261.814L415.119 267.454L419.64 268.131L420.496 261.942L415.625 261.814Z" fill="#FFA59C"/>
<path d="M424.546 265.072L420.496 261.942L419.64 268.131C419.64 268.131 423.269 270.748 425.765 268.303L424.546 265.072Z" fill="#FFA59C"/>
<path d="M399.467 228.62C400.237 232.542 401 239.729 398.262 242.346C398.262 242.346 399.838 246.325 407.125 246.325C413.778 246.325 410.448 242.346 410.448 242.346C406.077 241.305 406.17 238.068 406.947 235.009L399.467 228.62Z" fill="#FFA59C"/>
<path opacity="0.2" d="M402.519 231.251L406.947 235.03C406.758 235.731 406.632 236.447 406.569 237.169C405.143 238.524 402.604 235.094 402.426 233.347C402.332 232.649 402.364 231.939 402.519 231.251V231.251Z" fill="black"/>
<path d="M411.932 216.583C414.57 217.695 416.003 225.097 412.645 226.794C409.286 228.491 406.933 214.465 411.932 216.583Z" fill="#263238"/>
<path d="M399.003 222.744C399.324 228.056 399.246 231.18 401.927 233.904C405.963 238.004 412.516 235.572 413.786 230.267C414.926 225.496 414.199 217.617 409.001 215.506C407.857 215.034 406.612 214.863 405.384 215.008C404.156 215.154 402.985 215.611 401.983 216.336C400.981 217.061 400.181 218.031 399.66 219.152C399.138 220.274 398.912 221.51 399.003 222.744V222.744Z" fill="#FFA59C"/>
<path d="M396.935 216.362C398.668 211.221 411.946 212.005 413.457 215.385C414.306 217.289 413.015 217.909 412.103 218.03C410.028 216.191 404.637 217.745 402.619 218.13C402.619 218.13 402.918 218.843 401.998 220.548C399.987 224.298 404.772 228.392 400.216 227.735C398.126 227.415 392.065 218.487 396.935 216.362Z" fill="#263238"/>
<path d="M397.656 213.902C395.939 213.902 394.547 212.51 394.547 210.793C394.547 209.076 395.939 207.684 397.656 207.684C399.373 207.684 400.765 209.076 400.765 210.793C400.765 212.51 399.373 213.902 397.656 213.902Z" fill="#5C4CB1"/>
<path opacity="0.2" d="M397.656 213.902C395.939 213.902 394.547 212.51 394.547 210.793C394.547 209.076 395.939 207.684 397.656 207.684C399.373 207.684 400.765 209.076 400.765 210.793C400.765 212.51 399.373 213.902 397.656 213.902Z" fill="white"/>
<path d="M414.121 218.48C414.185 217.403 414.641 214.608 409.999 212.176C404.844 209.466 395.688 210.458 394.247 215.135C393.434 217.781 395.317 220.049 395.26 221.111C397.72 219.956 414.121 218.48 414.121 218.48Z" fill="#7D6AE0"/>
<path opacity="0.1" d="M414.121 218.48C414.185 217.403 414.641 214.608 409.999 212.176C404.844 209.466 395.688 210.458 394.247 215.135C393.434 217.781 395.317 220.049 395.26 221.111C397.72 219.956 414.121 218.48 414.121 218.48Z" fill="black"/>
<path d="M414.427 218.102L414.891 220.02C414.909 220.088 414.909 220.159 414.892 220.227C414.875 220.296 414.841 220.358 414.794 220.41C414.746 220.462 414.686 220.501 414.62 220.524C414.553 220.546 414.482 220.552 414.413 220.54C412.388 220.134 405.671 219.264 395.452 222.822C395.398 222.842 395.339 222.85 395.281 222.845C395.224 222.841 395.167 222.825 395.116 222.797C395.065 222.769 395.02 222.731 394.985 222.685C394.949 222.639 394.924 222.586 394.91 222.53L394.433 220.519C394.405 220.416 394.418 220.306 394.468 220.212C394.519 220.119 394.603 220.047 394.704 220.013C405.778 216.134 412.759 217.46 414.121 217.788C414.196 217.805 414.266 217.844 414.32 217.9C414.374 217.956 414.412 218.026 414.427 218.102V218.102Z" fill="#AF9FFF"/>
<path d="M396.101 227.115C396.669 228.33 397.694 229.271 398.954 229.732C400.622 230.331 401.585 228.869 401.228 227.229C400.907 225.753 399.652 223.664 397.927 223.764C397.549 223.793 397.184 223.916 396.865 224.122C396.547 224.328 396.285 224.611 396.104 224.944C395.922 225.277 395.827 225.65 395.827 226.029C395.826 226.408 395.921 226.782 396.101 227.115V227.115Z" fill="#FFA59C"/>
<path d="M419.012 290.187C419.012 290.187 429.709 332.829 431.898 349.038C434.165 365.902 439.078 414.548 439.078 414.548L430.557 416.295C430.557 416.295 419.198 369.475 415.982 353.081C412.473 335.211 400.159 290.187 400.159 290.187H419.012Z" fill="#5C4CB1"/>
<path opacity="0.3" d="M419.012 290.187C419.012 290.187 429.709 332.829 431.898 349.038C434.165 365.902 439.078 414.548 439.078 414.548L430.557 416.295C430.557 416.295 419.198 369.475 415.982 353.081C412.473 335.211 400.159 290.187 400.159 290.187H419.012Z" fill="#F3F3F3"/>
<path opacity="0.3" d="M406.141 293.339L403.645 303.101C405.963 311.822 409.065 323.645 411.682 334.277C411.93 320.428 410.061 306.623 406.141 293.339V293.339Z" fill="black"/>
<path d="M408.837 290.187C408.837 290.187 406.405 334.006 403.068 349.373C399.41 366.173 381.982 419.305 381.982 419.305H372.163C372.163 419.305 384.899 367.535 386.988 350.892C389.248 332.836 390.339 290.201 390.339 290.201L408.837 290.187Z" fill="#5C4CB1"/>
<path opacity="0.3" d="M408.837 290.187C408.837 290.187 406.405 334.006 403.068 349.373C399.41 366.173 381.982 419.305 381.982 419.305H372.163C372.163 419.305 384.899 367.535 386.988 350.892C389.248 332.836 390.339 290.201 390.339 290.201L408.837 290.187Z" fill="#F3F3F3"/>
<path d="M407.054 224.227C407.054 224.662 407.282 225.012 407.568 225.012C407.853 225.012 408.081 224.662 408.081 224.227C408.081 223.792 407.853 223.443 407.568 223.443C407.282 223.443 407.054 223.792 407.054 224.227Z" fill="#263238"/>
<path d="M411.939 224.227C411.939 224.662 412.174 225.012 412.452 225.012C412.73 225.012 412.965 224.662 412.965 224.227C412.965 223.792 412.737 223.443 412.452 223.443C412.167 223.443 411.939 223.792 411.939 224.227Z" fill="#263238"/>
<path d="M410.391 224.441C410.904 225.764 411.598 227.009 412.452 228.142C412.157 228.352 411.82 228.496 411.464 228.563C411.108 228.629 410.742 228.617 410.391 228.527V224.441Z" fill="#E8716A"/>
<path d="M409.129 229.725C409.163 229.725 409.196 229.711 409.22 229.687C409.244 229.663 409.258 229.631 409.258 229.597C409.258 229.563 409.244 229.53 409.22 229.506C409.196 229.482 409.163 229.468 409.129 229.468C408.591 229.481 408.057 229.365 407.571 229.133C407.085 228.9 406.662 228.555 406.334 228.128C406.315 228.101 406.287 228.083 406.255 228.076C406.224 228.07 406.191 228.075 406.163 228.092C406.148 228.101 406.135 228.112 406.125 228.126C406.115 228.14 406.108 228.156 406.104 228.172C406.1 228.189 406.099 228.206 406.102 228.223C406.105 228.24 406.111 228.256 406.12 228.27C406.47 228.735 406.925 229.109 407.448 229.362C407.972 229.615 408.548 229.74 409.129 229.725V229.725Z" fill="#263238"/>
<path d="M405.564 222.651C405.602 222.65 405.64 222.641 405.675 222.624C405.709 222.606 405.739 222.582 405.763 222.552C405.948 222.292 406.192 222.079 406.474 221.932C406.757 221.784 407.07 221.706 407.389 221.703C407.424 221.711 407.46 221.712 407.495 221.706C407.53 221.699 407.564 221.685 407.593 221.665C407.623 221.645 407.648 221.619 407.667 221.589C407.686 221.558 407.698 221.524 407.703 221.489C407.707 221.455 407.704 221.421 407.694 221.389C407.684 221.357 407.667 221.327 407.645 221.301C407.623 221.276 407.596 221.255 407.565 221.241C407.535 221.227 407.501 221.219 407.468 221.218C407.064 221.214 406.665 221.307 406.305 221.489C405.945 221.672 405.635 221.938 405.4 222.266C405.379 222.293 405.364 222.323 405.355 222.356C405.346 222.388 405.344 222.422 405.349 222.455C405.353 222.488 405.365 222.52 405.382 222.549C405.399 222.578 405.422 222.603 405.45 222.623C405.485 222.641 405.524 222.651 405.564 222.651V222.651Z" fill="#263238"/>
<path d="M414.121 222.494C414.158 222.504 414.197 222.504 414.235 222.494C414.263 222.478 414.289 222.456 414.309 222.43C414.329 222.404 414.344 222.374 414.352 222.343C414.361 222.311 414.363 222.278 414.359 222.245C414.355 222.212 414.344 222.181 414.327 222.152C414.136 221.797 413.863 221.493 413.53 221.265C413.198 221.037 412.816 220.891 412.416 220.84C412.349 220.836 412.284 220.859 412.233 220.902C412.182 220.946 412.151 221.009 412.145 221.075C412.141 221.142 412.164 221.208 412.208 221.259C412.252 221.309 412.314 221.341 412.381 221.346V221.346C412.697 221.391 412.998 221.51 413.26 221.694C413.521 221.877 413.736 222.12 413.885 222.402C413.913 222.436 413.95 222.463 413.991 222.479C414.032 222.495 414.077 222.501 414.121 222.494Z" fill="#263238"/>
<path d="M383.587 249.377C382.096 253.057 380.777 256.708 379.593 260.48C378.994 262.363 378.438 264.267 377.946 266.185C377.401 268.203 376.985 270.254 376.698 272.324C376.656 272.567 376.634 272.98 376.606 273.308C376.588 273.646 376.588 273.984 376.606 274.321C376.606 274.656 376.606 274.97 376.656 275.291C376.705 275.612 376.72 275.918 376.77 276.218C376.948 277.368 377.222 278.501 377.59 279.605C378.28 281.622 379.159 283.57 380.214 285.424C382.217 288.944 384.609 292.228 387.345 295.214L390.71 292.704C389.855 291.1 388.949 289.403 388.165 287.713C387.38 286.023 386.61 284.347 385.961 282.664C385.315 281.044 384.8 279.375 384.421 277.672C384.251 276.922 384.149 276.159 384.114 275.391C384.104 275.22 384.104 275.048 384.114 274.877C384.103 274.718 384.103 274.558 384.114 274.399C384.119 274.256 384.136 274.113 384.164 273.972C384.2 273.822 384.164 273.751 384.25 273.515C384.592 271.932 385.141 270.157 385.676 268.402C386.211 266.648 386.867 264.837 387.502 263.097C388.778 259.532 390.119 255.966 391.423 252.401L383.587 249.377Z" fill="#FFA59C"/>
<path d="M388.664 243.594C383.587 244.307 377.782 261.906 377.782 261.906L388.45 267.91C388.45 267.91 393.142 259.553 395.452 253.342C397.862 246.839 394.105 242.789 388.664 243.594Z" fill="#FFDD59"/>
<path d="M391.302 242.717C393.098 242.41 394.914 242.236 396.736 242.197C396.828 242.198 396.918 242.224 396.996 242.273C397.074 242.322 397.137 242.392 397.178 242.475C398.604 244.949 403.396 254.647 403.025 264.381C402.633 274.542 393.541 282.429 390.903 283.341C390.814 283.372 390.72 283.381 390.627 283.368C390.534 283.355 390.446 283.319 390.37 283.265C390.294 283.21 390.232 283.138 390.189 283.055C390.147 282.971 390.125 282.879 390.126 282.785V281.445C390.125 281.327 390.16 281.213 390.227 281.116C390.293 281.019 390.387 280.945 390.496 280.903C392.443 280.125 399.389 272.167 397.627 261.65C395.623 249.606 391.923 245.448 390.946 243.38C390.916 243.314 390.903 243.242 390.906 243.169C390.909 243.097 390.928 243.026 390.962 242.962C390.997 242.898 391.045 242.843 391.104 242.8C391.163 242.758 391.231 242.729 391.302 242.717V242.717Z" fill="#5C4CB1"/>
<path d="M390.104 291.856L394.047 295.107L388.207 297.311C388.207 297.311 384.849 294.359 386.674 291.378L390.104 291.856Z" fill="#FFA59C"/>
<path d="M395.26 299.828L389.862 301.568L388.207 297.311L394.047 295.107L395.26 299.828Z" fill="#FFA59C"/>
<path d="M431.064 423.291L440.662 421.608L438.366 402.611C438.352 402.502 438.317 402.396 438.263 402.301C438.208 402.205 438.134 402.121 438.046 402.055C437.959 401.988 437.858 401.94 437.751 401.913C437.644 401.886 437.533 401.881 437.424 401.898L427.776 403.424C427.666 403.441 427.561 403.481 427.467 403.54C427.373 403.598 427.291 403.676 427.228 403.767C427.165 403.859 427.12 403.962 427.098 404.071C427.076 404.18 427.076 404.292 427.099 404.401L431.064 423.291Z" fill="#FFDD59"/>
<path d="M370.302 426.143L379.693 427.455L386.218 408.68C386.259 408.562 386.272 408.437 386.257 408.314C386.241 408.191 386.197 408.073 386.128 407.97C386.058 407.867 385.966 407.781 385.858 407.72C385.75 407.659 385.629 407.623 385.505 407.617L374.994 406.704C374.798 406.686 374.603 406.741 374.445 406.858C374.287 406.975 374.178 407.147 374.138 407.339L370.302 426.143Z" fill="#FFDD59"/>
<path d="M378.588 424.417L371.592 423.177C371.46 423.169 371.329 423.207 371.22 423.283C371.112 423.359 371.032 423.47 370.994 423.597L369.304 429.445C369.265 429.587 369.259 429.736 369.285 429.881C369.312 430.025 369.37 430.163 369.456 430.282C369.542 430.402 369.654 430.5 369.783 430.571C369.912 430.642 370.055 430.684 370.202 430.692C372.812 430.942 374.21 430.928 377.504 431.163C379.529 431.306 383.587 432.019 386.389 432.019C389.191 432.019 389.562 429.245 388.414 428.988C383.259 427.861 381.319 426.314 379.672 424.831C379.375 424.563 378.988 424.415 378.588 424.417V424.417Z" fill="#FFDD59"/>
<path d="M438.266 417.493L431.078 418.756C430.946 418.778 430.827 418.845 430.739 418.945C430.65 419.045 430.599 419.172 430.593 419.305V426.792C430.585 426.94 430.61 427.087 430.668 427.223C430.725 427.359 430.813 427.48 430.924 427.577C431.036 427.674 431.168 427.745 431.311 427.783C431.453 427.821 431.603 427.826 431.748 427.797C434.329 427.298 438.052 426.493 441.31 425.922C445.125 425.252 448.441 424.881 452.927 424.097C455.629 423.626 455.9 420.759 454.723 420.709C449.646 420.603 444.629 419.594 439.906 417.729C439.391 417.502 438.824 417.421 438.266 417.493Z" fill="#FFDD59"/>
<g filter="url(#filter0_f_100_10)">
<path d="M328.159 403C306.538 403 298.048 384.689 305.843 369.403C313.639 354.118 310.395 349.967 310.395 349.967C310.395 349.967 320.023 358.207 320.023 364.329C327.624 357.292 308.791 342.155 316.609 327C322.401 337.106 326.259 342.172 343.749 357.004C360.193 370.938 370.378 403 328.159 403Z" fill="#FFA34F"/>
</g>
<defs>
<filter id="filter0_f_100_10" x="203" y="227" width="255" height="276" filterUnits="userSpaceOnUse" color-interpolation-filters="sRGB">
<feFlood flood-opacity="0" result="BackgroundImageFix"/>
<feBlend mode="normal" in="SourceGraphic" in2="BackgroundImageFix" result="shape"/>
<feGaussianBlur stdDeviation="50" result="effect1_foregroundBlur_100_10"/>
</filter>
</defs>
</svg>
