<svg width="1530" height="652" viewBox="0 0 1530 652" fill="none" xmlns="http://www.w3.org/2000/svg">
<path fill-rule="evenodd" clip-rule="evenodd" d="M12.4278 462.116C12.4269 464.036 25.471 469 20.971 507.5L20.7386 526.5L20.971 555.102C18.7386 573.5 29.6343 600.37 63.7386 610.5C85.105 614.817 106.739 622 137.739 618.5L185.739 613C215.739 607.5 238.082 605.5 243.739 605.5C247.239 605.5 237.239 632.5 255.96 635.213C276.218 638.149 296.739 637.456 328.239 626.447C350.239 620.448 365.063 617.807 384.739 618.5C395.239 618.5 420.987 618.746 439.739 621.5C462.103 624.784 474.739 628.5 500.239 623C517.239 617.456 510.739 623.682 520.518 613.809C529.739 604.5 548.739 601 598.239 607.5C613.805 609.544 637.032 616.923 636.523 617.522C633.739 631.5 632.739 640.418 682.758 640.418C687.266 641.868 709.27 632.075 737.239 625C741.228 623.825 758.602 630.098 762.834 630.819C770.315 632.094 782.922 632.106 786.689 630.843C850.239 618 865.739 637.5 896.917 630.448C904.239 630.068 908.711 634.742 916.614 630.068C920.406 626.357 928.479 621.4 932.424 620.361C969.739 603.5 1020 609.852 1020.25 609.855C1027.64 609.939 1029.74 618.902 1074.75 620.929C1086.24 618.902 1090.75 624.838 1092.6 624.307C1096.61 621.666 1142.26 619.521 1153.24 619.141C1186.24 617.995 1201.24 633 1215.51 631.57C1218.39 631.57 1229.79 630.924 1234.79 630.318C1249.69 628.512 1265.21 662.603 1332.24 646.5C1337.46 645.862 1363.41 638.914 1372.13 636.641C1378.42 634.999 1383.58 633.655 1384.63 633.654C1395.24 636 1390.55 652.687 1421.74 651.348C1470.24 649.266 1447.24 644.5 1467.75 641C1479.96 641 1485.49 636.866 1494.99 629.766C1495.21 629.601 1519.24 620 1518.74 590.638C1518.74 586.272 1518.72 586.226 1515.73 584.341C1508.74 571.5 1519.4 592.998 1518.31 557.5C1518.31 544 1519.27 522.507 1518.31 518.255C1517.33 513.916 1516.37 509.675 1517 504.219C1518.4 495.982 1506.74 475 1505.49 436.007C1503.25 418.394 1518 413.5 1522.5 405.5C1526.07 399.155 1531.66 382.5 1529 372C1525.96 360 1516.62 354.935 1515.24 333.5C1513.75 310.313 1513 276.5 1513 274H762.628H5L3.5 279.5C2.5 282.5 0.953205 288.76 2.06847 297.811C3.1422 306.526 27.2386 343.5 4.16836 414.022C-5.80227 444.5 9.51827 459.356 12.4278 462.116ZM53.7386 579.5C49.2945 572.834 67.2386 578.5 77.2386 584.5C65.2386 589 56.7386 584 53.7386 579.5ZM1328.24 601C1312.24 605 1279.64 611.7 1277.24 606.5C1275.04 601.735 1242.89 592.401 1227.35 589.925C1223.82 590.04 1220.99 590.273 1219.24 590.5C1218.24 589.032 1221.7 589.024 1227.35 589.925C1241.99 589.451 1268.69 591.014 1280.74 603.5C1290.09 604.988 1299.34 603.529 1307.86 602.185C1315.37 601.001 1322.3 599.907 1328.24 601Z" fill="#FFDD59"/>
<path fill-rule="evenodd" clip-rule="evenodd" d="M1227.35 589.925C1221.7 589.024 1218.24 589.032 1219.24 590.5C1220.99 590.273 1223.82 590.04 1227.35 589.925ZM53.7386 579.5C49.2945 572.834 67.2386 578.5 77.2386 584.5C65.2386 589 56.7386 584 53.7386 579.5Z" fill="#FFDD59"/>
<path fill-rule="evenodd" clip-rule="evenodd" d="M1376.84 80.9912C1376.49 80.9912 1375.1 80.5712 1373.13 79.9018C1375.77 80.5392 1377.28 80.9912 1376.84 80.9912Z" fill="#FFDD59"/>
<path fill-rule="evenodd" clip-rule="evenodd" d="M43.8401 45.5C20.1922 45.2073 12.8401 60 7.84011 73.5745C3.34011 91.5 4.84011 101 7.84011 118.5C9.43283 127.791 14.2338 135.303 18.7045 142.298C22.6546 148.479 26.3468 154.256 27.3401 160.5C28.9166 170.409 24.1647 181.604 19.9697 191.487C17.017 198.443 14.3401 204.749 14.3401 209.5C14.3401 211.792 14.3997 214.087 14.46 216.411C14.7025 225.749 14.9573 235.564 11.4102 247.574C6.98029 262.574 5 274.074 5 274.074H772.583H1513C1513 274.074 1514.96 245.575 1510.34 236.575C1507.45 230.937 1507.11 229.795 1508.84 225C1509.48 223.236 1511.34 222.5 1511.84 222C1512.34 221.5 1513.34 220.25 1513.84 219.5C1514.34 218.75 1514.38 218.765 1516.22 215.703C1520.02 209.335 1525.38 200.38 1521.87 192.027C1519.42 186.197 1520.72 182.838 1522.57 178.042C1523.14 176.562 1523.76 174.944 1524.34 173.075C1525.71 168.671 1525.46 164.538 1525.21 160.511C1525.02 157.289 1524.83 154.135 1525.47 150.964C1526.49 145.937 1527.38 141.595 1526.7 139.145C1525.12 133.452 1520.56 130.452 1517.26 128.434C1517.01 128.283 1516.88 128.002 1516.91 127.715L1517.33 124.36C1517.42 123.711 1519.75 113.723 1519.84 113.075L1520.12 112.548C1524.65 103.999 1521.92 80.2663 1519.93 76.6478C1518.99 74.9491 1518.19 72.9773 1517.38 70.9912C1515.25 65.7726 1513.08 60.4549 1508.37 59.7305C1506.33 59.6951 1502.94 59.3853 1499.97 58.9823C1498.31 58.7577 1496.67 58.6304 1495 58.6721C1484.95 58.923 1447.29 59.6647 1434.34 57.0745C1432.31 56.6693 1430.01 56.246 1427.53 55.7912C1411.65 52.8787 1388.75 48.6798 1388.19 39.7467C1387.55 29.4188 1336.65 28.9653 1295 36.9827C1288.04 38.3205 1281.77 39.5578 1276.1 40.6743L1276.1 40.6752C1247.82 46.2489 1234.84 48.8072 1229.84 45.7912C1227.42 44.3317 1228.33 38.8006 1229.35 32.6508C1230.59 25.1093 1228.74 20.6952 1226.65 15.7076C1226.21 14.674 1225.77 13.6158 1225.34 12.5C1222.84 6.00001 1217.84 4.50004 1208.84 4.50002L1180.84 4.50002C1171.34 4.50002 1161.34 4.86768 1147.34 6.00002C1133.34 7.13235 1117.84 10.5 1103.84 15C1089.84 19.5 1087.34 20 1053.84 25.5C1050.6 26.0315 1047.48 23.9068 1044.47 21.8597C1041.65 19.9394 1038.92 18.0874 1036.3 18.5598C1012.79 22.7962 997.381 25.5728 990.413 18.6202C981.84 10.0656 940.84 -4.4255 919.625 2.51246C908.406 6.18151 899.605 5.87908 891.762 5.6096C884.775 5.36951 878.549 5.15559 872.054 7.79975C861.823 11.9644 842.428 11.1596 825.748 10.4675C819.951 10.2269 814.482 10 809.84 10C791.84 10 767.34 10 747.84 13C742.81 13.7738 738.145 14.518 733.81 15.2095C705.115 19.7869 690.917 22.0517 681.495 15.2804C674.926 10.5586 665.432 10.828 657.301 11.0588C652.01 11.209 647.296 11.3428 644.34 10.0745C637.376 7.08703 597.649 18.6362 592.007 20.3021C591.547 20.438 591.103 20.5573 590.636 20.665C575.532 24.1429 564.093 22.9717 555.556 22.0977C552.444 21.7791 549.717 21.5 547.34 21.5C542.901 21.5 538.097 22.2299 533.228 22.9696C528.225 23.7296 523.154 24.5 518.34 24.5L485.84 24C484.025 23.8167 482.076 23.6136 480.115 23.4091C473.434 22.7125 466.601 22 464.34 22C460.05 22 456.845 22.0835 453.054 22.1822C447.567 22.3251 440.851 22.5 427.84 22.5C424.321 22.5 421.271 22.5553 418.455 22.6064C403.664 22.8745 395.318 23.0258 359.34 14.4357C354.918 13.7305 347.158 16.7129 338.484 20.0466C327.207 24.3807 314.384 29.3088 305.34 27.5001C294.748 25.3817 281.075 22.2406 272.115 20.1823L272.114 20.1819C267.54 19.1311 264.194 18.3625 263.115 18.1564C262.989 18.1325 262.809 17.9815 262.557 17.7694C261.799 17.1336 260.389 15.9496 257.84 16C251.627 16.123 248.874 16.0907 245.423 16.0502C243.409 16.0265 241.157 16 237.84 16C233.135 16 227.337 15.5901 221.803 15.1988C216.751 14.8416 211.919 14.5 208.34 14.5C205.002 14.5 197.604 12.9155 188.57 10.9805C177.304 8.56768 163.494 5.6099 151.84 4.49998C130.84 2.49997 136.612 58.0001 136.84 59.5C137.069 61 127.34 63.1564 105.34 55.1564C83.3401 47.1564 66.405 45.7794 43.8401 45.5ZM1343.52 69.0261C1346.39 67.8683 1347.14 67.5667 1347.86 67.6175C1348.12 67.6354 1348.37 67.697 1348.71 67.7803C1349.09 67.874 1349.59 67.9952 1350.32 68.1124C1353.6 68.6349 1356.92 69.2004 1359.65 71.0924C1360.84 71.9192 1362.1 72.842 1363.37 73.7742C1366.9 76.3569 1370.52 79.0122 1373.13 79.9018C1370.18 79.1889 1366.76 79.8637 1363.23 80.5586C1359.22 81.3499 1355.07 82.1672 1351.34 80.9912C1350.09 80.5971 1348.88 80.4712 1347.61 80.3391C1345.15 80.0829 1342.47 79.8034 1338.84 77.5C1336.1 75.7613 1334.14 74.6295 1332.85 73.8835C1331.43 73.0652 1330.81 72.711 1330.86 72.5291C1330.9 72.3903 1331.32 72.3518 1332.06 72.2839C1333.54 72.1487 1336.3 71.8968 1339.84 70.5C1341.36 69.8996 1342.56 69.4146 1343.52 69.0261ZM1373.13 79.9018C1375.77 80.5392 1377.28 80.9912 1376.84 80.9912C1376.49 80.9912 1375.1 80.5712 1373.13 79.9018ZM184.34 49C182.619 45.5583 193.84 46 208.34 47C209.559 47.0841 210.645 47.1543 211.621 47.2174C217.399 47.591 219.346 47.7169 222.34 49C223.787 49.62 223.269 49.8129 221.528 50.4613C219.056 51.3817 214.12 53.2199 208.84 58.5C199.84 67.5 184.84 50 184.34 49ZM369.84 100C367.04 101.6 364.673 115.167 365.84 117.5L374.929 106.248C375.826 105.136 376.218 103.65 375.409 102.473C374.146 100.635 371.847 98.8531 369.84 100Z" fill="#FFDD59"/>
</svg>
