<svg width="40" height="40" viewBox="0 0 40 40" fill="none" xmlns="http://www.w3.org/2000/svg">
<path d="M19.7347 4.38748C23.3123 4.3958 26.781 5.60882 29.5724 7.82779H26.1327C25.6093 7.82779 25.1073 8.03397 24.7372 8.40097C24.3671 8.76796 24.1592 9.26572 24.1592 9.78474C24.1592 10.3038 24.3671 10.8015 24.7372 11.1685C25.1073 11.5355 25.6093 11.7417 26.1327 11.7417H34.0265C34.5499 11.7417 35.0519 11.5355 35.422 11.1685C35.7921 10.8015 36 10.3038 36 9.78474V1.95695C36 1.43793 35.7921 0.940175 35.422 0.573177C35.0519 0.206178 34.5499 0 34.0265 0C33.5031 0 33.0012 0.206178 32.6311 0.573177C32.261 0.940175 32.0531 1.43793 32.0531 1.95695V4.79061C29.156 2.4786 25.6582 1.02689 21.9641 0.603309C18.27 0.179726 14.5304 0.801571 11.1777 2.39695C7.82506 3.99233 4.99618 6.49608 3.01816 9.61875C1.04014 12.7414 -0.00622564 16.3555 2.78667e-05 20.0431C2.78667e-05 20.5621 0.207946 21.0598 0.578043 21.4268C0.948139 21.7938 1.4501 22 1.97349 22C2.49689 22 2.99885 21.7938 3.36895 21.4268C3.73904 21.0598 3.94696 20.5621 3.94696 20.0431C3.95166 15.8924 5.61652 11.913 8.57627 8.97804C11.536 6.04306 15.549 4.39214 19.7347 4.38748Z" fill="white"/>
<path d="M38.0266 18C37.5033 18 37.0013 18.2062 36.6312 18.5732C36.2612 18.9402 36.0533 19.4379 36.0533 19.9569C36.0585 22.9053 35.2227 25.795 33.6423 28.2923C32.0618 30.7895 29.8013 32.7925 27.1217 34.0699C24.4422 35.3473 21.4529 35.8469 18.4992 35.5111C15.5454 35.1753 12.7477 34.0178 10.4292 32.1722H13.8668C14.3902 32.1722 14.8921 31.966 15.2622 31.599C15.6322 31.232 15.8402 30.7343 15.8402 30.2153C15.8402 29.6962 15.6322 29.1985 15.2622 28.8315C14.8921 28.4645 14.3902 28.2583 13.8668 28.2583H5.97336C5.44999 28.2583 4.94806 28.4645 4.57798 28.8315C4.20791 29.1985 4 29.6962 4 30.2153V38.0431C4 38.5621 4.20791 39.0598 4.57798 39.4268C4.94806 39.7938 5.44999 40 5.97336 40C6.49673 40 6.99866 39.7938 7.36873 39.4268C7.73881 39.0598 7.94672 38.5621 7.94672 38.0431V35.2094C10.8438 37.5212 14.3415 38.9727 18.0354 39.3962C21.7294 39.8197 25.4688 39.1978 28.8213 37.6025C32.1739 36.0072 35.0027 33.5036 36.9809 30.381C38.9591 27.2585 40.0058 23.6446 40 19.9569C40 19.4379 39.7921 18.9402 39.422 18.5732C39.0519 18.2062 38.55 18 38.0266 18Z" fill="white"/>
</svg>
