<svg width="40" height="40" viewBox="0 0 40 40" fill="none" xmlns="http://www.w3.org/2000/svg">
<path d="M38.0029 24.7791C37.7161 24.3201 37.2449 24.0088 36.7102 23.9221L24.8877 22.0251C24.3323 21.936 23.7683 22.1008 23.3484 22.4731C22.4096 23.3032 21.6565 24.2773 21.1133 25.3528C20.32 24.9013 19.5775 24.3658 18.8621 23.7893L34.2212 8.43018C34.9536 7.69775 34.9536 6.51123 34.2212 5.77881C33.4888 5.0464 32.3022 5.04639 31.5698 5.77881L16.2107 21.1379C15.6342 20.4225 15.0987 19.6799 14.6472 18.8867C15.7227 18.3435 16.6968 17.5903 17.5269 16.6516C17.8992 16.2317 18.0627 15.6665 17.9749 15.1123L16.0779 3.2898C15.9912 2.75514 15.6799 2.28394 15.2209 1.99707C14.375 1.46729 13.4326 1.09253 12.5268 0.909425C11.8249 0.720213 11.0693 0.625 10.2808 0.625C4.95605 0.625 0.625 4.95605 0.625 10.2808C0.625 17.6286 3.36869 24.3442 7.87819 29.4705L1.56982 35.7788C0.8374 36.5112 0.8374 37.6978 1.56982 38.4302C1.93604 38.7964 2.41578 38.9795 2.89551 38.9795C3.37525 38.9795 3.85499 38.7964 4.2212 38.4302L10.5296 32.1218C15.6558 36.6313 22.3714 39.375 29.7192 39.375C35.0439 39.375 39.375 35.0439 39.375 29.7192C39.375 28.9307 39.2798 28.1751 39.1162 27.5793C38.9075 26.5674 38.5327 25.625 38.0029 24.7791ZM4.375 10.2808C4.375 7.02393 7.02393 4.375 10.2808 4.375C10.741 4.375 11.1706 4.42749 11.6614 4.55566C11.9665 4.61914 12.2522 4.70459 12.5244 4.81445L14.1199 14.7583C13.3948 15.3809 12.5501 15.8093 11.637 16.0107C11.0925 16.1304 10.6299 16.4868 10.3748 16.9824C10.1196 17.478 10.0977 18.0615 10.3149 18.5742C11.1227 20.4758 12.2055 22.2294 13.5342 23.8144L10.5441 26.8045C6.71089 22.3625 4.375 16.5944 4.375 10.2808ZM29.7192 35.625C23.4056 35.625 17.6375 33.2891 13.1955 29.4559L16.1856 26.4658C17.7706 27.7945 19.5242 28.8773 21.4258 29.6851C21.9373 29.9011 22.5232 29.8816 23.0176 29.6252C23.5132 29.3701 23.8696 28.9075 23.9893 28.363C24.1907 27.4499 24.6192 26.6052 25.2417 25.8801L35.1831 27.4756C35.2991 27.7625 35.3918 28.0786 35.47 28.4448C35.5725 28.8293 35.625 29.259 35.625 29.7192C35.625 32.9761 32.9761 35.625 29.7192 35.625Z" fill="white"/>
</svg>
