<svg width="42" height="42" viewBox="0 0 42 42" fill="none" xmlns="http://www.w3.org/2000/svg">
<path d="M21 27.25V18.5" stroke="white" stroke-width="3" stroke-miterlimit="10" stroke-linecap="round" stroke-linejoin="round"/>
<path d="M24.75 27.25V18.5" stroke="white" stroke-width="3" stroke-miterlimit="10" stroke-linecap="round" stroke-linejoin="round"/>
<path d="M28.5 27.25V19.75" stroke="white" stroke-width="3" stroke-miterlimit="10" stroke-linecap="round" stroke-linejoin="round"/>
<path d="M29.7501 39.75C31.3751 35.625 32.2501 31.25 32.2501 26.75V20.375C32.2501 19.375 31.3751 18.5 30.3751 18.5C29.3751 18.5 28.5001 19.375 28.5001 20.375V19.125C28.5001 18.125 27.6251 17.25 26.6251 17.25C25.6251 17.25 24.7501 18.125 24.7501 19.125V17.875C24.7501 16.875 23.8751 16 22.8751 16C21.8751 16 21.0001 16.875 21.0001 17.875V19.125C21.0001 18.125 20.1251 17.25 19.1251 17.25C18.1251 17.25 17.2501 18.125 17.2501 19.125V28.5V31.5L14.1251 28.375C13.3751 27.625 12.2501 27.5 11.5001 28.125C10.5001 28.875 10.3751 30.375 11.2501 31.25L19.7501 39.75" stroke="white" stroke-width="2.8" stroke-miterlimit="10" stroke-linecap="round" stroke-linejoin="round"/>
<path d="M32 31C37 31.25 39.7499 28.1448 39.7499 23.1448C39.7499 21.6448 39.3749 20.2698 38.7499 19.0198C37.7499 17.1448 37.6249 15.0198 38.2499 13.1448C38.6249 11.8948 38.7499 10.6448 38.4999 9.2698C37.8749 5.6448 34.9999 2.7698 31.3749 2.1448C29.3749 1.7698 27.3749 2.1448 25.7499 3.0198C23.4999 4.0198 20.9999 4.2698 18.6249 3.5198C17.3749 3.1448 15.8749 3.0198 14.3749 3.2698C10.8749 3.8948 7.99994 6.7698 7.37494 10.2698V10.3948C6.74994 14.2698 5.37494 17.8948 3.37494 21.3948C2.37494 23.1448 1.99994 25.1448 2.37494 27.2698C2.99994 30.7698 5.74994 33.6448 9.24994 34.2698C11 34.2698 10 34.2698 12.5 33.5" stroke="white" stroke-width="3" stroke-miterlimit="10" stroke-linecap="round" stroke-linejoin="round"/>
</svg>
