<svg width="375" height="452" viewBox="0 0 375 452" fill="none" xmlns="http://www.w3.org/2000/svg">
<path d="M0 418.21V24.9803C2.82621 24.1507 5.87019 23.0391 9.28274 21.7929C14.8314 19.7667 21.3544 17.3847 29.5 15.2803C51.0951 9.70132 61.6545 9.80934 75.5951 9.95195C77.8963 9.97549 80.2898 9.99998 82.8401 9.99998C87.4823 9.99998 92.9512 10.2269 98.748 10.4674C115.428 11.1596 134.823 11.9644 145.054 7.79972C151.549 5.15556 157.775 5.36948 164.762 5.60957C172.605 5.87905 181.406 6.18148 192.625 2.51243C213.84 -4.42553 254.84 10.0656 263.413 18.6202C270.381 25.5728 285.79 22.7962 309.301 18.5598C311.923 18.0873 314.646 19.9394 317.469 21.8596C320.479 23.9067 323.603 26.0314 326.84 25.5C350.297 24.1266 359.769 26.7614 367.934 29.0329C370.296 29.69 372.549 30.3167 375 30.8072V421.231C362.225 422.813 348.632 425.845 336.424 431.361C332.479 432.4 324.405 437.357 320.614 441.068C315.558 444.059 311.906 443.223 308.014 442.332C305.822 441.831 303.554 441.311 300.917 441.448C287.834 444.407 277.512 442.691 265.242 440.651C248.271 437.83 227.573 434.389 190.689 441.843C186.922 443.106 174.315 443.094 166.834 441.819C165.47 441.587 162.739 440.777 159.532 439.826C152.791 437.827 143.942 435.204 141.239 436C128.322 439.268 116.677 443.115 107.44 446.167C96.6776 449.723 89.1837 452.199 86.7576 451.418C36.7386 451.418 37.7386 442.5 40.5229 428.522C41.0323 427.923 17.8053 420.544 2.23865 418.5C1.48539 418.401 0.739202 418.305 0 418.21Z" fill="#FFDD59"/>
</svg>
