<svg width="40" height="40" viewBox="0 0 40 40" fill="none" xmlns="http://www.w3.org/2000/svg">
<path d="M20 39.375C30.6836 39.375 39.375 30.6836 39.375 20C39.375 9.31641 30.6836 0.625 20 0.625C9.3164 0.625 0.625 9.31641 0.625 20C0.625 30.6836 9.31641 39.375 20 39.375ZM20 4.375C28.6157 4.375 35.625 11.3843 35.625 20C35.625 28.6157 28.6157 35.625 20 35.625C11.3843 35.625 4.375 28.6157 4.375 20C4.375 11.3843 11.3843 4.375 20 4.375Z" fill="white"/>
<path d="M20 21.875H26.25C27.2858 21.875 28.125 21.0358 28.125 20C28.125 18.9642 27.2858 18.125 26.25 18.125H21.875V9.60938C21.875 8.57361 21.0358 7.73438 20 7.73438C18.9642 7.73438 18.125 8.57361 18.125 9.60938V20C18.125 21.0358 18.9642 21.875 20 21.875Z" fill="white"/>
</svg>
