<svg width="40" height="40" viewBox="0 0 40 40" fill="none" xmlns="http://www.w3.org/2000/svg">
<path d="M15.16 36.0593L18.8367 38.9694C19.1773 39.2392 19.5887 39.3747 20 39.3747C20.4114 39.3747 20.8228 39.2392 21.1634 38.9694L24.8401 36.0593C29.4947 32.3764 32.511 27.1115 33.335 21.2326L35.0428 9.03412C35.1563 8.22357 34.7315 7.43255 33.9917 7.08099L20.8057 0.80658C20.2955 0.56488 19.7046 0.56488 19.1944 0.80658L6.00834 7.08099C5.26859 7.43255 4.84379 8.22358 4.95731 9.03412L6.66508 21.2326C7.48905 27.1115 10.5054 32.3764 15.16 36.0593ZM8.86113 9.8764L20 4.57612L31.139 9.8764L29.6216 20.7126C28.9319 25.6308 26.4075 30.0375 22.5135 33.1198L20 35.1083L17.4866 33.1198C13.5926 30.0375 11.0682 25.6308 10.3785 20.7126L8.86113 9.8764Z" fill="white"/>
<path d="M18.529 21.8747C19.0088 21.8747 19.4885 21.6916 19.8547 21.3254L25.8264 15.3549C26.5588 14.6225 26.5588 13.436 25.8264 12.7036C25.094 11.9712 23.9075 11.9712 23.175 12.7036L18.529 17.3484L16.8249 15.6443C16.0925 14.9118 14.906 14.9118 14.1736 15.6443C13.4412 16.3767 13.4412 17.5632 14.1736 18.2956L17.2034 21.3254C17.5696 21.6916 18.0493 21.8747 18.529 21.8747Z" fill="white"/>
</svg>
