<svg width="40" height="40" viewBox="0 0 40 40" fill="none" xmlns="http://www.w3.org/2000/svg">
<path d="M20 0.625C9.31641 0.625 0.625 9.31641 0.625 20C0.625 30.6836 9.31641 39.375 20 39.375C30.6836 39.375 39.375 30.6836 39.375 20C39.375 9.3164 30.6836 0.625 20 0.625ZM20 35.625C11.3843 35.625 4.375 28.6157 4.375 20C4.375 11.3843 11.3843 4.375 20 4.375C28.6157 4.375 35.625 11.3843 35.625 20C35.625 28.6157 28.6157 35.625 20 35.625Z" fill="white"/>
<path d="M19.6185 14.5252H24.0564C25.0922 14.5252 25.9314 13.6859 25.9314 12.6502C25.9314 11.6144 25.0922 10.7752 24.0564 10.7752H21.8689V10.5249C21.8689 9.48914 21.0297 8.6499 19.9939 8.6499C18.9581 8.6499 18.1189 9.48914 18.1189 10.5249V11.0071C15.7899 11.6663 14.0686 13.7878 14.0686 16.3251C14.0686 17.8088 14.6454 19.2035 15.7056 20.2631C16.7639 21.3025 18.1537 21.875 19.6185 21.875H20.3815C20.8636 21.875 21.3159 22.0618 21.6553 22.4005C21.9946 22.7399 22.1814 23.1928 22.1814 23.6749C22.1814 24.6674 21.3739 25.4749 20.3815 25.4749H15.9436C14.9078 25.4749 14.0686 26.3141 14.0686 27.3499C14.0686 28.3856 14.9078 29.2249 15.9436 29.2249H18.1189V29.4751C18.1189 30.5109 18.9581 31.3501 19.9939 31.3501C21.0297 31.3501 21.8689 30.5109 21.8689 29.4751V28.9967C24.2043 28.3416 25.9314 26.2167 25.9314 23.6749C25.9314 22.1912 25.3546 20.7965 24.3066 19.7491C23.2593 18.7018 21.8652 18.125 20.3815 18.125H19.6185C19.1425 18.125 18.6859 17.934 18.3447 17.5995C18.0054 17.2601 17.8186 16.8073 17.8186 16.3251C17.8186 15.3326 18.6261 14.5252 19.6185 14.5252Z" fill="white"/>
</svg>
