<svg width="12" height="8" viewBox="0 0 12 8" fill="none" xmlns="http://www.w3.org/2000/svg">
<path d="M1.00005 2.59L5.29005 6.83C5.38301 6.92372 5.49362 6.99812 5.61547 7.04889C5.73733 7.09965 5.86804 7.12579 6.00005 7.12579C6.13206 7.12579 6.26277 7.09965 6.38463 7.04889C6.50649 6.99812 6.61709 6.92372 6.71005 6.83L10.9501 2.59C11.0438 2.49703 11.1182 2.38643 11.1689 2.26457C11.2197 2.14271 11.2458 2.01201 11.2458 1.88C11.2458 1.74798 11.2197 1.61728 11.1689 1.49542C11.1182 1.37356 11.0438 1.26296 10.9501 1.17C10.7627 0.983744 10.5092 0.879203 10.2451 0.879203C9.98087 0.879203 9.72741 0.983744 9.54005 1.17L6.00005 4.71L2.46005 1.17C2.27379 0.985251 2.02239 0.8811 1.76005 0.879995C1.62844 0.879234 1.49798 0.904459 1.37614 0.954224C1.25431 1.00399 1.14349 1.07731 1.05005 1.17C0.952976 1.25961 0.874622 1.36758 0.819515 1.48765C0.764408 1.60773 0.733642 1.73754 0.728992 1.86957C0.724343 2.00161 0.745904 2.13325 0.792429 2.25691C0.838954 2.38056 0.90952 2.49377 1.00005 2.59Z" fill="white"/>
</svg>
